<?xml version="1.0" encoding="utf-8"?>
<!-- Generator: Adobe Illustrator 26.5.0, SVG Export Plug-In . SVG Version: 6.00 Build 0)  -->
<svg version="1.1" id="Layer_1" xmlns="http://www.w3.org/2000/svg" xmlns:xlink="http://www.w3.org/1999/xlink" x="0px" y="0px"
	 viewBox="0 0 170 46" style="enable-background:new 0 0 170 46;" xml:space="preserve">
<style type="text/css">
	.st0{fill:#0D4029;}
	.st1{fill:#FFFFFF;}
</style>
<path class="st0" d="M0,12c0-3.73,0-5.59,0.76-7.06C1.76,2.98,3.7,1.42,6.13,0.61C7.95,0,10.26,0,14.89,0h140.22
	c4.63,0,6.94,0,8.76,0.61c2.43,0.81,4.37,2.37,5.37,4.33C170,6.41,170,8.27,170,12v22c0,3.73,0,5.59-0.76,7.06
	c-1,1.96-2.94,3.52-5.37,4.33C162.05,46,159.74,46,155.11,46H14.89c-4.63,0-6.94,0-8.76-0.61c-2.43-0.81-4.37-2.37-5.37-4.33
	C0,39.59,0,37.73,0,34V12z"/>
<path class="st1" d="M101.07,22.08v2.63h-1.64v1.73h1.64v5.87c0,2,0.9,2.81,3.17,2.81c0.4,0,0.78-0.05,1.11-0.1v-1.71
	c-0.28,0.03-0.46,0.05-0.78,0.05c-1.01,0-1.46-0.48-1.46-1.57v-5.35h2.24v-1.73h-2.24v-2.63H101.07z"/>
<path class="st1" d="M111.12,35.26c3.01,0,4.86-2.03,4.86-5.4s-1.86-5.39-4.86-5.39s-4.87,2.04-4.87,5.39S108.1,35.26,111.12,35.26z
	 M111.12,33.44c-1.77,0-2.77-1.31-2.77-3.58s0.99-3.57,2.77-3.57c1.78,0,2.77,1.32,2.77,3.57S112.89,33.44,111.12,33.44z"/>
<path class="st1" d="M117.56,35.06h2.04v-6.14c0-1.46,1.09-2.44,2.63-2.44c0.36,0,0.97,0.07,1.14,0.12v-2.02
	c-0.22-0.06-0.61-0.09-0.91-0.09c-1.35,0-2.49,0.74-2.79,1.77h-0.15v-1.59h-1.96V35.06L117.56,35.06z"/>
<path class="st1" d="M128.43,26.21c1.51,0,2.49,1.06,2.54,2.69h-5.21C125.87,27.28,126.93,26.21,128.43,26.21z M130.96,32.25
	c-0.38,0.81-1.22,1.26-2.45,1.26c-1.63,0-2.68-1.16-2.75-2.98v-0.11h7.29V29.7c0-3.26-1.73-5.24-4.6-5.24
	c-2.87,0-4.76,2.11-4.76,5.43s1.81,5.36,4.77,5.36c2.36,0,4.01-1.15,4.47-3.01L130.96,32.25L130.96,32.25z"/>
<path class="st1" d="M87.71,31.22c0.16,2.55,2.27,4.19,5.41,4.19c3.36,0,5.46-1.71,5.46-4.44c0-2.15-1.2-3.33-4.11-4.02l-1.56-0.39
	c-1.85-0.44-2.59-1.02-2.59-2.04c0-1.29,1.16-2.13,2.9-2.13s2.79,0.82,3,2.14h2.14c-0.13-2.4-2.23-4.1-5.11-4.1
	c-3.09,0-5.16,1.69-5.16,4.23c0,2.1,1.17,3.34,3.73,3.95l1.83,0.45c1.88,0.45,2.7,1.1,2.7,2.19c0,1.27-1.3,2.19-3.06,2.19
	c-1.9,0-3.21-0.86-3.4-2.22H87.71z"/>
<path class="st1" d="M66.61,24.5c-1.4,0-2.62,0.71-3.24,1.89h-0.15v-1.72h-1.96v13.85h2.04v-5.03h0.16c0.54,1.1,1.71,1.75,3.17,1.75
	c2.61,0,4.26-2.07,4.26-5.37c0-3.3-1.66-5.36-4.28-5.36V24.5z M66.03,33.4c-1.71,0-2.78-1.36-2.78-3.52s1.07-3.53,2.79-3.53
	s2.76,1.33,2.76,3.52S67.77,33.4,66.03,33.4z"/>
<path class="st1" d="M78.02,24.5c-1.4,0-2.61,0.71-3.24,1.89h-0.15v-1.72h-1.96v13.85h2.04v-5.03h0.16c0.54,1.1,1.71,1.75,3.17,1.75
	c2.61,0,4.26-2.07,4.26-5.37c0-3.3-1.66-5.36-4.28-5.36V24.5z M77.44,33.4c-1.71,0-2.78-1.36-2.78-3.52s1.07-3.53,2.79-3.53
	s2.76,1.33,2.76,3.52S79.18,33.4,77.44,33.4z"/>
<path class="st1" d="M57.6,35.06h2.34l-5.12-14.28h-2.37l-5.12,14.28h2.26l1.31-3.79h5.4L57.6,35.06z M53.52,23.38h0.17l2.05,6.04
	h-4.28L53.52,23.38z"/>
<path class="st1" d="M48.7,10.02v6.89h2.47c2.04,0,3.22-1.26,3.22-3.47s-1.19-3.42-3.22-3.42H48.7z M49.76,10.99h1.29
	c1.42,0,2.26,0.91,2.26,2.46s-0.82,2.48-2.26,2.48h-1.29V10.99z"/>
<path class="st1" d="M58,17.01c1.51,0,2.43-1.02,2.43-2.7s-0.93-2.7-2.43-2.7s-2.44,1.02-2.44,2.7S56.48,17.01,58,17.01z M58,16.1
	c-0.89,0-1.38-0.65-1.38-1.79s0.5-1.79,1.38-1.79s1.38,0.66,1.38,1.79S58.88,16.1,58,16.1z"/>
<path class="st1" d="M68.3,11.71h-1.02l-0.92,3.97h-0.08l-1.06-3.97h-0.98l-1.06,3.97H63.1l-0.92-3.97h-1.03l1.42,5.2h1.05
	l1.06-3.83h0.08l1.07,3.83h1.06L68.3,11.71L68.3,11.71z"/>
<path class="st1" d="M69.47,16.91h1.02v-3.04c0-0.81,0.48-1.32,1.23-1.32s1.11,0.42,1.11,1.25v3.11h1.02v-3.37
	c0-1.24-0.64-1.93-1.79-1.93c-0.78,0-1.29,0.35-1.54,0.93h-0.07v-0.83h-0.98V16.91z"/>
<path class="st1" d="M75.46,16.91h1.02V9.68h-1.02V16.91z"/>
<path class="st1" d="M80.31,17.01c1.51,0,2.43-1.02,2.43-2.7s-0.93-2.7-2.43-2.7s-2.43,1.02-2.43,2.7S78.8,17.01,80.31,17.01z
	 M80.31,16.1c-0.89,0-1.38-0.65-1.38-1.79s0.5-1.79,1.38-1.79c0.88,0,1.38,0.66,1.38,1.79S81.19,16.1,80.31,16.1z"/>
<path class="st1" d="M85.78,16.13c-0.55,0-0.96-0.27-0.96-0.74c0-0.47,0.32-0.7,1.03-0.75l1.26-0.08v0.43
	C87.11,15.63,86.54,16.13,85.78,16.13L85.78,16.13z M85.52,16.99c0.68,0,1.24-0.3,1.55-0.82h0.08v0.73h0.98v-3.55
	c0-1.1-0.73-1.75-2.02-1.75c-1.17,0-2,0.57-2.11,1.47h0.99c0.11-0.37,0.51-0.58,1.08-0.58c0.7,0,1.06,0.31,1.06,0.86v0.45l-1.4,0.08
	c-1.23,0.08-1.92,0.62-1.92,1.55S84.54,16.99,85.52,16.99L85.52,16.99z"/>
<path class="st1" d="M91.58,16.99c0.71,0,1.31-0.34,1.62-0.91h0.08v0.82h0.98V9.67h-1.02v2.85h-0.08c-0.28-0.57-0.88-0.91-1.58-0.91
	c-1.3,0-2.14,1.04-2.14,2.68s0.83,2.69,2.14,2.69V16.99z M91.87,12.54c0.85,0,1.39,0.68,1.39,1.77s-0.53,1.76-1.39,1.76
	c-0.86,0-1.38-0.66-1.38-1.77S91.01,12.54,91.87,12.54z"/>
<path class="st1" d="M100.87,17.01c1.51,0,2.43-1.02,2.43-2.7s-0.93-2.7-2.43-2.7c-1.5,0-2.43,1.02-2.43,2.7
	S99.36,17.01,100.87,17.01z M100.87,16.1c-0.89,0-1.38-0.65-1.38-1.79s0.5-1.79,1.38-1.79c0.88,0,1.38,0.66,1.38,1.79
	S101.75,16.1,100.87,16.1z"/>
<path class="st1" d="M104.65,16.91h1.02v-3.04c0-0.81,0.48-1.32,1.23-1.32s1.11,0.42,1.11,1.25v3.11h1.02v-3.37
	c0-1.24-0.63-1.93-1.79-1.93c-0.78,0-1.29,0.35-1.54,0.93h-0.08v-0.83h-0.98v5.2H104.65z"/>
<path class="st1" d="M113.72,10.41v1.32h-0.82v0.86h0.82v2.94c0,1,0.45,1.4,1.58,1.4c0.2,0,0.39-0.02,0.55-0.05v-0.85
	c-0.14,0.01-0.23,0.02-0.39,0.02c-0.51,0-0.73-0.24-0.73-0.78V12.6h1.12v-0.86h-1.12v-1.32h-1.02L113.72,10.41z"/>
<path class="st1" d="M117.23,16.91h1.02v-3.04c0-0.79,0.46-1.32,1.3-1.32c0.72,0,1.1,0.42,1.1,1.25v3.1h1.02v-3.36
	c0-1.24-0.68-1.94-1.78-1.94c-0.78,0-1.32,0.35-1.57,0.93h-0.08V9.67h-1.01v7.23V16.91z"/>
<path class="st1" d="M125.34,12.48c0.75,0,1.25,0.53,1.27,1.35H124C124.06,13.02,124.58,12.48,125.34,12.48z M126.6,15.5
	c-0.19,0.41-0.61,0.63-1.23,0.63c-0.82,0-1.34-0.58-1.37-1.49v-0.06h3.64v-0.36c0-1.63-0.87-2.62-2.3-2.62
	c-1.43,0-2.38,1.05-2.38,2.72s0.9,2.68,2.38,2.68c1.18,0,2.01-0.57,2.24-1.5H126.6z"/>
<path class="st1" d="M36.28,23.35c0.02-1.93,1.06-3.76,2.69-4.77c-1.03-1.48-2.76-2.42-4.56-2.48c-1.92-0.2-3.78,1.16-4.75,1.16
	c-0.97,0-2.5-1.14-4.12-1.1c-2.11,0.07-4.08,1.28-5.11,3.14c-2.21,3.85-0.56,9.51,1.55,12.62c1.06,1.52,2.29,3.23,3.91,3.17
	c1.58-0.07,2.17-1.02,4.09-1.02s2.45,1.02,4.1,0.98c1.7-0.03,2.77-1.53,3.79-3.07c0.76-1.09,1.35-2.29,1.73-3.56
	c-2-0.85-3.33-2.88-3.33-5.06L36.28,23.35z"/>
<path class="st1" d="M33.16,14.04c0.93-1.12,1.38-2.56,1.27-4.01c-1.42,0.15-2.72,0.83-3.66,1.91c-0.92,1.05-1.4,2.47-1.31,3.87
	c1.42,0.01,2.81-0.65,3.7-1.76V14.04z"/>
</svg>
