<svg width="101" height="25" viewBox="0 0 101 25" fill="none" xmlns="http://www.w3.org/2000/svg">
<path d="M56.8065 7.09301C55.3144 7.09301 53.5315 7.62463 51.8258 9.46991C50.12 7.62463 48.3239 7.09301 46.8451 7.09301C46.8451 7.09301 41.1433 6.66345 41.1433 13.3264V24.1095H45.2774V13.9329C45.2774 10.9502 47.2754 10.8856 47.666 10.9745C47.666 10.9745 48.3871 11.0127 49.0435 11.6955C49.0435 11.6955 47.7284 13.4153 47.6278 15.5763C47.6278 15.5763 47.3378 21.1774 51.825 21.1774C56.3123 21.1774 56.0222 15.5763 56.0222 15.5763C55.9216 13.4153 54.6065 11.6955 54.6065 11.6955C55.2637 11.0127 55.9841 10.9745 55.9841 10.9745C56.363 10.8856 58.3727 10.9488 58.3727 13.9329V24.1095H62.5068V13.3264C62.4943 6.66418 56.805 7.09301 56.805 7.09301H56.8065ZM51.8133 18.1419C50.9292 18.1419 50.637 17.0302 50.6252 15.9669C50.5995 14.1216 51.8015 12.7933 51.8133 12.7683C51.839 12.794 53.0278 14.1216 53.0014 15.9669C53.0014 17.0287 52.6974 18.1419 51.8133 18.1419Z" fill="white"/>
<path d="M38.825 7.37134H34.6909V24.122H38.825V7.37134Z" fill="white"/>
<path d="M36.7622 0.113281C35.3847 0.113281 34.2465 1.225 34.2465 2.59078C34.2465 3.95656 35.3722 5.10646 36.7622 5.10646C38.1522 5.10646 39.2397 3.98079 39.2397 2.59078C39.2397 1.20077 38.1155 0.113281 36.7622 0.113281Z" fill="white"/>
<path d="M21.5995 8.49501V0H17.5029V24.1215H21.5995V12.0475C28.3888 8.74834 28.1355 13.9692 28.1355 13.9692V24.1215H32.2438V13.9692C32.2313 4.15902 23.6599 7.39505 21.5995 8.49501Z" fill="white"/>
<path d="M68.1954 16.5618C70.3946 17.3328 73.1885 17.2704 73.1885 17.2704C79.8133 17.2322 79.6239 12.4168 79.6239 12.4168C79.4586 6.99328 73.0879 7.09388 73.0879 7.09388C67.8157 7.09388 64.1237 10.7088 64.1237 15.8804C64.1237 21.052 67.7394 24.3894 73.3273 24.3894C75.7035 24.3894 77.9673 23.7322 79.5468 22.5808V18.5988C77.8909 20.0269 75.9054 20.7862 73.8068 20.7862C73.8193 20.7862 68.0793 21.0763 68.1939 16.5633L68.1954 16.5618ZM68.7013 13.035C69.3959 11.2771 70.8381 10.3549 72.886 10.3549C74.5683 10.3549 75.5412 11.0635 75.5412 12.1877C75.5412 13.7686 73.7583 13.9074 72.0893 13.9074C70.4203 13.9074 69.4348 13.7304 68.9796 13.6173L68.5368 13.5167L68.7013 13.0358V13.035Z" fill="white"/>
<path d="M9.0252 24.3878C11.933 24.3878 13.9934 23.2878 15.2204 22.3655V18.3578C13.4119 19.786 11.289 20.6077 9.4041 20.6077C6.39497 20.6077 4.28462 18.5347 4.28462 15.5506C4.28462 12.5664 6.20626 10.7469 8.94884 10.7469C9.84687 10.7469 10.6179 10.9745 11.4396 11.2021C12.2869 11.4422 13.1717 11.7073 14.221 11.7073C14.5493 11.7073 14.8782 11.6816 15.2079 11.6309V7.81262C14.9296 7.83833 14.6646 7.86329 14.3863 7.86329C13.4376 7.86329 12.5777 7.68633 11.6811 7.49688C10.7324 7.29495 9.75949 7.09229 8.60959 7.09229C6.32154 7.09229 4.19724 7.90147 2.64201 9.39282C0.983246 10.9745 0.0991592 13.1737 0.0991592 15.74C0.0991592 20.8353 3.76474 24.3878 9.0252 24.3878Z" fill="white"/>
<path d="M94.5257 13.4587H100.099V15.8031C100.099 16.8761 99.2292 17.7459 98.1562 17.7459H94.5257V13.4587Z" fill="white"/>
<path d="M83.2642 15.401C83.2642 14.3281 84.134 13.4583 85.207 13.4583H93.8749V17.7454H83.2642V15.401Z" fill="#0D4029"/>
<path d="M89.5817 24.0688L89.5817 13.4581L93.8689 13.4581L93.8689 22.126C93.8689 23.199 92.9991 24.0688 91.9261 24.0688L89.5817 24.0688Z" fill="#0D4029"/>
<path d="M89.5956 12.8157L89.5956 9.18516C89.5956 8.11218 90.4654 7.24236 91.5384 7.24236L93.7756 7.24236L93.7756 12.8157L89.5956 12.8157Z" fill="white"/>
</svg>
