<svg width="80" height="25" viewBox="0 0 80 25" fill="none" xmlns="http://www.w3.org/2000/svg">
<path d="M57.055 7.1365C55.5539 7.1365 53.7602 7.67134 52.0442 9.52775C50.3281 7.67134 48.5212 7.1365 47.0334 7.1365C47.0334 7.1365 41.2972 6.70434 41.2972 13.4075V24.2557H45.4562V14.0177C45.4562 11.017 47.4663 10.952 47.8593 11.0414C47.8593 11.0414 48.5847 11.0798 49.2451 11.7668C49.2451 11.7668 47.9221 13.4969 47.8209 15.671C47.8209 15.671 47.5291 21.306 52.0434 21.306C56.5578 21.306 56.266 15.671 56.266 15.671C56.1648 13.4969 54.8417 11.7668 54.8417 11.7668C55.5029 11.0798 56.2276 11.0414 56.2276 11.0414C56.6088 10.952 58.6307 11.0155 58.6307 14.0177V24.2557H62.7897V13.4075C62.7771 6.70508 57.0535 7.1365 57.0535 7.1365H57.055ZM52.0316 18.2521C51.1422 18.2521 50.8482 17.1337 50.8364 16.064C50.8105 14.2076 52.0198 12.8712 52.0316 12.8461C52.0575 12.872 53.2535 14.2076 53.2269 16.064C53.2269 17.1322 52.9211 18.2521 52.0316 18.2521Z" fill="#1EC677"/>
<path d="M38.9567 7.41553H34.7976V24.2673H38.9567V7.41553Z" fill="#1EC677"/>
<path d="M36.8839 0.114258C35.4981 0.114258 34.353 1.23269 34.353 2.60672C34.353 3.98075 35.4855 5.1376 36.8839 5.1376C38.2823 5.1376 39.3764 4.00513 39.3764 2.60672C39.3764 1.20831 38.2454 0.114258 36.8839 0.114258Z" fill="#1EC677"/>
<path d="M21.6352 8.54657V0.000244141H17.5138V24.2674H21.6352V12.1205C28.4655 8.80143 28.2106 14.0538 28.2106 14.0538V24.2674H32.3438V14.0538C32.3312 4.18439 23.7081 7.43996 21.6352 8.54657Z" fill="#1EC677"/>
<path d="M68.5019 16.662C70.7144 17.4376 73.5252 17.3749 73.5252 17.3749C80.19 17.3364 79.9994 12.4919 79.9994 12.4919C79.8332 7.03564 73.424 7.13685 73.424 7.13685C68.12 7.13685 64.4057 10.7736 64.4057 15.9764C64.4057 21.1793 68.0431 24.5368 73.6649 24.5368C76.0554 24.5368 78.3329 23.8756 79.9219 22.7173V18.7112C78.256 20.148 76.2585 20.9119 74.1472 20.9119C74.1598 20.9119 68.3852 21.2037 68.5004 16.6635L68.5019 16.662ZM69.0109 13.1139C69.7097 11.3454 71.1606 10.4175 73.2209 10.4175C74.9133 10.4175 75.8921 11.1304 75.8921 12.2614C75.8921 13.8519 74.0985 13.9915 72.4194 13.9915C70.7402 13.9915 69.7489 13.8135 69.2909 13.6997L68.8454 13.5985L69.0109 13.1146V13.1139Z" fill="#1EC677"/>
<path d="M8.97996 24.535C11.9053 24.535 13.9782 23.4284 15.2126 22.5005V18.4685C13.3931 19.9054 11.2574 20.732 9.36114 20.732C6.33384 20.732 4.21074 18.6466 4.21074 15.6444C4.21074 12.6422 6.14399 10.8117 8.90313 10.8117C9.80659 10.8117 10.5823 11.0407 11.4089 11.2697C12.2614 11.5112 13.1515 11.7779 14.2072 11.7779C14.5374 11.7779 14.8683 11.752 15.2 11.7011V7.8597C14.9201 7.88556 14.6534 7.91067 14.3734 7.91067C13.419 7.91067 12.5539 7.73264 11.6519 7.54205C10.6975 7.3389 9.71868 7.13501 8.56184 7.13501C6.25997 7.13501 4.12283 7.94909 2.55821 9.44944C0.889426 11.0407 0 13.2531 0 15.835C0 20.961 3.68772 24.535 8.97996 24.535Z" fill="#1EC677"/>
</svg>
