<svg width="216" height="31" viewBox="0 0 216 31" fill="none" xmlns="http://www.w3.org/2000/svg">
<path d="M189.637 4.01496C189.637 1.89798 190.294 1.16799 191.389 1.16799C192.484 1.16799 193.36 1.60598 194.382 4.01496L200.587 18.1038V27.0097C200.587 29.1267 199.711 29.7107 197.302 30.0027V30.5867H208.763V30.0027C206.281 29.7107 205.478 29.0537 205.478 27.0097V18.1038L211.463 4.52595C212.631 1.89798 213.799 1.31399 215.551 1.02199V0.437996H207.157V1.02199C210.003 1.31399 211.025 2.11698 210.223 4.01496L204.967 16.0598L199.565 3.72296C198.835 2.04398 199.273 1.53298 202.412 1.09499V0.510995H184.381V1.09499C187.228 1.53298 188.104 2.04398 188.104 4.08796V20.5858L174.891 0.510995H168.394V1.09499C170.511 1.38699 171.168 2.04398 171.168 4.08796V27.0827C171.168 29.1997 170.584 29.9297 169.854 29.9297C169.197 29.9297 168.832 29.6377 167.883 27.0827L158.101 0.364996H157.517L148.1 25.9147C147.078 28.7617 145.472 29.7107 143.866 30.0757V30.6597H152.48V30.0757C149.487 29.7837 148.538 28.6157 149.195 26.7177L151.312 20.8778H160.218L162.262 26.3527C163.138 28.8347 162.627 29.5647 160.072 30.0027V30.5867H176.424V30.0027C173.577 29.5647 172.701 29.0537 172.701 27.0097V6.42393L188.688 30.6597H189.637V4.01496ZM74.3709 15.4758C74.3709 6.13194 78.8238 1.24099 84.0068 1.24099C87.0727 1.24099 89.0437 1.89798 90.2117 3.13897C91.0877 4.01496 91.7447 5.25595 92.4747 7.22693H93.0587V0.94899C90.0657 0.364996 87.3647 0 84.6638 0C76.8528 0 68.7499 5.03695 68.7499 15.4758C68.7499 25.9147 76.8528 30.9517 84.1528 30.9517C87.3647 30.9517 90.2117 30.4407 92.9127 29.6377L93.7887 23.7248L93.2777 23.5788C92.6207 24.8197 91.8177 25.9147 90.9417 26.8637C89.0437 28.7617 86.4887 29.7837 83.9338 29.7837C78.9698 29.7107 74.3709 24.9657 74.3709 15.4758ZM139.121 16.3518C138.464 16.3518 137.588 16.2788 136.712 16.1328V1.53298H139.121C143.136 1.53298 144.888 3.64996 144.888 8.90591C144.888 14.2349 143.063 16.3518 139.121 16.3518ZM45.3172 0.437996V7.66492H45.9011C46.7771 3.06597 48.6021 1.60598 51.6681 1.60598H53.1281V27.0097C53.1281 29.1267 52.2521 29.7107 49.8431 30.0027V30.5867H61.304V30.0027C58.822 29.7107 58.019 29.0537 58.019 27.0097V1.53298H59.479C62.545 1.53298 64.37 2.99297 65.246 7.59192H65.8299V0.364996H45.3172V0.437996ZM36.1922 30.9517C41.1562 30.9517 46.4121 28.1047 46.4121 22.2648C46.4121 18.8338 44.5872 15.9868 41.3752 14.2349L35.6813 11.0959C32.6883 9.4169 31.8123 7.88392 31.8123 5.69394C31.8123 3.21197 33.6373 1.24099 37.0682 1.24099C38.7472 1.24099 39.9882 1.67898 41.0102 2.62797C41.8862 3.50396 42.7622 4.96395 43.5652 7.59192H44.0762V0.94899C42.0322 0.364996 39.9152 0 37.4332 0C32.5423 0 28.8923 3.06597 28.8923 8.24892C28.8923 11.5339 30.7173 14.5269 33.7103 16.2788L38.9662 19.1988C41.9592 20.8778 42.9082 22.4838 42.9082 24.8927C42.9082 27.7397 39.9882 29.7837 36.7762 29.7837C34.6593 29.7837 32.9073 29.0537 31.6663 27.8127C30.8633 27.0097 29.9873 25.7687 29.4033 24.1628H32.8343V23.5788C31.8853 23.3598 31.3013 23.2138 30.4983 21.3158L23.7824 5.32895H23.1984L16.6284 20.9508C15.7525 23.0678 15.1685 23.4328 14.1465 23.5788V24.1628H19.9864V23.5788C17.8694 23.3598 17.2854 22.3378 17.7964 21.0238L18.8184 18.5418H24.7314L26.0454 21.6078C26.6293 22.9948 25.7534 23.3598 23.6364 23.5058V24.0898H28.3083V29.8567C30.6443 30.5137 33.6373 30.9517 36.1922 30.9517ZM110.359 30.6597L119.046 6.49693L119.703 27.0827C119.776 29.1267 118.973 29.7107 116.491 30.0027V30.5867H140.435V30.0027C137.588 29.5647 136.712 29.0537 136.712 27.0097V17.3008C137.661 17.4468 138.61 17.5198 139.34 17.5198C145.107 17.5198 150.071 15.4028 150.071 8.97891C150.071 2.55497 145.107 0.437996 139.34 0.437996H129.047V1.02199C131.164 1.31399 131.821 1.97098 131.821 4.01496V27.0097C131.821 29.1267 130.945 30.0027 128.536 30.0027H128.463C125.908 30.0027 124.813 29.0537 124.74 27.0827L123.864 4.08796C123.791 1.97098 124.521 1.31399 126.784 1.02199V0.437996H119.703L111.965 22.1188L104.228 0.437996H96.6356V1.02199C98.8986 1.31399 99.6286 2.04398 99.5556 4.08796L98.7526 26.1337C98.6796 28.3237 97.5116 29.6377 95.3946 30.0027V30.5867H103.425V30.0027C101.381 29.7107 100.213 28.3967 100.286 26.1337L100.943 6.05894L109.776 30.5867L110.359 30.6597ZM87.0727 24.3088C90.9417 24.3088 95.9057 20.8778 95.9057 15.4758C95.9057 10.1469 91.0147 6.64293 87.0727 6.64293C83.2038 6.64293 78.2398 10.0739 78.2398 15.4758C78.2398 20.8048 83.1308 24.3088 87.0727 24.3088ZM87.0727 7.88392C89.5547 7.88392 91.2337 9.9279 91.2337 15.4758C91.2337 21.0968 89.4817 23.0678 87.0727 23.0678C84.5908 23.0678 82.9118 21.0238 82.9118 15.4758C82.9118 9.8549 84.5908 7.88392 87.0727 7.88392ZM159.853 19.6368H151.75L155.765 8.54091L159.853 19.6368ZM24.3664 17.3738H19.4024L21.8844 11.3149L24.3664 17.3738ZM14.8765 18.9068H15.4605V9.8549H14.8765C13.9275 13.0669 12.9785 13.7969 11.2265 13.7969H7.86854V1.53298H13.1975C16.2635 1.53298 18.0884 2.99297 18.9644 7.59192H19.5484V0.364996H0.203613V0.94899C2.32059 1.24099 2.97759 1.89798 2.97759 3.94196V26.9367C2.97759 29.0537 2.32059 29.6377 0.203613 29.9297V30.5137H11.5915V29.9297C8.74453 29.4917 7.86854 28.9807 7.86854 26.9367V14.8918H11.2265C12.9055 14.9648 13.9275 15.6948 14.8765 18.9068Z" fill="#1D3F2B"/>
</svg>
