<svg width="91" height="15" viewBox="0 0 91 15" fill="none" xmlns="http://www.w3.org/2000/svg">
<path d="M0.17 14V1.022H8.882V3.128H2.582V6.224H7.676V8.348H2.582V14H0.17ZM8.89072 9.32C8.89072 6.89 10.3847 4.514 13.4447 4.514C16.5047 4.514 17.9807 6.818 17.9807 9.068C17.9807 9.446 17.9447 9.896 17.9447 9.896H11.1227C11.3207 11.39 12.2567 12.236 13.6247 12.236C14.6687 12.236 15.4607 11.768 15.6767 10.94H17.9267C17.6207 12.974 15.8747 14.144 13.5707 14.144C10.4927 14.144 8.89072 11.768 8.89072 9.32ZM11.1947 8.186H15.5327C15.4427 7.07 14.7227 6.242 13.4447 6.242C12.2747 6.242 11.4827 6.944 11.1947 8.186ZM22.2561 14.144C20.3661 14.144 18.9981 13.01 18.9981 11.444C18.9981 9.806 20.1861 8.798 22.2561 8.528L24.1281 8.276C24.6321 8.204 24.8841 7.952 24.8841 7.538C24.8841 6.854 24.2181 6.278 23.1201 6.278C22.0941 6.278 21.3201 6.818 21.2481 7.772H19.0521C19.2681 5.774 20.7801 4.514 23.1201 4.514C25.5861 4.514 27.1521 5.918 27.1521 8.132V11.426C27.1521 11.948 27.3501 12.182 27.7281 12.182C27.8541 12.182 28.0341 12.146 28.0341 12.146V14C28.0341 14 27.4941 14.108 26.9541 14.108C26.0001 14.108 25.2981 13.658 25.1901 12.776C24.7761 13.604 23.6421 14.144 22.2561 14.144ZM22.6341 12.416C24.0921 12.416 24.9381 11.372 24.9381 9.968V9.698L22.6341 10.076C21.7161 10.22 21.2661 10.652 21.2661 11.336C21.2661 11.966 21.8061 12.416 22.6341 12.416ZM34.2482 4.658V6.548H32.0702V10.814C32.0702 11.696 32.6102 12.182 33.3662 12.182C33.7082 12.182 34.0682 12.11 34.2482 12.056V14.018C34.0322 14.072 33.6002 14.144 33.0962 14.144C31.1702 14.144 29.8022 13.136 29.8022 11.048V6.548H28.2182V4.658H29.8022V1.904H32.0702V4.658H34.2482ZM44.1709 4.658V14H41.9029V12.56C41.2909 13.514 40.2289 14.144 38.9149 14.144C36.8989 14.144 35.5309 12.812 35.5309 10.778V4.658H37.7809V10.256C37.7809 11.354 38.4829 12.128 39.5809 12.128C41.0569 12.128 41.9029 10.868 41.9029 8.762V4.658H44.1709ZM51.8562 6.728C51.6582 6.692 51.3342 6.62 50.9562 6.62C49.6422 6.62 48.4182 7.754 48.4182 10.562V14H46.1502V4.658H48.4182V6.368C48.8322 5.306 50.0922 4.514 51.2262 4.514C51.5502 4.514 51.7482 4.55 51.8562 4.568V6.728ZM52.0978 9.32C52.0978 6.89 53.5918 4.514 56.6518 4.514C59.7118 4.514 61.1878 6.818 61.1878 9.068C61.1878 9.446 61.1518 9.896 61.1518 9.896H54.3298C54.5278 11.39 55.4638 12.236 56.8318 12.236C57.8758 12.236 58.6678 11.768 58.8838 10.94H61.1338C60.8278 12.974 59.0818 14.144 56.7778 14.144C53.6998 14.144 52.0978 11.768 52.0978 9.32ZM54.4018 8.186H58.7398C58.6498 7.07 57.9298 6.242 56.6518 6.242C55.4818 6.242 54.6898 6.944 54.4018 8.186ZM66.6872 14.144C63.8972 14.144 62.2232 12.164 62.2232 9.32C62.2232 6.476 63.9152 4.514 66.6512 4.514C67.8032 4.514 68.8112 5 69.3512 5.72V0.877999H71.6192V14H69.3512V12.902C68.9192 13.604 67.8932 14.144 66.6872 14.144ZM67.0112 12.182C68.5052 12.182 69.4952 11.048 69.4952 9.32C69.4952 7.61 68.5052 6.476 67.0112 6.476C65.5172 6.476 64.5272 7.61 64.5272 9.32C64.5272 11.03 65.5172 12.182 67.0112 12.182ZM77.2459 14V4.658H79.5139V14H77.2459ZM77.1559 0.877999H79.6219V3.254H77.1559V0.877999ZM81.4822 14V4.658H83.7502V6.098C84.3622 5.144 85.4242 4.514 86.7382 4.514C88.7542 4.514 90.1222 5.846 90.1222 7.88V14H87.8722V8.402C87.8722 7.304 87.1702 6.53 86.0722 6.53C84.5962 6.53 83.7502 7.79 83.7502 9.896V14H81.4822Z" fill="#1D3F2B"/>
</svg>
