<?xml version="1.0" encoding="utf-8"?>
<!-- Generator: Adobe Illustrator 26.5.0, SVG Export Plug-In . SVG Version: 6.00 Build 0)  -->
<svg version="1.1" id="Layer_1" xmlns="http://www.w3.org/2000/svg" xmlns:xlink="http://www.w3.org/1999/xlink" x="0px" y="0px"
	 viewBox="0 0 83.99 21.1" style="enable-background:new 0 0 83.99 21.1;" xml:space="preserve">
<style type="text/css">
	.st0{fill-rule:evenodd;clip-rule:evenodd;fill:#0D4029;}
</style>
<path class="st0" d="M51.18,5.99c-1.36,0-2.4,0.27-3.49,0.86c0-3.09,0-5.9,0.09-6.85l-6.44,1.18v0.59l0.68,0.05
	C42.88,2,43.19,2.5,43.38,3.63c0.18,2.31,0.09,14.7,0,16.7c1.72,0.41,3.58,0.68,5.4,0.68c5.13,0,8.21-3.18,8.21-8.21
	C56.99,8.89,54.49,5.99,51.18,5.99z M49,20.01c-0.41,0-0.86,0-1.18-0.09c-0.09-1.36-0.18-7.03-0.09-12.07
	c0.59-0.18,0.95-0.27,1.45-0.27c2.13,0,3.27,2.5,3.27,5.58C52.45,17.02,51,20.01,49,20.01z"/>
<path class="st0" d="M17.02,0.41H0v0.86l0.95,0.09C2.22,1.54,2.72,2.31,2.9,4.17c0.27,3.49,0.18,9.76,0,12.75
	c-0.18,1.82-0.68,2.72-1.95,2.81L0,19.92v0.77h10.94v-0.77l-1.18-0.18c-1.27-0.09-1.72-0.95-1.95-2.81
	c-0.09-1.27-0.18-3.27-0.18-5.81l2.31,0.09c1.45,0,2.13,1.18,2.4,2.81h0.86V7.17h-0.86c-0.27,1.63-0.95,2.81-2.4,2.81l-2.31,0.09
	c0-3.27,0.09-6.4,0.18-8.21h3.4c2.63,0,3.95,1.63,4.95,4.54l0.95-0.27L17.02,0.41z"/>
<path class="st0" d="M22.51,5.81c4.81,0,7.26,3.27,7.26,7.62c0,4.17-2.72,7.62-7.53,7.62s-7.26-3.27-7.26-7.62
	C14.97,9.26,17.7,5.81,22.51,5.81z M22.23,6.76c-2.13,0-2.72,2.9-2.72,6.67c0,3.68,0.95,6.67,2.9,6.67c2.22,0,2.81-2.9,2.81-6.67
	C25.23,9.76,24.23,6.76,22.23,6.76z"/>
<path class="st0" d="M58.26,13.52c0-3.95,2.5-7.71,7.44-7.71c4.04,0,5.99,2.99,5.99,6.94h-8.98c-0.09,3.58,1.63,6.17,5.13,6.17
	c1.54,0,2.31-0.41,3.27-1.04l0.41,0.5c-0.95,1.36-3.09,2.72-5.81,2.72C61.35,21.05,58.26,17.97,58.26,13.52z M62.71,11.71l4.54-0.09
	c0-1.95-0.27-4.81-1.95-4.81C63.66,6.76,62.8,9.48,62.71,11.71z"/>
<path class="st0" d="M83.17,6.58c-1.18-0.5-2.72-0.77-4.45-0.77c-3.58,0-5.81,2.13-5.81,4.63c0,2.5,1.63,3.58,3.95,4.36
	c2.4,0.86,3.09,1.54,3.09,2.72c0,1.18-0.86,2.22-2.4,2.22c-1.82,0-3.18-1.04-4.27-3.95l-0.68,0.18l0.09,4.27
	c1.18,0.5,3.27,0.86,5.13,0.86c3.77,0,6.17-1.95,6.17-4.95c0-2.04-1.04-3.18-3.58-4.17c-2.72-1.04-3.68-1.72-3.68-2.99
	c0-1.27,0.86-2.13,2.04-2.13c1.72,0,2.9,1.04,3.77,3.68l0.68-0.18L83.17,6.58z"/>
<path class="st0" d="M42.33,6.17c-1.63-0.95-4.54-0.5-6.08,2.99l0.09-3.4l-6.49,1.27v0.59l0.68,0.09C31.4,7.8,31.81,8.3,31.9,9.53
	c0.18,2.31,0.09,6.4,0,8.39c-0.09,1.18-0.5,1.72-1.36,1.81l-0.68,0.09v0.77h8.98v-0.77l-1.18-0.05c-0.95-0.09-1.27-0.68-1.36-1.81
	c-0.18-1.81-0.18-5.49-0.09-7.8c0.5-0.68,2.59-1.27,4.54,0L42.33,6.17z"/>
</svg>
