<svg width="74" height="65" viewBox="0 0 74 65" fill="none" xmlns="http://www.w3.org/2000/svg">
<path d="M31.7817 64.9712C27.9562 64.8904 23.7212 64.4963 21.1607 62.142C20.1218 61.182 19.4435 59.823 19.9262 58.5953C20.6779 56.6704 23.6234 56.1349 26.0679 56.0591C37.4039 55.7054 48.8011 58.3174 60.0088 56.8674C63.6693 56.3925 67.3665 55.4882 71.0209 56.0237C71.8643 56.15 72.732 56.3673 73.3187 56.8826C74.3148 57.7516 74.1437 59.2218 73.2942 60.1968C72.4448 61.1719 71.0881 61.7378 69.7437 62.1824C63.981 64.0871 58.6154 63.2181 52.7733 63.8142C45.7639 64.5317 38.8644 65.1278 31.7817 64.9763V64.9712Z" fill="#052316"/>
<path d="M73.48 24.7167C73.48 24.7495 73.48 24.7869 73.48 24.8243V24.9038C73.48 24.9038 73.48 24.9505 73.4706 24.9739C73.452 25.3433 73.4146 25.7501 73.354 26.2317C73.354 26.2083 73.3633 26.185 73.368 26.1616C73.368 26.2083 73.354 26.2691 73.3446 26.3252C73.3306 26.4608 73.312 26.6011 73.2886 26.7507L73.0786 27.8215C73.0319 28.0647 72.9899 28.2938 72.9479 28.5042C72.9013 28.6866 72.8359 28.883 72.7753 29.0887C72.6959 29.3926 72.6119 29.7012 72.5232 30.0145C72.4952 30.108 72.4719 30.1922 72.4486 30.2857C71.8605 32.2309 70.8711 34.2135 69.7137 36.0885C69.5737 36.3223 69.4383 36.5421 69.3123 36.7478L69.2937 36.7759L69.275 36.8039L68.995 37.206C68.6076 37.7905 68.2016 38.361 67.7909 38.9127L67.5575 39.2447C67.5109 39.3008 67.4595 39.3569 67.4082 39.4224C65.8167 41.4891 64.1786 43.2426 62.9185 44.3742C62.0644 45.1363 60.9537 46.1837 60.0716 46.9179L58.6715 48.0167C58.4102 48.2224 58.1488 48.4282 57.8781 48.6433L56.9167 49.3961C56.702 49.5457 56.4687 49.7094 56.226 49.8777C55.6333 50.3032 55.0033 50.7427 54.3405 51.1916C54.0045 51.4254 53.6731 51.6452 53.3745 51.8416L53.1691 51.9678C52.7677 52.2297 52.3571 52.4868 51.9324 52.7534C48.8055 54.7687 45.6085 56.4941 42.5563 57.8033C42.2156 57.967 41.8609 58.1353 41.5016 58.2943L40.5308 58.7619C40.1388 58.9302 39.7141 59.1032 39.2754 59.2996C38.454 59.655 37.6186 60.015 36.7412 60.375C36.3212 60.5481 35.9198 60.7117 35.5325 60.866C35.5138 60.866 35.4904 60.88 35.4718 60.8894C35.4624 60.8894 35.4578 60.8894 35.4531 60.8987C35.4391 60.8987 35.4204 60.9081 35.4064 60.9175L34.8791 61.1185C34.8417 61.1279 34.7997 61.1466 34.7577 61.1606C32.7136 61.89 30.6181 62.3155 28.5459 62.4184H28.4993C28.4713 62.4184 28.4386 62.4184 28.4059 62.4184C28.1539 62.4278 27.8925 62.4371 27.6405 62.4371H27.3325C27.2018 62.4371 27.0665 62.4371 26.9405 62.4278H26.9265L26.4084 62.4044C26.3804 62.4044 26.3478 62.4044 26.3198 62.4044C26.2218 62.4044 26.1237 62.3904 26.0304 62.3857C25.9837 62.3857 25.9277 62.3763 25.8857 62.3717L25.3724 62.3249C25.3724 62.3249 25.349 62.3249 25.3397 62.3249C25.279 62.3249 25.2137 62.3109 25.1577 62.3062C25.055 62.2922 24.9477 62.2781 24.859 62.2641L24.4436 62.1986C24.4016 62.1986 24.3549 62.1846 24.3129 62.18C24.1683 62.1519 23.9816 62.1192 23.8462 62.0911L23.5709 62.035C23.5242 62.021 23.4682 62.0116 23.4215 62.0023L23.3469 61.9836C23.2022 61.9461 22.9968 61.8994 22.8428 61.862L22.6842 61.8152C22.6281 61.8012 22.5768 61.7872 22.5208 61.7731L22.3528 61.7264C22.2081 61.6796 22.0074 61.6188 21.8581 61.5768L21.7881 61.5534C21.7461 61.5394 21.7087 61.5253 21.6621 61.5113L21.3821 61.4084C21.242 61.3617 21.0694 61.2962 20.9293 61.2401C20.92 61.2401 20.9153 61.2401 20.9107 61.2307H20.9014C20.9014 61.2307 20.892 61.2307 20.8873 61.2214L20.4206 61.0297C20.4206 61.0297 20.3926 61.0157 20.3786 61.011L20.2013 60.9268C20.108 60.8847 20.0193 60.8426 19.9353 60.8052L19.8933 60.7865C19.7626 60.7257 19.6413 60.6603 19.5152 60.6042L19.4826 60.5855L19.4592 60.5761C18.6332 60.1553 17.8771 59.6783 17.1677 59.1406C17.1677 59.1406 17.1537 59.1313 17.1491 59.1266L17.0837 59.0752C16.9717 58.9957 16.8644 58.9021 16.7524 58.8227L16.7384 58.8133C16.7384 58.8133 16.7057 58.7852 16.6917 58.7712C15.5529 57.8454 14.5122 56.7653 13.4248 55.5075C12.8367 54.8341 12.0527 53.9504 11.4786 53.263L10.0319 51.4394C9.92452 51.2945 9.81251 51.1355 9.69117 50.9812C8.8371 49.8543 8.05305 48.7274 7.28765 47.507L7.20831 47.3808C7.14764 47.2779 7.07764 47.1657 7.0123 47.0628C6.93763 46.9366 6.86762 46.8197 6.78362 46.6887C6.50359 46.2165 6.20491 45.7302 5.96689 45.314L5.6122 44.6594C5.2715 44.0515 4.95881 43.453 4.67412 42.8592C4.50144 42.5178 4.3381 42.1812 4.17942 41.8398L3.80606 41.0449C3.80606 41.0449 3.78739 41.0029 3.77806 40.9841C3.61938 40.6335 3.44203 40.2313 3.26469 39.8245C3.20401 39.6889 3.15268 39.5627 3.09667 39.4505C3.078 39.4084 3.064 39.371 3.05 39.3382C2.83999 38.8473 2.6393 38.3563 2.48529 37.9261C2.44329 37.8045 2.39662 37.683 2.34995 37.5521C2.04659 36.7571 1.76191 35.9108 1.47255 34.9382C1.47255 34.9382 1.47255 34.9289 1.47255 34.9242C1.32787 34.4706 1.16453 33.8534 1.05718 33.3812C1.01051 33.1754 0.949843 32.9416 0.893839 32.7078C0.893839 32.6891 0.893839 32.6751 0.884505 32.6611C0.809833 32.3525 0.739828 32.0439 0.688491 31.7773C0.679157 31.7306 0.674488 31.6978 0.665154 31.6464C0.576481 31.2022 0.497143 30.7486 0.427137 30.2857C0.347798 29.8135 0.28246 29.3599 0.221789 28.8736L0.193786 28.6351C0.114447 27.9712 0.0537762 27.0874 0.0211071 26.4141C-0.00222797 25.867 -0.0022284 25.1329 0.00243862 24.5811C0.00243862 24.2679 0.0164403 23.9405 0.0304414 23.6179C0.156451 20.775 0.72116 18.3342 1.41188 16.3422C1.56122 15.87 1.72457 15.4164 1.89258 15.0283C1.98125 14.8226 2.07459 14.6075 2.17727 14.383C2.32195 14.0651 2.45729 13.7611 2.5973 13.4806L2.83532 12.9616C2.93333 12.7932 3.036 12.6109 3.14334 12.4238C3.30202 12.1293 3.45136 11.8768 3.58204 11.6383C3.69405 11.4419 3.81073 11.2502 3.92273 11.0585C3.92273 11.0444 3.93674 11.0304 3.94607 11.0164C3.9554 10.9977 3.9694 10.979 3.9834 10.9556C5.76621 7.79003 8.3424 5.07801 11.8193 3.10011C11.8333 3.09076 11.8473 3.08141 11.8613 3.07673C11.894 3.05803 11.922 3.03933 11.9547 3.02062C15.0442 1.16897 18.5025 0.107544 21.9654 0.0093502C22.0261 0.0093502 22.0868 0.00935177 22.1381 0H22.5815C22.7168 0 22.8895 0 23.0248 0L23.4589 0.0140271C23.5896 0.0233789 23.7622 0.0327331 23.8929 0.0420848L24.3129 0.0841661C24.4389 0.10287 24.6023 0.121572 24.7283 0.130924L25.3257 0.229117C25.5077 0.2712 25.7597 0.317959 25.9417 0.360042L26.1751 0.416154C26.2124 0.430181 26.2544 0.439533 26.2871 0.448885L26.5158 0.504997C26.6278 0.537728 26.7631 0.57981 26.8938 0.617217C26.9218 0.626569 26.9451 0.631246 26.9731 0.640598C26.9731 0.640598 26.9871 0.640598 26.9918 0.640598L27.1178 0.682679L27.6639 0.865038C27.8412 0.935177 28.0746 1.02402 28.2472 1.09416H28.2612C28.3126 1.12221 28.3592 1.14092 28.4059 1.16897L28.7746 1.32795C28.7746 1.32795 28.8119 1.34666 28.8306 1.35601C28.8726 1.37471 28.91 1.39341 28.9566 1.41679C29.092 1.47758 29.232 1.54772 29.3393 1.59915L29.4047 1.63188C29.4513 1.65994 29.5027 1.67865 29.5493 1.71138L29.834 1.861C29.8667 1.87971 29.9087 1.90309 29.9414 1.92179L30.0394 1.9779C30.086 2.00596 30.128 2.03401 30.1794 2.05739V2.06674C30.1794 2.06674 30.198 2.07609 30.212 2.08077L30.3241 2.15091L30.3847 2.18832L30.4501 2.2304C30.4921 2.25378 30.5294 2.27716 30.5714 2.30054C30.6507 2.34729 30.7348 2.4034 30.8141 2.45016L30.8608 2.48289C30.8608 2.48289 30.9028 2.51095 30.9214 2.52498C30.9588 2.54836 30.9914 2.57174 31.0288 2.59512C31.1408 2.66993 31.2481 2.74007 31.3508 2.81488C32.7929 3.8202 33.885 4.89565 34.5524 5.62041C34.7997 5.89162 35.1498 6.26569 35.6538 6.65379C36.4332 7.14943 37.2499 7.57961 38.1226 7.88822L38.426 7.97706L38.7434 8.05655L38.832 8.07526C38.9207 8.09396 39.0047 8.11266 39.0981 8.13137L39.2241 8.15475C39.3314 8.17813 39.4341 8.19683 39.5461 8.21086C39.8448 8.25762 40.1435 8.29035 40.4422 8.3184C40.5215 8.3184 40.6008 8.32775 40.6755 8.33243C40.8575 8.34646 41.0442 8.35114 41.2262 8.35581C41.3709 8.35581 41.5249 8.35581 41.6649 8.35581H41.7769C41.8049 8.35581 41.8236 8.35581 41.8563 8.35581C41.9496 8.35581 42.0336 8.35581 42.1316 8.34646C42.2343 8.34646 42.337 8.33711 42.435 8.33243H42.4536C42.5983 8.3184 42.7337 8.30905 42.869 8.29502L42.9483 8.28567C43.0604 8.27632 43.1584 8.26229 43.2564 8.24826C43.3077 8.24826 43.359 8.23424 43.401 8.22956C43.429 8.22956 43.4477 8.22021 43.4804 8.22021L43.8211 8.1641C43.8864 8.15007 43.9658 8.14072 44.0358 8.12669C44.0964 8.11266 44.1478 8.10331 44.2038 8.09396C44.2271 8.09396 44.2504 8.08461 44.2784 8.07993L44.3578 8.06123C44.4045 8.05188 44.4605 8.03785 44.5071 8.0285C44.5445 8.01915 44.5771 8.01447 44.6145 8.00512C45.2352 7.84614 45.8559 7.6591 46.4673 7.44869C46.8546 7.30841 47.2093 7.16814 47.5267 7.03721C47.6294 6.99513 47.732 6.94837 47.858 6.89693C48.0774 6.80342 48.3341 6.70522 48.6001 6.60235C49.7762 6.13477 50.8729 5.78875 51.881 5.53625C53.1224 5.16686 54.3825 4.91436 55.694 4.89098C55.7873 4.89098 55.876 4.87695 55.974 4.87227L56.1047 4.86292C56.128 4.86292 56.1513 4.86292 56.1747 4.86292C56.3474 4.86292 56.52 4.8489 56.702 4.84422H56.744C57.4954 4.83019 58.3168 4.86292 59.1662 4.98917H59.1942C59.2456 4.99852 59.3109 5.00788 59.3716 5.01723C59.3716 5.01723 59.3716 5.01723 59.3809 5.01723H59.4042C59.4743 5.03126 59.5443 5.04061 59.6049 5.04996H59.6236L59.7729 5.08269C59.8616 5.09672 59.9456 5.11542 60.0156 5.12945C60.0623 5.1388 60.1136 5.15283 60.165 5.16218H60.1743C60.2163 5.17621 60.2536 5.18556 60.2957 5.19023C60.3097 5.19023 60.3237 5.19024 60.3377 5.19959L60.4263 5.21829C60.4823 5.23232 60.543 5.25102 60.6083 5.26505C60.8417 5.31181 61.0797 5.38662 61.3177 5.46611C61.3831 5.48482 61.4484 5.50352 61.5137 5.5269C61.5324 5.5269 61.5464 5.53625 61.5604 5.54093L61.6491 5.56898C61.6491 5.56898 61.6771 5.57833 61.6864 5.58301L62.0971 5.72796C62.2278 5.77472 62.4005 5.84954 62.5312 5.90097L62.9372 6.07865C63.0725 6.14412 63.2499 6.2236 63.3806 6.28907L63.7912 6.49948C63.8986 6.56027 64.0293 6.63509 64.1459 6.70522L64.1833 6.72392C64.1833 6.72392 64.2206 6.7473 64.2393 6.76133H64.2533V6.77069C65.1587 7.29906 66.1061 7.99577 67.0582 8.90289C67.8189 9.62298 68.5656 10.46 69.2563 11.4232C69.303 11.4933 69.3543 11.5588 69.401 11.6243C69.4337 11.671 69.471 11.7178 69.5037 11.7692C69.5177 11.7879 69.5317 11.8066 69.5457 11.83C70.3017 12.9335 70.7871 13.8827 71.0671 14.4625L71.0858 14.4999L71.1931 14.729L71.3238 15.0096L71.5992 15.5847C71.6645 15.725 71.7252 15.8606 71.7812 16.0056C71.8372 16.1318 71.8932 16.2534 71.9399 16.3609C72.0379 16.6087 72.1359 16.8566 72.2245 17.1091C72.1919 17.0156 72.1592 16.9314 72.1265 16.8379L72.3226 17.3475C72.3692 17.4925 72.4252 17.6608 72.4812 17.8292C72.6539 18.3435 72.8173 18.8859 72.9573 19.4938C72.9713 19.5686 72.9899 19.6434 73.0086 19.7276C73.0273 19.8024 73.0413 19.8725 73.0553 19.9473C73.4006 21.5325 73.5313 23.0989 73.4473 24.7167L73.4613 24.7261L73.48 24.7167ZM71.5478 15.4819C71.5292 15.4351 71.5152 15.3883 71.5012 15.3416C71.5012 15.365 71.5152 15.3837 71.5198 15.4024C71.5338 15.4304 71.5432 15.4491 71.5525 15.4819H71.5478Z" fill="#1EC677"/>
<path d="M25.5769 54.4039C54.8671 42.8638 68.7842 27.0733 71.183 14.6401L71.2204 14.7196L71.3511 15.0002L71.6264 15.5753C71.6917 15.7156 71.7524 15.8512 71.8084 15.9961C71.8644 16.1224 71.9204 16.244 71.9671 16.3515C72.0278 16.5152 72.0931 16.6695 72.1538 16.8285L72.3498 17.3381C72.4011 17.4878 72.4525 17.6514 72.5085 17.8197C72.6811 18.3341 72.8398 18.8765 72.9845 19.489C72.9985 19.5638 73.0172 19.6387 73.0358 19.7228C73.0545 19.7976 73.0685 19.8678 73.0872 19.9426C73.4325 21.5277 73.5586 23.0941 73.4792 24.712C73.4792 24.7447 73.4792 24.7821 73.4792 24.8195V24.899C73.4792 24.899 73.4792 24.9458 73.4699 24.9692C73.4512 25.3386 73.4139 25.7454 73.3532 26.227C73.3532 26.2036 73.3672 26.1802 73.3719 26.1568C73.3719 26.2036 73.3532 26.2644 73.3485 26.3205C73.3299 26.4561 73.3159 26.5964 73.2925 26.746L73.0825 27.8168C73.0358 28.0599 72.9985 28.2891 72.9518 28.4995C72.9052 28.6865 72.8398 28.8782 72.7838 29.084C72.7045 29.3879 72.6205 29.6965 72.5271 30.0098C72.4991 30.1033 72.4758 30.1875 72.4525 30.281C71.8644 32.2215 70.875 34.2087 69.7176 36.0838C69.5776 36.3176 69.4422 36.5373 69.3162 36.7431L69.2976 36.7711L69.2789 36.7992L68.9989 37.1966C68.6115 37.7811 68.2055 38.3516 67.7948 38.9033L67.5614 39.2353C67.5148 39.2867 67.4634 39.3475 67.4168 39.413C65.8206 41.4797 64.1872 43.2332 62.9271 44.3648C62.0777 45.1269 60.9623 46.1743 60.0802 46.9084L58.6801 48.0073C58.4187 48.213 58.1574 48.4188 57.8867 48.6338L56.9253 49.3867C56.7059 49.5363 56.4773 49.7 56.2346 49.8683C55.6372 50.2985 55.0118 50.738 54.3538 51.1822C54.0131 51.4113 53.6864 51.6358 53.383 51.8275L53.1777 51.9537C52.781 52.2156 52.3703 52.4728 51.9409 52.7393C48.814 54.7546 45.6218 56.48 42.5695 57.7892C42.2289 57.9529 41.8695 58.1212 41.5148 58.2802L40.5441 58.7478C40.1474 58.9161 39.7273 59.0891 39.2886 59.2808C38.4672 59.6409 37.6272 59.9963 36.7544 60.361C36.3344 60.534 35.933 60.7023 35.5457 60.8519C35.527 60.8519 35.499 60.866 35.485 60.8753C35.4757 60.8753 35.471 60.8753 35.4663 60.8847C35.4523 60.8847 35.4337 60.894 35.4197 60.9034L34.8923 61.0998C34.8503 61.1138 34.813 61.1278 34.771 61.1465C32.7315 61.876 30.6313 62.2968 28.5592 62.3997H28.5078C28.4798 62.3997 28.4471 62.3997 28.4145 62.3997C28.1625 62.4137 27.9011 62.4184 27.6491 62.4184H27.3411C27.2104 62.4184 27.075 62.4184 26.9444 62.409H26.9304L26.4123 62.3856H26.3237C26.2303 62.3856 26.1323 62.3669 26.0343 62.3669C25.9876 62.3669 25.9316 62.3576 25.8896 62.3529L25.3763 62.3015C25.3763 62.3015 25.3529 62.3015 25.3436 62.3015C25.2829 62.3015 25.2176 62.2874 25.1569 62.2828C25.0542 62.2687 24.9469 62.2547 24.8629 62.236L24.4475 62.1752C24.4008 62.1659 24.3588 62.1565 24.3168 62.1565C24.1675 62.1285 23.9855 62.0957 23.8501 62.0677L23.5748 62.0162C23.5281 62.0022 23.4721 61.9929 23.4254 61.9835L23.3508 61.9648C23.2014 61.9274 22.9961 61.8806 22.8467 61.8479L22.688 61.8012C22.6367 61.7871 22.5807 61.7778 22.5294 61.7591L22.3614 61.7123C22.212 61.6656 22.016 61.6048 21.862 61.558L21.792 61.5393C21.75 61.5206 21.7126 61.5112 21.6706 61.4972L21.386 61.3943C21.2459 61.3429 21.0733 61.2821 20.9332 61.226C20.9239 61.226 20.9192 61.226 20.9146 61.212H20.9052C20.9052 61.212 20.8959 61.212 20.8912 61.2026L20.4245 61.0156C20.4245 61.0156 20.3965 60.9969 20.3825 60.9969L20.2052 60.9174C20.1119 60.8707 20.0185 60.8332 19.9392 60.7958L19.8972 60.7771C19.7665 60.7163 19.6405 60.6509 19.5191 60.5901L19.4865 60.5714C19.4865 60.5714 19.4725 60.5714 19.4631 60.5574C18.6371 60.1365 17.881 59.6596 17.1716 59.1265L17.1576 59.1125L17.0923 59.0611C16.9803 58.9769 16.8683 58.8881 16.7609 58.8039L16.7469 58.7946C16.7469 58.7946 16.7143 58.7665 16.6956 58.7525C15.7435 57.9763 14.8568 57.0878 13.9561 56.0825C17.657 56.4706 21.68 55.9329 25.5769 54.4086V54.4039Z" fill="#1EC677"/>
<path d="M43.9138 49.0968C44.8752 48.6853 45.8273 48.2411 46.714 47.6707C49.2575 46.0294 51.6657 44.1778 53.9852 42.2326C56.0807 40.4651 58.4142 38.8987 60.0943 36.6543C61.6998 34.4894 63.4593 32.4787 65.0787 30.2623C66.3388 28.551 67.0762 26.517 67.5429 24.4596C67.6642 24.0154 67.8043 23.5712 67.8743 23.1082C67.9443 22.5939 68.0703 22.0936 68.1216 21.5746L68.2336 20.803C68.271 20.5459 68.2803 20.284 68.3083 20.0222L68.4063 19.419L68.467 18.8064L68.523 18.1892C68.5323 17.9835 68.523 17.7777 68.523 17.5673C68.523 17.1886 68.4856 16.8098 68.4063 16.4358C68.3363 16.0617 68.2663 15.6829 68.1496 15.3229C68.0983 15.1499 67.8789 14.5747 67.6643 14.1399L67.5662 13.8921C67.5662 13.8921 67.4822 13.6162 67.3469 13.359C67.2162 13.0972 67.0622 12.8119 66.9782 12.7044C66.9175 12.5407 66.8288 12.3911 66.7542 12.2555C66.6002 11.9796 66.4135 11.7271 66.2361 11.47C66.0635 11.2455 65.8674 11.0258 65.6621 10.8434C65.4427 10.633 65.0601 10.4179 64.752 10.3431C64.696 10.3197 64.64 10.2963 64.584 10.2823C64.262 10.2121 64.0753 10.4459 64.1033 10.7592C64.1266 11.0772 64.2013 11.4793 64.36 11.7505C64.4347 11.8908 64.5653 11.989 64.668 12.1106C64.8127 12.2836 64.9387 12.4753 65.0414 12.6763C65.0834 12.7465 65.1301 12.8119 65.1721 12.8821C65.1254 12.9756 65.1254 13.0878 65.2234 13.2328C65.3307 13.3777 65.3961 13.5461 65.4801 13.7004C65.5081 13.8734 65.5408 14.037 65.6061 14.21C65.7041 14.5514 65.7321 14.8226 65.7741 15.1546C65.7928 15.4538 65.9281 15.7157 66.0495 15.9915C66.2735 16.5901 66.2128 17.2166 66.2688 17.8525C66.3015 18.1004 66.3481 18.3342 66.3388 18.5773V18.6054C66.3388 18.6895 66.3295 18.769 66.3201 18.8579C66.2781 19.2226 66.2781 19.592 66.2315 19.966C66.2081 20.1391 66.1848 20.3074 66.1521 20.4757C66.1101 20.6441 66.0775 20.8124 66.0541 20.9854C66.0308 21.1771 66.0261 21.3641 66.0168 21.5558C66.0028 21.7476 65.9748 21.9393 65.9374 22.1263C65.8208 22.8324 65.6621 23.5291 65.4661 24.2305C65.3354 24.6232 65.2094 25.016 65.0647 25.4041C64.9014 25.7875 64.738 26.1663 64.57 26.5544C64.3693 26.9658 64.1173 27.3727 63.9073 27.7982C63.8 27.9758 63.6599 28.1442 63.5339 28.3125C62.0965 30.1782 60.6217 31.9878 59.2356 33.9236C58.3302 35.2094 57.4341 36.3176 56.2347 37.3837C55.7447 37.8046 55.236 38.1833 54.7459 38.5808C54.2512 38.9735 53.7425 39.3523 53.2665 39.8012C52.6598 40.3716 52.0064 40.8953 51.381 41.4471C50.7416 41.9848 50.0789 42.4945 49.4302 43.0275C49.0148 43.3034 48.5995 43.5793 48.1888 43.8785C45.9113 45.5151 43.3071 46.6186 40.8756 47.9933L40.0402 48.4983C39.7601 48.5918 39.4941 48.7181 39.2748 48.9098C39.0554 49.1062 38.8921 49.34 38.7147 49.5691C38.5654 49.7608 38.3974 49.9432 38.3834 50.177C38.3647 50.4201 38.5187 50.5838 38.7101 50.7147C38.7894 50.7661 38.8501 50.8316 38.9247 50.8924C39.0368 50.9859 39.1721 51.0467 39.3308 51.07C39.6201 51.1121 39.9048 51.0467 40.1802 50.8924C40.2922 50.8269 40.3995 50.7521 40.5209 50.7007C40.6609 50.6445 40.8102 50.6165 40.9502 50.551C41.0622 50.4996 41.1789 50.4622 41.3003 50.4341L41.3469 50.4248H41.3843L41.5896 50.392C41.6923 50.3733 41.795 50.3406 41.8976 50.2939C42.173 50.0975 42.4717 49.9385 42.7844 49.8216L43.9371 49.1062L43.9138 49.0968Z" fill="#052316"/>
<path d="M13.7049 6.04133C13.3782 6.21433 13.0842 6.44345 12.7855 6.6679C12.1508 7.19627 11.5254 7.71997 10.9234 8.28575C10.4287 8.69256 9.92461 9.09936 9.49058 9.5763C9.09388 10.0112 8.79053 10.5302 8.50584 11.0399C8.43117 11.1567 8.27249 11.6103 8.12781 11.9516L8.0438 12.1387C8.02047 12.1667 7.63311 12.985 7.67044 13.13C7.51176 13.4479 7.6191 13.8454 7.50243 14.182C7.45109 14.3223 7.41375 14.4813 7.39975 14.6403C7.38575 14.6917 7.37175 14.7478 7.36242 14.8039C7.34375 14.9442 7.34375 15.0938 7.34375 15.2388C7.34375 15.4819 7.42309 15.7531 7.67044 15.8654C8.11848 16.0664 8.39383 15.5661 8.52451 15.2902C8.61785 15.0845 8.68785 14.8694 8.75786 14.6543C8.78586 14.6263 8.80919 14.5982 8.83253 14.5608C8.8932 14.4626 8.93054 14.3597 8.9492 14.2522C9.07055 14.2569 9.16856 14.2054 9.21523 14.0558L9.36457 13.6537C9.46258 13.5508 9.55592 13.4479 9.63059 13.3217C9.7846 13.0832 9.92928 12.9196 10.13 12.7325C10.3026 12.5595 10.3586 12.3257 10.4427 12.1013C10.6293 11.6243 11.04 11.3251 11.3294 10.9276C11.4461 10.7687 11.5301 10.605 11.6607 10.4694L11.6747 10.4554C11.7167 10.4086 11.7634 10.3665 11.8194 10.3244C12.0388 10.1421 12.2301 9.93166 12.4355 9.73528C12.6455 9.56695 12.8555 9.43135 13.0562 9.25366C13.2709 9.06195 13.4435 8.8188 13.6769 8.6458C14.0923 8.30446 14.517 7.97714 14.9883 7.69659C15.2497 7.53293 15.5344 7.40669 15.8097 7.26173C16.0944 7.14016 16.3791 7.01859 16.6778 6.91572C17.0091 6.81752 17.3498 6.72401 17.6952 6.64919C17.8539 6.63517 18.0126 6.61646 18.1712 6.60711L18.7499 6.59776C19.002 6.46216 19.2773 6.3967 19.5573 6.36864C19.842 6.33591 20.1267 6.32656 20.4207 6.34058C20.6868 6.31253 20.9528 6.27045 21.2235 6.26577C21.3821 6.20966 21.5268 6.09744 21.6622 5.98054C21.7975 5.85897 21.9282 5.69531 21.9889 5.5036C22.1429 5.35865 22.2082 5.12018 22.1802 4.90509C22.1522 4.69467 22.0309 4.52166 21.8628 4.40477C21.5782 4.2037 21.1721 4.15694 20.8314 4.17565C20.5281 4.19435 20.2247 4.26449 19.9214 4.19435C19.7814 4.1663 19.6367 4.19903 19.492 4.18033C19.3987 4.17097 19.3147 4.1663 19.2353 4.18033L19.212 4.16162C18.946 4.16162 18.6799 4.17097 18.4093 4.19435C16.6918 4.29255 15.0723 5.05939 13.6956 6.046L13.7049 6.04133Z" fill="#052316"/>
</svg>
