<?xml version="1.0" encoding="utf-8"?>
<!-- Generator: Adobe Illustrator 26.5.0, SVG Export Plug-In . SVG Version: 6.00 Build 0)  -->
<svg version="1.1" id="Layer_1" xmlns="http://www.w3.org/2000/svg" xmlns:xlink="http://www.w3.org/1999/xlink" x="0px" y="0px"
	 viewBox="0 0 170 46" style="enable-background:new 0 0 170 46;" xml:space="preserve">
<style type="text/css">
	.st0{fill:#0D4029;}
	.st1{fill:#FFFFFF;}
	.st2{fill:none;stroke:#FFFFFF;stroke-width:0.23;stroke-miterlimit:10;}
	.st3{fill:url(#SVGID_1_);}
	.st4{fill:url(#SVGID_00000146478846008610585210000012241469651059914643_);}
	.st5{fill:url(#SVGID_00000172439427271349347230000005193522376860015262_);}
	.st6{fill:url(#SVGID_00000049900711754132147230000003295118907607471010_);}
</style>
<path class="st0" d="M0,8.42C0,4.05,3.97,0.5,8.87,0.5h152.26c4.9,0,8.87,3.55,8.87,7.92v29.15c0,4.38-3.97,7.92-8.87,7.92H8.87
	C3.97,45.5,0,41.95,0,37.58V8.42z"/>
<path class="st1" d="M77.4,25.21c-2.67,0-4.85,2.03-4.85,4.83s2.18,4.83,4.85,4.83s4.85-2.05,4.85-4.83
	C82.25,27.24,80.07,25.21,77.4,25.21z M77.4,32.97c-1.46,0-2.73-1.21-2.73-2.93c0-1.72,1.26-2.93,2.73-2.93s2.73,1.19,2.73,2.93
	C80.13,31.78,78.87,32.97,77.4,32.97z M66.82,25.21c-2.67,0-4.85,2.03-4.85,4.83s2.18,4.83,4.85,4.83s4.85-2.05,4.85-4.83
	S69.49,25.21,66.82,25.21z M66.82,32.97c-1.46,0-2.73-1.21-2.73-2.93c0-1.72,1.26-2.93,2.73-2.93s2.73,1.19,2.73,2.93
	C69.55,31.76,68.29,32.97,66.82,32.97z M54.24,26.69v2.05h4.91c-0.15,1.15-0.53,1.99-1.12,2.58c-0.71,0.71-1.83,1.5-3.79,1.5
	c-3.02,0-5.38-2.43-5.38-5.45s2.36-5.45,5.38-5.45c1.63,0,2.82,0.64,3.7,1.46l1.45-1.45c-1.23-1.17-2.85-2.07-5.14-2.07
	c-4.14,0-7.61,3.37-7.61,7.5s3.48,7.5,7.61,7.5c2.23,0,3.92-0.73,5.23-2.1c1.35-1.35,1.78-3.26,1.78-4.79
	c0-0.47-0.04-0.91-0.11-1.28H54.24L54.24,26.69z M105.71,28.28c-0.4-1.08-1.63-3.08-4.14-3.08s-4.56,1.96-4.56,4.83
	c0,2.71,2.05,4.83,4.8,4.83c2.21,0,3.5-1.35,4.03-2.14l-1.65-1.1c-0.55,0.81-1.3,1.34-2.38,1.34c-1.08,0-1.85-0.49-2.34-1.46
	l6.46-2.67L105.71,28.28z M99.12,29.89c-0.05-1.87,1.45-2.82,2.53-2.82c0.84,0,1.56,0.42,1.79,1.02l-4.32,1.79V29.89z M93.87,34.57
	h2.12v-14.2h-2.12V34.57z M90.39,26.28h-0.07c-0.48-0.57-1.39-1.08-2.54-1.08c-2.42,0-4.63,2.12-4.63,4.85s2.21,4.81,4.63,4.81
	c1.15,0,2.07-0.51,2.54-1.1h0.07v0.7c0,1.85-0.99,2.84-2.58,2.84c-1.3,0-2.1-0.93-2.43-1.72l-1.85,0.77
	c0.53,1.28,1.94,2.85,4.28,2.85c2.49,0,4.59-1.46,4.59-5.03V25.5h-2.01v0.79V26.28z M87.96,32.96c-1.46,0-2.69-1.23-2.69-2.91
	c0-1.68,1.23-2.95,2.69-2.95s2.58,1.24,2.58,2.95C90.54,31.76,89.41,32.96,87.96,32.96z M115.66,20.37h-5.08v14.2h2.12v-5.38h2.96
	c2.35,0,4.66-1.7,4.66-4.41S118.01,20.37,115.66,20.37z M115.71,27.21h-3.01v-4.87h3.01c1.58,0,2.49,1.31,2.49,2.43
	C118.2,25.89,117.3,27.2,115.71,27.21L115.71,27.21z M128.81,25.17c-1.53,0-3.12,0.68-3.78,2.17l1.88,0.79
	c0.4-0.79,1.15-1.04,1.94-1.04c1.1,0,2.21,0.66,2.23,1.83v0.15c-0.38-0.22-1.21-0.55-2.21-0.55c-2.03,0-4.09,1.11-4.09,3.2
	c0,1.9,1.66,3.12,3.53,3.12c1.43,0,2.21-0.64,2.7-1.39h0.07v1.1h2.05v-5.44c0-2.52-1.88-3.93-4.31-3.93L128.81,25.17z M128.55,32.95
	c-0.69,0-1.66-0.35-1.66-1.21c0-1.1,1.21-1.52,2.25-1.52c0.93,0,1.37,0.2,1.94,0.47c-0.16,1.32-1.3,2.25-2.52,2.25L128.55,32.95z
	 M140.57,25.48l-2.43,6.16h-0.07l-2.52-6.16h-2.28l3.78,8.61l-2.16,4.79h2.21l5.83-13.39h-2.36V25.48z M121.48,34.57h2.12v-14.2
	h-2.12V34.57z"/>
<path class="st1" d="M53.87,12.14c0,0.95-0.28,1.71-0.85,2.28c-0.64,0.67-1.48,1.01-2.5,1.01s-1.82-0.34-2.51-1.02
	c-0.69-0.68-1.03-1.53-1.03-2.54s0.34-1.86,1.03-2.54c0.69-0.68,1.52-1.02,2.51-1.02c0.49,0,0.96,0.1,1.4,0.29
	c0.44,0.19,0.8,0.44,1.07,0.76l-0.6,0.6c-0.45-0.54-1.07-0.81-1.87-0.81c-0.72,0-1.34,0.25-1.86,0.76c-0.52,0.5-0.78,1.16-0.78,1.97
	c0,0.81,0.26,1.46,0.78,1.97c0.52,0.5,1.14,0.76,1.86,0.76c0.76,0,1.4-0.25,1.9-0.76c0.33-0.33,0.52-0.79,0.57-1.38h-2.48v-0.82h3.3
	c0.03,0.18,0.05,0.35,0.05,0.51L53.87,12.14z"/>
<path class="st1" d="M59.1,9.29H56v2.16h2.8v0.82H56v2.16h3.1v0.84h-3.98V8.45h3.98V9.29z"/>
<path class="st1" d="M62.8,15.27h-0.88V9.29h-1.9V8.45h4.68v0.84h-1.9V15.27z"/>
<path class="st1" d="M68.09,15.27V8.45h0.88v6.82H68.09z"/>
<path class="st1" d="M72.85,15.27h-0.88V9.29h-1.9V8.45h4.68v0.84h-1.9V15.27z"/>
<path class="st1" d="M83.62,14.39c-0.67,0.69-1.5,1.03-2.5,1.03s-1.83-0.34-2.5-1.03c-0.67-0.69-1-1.53-1-2.53s0.33-1.84,1-2.53
	c0.67-0.69,1.5-1.03,2.5-1.03s1.82,0.35,2.49,1.04c0.67,0.69,1.01,1.53,1.01,2.52S84.29,13.7,83.62,14.39z M79.27,13.82
	c0.51,0.51,1.12,0.77,1.85,0.77c0.73,0,1.35-0.26,1.85-0.77c0.5-0.51,0.76-1.16,0.76-1.96s-0.25-1.44-0.76-1.96
	c-0.5-0.51-1.12-0.77-1.85-0.77c-0.73,0-1.35,0.26-1.85,0.77s-0.76,1.16-0.76,1.96S78.76,13.3,79.27,13.82z"/>
<path class="st1" d="M85.85,15.27V8.45h1.07l3.31,5.3h0.04l-0.04-1.31V8.45h0.88v6.82H90.2l-3.47-5.56h-0.04l0.04,1.31v4.25h-0.87
	H85.85z"/>
<path class="st2" d="M53.87,12.14c0,0.95-0.28,1.71-0.85,2.28c-0.64,0.67-1.48,1.01-2.5,1.01s-1.82-0.34-2.51-1.02
	c-0.69-0.68-1.03-1.53-1.03-2.54s0.34-1.86,1.03-2.54c0.69-0.68,1.52-1.02,2.51-1.02c0.49,0,0.96,0.1,1.4,0.29
	c0.44,0.19,0.8,0.44,1.07,0.76l-0.6,0.6c-0.45-0.54-1.07-0.81-1.87-0.81c-0.72,0-1.34,0.25-1.86,0.76c-0.52,0.5-0.78,1.16-0.78,1.97
	c0,0.81,0.26,1.46,0.78,1.97c0.52,0.5,1.14,0.76,1.86,0.76c0.76,0,1.4-0.25,1.9-0.76c0.33-0.33,0.52-0.79,0.57-1.38h-2.48v-0.82h3.3
	c0.03,0.18,0.05,0.35,0.05,0.51L53.87,12.14z"/>
<path class="st2" d="M59.1,9.29H56v2.16h2.8v0.82H56v2.16h3.1v0.84h-3.98V8.45h3.98V9.29z"/>
<path class="st2" d="M62.8,15.27h-0.88V9.29h-1.9V8.45h4.68v0.84h-1.9V15.27z"/>
<path class="st2" d="M68.09,15.27V8.45h0.88v6.82H68.09z"/>
<path class="st2" d="M72.85,15.27h-0.88V9.29h-1.9V8.45h4.68v0.84h-1.9V15.27z"/>
<path class="st2" d="M83.62,14.39c-0.67,0.69-1.5,1.03-2.5,1.03s-1.83-0.34-2.5-1.03c-0.67-0.69-1-1.53-1-2.53s0.33-1.84,1-2.53
	c0.67-0.69,1.5-1.03,2.5-1.03s1.82,0.35,2.49,1.04c0.67,0.69,1.01,1.53,1.01,2.52S84.29,13.7,83.62,14.39z M79.27,13.82
	c0.51,0.51,1.12,0.77,1.85,0.77c0.73,0,1.35-0.26,1.85-0.77c0.5-0.51,0.76-1.16,0.76-1.96s-0.25-1.44-0.76-1.96
	c-0.5-0.51-1.12-0.77-1.85-0.77c-0.73,0-1.35,0.26-1.85,0.77s-0.76,1.16-0.76,1.96S78.76,13.3,79.27,13.82z"/>
<path class="st2" d="M85.85,15.27V8.45h1.07l3.31,5.3h0.04l-0.04-1.31V8.45h0.88v6.82H90.2l-3.47-5.56h-0.04l0.04,1.31v4.25h-0.87
	H85.85z"/>
<linearGradient id="SVGID_1_" gradientUnits="userSpaceOnUse" x1="24.7701" y1="-98.1307" x2="5.7001" y2="-117.2007" gradientTransform="matrix(1 0 0 -1 0 -87.7407)">
	<stop  offset="0" style="stop-color:#00A1FF"/>
	<stop  offset="0.26" style="stop-color:#00BEFF"/>
	<stop  offset="0.51" style="stop-color:#00D2FF"/>
	<stop  offset="0.76" style="stop-color:#00DFFF"/>
	<stop  offset="1" style="stop-color:#00E3FF"/>
</linearGradient>
<path class="st3" d="M11.86,9.06c-0.33,0.35-0.53,0.89-0.53,1.6v25.12c0,0.7,0.2,1.25,0.53,1.6l0.08,0.08l14.07-14.07v-0.33
	L11.94,8.99l-0.08,0.08V9.06z"/>
<linearGradient id="SVGID_00000115510057367137715090000016911686620776580279_" gradientUnits="userSpaceOnUse" x1="38.4301" y1="-110.9707" x2="10.9501" y2="-110.9707" gradientTransform="matrix(1 0 0 -1 0 -87.7407)">
	<stop  offset="0" style="stop-color:#FFE000"/>
	<stop  offset="0.41" style="stop-color:#FFBD00"/>
	<stop  offset="0.78" style="stop-color:#FFA500"/>
	<stop  offset="1" style="stop-color:#FF9C00"/>
</linearGradient>
<path style="fill:url(#SVGID_00000115510057367137715090000016911686620776580279_);" d="M30.7,28.08l-4.69-4.69v-0.33l4.69-4.69
	l0.11,0.06l5.56,3.16c1.59,0.9,1.59,2.38,0,3.28l-5.56,3.16l-0.11,0.06V28.08z"/>
<linearGradient id="SVGID_00000035523968154924306790000018180222217327006647_" gradientUnits="userSpaceOnUse" x1="28.2001" y1="-113.5707" x2="2.3501" y2="-139.4207" gradientTransform="matrix(1 0 0 -1 0 -87.7407)">
	<stop  offset="0" style="stop-color:#FF3A44"/>
	<stop  offset="1" style="stop-color:#C31162"/>
</linearGradient>
<path style="fill:url(#SVGID_00000035523968154924306790000018180222217327006647_);" d="M30.81,28.02l-4.8-4.8L11.85,37.38
	c0.52,0.55,1.39,0.62,2.36,0.07l16.59-9.43H30.81z"/>
<linearGradient id="SVGID_00000057110025815459591360000009519212958969873795_" gradientUnits="userSpaceOnUse" x1="8.3008" y1="-88.4301" x2="19.8408" y2="-99.9801" gradientTransform="matrix(1 0 0 -1 0 -87.7407)">
	<stop  offset="0" style="stop-color:#32A071"/>
	<stop  offset="0.07" style="stop-color:#2DA771"/>
	<stop  offset="0.48" style="stop-color:#15CF74"/>
	<stop  offset="0.8" style="stop-color:#06E775"/>
	<stop  offset="1" style="stop-color:#00F076"/>
</linearGradient>
<path style="fill:url(#SVGID_00000057110025815459591360000009519212958969873795_);" d="M30.81,18.42L14.22,8.99
	c-0.97-0.55-1.84-0.48-2.36,0.07l14.16,14.16l4.8-4.8H30.81z"/>
</svg>
