<?xml version="1.0" encoding="utf-8"?>
<!-- Generator: Adobe Illustrator 26.5.0, SVG Export Plug-In . SVG Version: 6.00 Build 0)  -->
<svg version="1.1" id="Layer_1" xmlns="http://www.w3.org/2000/svg" xmlns:xlink="http://www.w3.org/1999/xlink" x="0px" y="0px"
	 viewBox="0 0 32.43 32" style="enable-background:new 0 0 32.43 32;" xml:space="preserve">
<style type="text/css">
	.st0{clip-path:url(#SVGID_00000136402219517635307950000016681043667583183021_);}
	.st1{fill:#0D4029;}
</style>
<g>
	<defs>
		<rect id="SVGID_1_" x="0.43" y="0.03" width="32" height="32"/>
	</defs>
	<clipPath id="SVGID_00000172406806189151178950000004379095860350996642_">
		<use xlink:href="#SVGID_1_"  style="overflow:visible;"/>
	</clipPath>
	<g style="clip-path:url(#SVGID_00000172406806189151178950000004379095860350996642_);">
		<path class="st1" d="M16.43,2.91c4.27,0,4.78,0.02,6.46,0.09c1.56,0.07,2.41,0.33,2.97,0.55c0.74,0.29,1.28,0.64,1.84,1.19
			c0.56,0.56,0.91,1.09,1.19,1.84c0.22,0.56,0.48,1.41,0.55,2.97c0.07,1.69,0.09,2.19,0.09,6.46c0,4.27-0.02,4.78-0.09,6.46
			c-0.07,1.56-0.33,2.41-0.55,2.97c-0.29,0.74-0.64,1.28-1.19,1.84c-0.56,0.56-1.09,0.91-1.84,1.19c-0.56,0.22-1.41,0.48-2.97,0.55
			c-1.69,0.08-2.19,0.09-6.46,0.09c-4.28,0-4.78-0.02-6.46-0.09C8.4,28.96,7.56,28.7,7,28.48c-0.74-0.29-1.28-0.64-1.84-1.19
			c-0.56-0.56-0.91-1.09-1.19-1.84c-0.22-0.56-0.48-1.41-0.55-2.97c-0.08-1.69-0.09-2.19-0.09-6.46c0-4.28,0.02-4.78,0.09-6.46
			c0.07-1.56,0.33-2.41,0.55-2.97C4.25,5.84,4.6,5.31,5.16,4.75C5.72,4.19,6.25,3.84,7,3.56c0.56-0.22,1.41-0.48,2.97-0.55
			C11.65,2.93,12.15,2.91,16.43,2.91z M16.43,0.03c-4.34,0-4.89,0.02-6.59,0.09C8.13,0.2,6.97,0.48,5.95,0.87
			C4.9,1.28,4,1.83,3.12,2.72C2.22,3.61,1.68,4.5,1.27,5.55C0.87,6.57,0.6,7.73,0.52,9.43c-0.07,1.71-0.09,2.26-0.09,6.6
			s0.02,4.89,0.09,6.59c0.08,1.7,0.35,2.87,0.74,3.88c0.41,1.06,0.96,1.95,1.85,2.84C4,30.23,4.9,30.78,5.95,31.19
			c1.02,0.39,2.18,0.67,3.88,0.74c1.71,0.08,2.25,0.09,6.59,0.09c4.34,0,4.89-0.02,6.59-0.09c1.7-0.07,2.87-0.35,3.88-0.74
			c1.05-0.41,1.94-0.96,2.83-1.84c0.89-0.89,1.44-1.78,1.84-2.83c0.39-1.02,0.67-2.18,0.74-3.88c0.08-1.71,0.09-2.25,0.09-6.59
			c0-4.34-0.02-4.89-0.09-6.59c-0.08-1.7-0.35-2.87-0.74-3.88c-0.39-1.06-0.94-1.96-1.83-2.84c-0.89-0.89-1.78-1.44-2.83-1.84
			c-1.02-0.39-2.18-0.67-3.88-0.74C21.32,0.05,20.77,0.03,16.43,0.03z"/>
		<path class="st1" d="M16.43,7.81c-4.54,0-8.22,3.68-8.22,8.22s3.68,8.22,8.22,8.22s8.22-3.68,8.22-8.22S20.97,7.81,16.43,7.81z
			 M16.43,21.36c-2.94,0-5.33-2.39-5.33-5.33c0-2.94,2.39-5.33,5.33-5.33c2.94,0,5.33,2.39,5.33,5.33
			C21.76,18.98,19.37,21.36,16.43,21.36z"/>
		<path class="st1" d="M26.89,7.49c0,1.06-0.86,1.92-1.92,1.92c-1.06,0-1.92-0.86-1.92-1.92c0-1.06,0.86-1.92,1.92-1.92
			C26.03,5.57,26.89,6.43,26.89,7.49z"/>
	</g>
</g>
</svg>
