<?xml version="1.0" encoding="utf-8"?>
<!-- Generator: Adobe Illustrator 26.5.0, SVG Export Plug-In . SVG Version: 6.00 Build 0)  -->
<svg version="1.1" id="Layer_1" xmlns="http://www.w3.org/2000/svg" xmlns:xlink="http://www.w3.org/1999/xlink" x="0px" y="0px"
	 viewBox="0 0 297 93" style="enable-background:new 0 0 297 93;" xml:space="preserve">
<style type="text/css">
	.st0{fill:#FFFFFF;}
	.st1{fill:#1D3F2B;}
	.st2{fill:#1EC677;}
	.st3{fill-rule:evenodd;clip-rule:evenodd;fill:#FFFFFF;}
</style>
<g>
	<path class="st0" d="M10.24,0h276.52C292.42,0,297,4.58,297,10.24v72.52c0,5.66-4.58,10.24-10.24,10.24H10.24
		C4.58,93,0,88.42,0,82.76V10.24C0,4.58,4.58,0,10.24,0z"/>
</g>
<path class="st1" d="M63.06,28.11c-2.57,0-4.66-1.6-4.66-4.84c0-2.9,2.05-4.83,4.71-4.83c2.34,0,4.08,1.27,4.41,3.52h-2.24
	c-0.21-1.02-1.08-1.75-2.19-1.75c-1.5,0-2.61,1.22-2.61,3.06c0,1.88,1.13,3.06,2.76,3.06c1.27,0,2.14-0.74,2.26-1.73H62.9v-1.64
	h4.54V28h-1.89v-1.05C65.13,27.63,64.14,28.11,63.06,28.11z M75.46,21.19V28h-1.92v-0.93c-0.42,0.62-1.18,1.04-2.1,1.04
	c-1.5,0-2.51-0.97-2.51-2.47v-4.45h1.93v3.95c0,0.75,0.46,1.26,1.18,1.26c0.97,0,1.5-0.8,1.5-2.22v-2.99H75.46z M76.69,24.59
	c0-1.69,1.02-3.51,3.35-3.51c2.39,0,3.43,1.8,3.43,3.37c0,0.32-0.03,0.64-0.03,0.64h-4.84c0.16,0.91,0.75,1.4,1.63,1.4
	c0.66,0,1.14-0.29,1.29-0.77h1.92c-0.21,1.5-1.5,2.38-3.27,2.38C77.83,28.11,76.69,26.29,76.69,24.59z M78.63,23.72h2.76
	c-0.05-0.71-0.53-1.21-1.35-1.21C79.31,22.51,78.81,22.93,78.63,23.72z M87.34,28.11c-1.77,0-2.97-1-3.03-2.51h1.75
	c0.04,0.47,0.55,0.98,1.29,0.98c0.58,0,1-0.24,1-0.62c0-0.29-0.24-0.49-0.66-0.58l-1-0.2c-1.02-0.21-2.06-0.71-2.06-2.14
	c0-1.05,0.96-1.97,2.56-1.97c1.48,0,2.68,0.8,2.85,2.21h-1.75c-0.08-0.53-0.63-0.77-1.1-0.77c-0.45,0-0.79,0.2-0.79,0.54
	c0,0.3,0.28,0.49,0.68,0.56l1,0.2c1.13,0.21,2.09,0.66,2.09,2.11C90.16,27.09,89.03,28.11,87.34,28.11z M94.01,28.11
	c-1.77,0-2.97-1-3.03-2.51h1.75c0.04,0.47,0.55,0.98,1.29,0.98c0.58,0,1-0.24,1-0.62c0-0.29-0.24-0.49-0.66-0.58l-1-0.2
	c-1.02-0.21-2.06-0.71-2.06-2.14c0-1.05,0.96-1.97,2.56-1.97c1.48,0,2.68,0.8,2.85,2.21h-1.75c-0.08-0.53-0.63-0.77-1.1-0.77
	c-0.45,0-0.79,0.2-0.79,0.54c0,0.3,0.28,0.49,0.68,0.56l1,0.2c1.13,0.21,2.09,0.66,2.09,2.11C96.84,27.09,95.71,28.11,94.01,28.11z
	 M102.13,28L100,21.19h1.93l0.58,2.23c0.29,1.17,0.46,2.1,0.46,2.1s0.22-0.92,0.59-2.09l0.68-2.24H106l0.69,2.26
	c0.37,1.17,0.59,2.09,0.59,2.09s0.17-0.93,0.46-2.13l0.56-2.22h1.94L108.11,28h-1.68l-0.71-2.27c-0.37-1.17-0.58-2.09-0.58-2.09
	s-0.25,0.92-0.62,2.07L103.79,28H102.13z M111.19,28v-9.57h1.92v3.69c0.43-0.63,1.18-1.04,2.1-1.04c1.51,0,2.51,0.97,2.51,2.47V28
	h-1.92v-3.95c0-0.75-0.47-1.26-1.19-1.26c-0.97,0-1.5,0.8-1.5,2.23V28H111.19z M122.42,28.11c-2.06,0-3.53-1.5-3.53-3.52
	c0-2.01,1.47-3.51,3.53-3.51c2.05,0,3.54,1.48,3.54,3.51C125.97,26.62,124.47,28.11,122.42,28.11z M122.42,26.46
	c0.95,0,1.59-0.77,1.59-1.88c0-1.1-0.66-1.86-1.59-1.86c-0.97,0-1.59,0.77-1.59,1.86C120.84,25.69,121.45,26.46,122.42,26.46z
	 M129.24,30.56c-0.32,0-0.53-0.03-0.53-0.03v-1.63c0,0,0.13,0.01,0.32,0.01c0.63,0,1-0.45,1-1.22v-6.51h1.92v6.71
	C131.95,29.54,130.87,30.56,129.24,30.56z M129.99,18.43h2.03v1.88h-2.03V18.43z M139.97,21.19V28h-1.92v-0.93
	c-0.42,0.62-1.18,1.04-2.1,1.04c-1.5,0-2.51-0.97-2.51-2.47v-4.45h1.93v3.95c0,0.75,0.46,1.26,1.18,1.26c0.97,0,1.5-0.8,1.5-2.22
	v-2.99H139.97z M144.14,28.11c-1.77,0-2.97-1-3.03-2.51h1.75c0.04,0.47,0.55,0.98,1.29,0.98c0.58,0,1-0.24,1-0.62
	c0-0.29-0.24-0.49-0.66-0.58l-1-0.2c-1.02-0.21-2.06-0.71-2.06-2.14c0-1.05,0.96-1.97,2.56-1.97c1.48,0,2.68,0.8,2.85,2.21h-1.75
	c-0.08-0.53-0.63-0.77-1.1-0.77c-0.45,0-0.79,0.2-0.79,0.54c0,0.3,0.28,0.49,0.68,0.56l1,0.2c1.13,0.21,2.09,0.66,2.09,2.11
	C146.96,27.09,145.83,28.11,144.14,28.11z M152.13,21.19v1.59h-1.52v2.72c0,0.62,0.39,0.97,0.92,0.97c0.2,0,0.42-0.04,0.6-0.09v1.64
	c-0.22,0.05-0.51,0.09-0.88,0.09c-1.47,0-2.57-0.77-2.57-2.39v-2.94h-1.1v-1.59h1.1V19.2h1.93v1.98H152.13z M159.31,30.56
	c-1.85,0-3.16-0.85-3.4-2.49h1.93c0.11,0.62,0.67,0.98,1.47,0.98c0.89,0,1.46-0.51,1.46-1.33v-0.79c-0.33,0.41-0.97,0.71-1.76,0.71
	c-1.93,0-3.19-1.27-3.19-3.27c0-2.02,1.26-3.3,3.14-3.3c0.8,0,1.45,0.3,1.81,0.76v-0.66h1.93v6.34
	C162.7,29.38,161.35,30.56,159.31,30.56z M159.33,26.02c0.95,0,1.55-0.66,1.55-1.64c0-0.98-0.6-1.65-1.55-1.65
	c-0.94,0-1.55,0.66-1.55,1.65C157.78,25.36,158.38,26.02,159.33,26.02z M167.45,28.11c-2.06,0-3.53-1.5-3.53-3.52
	c0-2.01,1.47-3.51,3.53-3.51c2.05,0,3.54,1.48,3.54,3.51C170.99,26.62,169.5,28.11,167.45,28.11z M167.45,26.46
	c0.94,0,1.59-0.77,1.59-1.88c0-1.1-0.66-1.86-1.59-1.86c-0.97,0-1.59,0.77-1.59,1.86C165.86,25.69,166.48,26.46,167.45,26.46z
	 M176.1,21.19v1.59h-1.52v2.72c0,0.62,0.39,0.97,0.92,0.97c0.2,0,0.42-0.04,0.6-0.09v1.64c-0.22,0.05-0.51,0.09-0.88,0.09
	c-1.47,0-2.57-0.77-2.57-2.39v-2.94h-1.1v-1.59h1.1V19.2h1.93v1.98H176.1z M180.1,30.46v-9.27h1.92v0.7c0.39-0.49,1.08-0.8,1.93-0.8
	c1.89,0,3.18,1.39,3.18,3.51c0,2.13-1.39,3.52-3.33,3.52c-0.78,0-1.4-0.25-1.77-0.66v3.01H180.1z M183.55,26.46
	c0.96,0,1.62-0.75,1.62-1.88c0-1.12-0.66-1.86-1.62-1.86c-0.99,0-1.64,0.75-1.64,1.86C181.91,25.72,182.57,26.46,183.55,26.46z
	 M190.49,28.11c-1.4,0-2.4-0.85-2.4-1.98c0-1.22,0.85-1.96,2.4-2.15l1.26-0.17c0.32-0.05,0.49-0.24,0.49-0.5
	c0-0.41-0.42-0.76-1.12-0.76c-0.63,0-1.15,0.35-1.18,0.97h-1.85c0.17-1.48,1.29-2.43,3.03-2.43c1.88,0,3.05,1.06,3.05,2.8v2.03
	c0,0.34,0.12,0.55,0.39,0.55c0.09,0,0.24-0.03,0.24-0.03V28c0,0-0.46,0.09-0.93,0.09c-0.71,0-1.22-0.32-1.33-0.88
	C192.26,27.76,191.49,28.11,190.49,28.11z M190.83,26.69c0.92,0,1.47-0.72,1.47-1.56v-0.14l-1.48,0.25
	c-0.56,0.09-0.84,0.37-0.84,0.79C189.98,26.39,190.29,26.69,190.83,26.69z M195.8,28v-6.81h1.92V28H195.8z M195.76,18.43h2.03v1.88
	h-2.03V18.43z M202.24,28.11c-2,0-3.26-1.39-3.26-3.52c0-2.13,1.27-3.51,3.23-3.51c0.81,0,1.48,0.3,1.87,0.77v-3.43h1.92V28h-1.92
	v-0.7C203.75,27.76,203.07,28.11,202.24,28.11z M202.55,26.46c0.97,0,1.63-0.75,1.63-1.88c0-1.12-0.66-1.86-1.63-1.86
	c-0.97,0-1.61,0.75-1.61,1.86C200.94,25.7,201.58,26.46,202.55,26.46z M210.06,24.59c0-1.69,1.02-3.51,3.35-3.51
	c2.39,0,3.43,1.8,3.43,3.37c0,0.32-0.03,0.64-0.03,0.64h-4.84c0.16,0.91,0.75,1.4,1.63,1.4c0.66,0,1.14-0.29,1.29-0.77h1.92
	c-0.21,1.5-1.5,2.38-3.27,2.38C211.2,28.11,210.06,26.29,210.06,24.59z M212,23.72h2.76c-0.05-0.71-0.52-1.21-1.35-1.21
	C212.68,22.51,212.18,22.93,212,23.72z M220.2,28.11c-1.4,0-2.4-0.85-2.4-1.98c0-1.22,0.85-1.96,2.4-2.15l1.26-0.17
	c0.31-0.05,0.49-0.24,0.49-0.5c0-0.41-0.42-0.76-1.12-0.76c-0.63,0-1.16,0.35-1.18,0.97h-1.85c0.17-1.48,1.29-2.43,3.03-2.43
	c1.88,0,3.05,1.06,3.05,2.8v2.03c0,0.34,0.12,0.55,0.39,0.55c0.09,0,0.24-0.03,0.24-0.03V28c0,0-0.46,0.09-0.93,0.09
	c-0.71,0-1.22-0.32-1.33-0.88C221.97,27.76,221.2,28.11,220.2,28.11z M220.54,26.69c0.92,0,1.47-0.72,1.47-1.56v-0.14l-1.48,0.25
	c-0.57,0.09-0.84,0.37-0.84,0.79C219.69,26.39,220,26.69,220.54,26.69z M229.85,22.95c-0.18-0.04-0.41-0.07-0.63-0.07
	c-0.89,0-1.79,0.7-1.79,2.65V28h-1.92v-6.81h1.92v1.18c0.32-0.74,1.21-1.29,2.02-1.29c0.16,0,0.29,0.01,0.39,0.03V22.95z M230.9,28
	v-9.57h1.92V28H230.9z M238.89,21.19h1.93l-2.8,7.26c-0.34,0.88-1.05,2.11-2.85,2.11c-0.34,0-0.7-0.07-1.02-0.17v-1.63
	c0,0,0.34,0.16,0.76,0.16c0.68,0,1.08-0.25,1.44-1.22l-2.65-6.51h2.13l1.5,4.02L238.89,21.19z M243.91,24.97
	c-0.26-2.3,2.21-2.17,2.21-3.75c0-0.7-0.53-1.16-1.27-1.16c-0.91,0-1.44,0.64-1.3,1.68h-1.86c-0.12-2.02,1.12-3.31,3.16-3.31
	c1.94,0,3.26,1.09,3.26,2.77c0,2.47-2.48,2.28-2.36,3.77H243.91z M243.8,26.06h2.04V28h-2.04V26.06z M58.91,43v-9.47h1.52V43H58.91z
	 M65.96,36.19v1.21H64.3v3.43c0,0.68,0.39,1.04,0.97,1.04c0.29,0,0.58-0.08,0.68-0.11V43c-0.12,0.04-0.46,0.11-0.83,0.11
	c-1.34,0-2.26-0.7-2.26-2.17v-3.54h-1.21v-1.21h1.21v-2.03h1.43v2.03H65.96z M67.31,36.97l-0.3-3.51h1.46l-0.3,3.51H67.31z
	 M72.07,43.11c-1.71,0-2.85-1.01-2.91-2.42h1.4c0.04,0.59,0.62,1.18,1.51,1.18c0.75,0,1.26-0.35,1.26-0.83
	c0-0.46-0.33-0.68-0.84-0.8l-1.13-0.26c-1-0.22-1.9-0.71-1.9-1.98c0-1.06,0.97-1.92,2.48-1.92c1.44,0,2.55,0.8,2.72,2.11h-1.4
	c-0.08-0.6-0.67-0.95-1.31-0.95c-0.62,0-1.05,0.29-1.05,0.75c0,0.37,0.32,0.6,0.8,0.72l1.13,0.25c1.09,0.24,1.97,0.67,1.97,2.03
	C74.79,42.19,73.71,43.11,72.07,43.11z M87.52,41.24c0,0,0.14-0.79,0.41-1.82l1.57-5.88h1.55L88.34,43h-1.72l-1.55-5.65
	c-0.28-1.05-0.41-1.82-0.41-1.82s-0.16,0.77-0.45,1.82L82.64,43h-1.69l-2.73-9.47h1.6l1.59,5.89c0.26,1.04,0.39,1.82,0.39,1.82
	s0.14-0.79,0.41-1.82l1.59-5.89h1.77l1.56,5.88C87.38,40.45,87.52,41.24,87.52,41.24z M91.16,39.59c0-1.84,1.14-3.51,3.29-3.51
	c2.11,0,3.23,1.58,3.22,3.27c0,0.26-0.03,0.58-0.03,0.58h-5.07c0.13,1.25,0.88,1.96,1.98,1.96c0.84,0,1.51-0.39,1.67-1.09h1.4
	c-0.24,1.48-1.48,2.31-3.11,2.31C92.37,43.11,91.16,41.44,91.16,39.59z M92.65,38.8h3.49c-0.07-0.92-0.66-1.59-1.68-1.59
	C93.5,37.21,92.86,37.8,92.65,38.8z M102.01,43.11c-2.05,0-3.26-1.47-3.26-3.52c0-2.05,1.22-3.51,3.23-3.51
	c0.87,0,1.67,0.39,2.07,0.97v-3.62h1.43V43h-1.43v-0.88C103.76,42.67,102.95,43.11,102.01,43.11z M102.2,41.86
	c1.17,0,1.97-0.91,1.97-2.27c0-1.37-0.8-2.26-1.97-2.26c-1.18,0-1.97,0.89-1.97,2.26C100.23,40.94,101.02,41.86,102.2,41.86z
	 M107.3,43v-6.81h1.43v1.16c0.47-0.77,1.29-1.26,2.26-1.26c1.44,0,2.46,0.96,2.46,2.43V43h-1.43v-4.17c0-0.85-0.54-1.46-1.4-1.46
	c-1.17,0-1.88,1-1.88,2.64V43H107.3z M114.81,39.59c0-1.84,1.14-3.51,3.3-3.51c2.11,0,3.23,1.58,3.22,3.27
	c0,0.26-0.03,0.58-0.03,0.58h-5.07c0.13,1.25,0.88,1.96,1.98,1.96c0.84,0,1.51-0.39,1.67-1.09h1.4c-0.24,1.48-1.48,2.31-3.11,2.31
	C116.02,43.11,114.81,41.44,114.81,39.59z M116.29,38.8h3.49c-0.07-0.92-0.66-1.59-1.68-1.59C117.15,37.21,116.5,37.8,116.29,38.8z
	 M125.2,43.11c-1.71,0-2.85-1.01-2.91-2.42h1.4c0.04,0.59,0.62,1.18,1.51,1.18c0.75,0,1.26-0.35,1.26-0.83
	c0-0.46-0.33-0.68-0.84-0.8l-1.13-0.26c-1-0.22-1.9-0.71-1.9-1.98c0-1.06,0.97-1.92,2.48-1.92c1.44,0,2.55,0.8,2.72,2.11h-1.4
	c-0.08-0.6-0.67-0.95-1.31-0.95c-0.62,0-1.05,0.29-1.05,0.75c0,0.37,0.32,0.6,0.8,0.72l1.13,0.25c1.09,0.24,1.97,0.67,1.97,2.03
	C127.92,42.19,126.84,43.11,125.2,43.11z M132.23,43.11c-2.05,0-3.26-1.47-3.26-3.52c0-2.05,1.22-3.51,3.23-3.51
	c0.87,0,1.67,0.39,2.07,0.97v-3.62h1.43V43h-1.43v-0.88C133.98,42.67,133.16,43.11,132.23,43.11z M132.42,41.86
	c1.17,0,1.97-0.91,1.97-2.27c0-1.37-0.8-2.26-1.97-2.26c-1.18,0-1.97,0.89-1.97,2.26C130.45,40.94,131.24,41.86,132.42,41.86z
	 M139.49,43.11c-1.38,0-2.35-0.8-2.35-1.96c0-1.18,0.85-1.92,2.34-2.11l1.46-0.2c0.39-0.05,0.59-0.24,0.59-0.56
	c0-0.59-0.54-1.05-1.43-1.05c-0.83,0-1.43,0.42-1.5,1.18h-1.4c0.16-1.42,1.25-2.32,2.9-2.32c1.75,0,2.86,1,2.86,2.52v2.7
	c0,0.39,0.17,0.54,0.45,0.54c0.09,0,0.22-0.03,0.22-0.03V43c0,0-0.34,0.08-0.67,0.08c-0.71,0-1.21-0.34-1.26-1.08
	C141.37,42.68,140.51,43.11,139.49,43.11z M139.71,41.99c1.17,0,1.85-0.81,1.85-1.98v-0.25l-1.85,0.3
	c-0.76,0.12-1.14,0.46-1.14,1.04C138.57,41.62,139.03,41.99,139.71,41.99z M148.98,36.19h1.44l-2.81,7.3
	c-0.45,1.14-1.1,2.07-2.53,2.07c-0.35,0-0.7-0.08-0.87-0.13v-1.23c0,0,0.34,0.12,0.72,0.12c0.72,0,1.05-0.38,1.43-1.37l0.04-0.11
	l-2.67-6.66h1.58l1.81,4.78L148.98,36.19z M157.71,43.11c-0.95,0-1.75-0.43-2.06-0.98V43h-1.43v-9.57h1.43v3.62
	c0.41-0.58,1.22-0.97,2.07-0.97c2.02,0,3.23,1.46,3.23,3.51C160.95,41.63,159.76,43.11,157.71,43.11z M157.51,41.86
	c1.19,0,1.98-0.92,1.98-2.27c0-1.37-0.79-2.26-1.98-2.26c-1.17,0-1.97,0.89-1.97,2.26C155.54,40.95,156.34,41.86,157.51,41.86z
	 M168.47,36.19V43h-1.43v-1.16c-0.47,0.77-1.29,1.26-2.26,1.26c-1.44,0-2.46-0.96-2.46-2.43v-4.49h1.43v4.17
	c0,0.85,0.54,1.46,1.4,1.46c1.17,0,1.88-1,1.88-2.64v-2.99H168.47z M173.89,36.19v1.21h-1.65v3.43c0,0.68,0.39,1.04,0.97,1.04
	c0.29,0,0.58-0.08,0.68-0.11V43c-0.12,0.04-0.46,0.11-0.83,0.11c-1.34,0-2.26-0.7-2.26-2.17v-3.54h-1.21v-1.21h1.21v-2.03h1.43v2.03
	H173.89z M178.34,43v-9.47h3.96c1.86,0,3.02,1.12,3.02,2.84c0,1.65-1.15,2.86-3.02,2.86h-2.44V43H178.34z M182.1,37.88
	c1.05,0,1.67-0.6,1.67-1.51c0-0.89-0.62-1.48-1.67-1.48h-2.24v2.99H182.1z M188.37,43.11c-1.38,0-2.35-0.8-2.35-1.96
	c0-1.18,0.85-1.92,2.34-2.11l1.46-0.2c0.39-0.05,0.59-0.24,0.59-0.56c0-0.59-0.54-1.05-1.43-1.05c-0.83,0-1.43,0.42-1.5,1.18h-1.4
	c0.16-1.42,1.25-2.32,2.9-2.32c1.75,0,2.86,1,2.86,2.52v2.7c0,0.39,0.17,0.54,0.45,0.54c0.09,0,0.22-0.03,0.22-0.03V43
	c0,0-0.34,0.08-0.67,0.08c-0.71,0-1.21-0.34-1.26-1.08C190.25,42.68,189.4,43.11,188.37,43.11z M188.6,41.99
	c1.17,0,1.85-0.81,1.85-1.98v-0.25l-1.85,0.3c-0.76,0.12-1.14,0.46-1.14,1.04C187.45,41.62,187.91,41.99,188.6,41.99z M197.86,36.19
	h1.44l-2.81,7.3c-0.45,1.14-1.1,2.07-2.53,2.07c-0.35,0-0.7-0.08-0.87-0.13v-1.23c0,0,0.34,0.12,0.72,0.12
	c0.72,0,1.05-0.38,1.43-1.37l0.04-0.11l-2.67-6.66h1.58l1.81,4.78L197.86,36.19z M203.05,43.11c-2.05,0-3.26-1.47-3.26-3.52
	c0-2.05,1.22-3.51,3.23-3.51c0.87,0,1.67,0.39,2.07,0.97v-3.62h1.43V43h-1.43v-0.88C204.79,42.67,203.98,43.11,203.05,43.11z
	 M203.23,41.86c1.17,0,1.97-0.91,1.97-2.27c0-1.37-0.8-2.26-1.97-2.26c-1.18,0-1.97,0.89-1.97,2.26
	C201.26,40.94,202.05,41.86,203.23,41.86z M210.3,43.11c-1.38,0-2.35-0.8-2.35-1.96c0-1.18,0.85-1.92,2.34-2.11l1.46-0.2
	c0.39-0.05,0.59-0.24,0.59-0.56c0-0.59-0.54-1.05-1.43-1.05c-0.83,0-1.43,0.42-1.5,1.18H208c0.16-1.42,1.25-2.32,2.9-2.32
	c1.75,0,2.86,1,2.86,2.52v2.7c0,0.39,0.17,0.54,0.45,0.54c0.09,0,0.22-0.03,0.22-0.03V43c0,0-0.34,0.08-0.67,0.08
	c-0.71,0-1.21-0.34-1.26-1.08C212.18,42.68,211.32,43.11,210.3,43.11z M210.52,41.99c1.17,0,1.85-0.81,1.85-1.98v-0.25l-1.85,0.3
	c-0.76,0.12-1.14,0.46-1.14,1.04C209.38,41.62,209.84,41.99,210.52,41.99z M219.79,36.19h1.44l-2.81,7.3
	c-0.45,1.14-1.1,2.07-2.53,2.07c-0.35,0-0.69-0.08-0.87-0.13v-1.23c0,0,0.34,0.12,0.72,0.12c0.72,0,1.05-0.38,1.43-1.37l0.04-0.11
	l-2.67-6.66h1.58l1.81,4.78L219.79,36.19z M228.02,43.11c-1.98,0-3.36-1.42-3.36-3.52c0-2.09,1.38-3.51,3.36-3.51
	c1.61,0,2.84,0.88,3.07,2.56h-1.4c-0.15-0.77-0.8-1.31-1.64-1.31c-1.17,0-1.93,0.89-1.93,2.26c0,1.38,0.77,2.27,1.93,2.27
	c0.85,0,1.48-0.5,1.64-1.37h1.4C230.82,42.26,229.62,43.11,228.02,43.11z M234.43,43.11c-1.38,0-2.35-0.8-2.35-1.96
	c0-1.18,0.85-1.92,2.34-2.11l1.46-0.2c0.39-0.05,0.59-0.24,0.59-0.56c0-0.59-0.54-1.05-1.43-1.05c-0.83,0-1.43,0.42-1.5,1.18h-1.4
	c0.16-1.42,1.25-2.32,2.9-2.32c1.75,0,2.86,1,2.86,2.52v2.7c0,0.39,0.17,0.54,0.45,0.54c0.09,0,0.22-0.03,0.22-0.03V43
	c0,0-0.34,0.08-0.67,0.08c-0.71,0-1.21-0.34-1.26-1.08C236.31,42.68,235.45,43.11,234.43,43.11z M234.65,41.99
	c1.17,0,1.85-0.81,1.85-1.98v-0.25l-1.85,0.3c-0.76,0.12-1.14,0.46-1.14,1.04C233.51,41.62,233.97,41.99,234.65,41.99z M239.77,43
	v-6.81h1.43v1.17c0.35-0.76,1.04-1.27,2.01-1.27c1.1,0,1.89,0.47,2.18,1.35c0.37-0.76,1.18-1.35,2.23-1.35c1.46,0,2.4,0.93,2.4,2.32
	V43h-1.43v-4.24c0-0.87-0.5-1.44-1.37-1.44c-1.04,0-1.61,0.92-1.61,2.25V43h-1.43v-4.24c0-0.87-0.49-1.44-1.35-1.44
	c-1.04,0-1.63,0.93-1.63,2.25V43H239.77z M251.39,39.59c0-1.84,1.14-3.51,3.3-3.51c2.11,0,3.23,1.58,3.22,3.27
	c0,0.26-0.03,0.58-0.03,0.58h-5.07c0.13,1.25,0.88,1.96,1.98,1.96c0.84,0,1.51-0.39,1.67-1.09h1.4c-0.24,1.48-1.48,2.31-3.11,2.31
	C252.6,43.11,251.39,41.44,251.39,39.59z M252.87,38.8h3.49c-0.07-0.92-0.66-1.59-1.68-1.59C253.72,37.21,253.08,37.8,252.87,38.8z
	 M58.39,54.59c0-1.84,1.14-3.51,3.3-3.51c2.11,0,3.23,1.58,3.22,3.27c0,0.26-0.03,0.58-0.03,0.58h-5.07
	c0.13,1.25,0.88,1.96,1.98,1.96c0.84,0,1.51-0.39,1.67-1.09h1.4c-0.24,1.48-1.48,2.31-3.11,2.31C59.6,58.11,58.39,56.44,58.39,54.59
	z M59.88,53.8h3.49c-0.07-0.92-0.66-1.59-1.68-1.59C60.73,52.21,60.09,52.8,59.88,53.8z M68.33,58.11c-1.38,0-2.35-0.8-2.35-1.96
	c0-1.18,0.85-1.92,2.34-2.11l1.46-0.2c0.39-0.05,0.59-0.24,0.59-0.56c0-0.59-0.54-1.05-1.43-1.05c-0.83,0-1.43,0.42-1.5,1.18h-1.4
	c0.16-1.42,1.25-2.32,2.9-2.32c1.75,0,2.86,1,2.86,2.52v2.7c0,0.39,0.17,0.54,0.45,0.54c0.09,0,0.22-0.03,0.22-0.03V58
	c0,0-0.34,0.08-0.67,0.08c-0.71,0-1.21-0.34-1.26-1.08C70.21,57.68,69.35,58.11,68.33,58.11z M68.55,56.99
	c1.17,0,1.85-0.81,1.85-1.98v-0.25l-1.85,0.3c-0.76,0.12-1.14,0.46-1.14,1.04C67.41,56.62,67.87,56.99,68.55,56.99z M77.7,52.49
	c-0.11-0.03-0.36-0.08-0.68-0.08c-1,0-1.92,0.92-1.92,3.05V58h-1.43v-6.81h1.43v1.3c0.32-0.81,1.23-1.4,2.1-1.4
	c0.29,0,0.43,0.04,0.5,0.04V52.49z M78.88,58v-9.57h1.43V58H78.88z M86.62,51.19h1.44l-2.81,7.3c-0.45,1.14-1.1,2.07-2.53,2.07
	c-0.35,0-0.7-0.08-0.87-0.13v-1.23c0,0,0.34,0.12,0.72,0.12c0.72,0,1.05-0.38,1.43-1.37l0.04-0.11l-2.67-6.66h1.57l1.81,4.78
	L86.62,51.19z M92.34,58v-5.61h-1.21v-1.21h1.21V50.5c0-1.46,0.95-2.17,2.22-2.17c0.29,0,0.59,0.03,0.87,0.09v1.25
	c-0.2-0.05-0.46-0.09-0.72-0.09c-0.5,0-0.95,0.34-0.95,1.04v0.56h1.67v1.21h-1.67V58H92.34z M99.37,58.11
	c-2.01,0-3.43-1.48-3.43-3.52c0-2.02,1.42-3.51,3.43-3.51c1.97,0,3.43,1.47,3.43,3.51C102.79,56.63,101.33,58.11,99.37,58.11z
	 M99.37,56.86c1.15,0,1.96-0.95,1.96-2.27c0-1.33-0.81-2.26-1.96-2.26c-1.2,0-1.97,0.95-1.97,2.26
	C97.4,55.91,98.17,56.86,99.37,56.86z M108.25,52.49c-0.11-0.03-0.35-0.08-0.68-0.08c-1,0-1.92,0.92-1.92,3.05V58h-1.43v-6.81h1.43
	v1.3c0.31-0.81,1.23-1.4,2.1-1.4c0.29,0,0.43,0.04,0.5,0.04V52.49z M116.32,51.19h1.44l-2.81,7.3c-0.45,1.14-1.1,2.07-2.53,2.07
	c-0.35,0-0.7-0.08-0.87-0.13v-1.23c0,0,0.34,0.12,0.72,0.12c0.72,0,1.05-0.38,1.43-1.37l0.04-0.11l-2.67-6.66h1.57l1.81,4.78
	L116.32,51.19z M121.65,58.11c-2.01,0-3.43-1.48-3.43-3.52c0-2.02,1.42-3.51,3.43-3.51c1.97,0,3.43,1.47,3.43,3.51
	C125.07,56.63,123.62,58.11,121.65,58.11z M121.65,56.86c1.15,0,1.96-0.95,1.96-2.27c0-1.33-0.81-2.26-1.96-2.26
	c-1.2,0-1.97,0.95-1.97,2.26C119.68,55.91,120.45,56.86,121.65,56.86z M132.58,51.19V58h-1.43v-1.16c-0.47,0.77-1.29,1.26-2.26,1.26
	c-1.44,0-2.46-0.96-2.46-2.43v-4.49h1.43v4.17c0,0.85,0.54,1.46,1.4,1.46c1.17,0,1.88-1,1.88-2.64v-2.99H132.58z M134.65,55.22
	l-0.25-6.68h1.69l-0.26,6.68H134.65z M134.41,56.39h1.65V58h-1.65V56.39z M143.4,59.42v-1.38c-1.62-0.28-2.8-1.44-2.91-3.16H142
	c0.08,1.06,1.01,1.88,2.18,1.88c1.14,0,1.89-0.54,1.89-1.35c0-0.74-0.52-1.14-1.25-1.35l-1.63-0.47c-1.27-0.35-2.34-1-2.34-2.61
	c0-1.31,1.02-2.26,2.55-2.48v-1.25h1.33v1.23c1.59,0.21,2.66,1.19,2.78,2.69H146c-0.13-0.79-0.81-1.39-1.9-1.39
	c-1.05,0-1.68,0.45-1.68,1.18c0,0.66,0.47,0.98,1.17,1.18l1.65,0.47c1.31,0.37,2.39,1.01,2.39,2.76c0,1.51-1.13,2.55-2.9,2.72v1.34
	H143.4z M150.58,58v-6.72h-2.03v-1.14c1.59-0.01,2.23-0.39,2.39-1.6h1.17V58H150.58z M153.94,56.39h1.67V58l-0.94,1.89h-0.62
	l0.67-1.89h-0.77V56.39z M160.49,58.11c-2,0-3.47-1.04-3.47-2.85c0-1.02,0.67-1.9,1.67-2.25c-0.81-0.37-1.38-1.19-1.38-2.02
	c0-1.48,1.27-2.56,3.18-2.56c1.89,0,3.18,1.08,3.18,2.56c0,0.83-0.58,1.65-1.39,2.02c0.99,0.33,1.68,1.21,1.68,2.25
	C163.96,57.07,162.47,58.11,160.49,58.11z M160.49,56.83c1.15,0,1.93-0.59,1.93-1.54c0-0.95-0.77-1.56-1.93-1.56
	c-1.17,0-1.94,0.62-1.94,1.56C158.55,56.24,159.32,56.83,160.49,56.83z M160.49,52.45c0.98,0,1.67-0.56,1.67-1.37
	c0.01-0.83-0.67-1.38-1.67-1.38c-1.01,0-1.68,0.55-1.68,1.38C158.82,51.88,159.49,52.45,160.49,52.45z M168.77,48.43
	c2.34,0,3.58,1.89,3.58,4.35c0,3.33-1.56,5.33-3.81,5.33c-1.56,0-3.07-0.77-3.26-2.69h1.55c0.04,0.72,0.66,1.37,1.71,1.37
	c1.48,0,2.3-1.44,2.35-3.32c-0.41,0.77-1.29,1.34-2.4,1.34c-1.82,0-3.22-1.34-3.22-3.18C165.27,49.72,166.73,48.43,168.77,48.43z
	 M168.74,49.76c-1.1,0-1.9,0.8-1.9,1.92c0,1.1,0.8,1.9,1.9,1.9c1.1,0,1.92-0.8,1.92-1.9C170.66,50.56,169.84,49.76,168.74,49.76z
	 M177.41,58.11c-2.38,0-3.72-1.94-3.72-4.84c0-2.89,1.34-4.83,3.72-4.83c2.39,0,3.73,1.93,3.73,4.83
	C181.13,56.18,179.8,58.11,177.41,58.11z M177.41,56.75c1.43,0,2.18-1.35,2.18-3.49c0-2.13-0.75-3.49-2.18-3.49
	c-1.4,0-2.15,1.35-2.15,3.49C175.25,55.41,176,56.75,177.41,56.75z M182.16,56.39h1.65V58h-1.65V56.39z M189.65,58v-2.14h-4.87
	v-1.35l4.7-5.97h1.69v5.97h1.27v1.35h-1.27V58H189.65z M186.4,54.51h3.24v-4.17L186.4,54.51z M197.1,48.43
	c2.34,0,3.58,1.89,3.58,4.35c0,3.33-1.56,5.33-3.81,5.33c-1.56,0-3.07-0.77-3.26-2.69h1.55c0.04,0.72,0.66,1.37,1.71,1.37
	c1.48,0,2.3-1.44,2.35-3.32c-0.41,0.77-1.29,1.34-2.4,1.34c-1.82,0-3.22-1.34-3.22-3.18C193.61,49.72,195.07,48.43,197.1,48.43z
	 M197.07,49.76c-1.1,0-1.9,0.8-1.9,1.92c0,1.1,0.8,1.9,1.9,1.9c1.1,0,1.92-0.8,1.92-1.9C198.99,50.56,198.18,49.76,197.07,49.76z
	 M206.46,58l-2.11-6.81h1.46l0.91,3.22c0.28,1.04,0.41,1.81,0.41,1.81s0.17-0.76,0.5-1.8l0.99-3.23h1.35l1,3.24
	c0.33,1.04,0.5,1.8,0.5,1.8s0.14-0.77,0.41-1.82l0.89-3.22h1.46L212.09,58h-1.33l-0.99-3.2c-0.33-1.04-0.5-1.81-0.5-1.81
	s-0.18,0.77-0.51,1.8l-1,3.22H206.46z M217.14,58.11c-1.38,0-2.35-0.8-2.35-1.96c0-1.18,0.85-1.92,2.34-2.11l1.46-0.2
	c0.39-0.05,0.59-0.24,0.59-0.56c0-0.59-0.54-1.05-1.43-1.05c-0.83,0-1.43,0.42-1.5,1.18h-1.4c0.16-1.42,1.25-2.32,2.9-2.32
	c1.75,0,2.86,1,2.86,2.52v2.7c0,0.39,0.17,0.54,0.45,0.54c0.09,0,0.22-0.03,0.22-0.03V58c0,0-0.34,0.08-0.67,0.08
	c-0.71,0-1.21-0.34-1.26-1.08C219.02,57.68,218.16,58.11,217.14,58.11z M217.36,56.99c1.17,0,1.85-0.81,1.85-1.98v-0.25l-1.85,0.3
	c-0.76,0.12-1.14,0.46-1.14,1.04C216.22,56.62,216.68,56.99,217.36,56.99z M224.91,58.11c-1.71,0-2.85-1.01-2.92-2.42h1.4
	c0.04,0.59,0.62,1.18,1.51,1.18c0.75,0,1.26-0.35,1.26-0.83c0-0.46-0.33-0.68-0.84-0.8l-1.13-0.26c-1-0.22-1.9-0.71-1.9-1.98
	c0-1.06,0.97-1.92,2.48-1.92c1.44,0,2.55,0.8,2.72,2.11h-1.4c-0.08-0.6-0.67-0.95-1.31-0.95c-0.62,0-1.05,0.29-1.05,0.75
	c0,0.37,0.32,0.6,0.8,0.72l1.13,0.25c1.09,0.24,1.97,0.67,1.97,2.03C227.63,57.19,226.55,58.11,224.91,58.11z M231.22,60.56
	c-0.24,0-0.39-0.01-0.39-0.01V59.3c0,0,0.11,0.01,0.28,0.01c0.59,0,0.95-0.47,0.95-1.22v-6.91h1.43v7.01
	C233.48,59.64,232.59,60.56,231.22,60.56z M231.98,48.43h1.59v1.61h-1.59V48.43z M241.38,51.19V58h-1.43v-1.16
	c-0.47,0.77-1.29,1.26-2.26,1.26c-1.44,0-2.45-0.96-2.45-2.43v-4.49h1.43v4.17c0,0.85,0.54,1.46,1.4,1.46c1.17,0,1.88-1,1.88-2.64
	v-2.99H241.38z M245.62,58.11c-1.71,0-2.85-1.01-2.91-2.42h1.4c0.04,0.59,0.62,1.18,1.51,1.18c0.75,0,1.26-0.35,1.26-0.83
	c0-0.46-0.33-0.68-0.84-0.8l-1.13-0.26c-1-0.22-1.9-0.71-1.9-1.98c0-1.06,0.97-1.92,2.48-1.92c1.44,0,2.55,0.8,2.72,2.11h-1.4
	c-0.08-0.6-0.67-0.95-1.31-0.95c-0.62,0-1.05,0.29-1.05,0.75c0,0.37,0.32,0.6,0.8,0.72l1.13,0.25c1.09,0.24,1.97,0.67,1.97,2.03
	C248.34,57.19,247.26,58.11,245.62,58.11z M253.31,51.19v1.21h-1.65v3.43c0,0.68,0.39,1.04,0.97,1.04c0.29,0,0.58-0.08,0.68-0.11V58
	c-0.12,0.04-0.46,0.11-0.83,0.11c-1.34,0-2.26-0.7-2.26-2.17v-3.54h-1.21v-1.21h1.21v-2.03h1.43v2.03H253.31z M58.77,75.46v-9.27
	h1.43v0.88c0.37-0.57,1.19-0.99,2.11-0.99c2,0,3.2,1.47,3.2,3.51c0,2.05-1.27,3.52-3.3,3.52c-0.81,0-1.6-0.37-2.02-0.91v3.26H58.77z
	 M62.08,71.86c1.18,0,1.97-0.91,1.97-2.27c0-1.37-0.79-2.26-1.97-2.26c-1.18,0-1.97,0.89-1.97,2.26
	C60.11,70.95,60.9,71.86,62.08,71.86z M69.99,73.11c-2.01,0-3.43-1.48-3.43-3.52c0-2.02,1.42-3.51,3.43-3.51
	c1.97,0,3.43,1.47,3.43,3.51C73.42,71.64,71.96,73.11,69.99,73.11z M69.99,71.86c1.15,0,1.96-0.94,1.96-2.27
	c0-1.33-0.81-2.26-1.96-2.26c-1.19,0-1.97,0.95-1.97,2.26C68.02,70.91,68.8,71.86,69.99,71.86z M77.28,73.11
	c-1.71,0-2.85-1.01-2.91-2.42h1.41c0.04,0.59,0.62,1.18,1.51,1.18c0.75,0,1.26-0.36,1.26-0.83c0-0.46-0.33-0.68-0.84-0.8l-1.13-0.26
	c-1-0.22-1.9-0.71-1.9-1.98c0-1.06,0.97-1.92,2.48-1.92c1.44,0,2.55,0.8,2.72,2.11h-1.4c-0.08-0.6-0.67-0.94-1.31-0.94
	c-0.62,0-1.05,0.29-1.05,0.75c0,0.37,0.32,0.6,0.8,0.72l1.13,0.25C79.12,69.21,80,69.64,80,71C80,72.19,78.92,73.11,77.28,73.11z
	 M84.97,66.19v1.21h-1.65v3.43c0,0.68,0.39,1.04,0.97,1.04c0.29,0,0.58-0.08,0.68-0.11V73c-0.12,0.04-0.46,0.11-0.83,0.11
	c-1.34,0-2.26-0.7-2.26-2.17v-3.55h-1.21v-1.21h1.21v-2.03h1.43v2.03H84.97z M85.73,69.59c0-1.84,1.14-3.51,3.3-3.51
	c2.11,0,3.23,1.58,3.22,3.27c0,0.26-0.03,0.58-0.03,0.58h-5.07c0.13,1.25,0.88,1.96,1.98,1.96c0.84,0,1.51-0.39,1.67-1.09h1.4
	c-0.24,1.48-1.48,2.31-3.11,2.31C86.93,73.11,85.73,71.44,85.73,69.59z M87.21,68.8h3.49c-0.07-0.92-0.66-1.59-1.68-1.59
	C88.06,67.21,87.42,67.8,87.21,68.8z M96.58,73.11c-2.05,0-3.26-1.47-3.26-3.52c0-2.05,1.22-3.51,3.23-3.51
	c0.87,0,1.67,0.39,2.08,0.97v-3.62h1.43V73h-1.43v-0.88C98.33,72.67,97.51,73.11,96.58,73.11z M96.76,71.86
	c1.17,0,1.97-0.91,1.97-2.27c0-1.37-0.8-2.26-1.97-2.26c-1.18,0-1.97,0.89-1.97,2.26C94.79,70.94,95.58,71.86,96.76,71.86z
	 M101.72,71.39h1.65V73h-1.65V71.39z"/>
<path class="st2" d="M21.83,31h18.33c3.22,0,5.83,2.61,5.83,5.83v18.33c0,3.22-2.61,5.83-5.83,5.83H21.83
	C18.61,61,16,58.39,16,55.17V36.83C16,33.61,18.61,31,21.83,31z"/>
<path class="st3" d="M31.26,54.04c-4.87,0-8.26-3.29-8.26-8c0-2.37,0.82-4.41,2.36-5.88c1.44-1.37,3.4-2.12,5.52-2.12
	c1.06,0,1.97,0.19,2.84,0.37c0.84,0.17,1.63,0.34,2.51,0.34c0.26,0,0.51-0.01,0.77-0.04v3.55c-0.31,0.05-0.61,0.07-0.91,0.07
	c-0.98,0-1.79-0.24-2.58-0.46c-0.76-0.22-1.48-0.43-2.31-0.43c-2.55,0-4.33,1.83-4.33,4.45c0,2.75,1.95,4.67,4.74,4.67
	c1.75,0,3.7-0.76,5.38-2.09v3.7C35.87,53.02,33.96,54.04,31.26,54.04z"/>
</svg>
