<?xml version="1.0" encoding="utf-8"?>
<!-- Generator: Adobe Illustrator 26.5.0, SVG Export Plug-In . SVG Version: 6.00 Build 0)  -->
<svg version="1.1" id="Layer_1" xmlns="http://www.w3.org/2000/svg" xmlns:xlink="http://www.w3.org/1999/xlink" x="0px" y="0px"
	 viewBox="0 0 297 93" style="enable-background:new 0 0 297 93;" xml:space="preserve">
<style type="text/css">
	.st0{fill:#FFFFFF;}
	.st1{fill:#1D3F2B;}
	.st2{fill:#1EC677;}
	.st3{fill-rule:evenodd;clip-rule:evenodd;fill:#FFFFFF;}
</style>
<g>
	<path class="st0" d="M10.24,0h276.52C292.42,0,297,4.58,297,10.24v72.52c0,5.66-4.58,10.24-10.24,10.24H10.24
		C4.58,93,0,88.42,0,82.76V10.24C0,4.58,4.58,0,10.24,0z"/>
</g>
<path class="st1" d="M61.31,28v-3.91l-3.23-5.55h2.21l2.03,3.61l2.07-3.61h2.19l-3.24,5.55V28H61.31z M69.16,28.11
	c-2.06,0-3.53-1.5-3.53-3.52c0-2.01,1.47-3.51,3.53-3.51c2.05,0,3.54,1.48,3.54,3.51C72.71,26.62,71.21,28.11,69.16,28.11z
	 M69.16,26.46c0.94,0,1.59-0.77,1.59-1.88c0-1.1-0.66-1.86-1.59-1.86c-0.97,0-1.59,0.77-1.59,1.86
	C67.57,25.69,68.19,26.46,69.16,26.46z M80.4,21.19V28h-1.92v-0.93c-0.42,0.62-1.18,1.04-2.1,1.04c-1.5,0-2.51-0.97-2.51-2.47v-4.45
	h1.93v3.95c0,0.75,0.46,1.26,1.18,1.26c0.97,0,1.5-0.8,1.5-2.22v-2.99H80.4z M86.28,22.95c-0.18-0.04-0.41-0.07-0.63-0.07
	c-0.89,0-1.79,0.7-1.79,2.65V28h-1.92v-6.81h1.92v1.18c0.32-0.74,1.21-1.29,2.02-1.29c0.16,0,0.29,0.01,0.39,0.03V22.95z
	 M89.91,30.46v-9.27h1.92v0.7c0.39-0.49,1.08-0.8,1.93-0.8c1.89,0,3.18,1.39,3.18,3.51c0,2.13-1.39,3.52-3.33,3.52
	c-0.77,0-1.4-0.25-1.77-0.66v3.01H89.91z M93.36,26.46c0.96,0,1.62-0.75,1.62-1.88c0-1.12-0.66-1.86-1.62-1.86
	c-0.99,0-1.64,0.75-1.64,1.86C91.72,25.72,92.37,26.46,93.36,26.46z M102.51,22.95c-0.18-0.04-0.41-0.07-0.63-0.07
	c-0.89,0-1.79,0.7-1.79,2.65V28h-1.92v-6.81h1.92v1.18c0.31-0.74,1.21-1.29,2.02-1.29c0.16,0,0.29,0.01,0.39,0.03V22.95z
	 M106.48,28.11c-2.06,0-3.53-1.5-3.53-3.52c0-2.01,1.47-3.51,3.53-3.51c2.05,0,3.54,1.48,3.54,3.51
	C110.03,26.62,108.53,28.11,106.48,28.11z M106.48,26.46c0.95,0,1.59-0.77,1.59-1.88c0-1.1-0.66-1.86-1.59-1.86
	c-0.97,0-1.59,0.77-1.59,1.86C104.89,25.69,105.51,26.46,106.48,26.46z M114.45,30.56c-1.85,0-3.16-0.85-3.4-2.49h1.93
	c0.1,0.62,0.67,0.98,1.47,0.98c0.89,0,1.46-0.51,1.46-1.33v-0.79c-0.33,0.41-0.97,0.71-1.76,0.71c-1.93,0-3.19-1.27-3.19-3.27
	c0-2.02,1.26-3.3,3.14-3.3c0.8,0,1.44,0.3,1.81,0.76v-0.66h1.93v6.34C117.84,29.38,116.48,30.56,114.45,30.56z M114.46,26.02
	c0.94,0,1.55-0.66,1.55-1.64c0-0.98-0.6-1.65-1.55-1.65c-0.95,0-1.55,0.66-1.55,1.65C112.91,25.36,113.52,26.02,114.46,26.02z
	 M123.7,22.95c-0.18-0.04-0.41-0.07-0.63-0.07c-0.89,0-1.79,0.7-1.79,2.65V28h-1.92v-6.81h1.92v1.18c0.32-0.74,1.21-1.29,2.02-1.29
	c0.16,0,0.29,0.01,0.39,0.03V22.95z M124.14,24.59c0-1.69,1.02-3.51,3.35-3.51c2.39,0,3.43,1.8,3.43,3.37
	c0,0.32-0.03,0.64-0.03,0.64h-4.85c0.16,0.91,0.75,1.4,1.63,1.4c0.66,0,1.14-0.29,1.29-0.77h1.92c-0.21,1.5-1.5,2.38-3.27,2.38
	C125.28,28.11,124.14,26.29,124.14,24.59z M126.08,23.72h2.76c-0.05-0.71-0.52-1.21-1.35-1.21
	C126.76,22.51,126.26,22.93,126.08,23.72z M134.79,28.11c-1.77,0-2.97-1-3.03-2.51h1.75c0.04,0.47,0.55,0.98,1.29,0.98
	c0.58,0,1-0.24,1-0.62c0-0.29-0.24-0.49-0.66-0.58l-1-0.2c-1.02-0.21-2.06-0.71-2.06-2.14c0-1.05,0.96-1.97,2.56-1.97
	c1.48,0,2.68,0.8,2.85,2.21h-1.75c-0.08-0.53-0.63-0.77-1.1-0.77c-0.45,0-0.79,0.2-0.79,0.54c0,0.3,0.27,0.49,0.68,0.56l1,0.2
	c1.13,0.21,2.09,0.66,2.09,2.11C137.61,27.09,136.48,28.11,134.79,28.11z M141.46,28.11c-1.77,0-2.97-1-3.03-2.51h1.75
	c0.04,0.47,0.55,0.98,1.29,0.98c0.58,0,1-0.24,1-0.62c0-0.29-0.24-0.49-0.66-0.58l-1-0.2c-1.02-0.21-2.06-0.71-2.06-2.14
	c0-1.05,0.96-1.97,2.56-1.97c1.48,0,2.68,0.8,2.85,2.21h-1.75c-0.08-0.53-0.63-0.77-1.1-0.77c-0.45,0-0.79,0.2-0.79,0.54
	c0,0.3,0.28,0.49,0.68,0.56l1,0.2c1.13,0.21,2.09,0.66,2.09,2.11C144.28,27.09,143.15,28.11,141.46,28.11z M152.67,22.95
	c-0.18-0.04-0.41-0.07-0.63-0.07c-0.89,0-1.79,0.7-1.79,2.65V28h-1.92v-6.81h1.92v1.18c0.32-0.74,1.21-1.29,2.02-1.29
	c0.16,0,0.29,0.01,0.39,0.03V22.95z M153.1,24.59c0-1.69,1.02-3.51,3.35-3.51c2.39,0,3.43,1.8,3.43,3.37c0,0.32-0.03,0.64-0.03,0.64
	h-4.84c0.16,0.91,0.75,1.4,1.63,1.4c0.66,0,1.14-0.29,1.29-0.77h1.92c-0.21,1.5-1.5,2.38-3.27,2.38
	C154.25,28.11,153.1,26.29,153.1,24.59z M155.05,23.72h2.76c-0.05-0.71-0.52-1.21-1.35-1.21C155.73,22.51,155.23,22.93,155.05,23.72
	z M161.13,30.46v-9.27h1.92v0.7c0.39-0.49,1.08-0.8,1.93-0.8c1.89,0,3.18,1.39,3.18,3.51c0,2.13-1.39,3.52-3.34,3.52
	c-0.77,0-1.4-0.25-1.77-0.66v3.01H161.13z M164.58,26.46c0.96,0,1.62-0.75,1.62-1.88c0-1.12-0.66-1.86-1.62-1.86
	c-0.98,0-1.64,0.75-1.64,1.86C162.94,25.72,163.6,26.46,164.58,26.46z M172.62,28.11c-2.06,0-3.53-1.5-3.53-3.52
	c0-2.01,1.47-3.51,3.53-3.51c2.05,0,3.55,1.48,3.55,3.51C176.17,26.62,174.67,28.11,172.62,28.11z M172.62,26.46
	c0.95,0,1.59-0.77,1.59-1.88c0-1.1-0.66-1.86-1.59-1.86c-0.97,0-1.59,0.77-1.59,1.86C171.03,25.69,171.65,26.46,172.62,26.46z
	 M181.73,22.95c-0.18-0.04-0.41-0.07-0.63-0.07c-0.89,0-1.79,0.7-1.79,2.65V28h-1.92v-6.81h1.92v1.18c0.32-0.74,1.21-1.29,2.02-1.29
	c0.16,0,0.29,0.01,0.39,0.03V22.95z M186.87,21.19v1.59h-1.52v2.72c0,0.62,0.39,0.97,0.92,0.97c0.2,0,0.42-0.04,0.6-0.09v1.64
	c-0.22,0.05-0.51,0.09-0.88,0.09c-1.47,0-2.57-0.77-2.57-2.39v-2.94h-1.1v-1.59h1.1V19.2h1.93v1.98H186.87z M190.87,28v-6.81h1.92
	V28H190.87z M190.83,18.43h2.04v1.88h-2.04V18.43z M196.97,28.11c-1.77,0-2.97-1-3.03-2.51h1.75c0.04,0.47,0.55,0.98,1.29,0.98
	c0.58,0,1-0.24,1-0.62c0-0.29-0.24-0.49-0.66-0.58l-1-0.2c-1.02-0.21-2.06-0.71-2.06-2.14c0-1.05,0.96-1.97,2.56-1.97
	c1.48,0,2.68,0.8,2.85,2.21h-1.75c-0.08-0.53-0.63-0.77-1.1-0.77c-0.45,0-0.79,0.2-0.79,0.54c0,0.3,0.28,0.49,0.68,0.56l1,0.2
	c1.13,0.21,2.09,0.66,2.09,2.11C199.8,27.09,198.67,28.11,196.97,28.11z M203.85,28v-9.57h1.92v3.69c0.43-0.63,1.18-1.04,2.1-1.04
	c1.51,0,2.51,0.97,2.51,2.47V28h-1.92v-3.95c0-0.75-0.47-1.26-1.19-1.26c-0.97,0-1.5,0.8-1.5,2.23V28H203.85z M211.55,24.59
	c0-1.69,1.02-3.51,3.35-3.51c2.39,0,3.43,1.8,3.43,3.37c0,0.32-0.03,0.64-0.03,0.64h-4.84c0.16,0.91,0.75,1.4,1.63,1.4
	c0.66,0,1.14-0.29,1.29-0.77h1.92c-0.21,1.5-1.5,2.38-3.27,2.38C212.69,28.11,211.55,26.29,211.55,24.59z M213.49,23.72h2.76
	c-0.05-0.71-0.53-1.21-1.35-1.21C214.18,22.51,213.68,22.93,213.49,23.72z M223.91,22.95c-0.18-0.04-0.41-0.07-0.63-0.07
	c-0.89,0-1.79,0.7-1.79,2.65V28h-1.92v-6.81h1.92v1.18c0.32-0.74,1.21-1.29,2.02-1.29c0.16,0,0.29,0.01,0.39,0.03V22.95z
	 M224.35,24.59c0-1.69,1.02-3.51,3.35-3.51c2.39,0,3.43,1.8,3.43,3.37c0,0.32-0.03,0.64-0.03,0.64h-4.85
	c0.16,0.91,0.75,1.4,1.63,1.4c0.66,0,1.14-0.29,1.29-0.77h1.92c-0.21,1.5-1.5,2.38-3.27,2.38
	C225.49,28.11,224.35,26.29,224.35,24.59z M226.29,23.72h2.76c-0.05-0.71-0.52-1.21-1.35-1.21
	C226.97,22.51,226.47,22.93,226.29,23.72z M64.97,37.37v-3.83h1.52V43h-1.52v-4.28h-4.54V43h-1.52v-9.47h1.52v3.83H64.97z
	 M67.95,39.59c0-1.84,1.14-3.51,3.29-3.51c2.11,0,3.23,1.58,3.22,3.27c0,0.26-0.03,0.58-0.03,0.58h-5.07
	c0.13,1.25,0.88,1.96,1.98,1.96c0.84,0,1.51-0.39,1.67-1.09h1.41c-0.24,1.48-1.48,2.31-3.11,2.31
	C69.16,43.11,67.95,41.44,67.95,39.59z M69.43,38.8h3.49c-0.07-0.92-0.66-1.59-1.68-1.59C70.29,37.21,69.64,37.8,69.43,38.8z
	 M75.92,43v-9.57h1.43V43H75.92z M79.17,43v-9.57h1.43V43H79.17z M85.46,43.11c-2.01,0-3.43-1.48-3.43-3.52
	c0-2.02,1.42-3.51,3.43-3.51c1.97,0,3.43,1.47,3.43,3.51C88.89,41.63,87.43,43.11,85.46,43.11z M85.46,41.86
	c1.16,0,1.96-0.95,1.96-2.27c0-1.33-0.81-2.26-1.96-2.26c-1.19,0-1.97,0.95-1.97,2.26C83.49,40.91,84.27,41.86,85.46,41.86z
	 M97.65,43.11c-2.46,0-4.65-1.6-4.65-4.84c0-3.23,2.23-4.83,4.65-4.83c2.15,0,3.86,1.19,4.14,3.32h-1.6
	c-0.2-1.21-1.22-1.98-2.55-1.98c-1.76,0-3.09,1.25-3.09,3.49c0,2.26,1.33,3.49,3.09,3.49c1.34,0,2.32-0.72,2.55-1.97h1.62
	C101.44,41.98,99.73,43.11,97.65,43.11z M105.13,43.11c-1.38,0-2.35-0.8-2.35-1.96c0-1.18,0.85-1.92,2.34-2.11l1.46-0.2
	c0.39-0.05,0.59-0.24,0.59-0.56c0-0.59-0.54-1.05-1.43-1.05c-0.83,0-1.43,0.42-1.5,1.18h-1.4c0.16-1.42,1.25-2.32,2.9-2.32
	c1.75,0,2.86,1,2.86,2.52v2.7c0,0.39,0.17,0.54,0.45,0.54c0.09,0,0.22-0.03,0.22-0.03V43c0,0-0.34,0.08-0.67,0.08
	c-0.71,0-1.21-0.34-1.26-1.08C107.01,42.68,106.16,43.11,105.13,43.11z M105.36,41.99c1.17,0,1.85-0.81,1.85-1.98v-0.25l-1.85,0.3
	c-0.76,0.12-1.14,0.46-1.14,1.04C104.22,41.62,104.68,41.99,105.36,41.99z M113.96,36.19v1.21h-1.65v3.43
	c0,0.68,0.39,1.04,0.97,1.04c0.29,0,0.58-0.08,0.68-0.11V43c-0.12,0.04-0.46,0.11-0.83,0.11c-1.34,0-2.26-0.7-2.26-2.17v-3.54h-1.21
	v-1.21h1.21v-2.03h1.43v2.03H113.96z M119.77,36.19h1.44l-2.81,7.3c-0.45,1.14-1.1,2.07-2.53,2.07c-0.35,0-0.7-0.08-0.87-0.13v-1.23
	c0,0,0.34,0.12,0.72,0.12c0.72,0,1.05-0.38,1.43-1.37l0.04-0.11l-2.67-6.66h1.58l1.81,4.78L119.77,36.19z M121.37,41.39h1.67V43
	l-0.95,1.89h-0.62l0.67-1.89h-0.77V41.39z M131.67,36.19h1.44l-2.81,7.3c-0.45,1.14-1.1,2.07-2.53,2.07c-0.35,0-0.7-0.08-0.87-0.13
	v-1.23c0,0,0.34,0.12,0.72,0.12c0.72,0,1.05-0.38,1.43-1.37l0.04-0.11l-2.66-6.66h1.57l1.81,4.78L131.67,36.19z M137.01,43.11
	c-2.01,0-3.43-1.48-3.43-3.52c0-2.02,1.42-3.51,3.43-3.51c1.97,0,3.43,1.47,3.43,3.51C140.43,41.63,138.98,43.11,137.01,43.11z
	 M137.01,41.86c1.15,0,1.96-0.95,1.96-2.27c0-1.33-0.81-2.26-1.96-2.26c-1.19,0-1.97,0.95-1.97,2.26
	C135.04,40.91,135.81,41.86,137.01,41.86z M147.94,36.19V43h-1.43v-1.16c-0.47,0.77-1.29,1.26-2.26,1.26
	c-1.44,0-2.46-0.96-2.46-2.43v-4.49h1.43v4.17c0,0.85,0.54,1.46,1.4,1.46c1.17,0,1.88-1,1.88-2.64v-2.99H147.94z M149.56,33.47h1.67
	v1.61l-0.95,1.89h-0.62l0.67-1.89h-0.77V33.47z M154.48,43l-2.49-6.81h1.46l1.73,5.17l1.75-5.17h1.43L155.87,43H154.48z
	 M158.86,39.59c0-1.84,1.14-3.51,3.3-3.51c2.11,0,3.23,1.58,3.22,3.27c0,0.26-0.03,0.58-0.03,0.58h-5.07
	c0.13,1.25,0.88,1.96,1.98,1.96c0.84,0,1.51-0.39,1.67-1.09h1.4c-0.24,1.48-1.48,2.31-3.11,2.31
	C160.07,43.11,158.86,41.44,158.86,39.59z M160.35,38.8h3.49c-0.07-0.92-0.66-1.59-1.68-1.59C161.2,37.21,160.55,37.8,160.35,38.8z
	 M172.86,45.56c-1.86,0-3.06-0.83-3.26-2.38h1.44c0.11,0.75,0.75,1.19,1.81,1.19c1.13,0,1.8-0.6,1.8-1.67v-0.89
	c-0.33,0.5-1.1,0.85-2.01,0.85c-2,0-3.2-1.37-3.2-3.28c0-1.94,1.21-3.31,3.16-3.31c0.87,0,1.65,0.38,2.05,0.93v-0.83h1.43v6.38
	C176.09,44.44,174.87,45.56,172.86,45.56z M172.84,41.44c1.17,0,1.92-0.81,1.92-2.05s-0.75-2.06-1.92-2.06
	c-1.17,0-1.92,0.81-1.92,2.06C170.92,40.62,171.67,41.44,172.84,41.44z M180.93,43.11c-2.01,0-3.43-1.48-3.43-3.52
	c0-2.02,1.42-3.51,3.43-3.51c1.97,0,3.43,1.47,3.43,3.51C184.36,41.63,182.9,43.11,180.93,43.11z M180.93,41.86
	c1.15,0,1.96-0.95,1.96-2.27c0-1.33-0.81-2.26-1.96-2.26c-1.19,0-1.97,0.95-1.97,2.26C178.97,40.91,179.74,41.86,180.93,41.86z
	 M189.25,36.19v1.21h-1.65v3.43c0,0.68,0.39,1.04,0.97,1.04c0.29,0,0.58-0.08,0.68-0.11V43c-0.12,0.04-0.46,0.11-0.83,0.11
	c-1.34,0-2.26-0.7-2.26-2.17v-3.54h-1.21v-1.21h1.21v-2.03h1.43v2.03H189.25z M196.07,44.42v-1.38c-1.61-0.28-2.8-1.44-2.91-3.16
	h1.51c0.08,1.06,1.01,1.88,2.18,1.88c1.14,0,1.89-0.54,1.89-1.35c0-0.74-0.53-1.14-1.25-1.35l-1.63-0.47
	c-1.27-0.35-2.34-1-2.34-2.61c0-1.31,1.02-2.26,2.55-2.48v-1.25h1.33v1.23c1.59,0.21,2.67,1.19,2.78,2.69h-1.51
	c-0.13-0.79-0.81-1.39-1.9-1.39c-1.05,0-1.68,0.45-1.68,1.18c0,0.66,0.47,0.98,1.17,1.18l1.65,0.47c1.31,0.37,2.39,1.01,2.39,2.76
	c0,1.51-1.13,2.55-2.9,2.72v1.34H196.07z M206.25,43v-2.14h-4.87v-1.35l4.7-5.97h1.69v5.97h1.27v1.35h-1.27V43H206.25z
	 M203.01,39.51h3.24v-4.17L203.01,39.51z M210.02,43v-1.29l3.47-2.95c1.04-0.89,1.52-1.61,1.52-2.42c0-0.96-0.66-1.58-1.64-1.58
	c-1.19,0-1.86,0.88-1.75,2.21h-1.47c-0.17-2.1,1.22-3.54,3.22-3.54c1.93,0,3.2,1.17,3.2,2.91c0,1.17-0.67,2.23-2.18,3.45l-2.21,1.85
	h4.37V43H210.02z M219.64,43v-6.72h-2.03v-1.14c1.59-0.01,2.23-0.39,2.39-1.6h1.17V43H219.64z M222.99,41.39h1.65V43h-1.65V41.39z
	 M229.4,43.11c-1.85,0-3.33-1.09-3.45-2.88h1.47c0.16,0.93,0.89,1.52,1.93,1.52c1.13,0,1.88-0.76,1.88-1.9c0-1.17-0.77-1.9-1.96-1.9
	c-0.85,0-1.4,0.38-1.72,0.93h-1.35l0.75-5.34h5.41v1.34h-4.25l-0.38,2.55c0.47-0.43,1.17-0.72,1.86-0.72c1.9,0,3.19,1.26,3.19,3.15
	C232.77,41.81,231.45,43.11,229.4,43.11z M233.91,43v-1.29l3.47-2.95c1.04-0.89,1.52-1.61,1.52-2.42c0-0.96-0.66-1.58-1.64-1.58
	c-1.19,0-1.86,0.88-1.75,2.21h-1.47c-0.17-2.1,1.22-3.54,3.22-3.54c1.93,0,3.2,1.17,3.2,2.91c0,1.17-0.67,2.23-2.18,3.45l-2.21,1.85
	h4.37V43H233.91z M248.44,36.19v1.21h-1.65v3.43c0,0.68,0.39,1.04,0.97,1.04c0.29,0,0.58-0.08,0.68-0.11V43
	c-0.12,0.04-0.46,0.11-0.83,0.11c-1.34,0-2.26-0.7-2.26-2.17v-3.54h-1.21v-1.21h1.21v-2.03h1.43v2.03H248.44z M252.63,43.11
	c-2.01,0-3.43-1.48-3.43-3.52c0-2.02,1.42-3.51,3.43-3.51c1.97,0,3.43,1.47,3.43,3.51C256.05,41.63,254.6,43.11,252.63,43.11z
	 M252.63,41.86c1.15,0,1.96-0.95,1.96-2.27c0-1.33-0.81-2.26-1.96-2.26c-1.2,0-1.97,0.95-1.97,2.26
	C250.66,40.91,251.43,41.86,252.63,41.86z M61.2,58.11c-1.71,0-2.85-1.01-2.91-2.42h1.4c0.04,0.59,0.62,1.18,1.51,1.18
	c0.75,0,1.26-0.35,1.26-0.83c0-0.46-0.33-0.68-0.84-0.8l-1.13-0.26c-1-0.22-1.9-0.71-1.9-1.98c0-1.06,0.97-1.92,2.48-1.92
	c1.44,0,2.55,0.8,2.72,2.11h-1.4c-0.08-0.6-0.67-0.95-1.31-0.95c-0.62,0-1.05,0.29-1.05,0.75c0,0.37,0.32,0.6,0.8,0.72l1.13,0.25
	c1.09,0.24,1.97,0.67,1.97,2.03C63.92,57.19,62.84,58.11,61.2,58.11z M65.35,60.46v-9.27h1.43v0.88c0.37-0.56,1.19-0.98,2.11-0.98
	c2,0,3.2,1.47,3.2,3.51c0,2.05-1.27,3.52-3.3,3.52c-0.81,0-1.6-0.37-2.02-0.91v3.26H65.35z M68.65,56.86c1.18,0,1.97-0.91,1.97-2.27
	c0-1.37-0.79-2.26-1.97-2.26c-1.18,0-1.97,0.89-1.97,2.26C66.68,55.95,67.47,56.86,68.65,56.86z M73.14,54.59
	c0-1.84,1.14-3.51,3.3-3.51c2.11,0,3.23,1.58,3.22,3.27c0,0.26-0.03,0.58-0.03,0.58h-5.07c0.13,1.25,0.88,1.96,1.98,1.96
	c0.84,0,1.51-0.39,1.67-1.09h1.4c-0.24,1.48-1.48,2.31-3.11,2.31C74.35,58.11,73.14,56.44,73.14,54.59z M74.62,53.8h3.49
	c-0.07-0.92-0.66-1.59-1.68-1.59C75.47,52.21,74.83,52.8,74.62,53.8z M81.1,58v-6.81h1.43v1.16c0.47-0.77,1.29-1.26,2.26-1.26
	c1.44,0,2.46,0.96,2.46,2.43V58h-1.43v-4.17c0-0.85-0.54-1.46-1.4-1.46c-1.17,0-1.88,1-1.88,2.64V58H81.1z M91.88,58.11
	c-2.05,0-3.26-1.47-3.26-3.52c0-2.05,1.22-3.51,3.23-3.51c0.87,0,1.67,0.39,2.07,0.97v-3.62h1.43V58h-1.43v-0.88
	C93.63,57.67,92.81,58.11,91.88,58.11z M92.07,56.86c1.17,0,1.97-0.91,1.97-2.27c0-1.37-0.8-2.26-1.97-2.26
	c-1.18,0-1.97,0.89-1.97,2.26C90.1,55.94,90.88,56.86,92.07,56.86z M97.02,56.39h1.65V58h-1.65V56.39z M108.46,58v-3.94l-3.28-5.53
	h1.65l2.39,4.07l2.43-4.07h1.64l-3.31,5.53V58H108.46z M115.96,58.11c-2.01,0-3.43-1.48-3.43-3.52c0-2.02,1.42-3.51,3.43-3.51
	c1.97,0,3.43,1.47,3.43,3.51C119.38,56.63,117.92,58.11,115.96,58.11z M115.96,56.86c1.15,0,1.96-0.95,1.96-2.27
	c0-1.33-0.81-2.26-1.96-2.26c-1.2,0-1.97,0.95-1.97,2.26C113.99,55.91,114.76,56.86,115.96,56.86z M126.89,51.19V58h-1.43v-1.16
	c-0.47,0.77-1.29,1.26-2.26,1.26c-1.44,0-2.46-0.96-2.46-2.43v-4.49h1.43v4.17c0,0.85,0.54,1.46,1.4,1.46c1.17,0,1.88-1,1.88-2.64
	v-2.99H126.89z M131.7,58v-9.57h1.43v3.91c0.49-0.77,1.29-1.26,2.26-1.26c1.46,0,2.46,0.96,2.46,2.43V58h-1.42v-4.17
	c0-0.85-0.55-1.46-1.42-1.46c-1.17,0-1.88,1-1.88,2.64V58H131.7z M141.57,58.11c-1.38,0-2.35-0.8-2.35-1.96
	c0-1.18,0.85-1.92,2.34-2.11l1.46-0.2c0.39-0.05,0.59-0.24,0.59-0.56c0-0.59-0.54-1.05-1.43-1.05c-0.83,0-1.43,0.42-1.5,1.18h-1.4
	c0.16-1.42,1.25-2.32,2.9-2.32c1.75,0,2.86,1,2.86,2.52v2.7c0,0.39,0.17,0.54,0.45,0.54c0.09,0,0.22-0.03,0.22-0.03V58
	c0,0-0.34,0.08-0.67,0.08c-0.71,0-1.21-0.34-1.26-1.08C143.45,57.68,142.59,58.11,141.57,58.11z M141.79,56.99
	c1.17,0,1.85-0.81,1.85-1.98v-0.25l-1.85,0.3c-0.76,0.12-1.14,0.46-1.14,1.04C140.65,56.62,141.11,56.99,141.79,56.99z M148.38,58
	l-2.49-6.81h1.46l1.73,5.17l1.75-5.17h1.43L149.77,58H148.38z M152.76,54.59c0-1.84,1.14-3.51,3.29-3.51c2.11,0,3.23,1.58,3.22,3.27
	c0,0.26-0.03,0.58-0.03,0.58h-5.07c0.13,1.25,0.88,1.96,1.98,1.96c0.84,0,1.51-0.39,1.67-1.09h1.4c-0.24,1.48-1.48,2.31-3.11,2.31
	C153.97,58.11,152.76,56.44,152.76,54.59z M154.24,53.8h3.49c-0.06-0.92-0.66-1.59-1.68-1.59C155.1,52.21,154.45,52.8,154.24,53.8z
	 M166.22,59.42v-1.38c-1.62-0.28-2.8-1.44-2.91-3.16h1.51c0.08,1.06,1.01,1.88,2.18,1.88c1.14,0,1.89-0.54,1.89-1.35
	c0-0.74-0.53-1.14-1.25-1.35l-1.63-0.47c-1.27-0.35-2.34-1-2.34-2.61c0-1.31,1.02-2.26,2.55-2.48v-1.25h1.33v1.23
	c1.59,0.21,2.66,1.19,2.78,2.69h-1.51c-0.13-0.79-0.81-1.39-1.9-1.39c-1.05,0-1.68,0.45-1.68,1.18c0,0.66,0.47,0.98,1.17,1.18
	l1.65,0.47c1.31,0.37,2.39,1.01,2.39,2.76c0,1.51-1.13,2.55-2.9,2.72v1.34H166.22z M175.13,58.11c-1.99,0-3.47-1.04-3.47-2.85
	c0-1.02,0.67-1.9,1.67-2.25c-0.81-0.37-1.38-1.19-1.38-2.02c0-1.48,1.27-2.56,3.18-2.56c1.89,0,3.18,1.08,3.18,2.56
	c0,0.83-0.58,1.65-1.39,2.02c0.98,0.33,1.68,1.21,1.68,2.25C178.6,57.07,177.11,58.11,175.13,58.11z M175.13,56.83
	c1.16,0,1.93-0.59,1.93-1.54c0-0.95-0.77-1.56-1.93-1.56c-1.17,0-1.94,0.62-1.94,1.56C173.19,56.24,173.96,56.83,175.13,56.83z
	 M175.13,52.45c0.99,0,1.67-0.56,1.67-1.37c0.01-0.83-0.67-1.38-1.67-1.38c-1.01,0-1.68,0.55-1.68,1.38
	C173.46,51.88,174.13,52.45,175.13,52.45z M183.62,58.11c-2.38,0-3.71-1.94-3.71-4.84c0-2.89,1.34-4.83,3.71-4.83
	c2.39,0,3.73,1.93,3.73,4.83C187.35,56.18,186.01,58.11,183.62,58.11z M183.62,56.75c1.43,0,2.18-1.35,2.18-3.49
	c0-2.13-0.75-3.49-2.18-3.49c-1.4,0-2.15,1.35-2.15,3.49C181.46,55.41,182.21,56.75,183.62,56.75z M191.92,58v-6.81h1.43V58H191.92z
	 M191.86,48.43h1.59v1.61h-1.59V48.43z M195.17,58v-6.81h1.43v1.16c0.47-0.77,1.29-1.26,2.26-1.26c1.44,0,2.46,0.96,2.46,2.43V58
	h-1.43v-4.17c0-0.85-0.54-1.46-1.4-1.46c-1.17,0-1.88,1-1.88,2.64V58H195.17z M209.27,58.11c-2.01,0-3.56-1.25-3.69-3.23h1.51
	c0.08,1.06,1.01,1.88,2.18,1.88c1.14,0,1.89-0.54,1.89-1.35c0-0.74-0.52-1.14-1.25-1.35l-1.63-0.47c-1.27-0.35-2.34-1-2.34-2.61
	c0-1.5,1.34-2.53,3.24-2.53c1.93,0,3.28,1.05,3.41,2.73h-1.51c-0.13-0.79-0.81-1.39-1.9-1.39c-1.05,0-1.68,0.45-1.68,1.18
	c0,0.66,0.47,0.98,1.17,1.18l1.65,0.47c1.31,0.37,2.39,1.01,2.39,2.76C212.73,57.02,211.36,58.11,209.27,58.11z M214.16,60.46v-9.27
	h1.43v0.88c0.37-0.56,1.19-0.98,2.11-0.98c2,0,3.2,1.47,3.2,3.51c0,2.05-1.27,3.52-3.29,3.52c-0.81,0-1.6-0.37-2.02-0.91v3.26
	H214.16z M217.47,56.86c1.18,0,1.97-0.91,1.97-2.27c0-1.37-0.79-2.26-1.97-2.26c-1.18,0-1.97,0.89-1.97,2.26
	C215.5,55.95,216.29,56.86,217.47,56.86z M225.38,58.11c-2.01,0-3.43-1.48-3.43-3.52c0-2.02,1.42-3.51,3.43-3.51
	c1.97,0,3.43,1.47,3.43,3.51C228.81,56.63,227.35,58.11,225.38,58.11z M225.38,56.86c1.15,0,1.96-0.95,1.96-2.27
	c0-1.33-0.81-2.26-1.96-2.26c-1.2,0-1.97,0.95-1.97,2.26C223.41,55.91,224.19,56.86,225.38,56.86z M233.7,51.19v1.21h-1.65v3.43
	c0,0.68,0.39,1.04,0.97,1.04c0.29,0,0.58-0.08,0.68-0.11V58c-0.12,0.04-0.46,0.11-0.83,0.11c-1.34,0-2.26-0.7-2.26-2.17v-3.54h-1.21
	v-1.21h1.21v-2.03h1.43v2.03H233.7z M235.11,58v-9.47h1.9l2.8,6.39c0.37,0.84,0.52,1.4,0.52,1.4s0.15-0.56,0.51-1.4l2.8-6.39h1.84
	V58h-1.52v-5.46c0-0.92,0.05-1.51,0.05-1.51s-0.21,0.56-0.56,1.4L241.03,58h-1.44l-2.44-5.57c-0.37-0.84-0.57-1.4-0.57-1.4
	s0.04,0.59,0.04,1.51V58H235.11z M246.95,54.59c0-1.84,1.14-3.51,3.3-3.51c2.11,0,3.23,1.58,3.22,3.27c0,0.26-0.03,0.58-0.03,0.58
	h-5.07c0.13,1.25,0.88,1.96,1.98,1.96c0.84,0,1.51-0.39,1.67-1.09h1.4c-0.24,1.48-1.48,2.31-3.11,2.31
	C248.16,58.11,246.95,56.44,246.95,54.59z M248.43,53.8h3.49c-0.07-0.92-0.66-1.59-1.68-1.59C249.29,52.21,248.64,52.8,248.43,53.8z
	 M254.77,56.39h1.65V58h-1.65V56.39z M262.93,58v-8.13h-2.94v-1.34h7.4v1.34h-2.94V58H262.93z M269.01,58.11
	c-1.38,0-2.35-0.8-2.35-1.96c0-1.18,0.85-1.92,2.34-2.11l1.46-0.2c0.39-0.05,0.59-0.24,0.59-0.56c0-0.59-0.54-1.05-1.43-1.05
	c-0.83,0-1.43,0.42-1.5,1.18h-1.4c0.16-1.42,1.25-2.32,2.9-2.32c1.75,0,2.86,1,2.86,2.52v2.7c0,0.39,0.17,0.54,0.45,0.54
	c0.09,0,0.22-0.03,0.22-0.03V58c0,0-0.34,0.08-0.67,0.08c-0.71,0-1.21-0.34-1.26-1.08C270.88,57.68,270.03,58.11,269.01,58.11z
	 M269.23,56.99c1.17,0,1.85-0.81,1.85-1.98v-0.25l-1.85,0.3c-0.76,0.12-1.14,0.46-1.14,1.04C268.09,56.62,268.55,56.99,269.23,56.99
	z M274.35,60.46v-9.27h1.43v0.88c0.37-0.56,1.2-0.98,2.11-0.98c2,0,3.2,1.47,3.2,3.51c0,2.05-1.27,3.52-3.3,3.52
	c-0.81,0-1.6-0.37-2.02-0.91v3.26H274.35z M277.66,56.86c1.18,0,1.97-0.91,1.97-2.27c0-1.37-0.79-2.26-1.97-2.26
	c-1.18,0-1.97,0.89-1.97,2.26C275.69,55.95,276.48,56.86,277.66,56.86z M59.37,73v-5.61h-1.21v-1.21h1.21V65.5
	c0-1.46,0.95-2.17,2.22-2.17c0.29,0,0.59,0.03,0.87,0.09v1.25c-0.2-0.05-0.46-0.09-0.72-0.09c-0.5,0-0.95,0.34-0.95,1.04v0.56h1.67
	v1.21h-1.67V73H59.37z M66.39,73.11c-2.01,0-3.43-1.48-3.43-3.52c0-2.02,1.42-3.51,3.43-3.51c1.97,0,3.43,1.47,3.43,3.51
	C69.82,71.64,68.36,73.11,66.39,73.11z M66.39,71.86c1.15,0,1.96-0.94,1.96-2.27c0-1.33-0.81-2.26-1.96-2.26
	c-1.19,0-1.97,0.95-1.97,2.26C64.42,70.91,65.2,71.86,66.39,71.86z M75.28,67.49c-0.1-0.03-0.35-0.08-0.68-0.08
	c-1,0-1.92,0.92-1.92,3.05V73h-1.43v-6.81h1.43v1.3c0.32-0.81,1.23-1.4,2.1-1.4c0.29,0,0.43,0.04,0.5,0.04V67.49z M79.16,73v-6.81
	h1.43v1.17c0.35-0.76,1.04-1.27,2.01-1.27c1.1,0,1.89,0.47,2.18,1.35c0.37-0.76,1.18-1.35,2.23-1.35c1.46,0,2.4,0.93,2.4,2.32V73
	h-1.43v-4.24c0-0.87-0.5-1.44-1.37-1.44c-1.04,0-1.61,0.92-1.61,2.24V73h-1.43v-4.24c0-0.87-0.49-1.44-1.35-1.44
	c-1.04,0-1.63,0.93-1.63,2.24V73H79.16z M94.2,73.11c-2.01,0-3.43-1.48-3.43-3.52c0-2.02,1.42-3.51,3.43-3.51
	c1.97,0,3.43,1.47,3.43,3.51C97.62,71.64,96.17,73.11,94.2,73.11z M94.2,71.86c1.15,0,1.96-0.94,1.96-2.27
	c0-1.33-0.81-2.26-1.96-2.26c-1.2,0-1.97,0.95-1.97,2.26C92.23,70.91,93,71.86,94.2,71.86z M103.09,67.49
	c-0.11-0.03-0.35-0.08-0.68-0.08c-1,0-1.92,0.92-1.92,3.05V73h-1.43v-6.81h1.43v1.3c0.31-0.81,1.23-1.4,2.1-1.4
	c0.29,0,0.43,0.04,0.5,0.04V67.49z M103.53,69.59c0-1.84,1.14-3.51,3.3-3.51c2.11,0,3.23,1.58,3.22,3.27c0,0.26-0.03,0.58-0.03,0.58
	h-5.07c0.13,1.25,0.88,1.96,1.98,1.96c0.84,0,1.51-0.39,1.67-1.09H110c-0.24,1.48-1.48,2.31-3.11,2.31
	C104.74,73.11,103.53,71.44,103.53,69.59z M105.01,68.8h3.49c-0.07-0.92-0.66-1.59-1.68-1.59C105.87,67.21,105.22,67.8,105.01,68.8z
	 M111.35,71.39H113V73h-1.65V71.39z"/>
<path class="st2" d="M21.83,31h18.33c3.22,0,5.83,2.61,5.83,5.83v18.33c0,3.22-2.61,5.83-5.83,5.83H21.83
	C18.61,61,16,58.39,16,55.17V36.83C16,33.61,18.61,31,21.83,31z"/>
<path class="st3" d="M31.26,54.04c-4.87,0-8.26-3.29-8.26-8c0-2.37,0.82-4.41,2.36-5.88c1.44-1.37,3.4-2.12,5.52-2.12
	c1.06,0,1.97,0.19,2.84,0.37c0.84,0.17,1.63,0.34,2.51,0.34c0.26,0,0.51-0.01,0.77-0.04v3.55c-0.31,0.05-0.61,0.07-0.91,0.07
	c-0.98,0-1.79-0.24-2.58-0.46c-0.76-0.22-1.48-0.43-2.31-0.43c-2.55,0-4.33,1.83-4.33,4.45c0,2.75,1.95,4.67,4.74,4.67
	c1.75,0,3.7-0.76,5.38-2.09v3.7C35.87,53.02,33.96,54.04,31.26,54.04z"/>
</svg>
