<?xml version="1.0" encoding="utf-8"?>
<!-- Generator: Adobe Illustrator 26.5.0, SVG Export Plug-In . SVG Version: 6.00 Build 0)  -->
<svg version="1.1" id="Layer_1" xmlns="http://www.w3.org/2000/svg" xmlns:xlink="http://www.w3.org/1999/xlink" x="0px" y="0px"
	 viewBox="0 0 297 93" style="enable-background:new 0 0 297 93;" xml:space="preserve">
<style type="text/css">
	.st0{fill:#FFFFFF;}
	.st1{fill:#1D3F2B;}
	.st2{fill:#1EC677;}
	.st3{fill-rule:evenodd;clip-rule:evenodd;fill:#FFFFFF;}
</style>
<g>
	<path class="st0" d="M10.24,0h276.52C292.42,0,297,4.58,297,10.24v72.52c0,5.66-4.58,10.24-10.24,10.24H10.24
		C4.58,93,0,88.42,0,82.76V10.24C0,4.58,4.58,0,10.24,0z"/>
</g>
<path class="st1" d="M62.06,28.09c-2.18,0-3.72-1.33-3.81-3.39h2c0.08,0.91,0.84,1.61,1.81,1.61c0.87,0,1.46-0.41,1.46-1.02
	c0-0.54-0.43-0.85-1.01-1.02l-1.42-0.39c-1.35-0.37-2.48-1.05-2.48-2.81c0-1.54,1.4-2.65,3.35-2.65c2.07,0,3.49,1.14,3.58,2.91h-2
	c-0.11-0.58-0.67-1.13-1.59-1.13c-0.79,0-1.26,0.32-1.26,0.85c0,0.49,0.37,0.72,0.92,0.88l1.43,0.39c1.37,0.39,2.55,1.01,2.55,2.91
	C65.59,26.96,64.2,28.09,62.06,28.09z M66.89,30.46v-9.27h1.92v0.7c0.39-0.49,1.08-0.8,1.93-0.8c1.89,0,3.18,1.39,3.18,3.51
	c0,2.13-1.39,3.52-3.33,3.52c-0.77,0-1.4-0.25-1.77-0.66v3.01H66.89z M70.35,26.46c0.96,0,1.61-0.75,1.61-1.88
	c0-1.12-0.66-1.86-1.61-1.86c-0.98,0-1.64,0.75-1.64,1.86C68.71,25.72,69.36,26.46,70.35,26.46z M78.39,28.11
	c-2.06,0-3.53-1.5-3.53-3.52c0-2.01,1.47-3.51,3.53-3.51c2.05,0,3.54,1.48,3.54,3.51C81.93,26.62,80.43,28.11,78.39,28.11z
	 M78.39,26.46c0.94,0,1.59-0.77,1.59-1.88c0-1.1-0.66-1.86-1.59-1.86c-0.97,0-1.59,0.77-1.59,1.86
	C76.8,25.69,77.41,26.46,78.39,26.46z M87.04,21.19v1.59h-1.52v2.72c0,0.62,0.39,0.97,0.92,0.97c0.2,0,0.42-0.04,0.6-0.09v1.64
	c-0.22,0.05-0.51,0.09-0.88,0.09c-1.47,0-2.57-0.77-2.57-2.39v-2.94h-1.1v-1.59h1.1V19.2h1.93v1.98H87.04z M88.29,28v-9.47h2.78
	l2.17,5.79c0.38,1.05,0.58,1.84,0.58,1.84s0.21-0.79,0.58-1.84l2.15-5.79h2.7V28h-1.99v-4.56c0-1.12,0.04-1.94,0.04-1.94
	s-0.25,0.79-0.62,1.84L94.93,28h-2.31l-1.76-4.66c-0.38-1.05-0.6-1.84-0.6-1.84s0.04,0.83,0.04,1.94V28H88.29z M100.53,24.59
	c0-1.69,1.02-3.51,3.35-3.51c2.39,0,3.43,1.8,3.43,3.37c0,0.32-0.03,0.64-0.03,0.64h-4.84c0.16,0.91,0.75,1.4,1.63,1.4
	c0.66,0,1.14-0.29,1.29-0.77h1.92c-0.21,1.5-1.5,2.38-3.27,2.38C101.67,28.11,100.53,26.29,100.53,24.59z M102.47,23.72h2.76
	c-0.05-0.71-0.53-1.21-1.35-1.21C103.15,22.51,102.65,22.93,102.47,23.72z M111.53,24.9c-1.8,0-3.26-1.44-3.26-3.24
	c0-1.79,1.46-3.23,3.26-3.23c1.79,0,3.24,1.44,3.24,3.23C114.77,23.46,113.31,24.9,111.53,24.9z M111.53,24.28
	c1.44,0,2.55-1.13,2.55-2.63c0-1.48-1.1-2.6-2.55-2.6c-1.46,0-2.56,1.12-2.56,2.6C108.97,23.16,110.07,24.28,111.53,24.28z
	 M110.29,23.18v-3.27h1.51c0.64,0,1.08,0.41,1.08,1.04c0,0.33-0.16,0.62-0.43,0.81c0.24,0.12,0.34,0.28,0.39,0.51l0.1,0.49
	c0.04,0.16,0.1,0.34,0.14,0.42h-0.96c-0.04-0.07-0.08-0.21-0.09-0.3l-0.08-0.43c-0.05-0.35-0.26-0.49-0.63-0.49h-0.22v1.22H110.29z
	 M111.66,21.25c0.25,0,0.38-0.12,0.38-0.3c0-0.21-0.14-0.32-0.38-0.32h-0.55v0.62H111.66z M122.2,28.11c-2.01,0-3.44-1.44-3.44-3.52
	c0-2.06,1.43-3.51,3.44-3.51c1.77,0,3.05,0.91,3.28,2.69h-1.89c-0.1-0.6-0.66-1.05-1.34-1.05c-0.93,0-1.55,0.74-1.55,1.86
	c0,1.14,0.63,1.88,1.55,1.88c0.7,0,1.19-0.43,1.33-1.08h1.88C125.21,27.23,123.95,28.11,122.2,28.11z M129.85,28.11
	c-2.06,0-3.53-1.5-3.53-3.52c0-2.01,1.47-3.51,3.53-3.51c2.05,0,3.54,1.48,3.54,3.51C133.4,26.62,131.9,28.11,129.85,28.11z
	 M129.85,26.46c0.94,0,1.59-0.77,1.59-1.88c0-1.1-0.66-1.86-1.59-1.86c-0.97,0-1.59,0.77-1.59,1.86
	C128.26,25.69,128.88,26.46,129.85,26.46z M136.16,28l-2.48-6.81h1.93l1.43,4.58l1.42-4.58h1.93L137.92,28H136.16z M140.67,24.59
	c0-1.69,1.02-3.51,3.35-3.51c2.39,0,3.43,1.8,3.43,3.37c0,0.32-0.03,0.64-0.03,0.64h-4.84c0.16,0.91,0.75,1.4,1.63,1.4
	c0.66,0,1.14-0.29,1.29-0.77h1.92c-0.21,1.5-1.5,2.38-3.27,2.38C141.81,28.11,140.67,26.29,140.67,24.59z M142.61,23.72h2.76
	c-0.05-0.71-0.52-1.21-1.35-1.21C143.29,22.51,142.79,22.93,142.61,23.72z M153.03,22.95c-0.18-0.04-0.41-0.07-0.63-0.07
	c-0.89,0-1.79,0.7-1.79,2.65V28h-1.92v-6.81h1.92v1.18c0.32-0.74,1.21-1.29,2.02-1.29c0.16,0,0.29,0.01,0.39,0.03V22.95z
	 M153.46,24.59c0-1.69,1.02-3.51,3.35-3.51c2.39,0,3.43,1.8,3.43,3.37c0,0.32-0.03,0.64-0.03,0.64h-4.84
	c0.16,0.91,0.75,1.4,1.63,1.4c0.66,0,1.14-0.29,1.29-0.77h1.92c-0.21,1.5-1.5,2.38-3.27,2.38C154.6,28.11,153.46,26.29,153.46,24.59
	z M155.41,23.72h2.76c-0.05-0.71-0.52-1.21-1.35-1.21C156.09,22.51,155.59,22.93,155.41,23.72z M164.44,28.11
	c-1.99,0-3.25-1.39-3.25-3.52c0-2.13,1.27-3.51,3.23-3.51c0.81,0,1.48,0.3,1.86,0.77v-3.43h1.92V28h-1.92v-0.7
	C165.95,27.76,165.27,28.11,164.44,28.11z M164.76,26.46c0.97,0,1.63-0.75,1.63-1.88c0-1.12-0.66-1.86-1.63-1.86
	c-0.97,0-1.62,0.75-1.62,1.86C163.14,25.7,163.79,26.46,164.76,26.46z M175.15,29.3V28c-1.68-0.32-2.8-1.54-2.88-3.3h2
	c0.08,0.91,0.84,1.61,1.81,1.61c0.87,0,1.46-0.41,1.46-1.02c0-0.54-0.43-0.85-1.01-1.02l-1.42-0.39c-1.35-0.37-2.48-1.05-2.48-2.81
	c0-1.31,1.02-2.31,2.52-2.59v-1.19h1.67v1.19c1.61,0.28,2.66,1.33,2.74,2.85h-2c-0.1-0.58-0.67-1.13-1.59-1.13
	c-0.79,0-1.26,0.32-1.26,0.85c0,0.49,0.37,0.72,0.92,0.88l1.43,0.39c1.37,0.39,2.55,1.01,2.55,2.91c0,1.51-1.08,2.57-2.8,2.8v1.26
	H175.15z M185.3,28v-1.84h-4.69v-1.79l4.54-5.84h2.17v5.86h1.15v1.77h-1.15V28H185.3z M182.76,24.39h2.55v-3.36L182.76,24.39z
	 M193.26,28v-5.23h-1.1v-1.59h1.1v-0.54c0-1.61,1.1-2.39,2.56-2.39c0.3,0,0.62,0.03,0.88,0.09v1.63c-0.18-0.05-0.39-0.08-0.62-0.08
	c-0.49,0-0.92,0.34-0.92,0.97v0.32h1.54v1.59h-1.54V28H193.26z M200.71,28.11c-2.06,0-3.53-1.5-3.53-3.52
	c0-2.01,1.47-3.51,3.53-3.51c2.05,0,3.55,1.48,3.55,3.51C204.25,26.62,202.75,28.11,200.71,28.11z M200.71,26.46
	c0.95,0,1.59-0.77,1.59-1.88c0-1.1-0.66-1.86-1.59-1.86c-0.97,0-1.59,0.77-1.59,1.86C199.12,25.69,199.73,26.46,200.71,26.46z
	 M209.82,22.95c-0.18-0.04-0.41-0.07-0.63-0.07c-0.89,0-1.79,0.7-1.79,2.65V28h-1.92v-6.81h1.92v1.18c0.32-0.74,1.21-1.29,2.02-1.29
	c0.16,0,0.29,0.01,0.39,0.03V22.95z M217.64,21.19h1.93l-2.8,7.26c-0.34,0.88-1.05,2.11-2.85,2.11c-0.34,0-0.7-0.07-1.02-0.17v-1.63
	c0,0,0.34,0.16,0.76,0.16c0.68,0,1.08-0.25,1.44-1.22l-2.65-6.51h2.13l1.5,4.02L217.64,21.19z M223.36,28.11
	c-2.06,0-3.53-1.5-3.53-3.52c0-2.01,1.47-3.51,3.53-3.51c2.05,0,3.54,1.48,3.54,3.51C226.9,26.62,225.41,28.11,223.36,28.11z
	 M223.36,26.46c0.95,0,1.59-0.77,1.59-1.88c0-1.1-0.66-1.86-1.59-1.86c-0.97,0-1.59,0.77-1.59,1.86
	C221.77,25.69,222.39,26.46,223.36,26.46z M234.6,21.19V28h-1.92v-0.93c-0.42,0.62-1.18,1.04-2.1,1.04c-1.5,0-2.51-0.97-2.51-2.47
	v-4.45H230v3.95c0,0.75,0.46,1.26,1.18,1.26c0.97,0,1.5-0.8,1.5-2.22v-2.99H234.6z M58.91,43v-9.47h3.55c1.77,0,2.93,0.85,2.93,2.43
	c0,0.85-0.47,1.54-1.19,1.85c0.98,0.37,1.63,1.18,1.63,2.4c0,1.81-1.22,2.78-3.2,2.78H58.91z M62.35,41.65
	c1.27,0,1.92-0.51,1.92-1.5c0-0.97-0.64-1.51-1.92-1.51h-1.92v3.01H62.35z M62.28,37.32c1.04,0,1.56-0.45,1.56-1.25
	c0-0.8-0.54-1.26-1.58-1.26h-1.84v2.51H62.28z M66.89,39.59c0-1.84,1.14-3.51,3.3-3.51c2.11,0,3.23,1.58,3.22,3.27
	c0,0.26-0.03,0.58-0.03,0.58h-5.07c0.13,1.25,0.88,1.96,1.98,1.96c0.84,0,1.51-0.39,1.67-1.09h1.4c-0.24,1.48-1.48,2.31-3.11,2.31
	C68.1,43.11,66.89,41.44,66.89,39.59z M68.37,38.8h3.49c-0.07-0.92-0.66-1.59-1.68-1.59C69.22,37.21,68.58,37.8,68.37,38.8z
	 M77.85,43.11c-1.98,0-3.36-1.42-3.36-3.52c0-2.09,1.38-3.51,3.36-3.51c1.61,0,2.84,0.88,3.07,2.56h-1.4
	c-0.14-0.77-0.8-1.31-1.64-1.31c-1.17,0-1.93,0.89-1.93,2.26c0,1.38,0.78,2.27,1.93,2.27c0.85,0,1.48-0.5,1.64-1.37h1.4
	C80.64,42.26,79.45,43.11,77.85,43.11z M84.25,43.11c-1.38,0-2.35-0.8-2.35-1.96c0-1.18,0.85-1.92,2.34-2.11l1.46-0.2
	c0.39-0.05,0.59-0.24,0.59-0.56c0-0.59-0.54-1.05-1.43-1.05c-0.83,0-1.43,0.42-1.5,1.18h-1.4c0.16-1.42,1.25-2.32,2.9-2.32
	c1.75,0,2.86,1,2.86,2.52v2.7c0,0.39,0.17,0.54,0.45,0.54c0.09,0,0.22-0.03,0.22-0.03V43c0,0-0.34,0.08-0.67,0.08
	c-0.71,0-1.21-0.34-1.26-1.08C86.13,42.68,85.27,43.11,84.25,43.11z M84.47,41.99c1.17,0,1.85-0.81,1.85-1.98v-0.25l-1.85,0.3
	c-0.76,0.12-1.14,0.46-1.14,1.04C83.33,41.62,83.79,41.99,84.47,41.99z M95.67,36.19V43h-1.43v-1.16c-0.47,0.77-1.29,1.26-2.26,1.26
	c-1.45,0-2.46-0.96-2.46-2.43v-4.49h1.43v4.17c0,0.85,0.54,1.46,1.4,1.46c1.17,0,1.88-1,1.88-2.64v-2.99H95.67z M99.91,43.11
	c-1.71,0-2.85-1.01-2.91-2.42h1.4c0.04,0.59,0.62,1.18,1.51,1.18c0.75,0,1.26-0.35,1.26-0.83c0-0.46-0.33-0.68-0.84-0.8l-1.13-0.26
	c-1-0.22-1.9-0.71-1.9-1.98c0-1.06,0.97-1.92,2.48-1.92c1.44,0,2.55,0.8,2.72,2.11h-1.4c-0.08-0.6-0.67-0.95-1.31-0.95
	c-0.62,0-1.05,0.29-1.05,0.75c0,0.37,0.32,0.6,0.8,0.72l1.13,0.25c1.09,0.24,1.97,0.67,1.97,2.03
	C102.63,42.19,101.56,43.11,99.91,43.11z M103.68,39.59c0-1.84,1.14-3.51,3.29-3.51c2.11,0,3.23,1.58,3.22,3.27
	c0,0.26-0.03,0.58-0.03,0.58h-5.07c0.13,1.25,0.88,1.96,1.98,1.96c0.84,0,1.51-0.39,1.67-1.09h1.4c-0.24,1.48-1.48,2.31-3.11,2.31
	C104.88,43.11,103.68,41.44,103.68,39.59z M105.16,38.8h3.49c-0.07-0.92-0.66-1.59-1.68-1.59C106.01,37.21,105.37,37.8,105.16,38.8z
	 M118.82,36.19h1.44l-2.81,7.3c-0.45,1.14-1.1,2.07-2.53,2.07c-0.36,0-0.7-0.08-0.87-0.13v-1.23c0,0,0.34,0.12,0.72,0.12
	c0.72,0,1.05-0.38,1.43-1.37l0.04-0.11l-2.67-6.66h1.58l1.81,4.78L118.82,36.19z M124.15,43.11c-2.01,0-3.43-1.48-3.43-3.52
	c0-2.02,1.42-3.51,3.43-3.51c1.97,0,3.43,1.47,3.43,3.51C127.57,41.63,126.12,43.11,124.15,43.11z M124.15,41.86
	c1.16,0,1.96-0.95,1.96-2.27c0-1.33-0.81-2.26-1.96-2.26c-1.19,0-1.97,0.95-1.97,2.26C122.18,40.91,122.95,41.86,124.15,41.86z
	 M135.08,36.19V43h-1.43v-1.16c-0.47,0.77-1.29,1.26-2.26,1.26c-1.44,0-2.46-0.96-2.46-2.43v-4.49h1.43v4.17
	c0,0.85,0.54,1.46,1.4,1.46c1.17,0,1.88-1,1.88-2.64v-2.99H135.08z M140.93,37.49c-0.1-0.03-0.35-0.08-0.68-0.08
	c-1,0-1.92,0.92-1.92,3.05V43h-1.43v-6.81h1.43v1.3c0.32-0.81,1.23-1.4,2.1-1.4c0.29,0,0.43,0.04,0.5,0.04V37.49z M148.3,43.11
	c-0.95,0-1.75-0.43-2.06-0.98V43h-1.43v-9.57h1.43v3.62c0.41-0.58,1.22-0.97,2.07-0.97c2.02,0,3.23,1.46,3.23,3.51
	C151.54,41.63,150.35,43.11,148.3,43.11z M148.1,41.86c1.19,0,1.98-0.92,1.98-2.27c0-1.37-0.79-2.26-1.98-2.26
	c-1.17,0-1.97,0.89-1.97,2.26C146.13,40.95,146.93,41.86,148.1,41.86z M154.95,43.11c-1.38,0-2.35-0.8-2.35-1.96
	c0-1.18,0.85-1.92,2.34-2.11l1.46-0.2c0.39-0.05,0.59-0.24,0.59-0.56c0-0.59-0.54-1.05-1.43-1.05c-0.83,0-1.43,0.42-1.5,1.18h-1.4
	c0.16-1.42,1.25-2.32,2.9-2.32c1.75,0,2.86,1,2.86,2.52v2.7c0,0.39,0.17,0.54,0.45,0.54c0.09,0,0.22-0.03,0.22-0.03V43
	c0,0-0.34,0.08-0.67,0.08c-0.71,0-1.21-0.34-1.26-1.08C156.83,42.68,155.97,43.11,154.95,43.11z M155.17,41.99
	c1.17,0,1.85-0.81,1.85-1.98v-0.25l-1.85,0.3c-0.76,0.12-1.14,0.46-1.14,1.04C154.03,41.62,154.49,41.99,155.17,41.99z M160.29,43
	v-9.57h1.43V43H160.29z M165.51,43.11c-1.38,0-2.35-0.8-2.35-1.96c0-1.18,0.85-1.92,2.34-2.11l1.46-0.2
	c0.39-0.05,0.59-0.24,0.59-0.56c0-0.59-0.54-1.05-1.43-1.05c-0.83,0-1.43,0.42-1.5,1.18h-1.4c0.16-1.42,1.25-2.32,2.9-2.32
	c1.75,0,2.86,1,2.86,2.52v2.7c0,0.39,0.17,0.54,0.45,0.54c0.09,0,0.22-0.03,0.22-0.03V43c0,0-0.34,0.08-0.67,0.08
	c-0.71,0-1.21-0.34-1.26-1.08C167.39,42.68,166.54,43.11,165.51,43.11z M165.74,41.99c1.17,0,1.85-0.81,1.85-1.98v-0.25l-1.85,0.3
	c-0.76,0.12-1.14,0.46-1.14,1.04C164.59,41.62,165.05,41.99,165.74,41.99z M170.86,43v-6.81h1.43v1.16
	c0.47-0.77,1.29-1.26,2.26-1.26c1.44,0,2.46,0.96,2.46,2.43V43h-1.43v-4.17c0-0.85-0.54-1.46-1.4-1.46c-1.17,0-1.88,1-1.88,2.64V43
	H170.86z M181.74,43.11c-1.98,0-3.36-1.42-3.36-3.52c0-2.09,1.38-3.51,3.36-3.51c1.61,0,2.84,0.88,3.07,2.56h-1.4
	c-0.14-0.77-0.8-1.31-1.64-1.31c-1.17,0-1.93,0.89-1.93,2.26c0,1.38,0.78,2.27,1.93,2.27c0.85,0,1.48-0.5,1.64-1.37h1.4
	C184.54,42.26,183.34,43.11,181.74,43.11z M185.8,39.59c0-1.84,1.14-3.51,3.3-3.51c2.11,0,3.23,1.58,3.22,3.27
	c0,0.26-0.03,0.58-0.03,0.58h-5.07c0.13,1.25,0.88,1.96,1.98,1.96c0.84,0,1.51-0.39,1.67-1.09h1.4c-0.24,1.48-1.48,2.31-3.11,2.31
	C187.01,43.11,185.8,41.44,185.8,39.59z M187.28,38.8h3.49c-0.07-0.92-0.66-1.59-1.68-1.59C188.13,37.21,187.49,37.8,187.28,38.8z
	 M197.96,43l-2.11-6.81h1.46l0.91,3.22c0.28,1.04,0.41,1.81,0.41,1.81s0.17-0.76,0.5-1.8l0.98-3.23h1.35l1,3.24
	c0.33,1.04,0.5,1.8,0.5,1.8s0.15-0.77,0.41-1.82l0.89-3.22h1.46L203.59,43h-1.33l-0.99-3.2c-0.33-1.04-0.5-1.81-0.5-1.81
	s-0.18,0.77-0.51,1.8l-1,3.22H197.96z M208.64,43.11c-1.38,0-2.35-0.8-2.35-1.96c0-1.18,0.85-1.92,2.34-2.11l1.46-0.2
	c0.39-0.05,0.59-0.24,0.59-0.56c0-0.59-0.54-1.05-1.43-1.05c-0.83,0-1.43,0.42-1.5,1.18h-1.4c0.16-1.42,1.25-2.32,2.9-2.32
	c1.75,0,2.86,1,2.86,2.52v2.7c0,0.39,0.17,0.54,0.45,0.54c0.09,0,0.22-0.03,0.22-0.03V43c0,0-0.34,0.08-0.67,0.08
	c-0.71,0-1.21-0.34-1.26-1.08C210.52,42.68,209.66,43.11,208.64,43.11z M208.86,41.99c1.17,0,1.85-0.81,1.85-1.98v-0.25l-1.85,0.3
	c-0.76,0.12-1.14,0.46-1.14,1.04C207.72,41.62,208.18,41.99,208.86,41.99z M216.41,43.11c-1.71,0-2.85-1.01-2.91-2.42h1.4
	c0.04,0.59,0.62,1.18,1.51,1.18c0.75,0,1.26-0.35,1.26-0.83c0-0.46-0.33-0.68-0.84-0.8l-1.13-0.26c-1-0.22-1.9-0.71-1.9-1.98
	c0-1.06,0.97-1.92,2.48-1.92c1.44,0,2.55,0.8,2.72,2.11h-1.41c-0.08-0.6-0.67-0.95-1.31-0.95c-0.62,0-1.05,0.29-1.05,0.75
	c0,0.37,0.32,0.6,0.8,0.72l1.13,0.25c1.09,0.24,1.97,0.67,1.97,2.03C219.13,42.19,218.06,43.11,216.41,43.11z M223.55,43v-9.57h1.43
	V43H223.55z M229.85,43.11c-2.01,0-3.43-1.48-3.43-3.52c0-2.02,1.42-3.51,3.43-3.51c1.97,0,3.43,1.47,3.43,3.51
	C233.27,41.63,231.82,43.11,229.85,43.11z M229.85,41.86c1.16,0,1.96-0.95,1.96-2.27c0-1.33-0.81-2.26-1.96-2.26
	c-1.19,0-1.97,0.95-1.97,2.26C227.88,40.91,228.65,41.86,229.85,41.86z M235.97,43l-2.11-6.81h1.46l0.9,3.22
	c0.28,1.04,0.41,1.81,0.41,1.81s0.17-0.76,0.5-1.8l0.99-3.23h1.35l1,3.24c0.33,1.04,0.5,1.8,0.5,1.8s0.14-0.77,0.41-1.82l0.89-3.22
	h1.46L241.6,43h-1.33l-0.98-3.2c-0.33-1.04-0.5-1.81-0.5-1.81s-0.18,0.77-0.51,1.8l-1,3.22H235.97z M244.07,41.39h1.67V43
	l-0.95,1.89h-0.62l0.67-1.89h-0.77V41.39z M61.28,59.42v-1.38c-1.61-0.28-2.8-1.44-2.91-3.16h1.51c0.08,1.06,1.01,1.88,2.18,1.88
	c1.14,0,1.89-0.54,1.89-1.35c0-0.74-0.53-1.14-1.25-1.35l-1.63-0.47c-1.27-0.35-2.34-1-2.34-2.61c0-1.31,1.02-2.26,2.55-2.48v-1.25
	h1.33v1.23c1.59,0.21,2.67,1.19,2.78,2.69h-1.51c-0.13-0.79-0.81-1.39-1.9-1.39c-1.05,0-1.68,0.45-1.68,1.18
	c0,0.66,0.47,0.98,1.17,1.18l1.65,0.47c1.31,0.37,2.39,1.01,2.39,2.76c0,1.51-1.13,2.55-2.9,2.72v1.34H61.28z M71.46,58v-2.14h-4.87
	v-1.35l4.7-5.97h1.69v5.97h1.27v1.35h-1.27V58H71.46z M68.22,54.51h3.24v-4.17L68.22,54.51z M81.69,58.11
	c-2.01,0-3.43-1.48-3.43-3.52c0-2.02,1.42-3.51,3.43-3.51c1.97,0,3.43,1.47,3.43,3.51C85.11,56.63,83.65,58.11,81.69,58.11z
	 M81.69,56.86c1.16,0,1.96-0.95,1.96-2.27c0-1.33-0.81-2.26-1.96-2.26c-1.19,0-1.97,0.95-1.97,2.26
	C79.72,55.91,80.49,56.86,81.69,56.86z M86.97,58v-5.61h-1.21v-1.21h1.21V50.5c0-1.46,0.94-2.17,2.22-2.17
	c0.29,0,0.59,0.03,0.87,0.09v1.25c-0.2-0.05-0.46-0.09-0.72-0.09c-0.5,0-0.94,0.34-0.94,1.04v0.56h1.67v1.21h-1.67V58H86.97z
	 M98.02,51.19h1.44l-2.81,7.3c-0.45,1.14-1.1,2.07-2.53,2.07c-0.35,0-0.7-0.08-0.87-0.13v-1.23c0,0,0.34,0.12,0.72,0.12
	c0.72,0,1.05-0.38,1.43-1.37l0.04-0.11l-2.67-6.66h1.58l1.81,4.78L98.02,51.19z M103.35,58.11c-2.01,0-3.43-1.48-3.43-3.52
	c0-2.02,1.42-3.51,3.43-3.51c1.97,0,3.43,1.47,3.43,3.51C106.78,56.63,105.32,58.11,103.35,58.11z M103.35,56.86
	c1.15,0,1.96-0.95,1.96-2.27c0-1.33-0.81-2.26-1.96-2.26c-1.2,0-1.97,0.95-1.97,2.26C101.38,55.91,102.16,56.86,103.35,56.86z
	 M114.29,51.19V58h-1.43v-1.16c-0.47,0.77-1.29,1.26-2.26,1.26c-1.45,0-2.46-0.96-2.46-2.43v-4.49h1.43v4.17
	c0,0.85,0.54,1.46,1.4,1.46c1.17,0,1.88-1,1.88-2.64v-2.99H114.29z M120.13,52.49c-0.11-0.03-0.36-0.08-0.68-0.08
	c-1,0-1.92,0.92-1.92,3.05V58h-1.43v-6.81h1.43v1.3c0.32-0.81,1.23-1.4,2.1-1.4c0.29,0,0.43,0.04,0.5,0.04V52.49z M126.52,59.42
	v-1.38c-1.61-0.28-2.8-1.44-2.91-3.16h1.51c0.08,1.06,1.01,1.88,2.18,1.88c1.14,0,1.89-0.54,1.89-1.35c0-0.74-0.53-1.14-1.25-1.35
	l-1.63-0.47c-1.27-0.35-2.34-1-2.34-2.61c0-1.31,1.02-2.26,2.55-2.48v-1.25h1.33v1.23c1.59,0.21,2.66,1.19,2.78,2.69h-1.51
	c-0.13-0.79-0.81-1.39-1.9-1.39c-1.05,0-1.68,0.45-1.68,1.18c0,0.66,0.47,0.98,1.17,1.18l1.65,0.47c1.31,0.37,2.39,1.01,2.39,2.76
	c0,1.51-1.13,2.55-2.9,2.72v1.34H126.52z M131.91,58v-1.29l3.47-2.95c1.04-0.89,1.52-1.61,1.52-2.42c0-0.96-0.66-1.58-1.64-1.58
	c-1.19,0-1.86,0.88-1.75,2.21h-1.47c-0.17-2.1,1.22-3.54,3.22-3.54c1.93,0,3.2,1.17,3.2,2.91c0,1.17-0.67,2.23-2.18,3.45l-2.21,1.85
	h4.37V58H131.91z M139.75,58v-1.29l3.46-2.95c1.04-0.89,1.52-1.61,1.52-2.42c0-0.96-0.66-1.58-1.64-1.58
	c-1.19,0-1.86,0.88-1.75,2.21h-1.47c-0.17-2.1,1.22-3.54,3.22-3.54c1.93,0,3.2,1.17,3.2,2.91c0,1.17-0.67,2.23-2.18,3.45l-2.21,1.85
	h4.37V58H139.75z M150.9,60.46v-9.27h1.43v0.88c0.37-0.56,1.2-0.98,2.11-0.98c2,0,3.2,1.47,3.2,3.51c0,2.05-1.27,3.52-3.29,3.52
	c-0.81,0-1.6-0.37-2.02-0.91v3.26H150.9z M154.2,56.86c1.18,0,1.97-0.91,1.97-2.27c0-1.37-0.79-2.26-1.97-2.26
	c-1.18,0-1.97,0.89-1.97,2.26C152.24,55.95,153.02,56.86,154.2,56.86z M165.15,51.19V58h-1.43v-1.16c-0.47,0.77-1.29,1.26-2.26,1.26
	c-1.44,0-2.45-0.96-2.45-2.43v-4.49h1.43v4.17c0,0.85,0.54,1.46,1.4,1.46c1.17,0,1.88-1,1.88-2.64v-2.99H165.15z M170.99,52.49
	c-0.11-0.03-0.35-0.08-0.68-0.08c-1,0-1.92,0.92-1.92,3.05V58h-1.43v-6.81h1.43v1.3c0.31-0.81,1.23-1.4,2.1-1.4
	c0.29,0,0.43,0.04,0.5,0.04V52.49z M174.81,58.11c-1.98,0-3.36-1.42-3.36-3.52c0-2.09,1.38-3.51,3.36-3.51
	c1.62,0,2.84,0.88,3.07,2.56h-1.4c-0.14-0.77-0.8-1.31-1.64-1.31c-1.17,0-1.93,0.89-1.93,2.26c0,1.38,0.78,2.27,1.93,2.27
	c0.85,0,1.48-0.5,1.64-1.37h1.4C177.6,57.26,176.41,58.11,174.81,58.11z M179.24,58v-9.57h1.43v3.91c0.49-0.77,1.29-1.26,2.26-1.26
	c1.46,0,2.46,0.96,2.46,2.43V58h-1.42v-4.17c0-0.85-0.55-1.46-1.42-1.46c-1.17,0-1.88,1-1.88,2.64V58H179.24z M189.12,58.11
	c-1.38,0-2.35-0.8-2.35-1.96c0-1.18,0.85-1.92,2.34-2.11l1.46-0.2c0.39-0.05,0.59-0.24,0.59-0.56c0-0.59-0.54-1.05-1.43-1.05
	c-0.83,0-1.43,0.42-1.5,1.18h-1.4c0.16-1.42,1.25-2.32,2.9-2.32c1.75,0,2.86,1,2.86,2.52v2.7c0,0.39,0.17,0.54,0.45,0.54
	c0.09,0,0.22-0.03,0.22-0.03V58c0,0-0.34,0.08-0.67,0.08c-0.71,0-1.21-0.34-1.26-1.08C190.99,57.68,190.14,58.11,189.12,58.11z
	 M189.34,56.99c1.17,0,1.85-0.81,1.85-1.98v-0.25l-1.85,0.3c-0.76,0.12-1.14,0.46-1.14,1.04C188.2,56.62,188.66,56.99,189.34,56.99z
	 M196.89,58.11c-1.71,0-2.85-1.01-2.92-2.42h1.4c0.04,0.59,0.62,1.18,1.51,1.18c0.75,0,1.26-0.35,1.26-0.83
	c0-0.46-0.33-0.68-0.84-0.8l-1.13-0.26c-1-0.22-1.9-0.71-1.9-1.98c0-1.06,0.97-1.92,2.48-1.92c1.44,0,2.55,0.8,2.72,2.11h-1.4
	c-0.08-0.6-0.67-0.95-1.31-0.95c-0.62,0-1.05,0.29-1.05,0.75c0,0.37,0.32,0.6,0.8,0.72l1.13,0.25c1.09,0.24,1.97,0.67,1.97,2.03
	C199.61,57.19,198.53,58.11,196.89,58.11z M200.65,54.59c0-1.84,1.14-3.51,3.3-3.51c2.11,0,3.23,1.58,3.22,3.27
	c0,0.26-0.03,0.58-0.03,0.58h-5.07c0.13,1.25,0.88,1.96,1.98,1.96c0.84,0,1.51-0.39,1.67-1.09h1.4c-0.24,1.48-1.48,2.31-3.11,2.31
	C201.86,58.11,200.65,56.44,200.65,54.59z M202.13,53.8h3.49c-0.07-0.92-0.66-1.59-1.68-1.59C202.99,52.21,202.34,52.8,202.13,53.8z
	 M213.58,58.11c-1.38,0-2.35-0.8-2.35-1.96c0-1.18,0.85-1.92,2.34-2.11l1.46-0.2c0.39-0.05,0.59-0.24,0.59-0.56
	c0-0.59-0.54-1.05-1.43-1.05c-0.83,0-1.43,0.42-1.5,1.18h-1.4c0.16-1.42,1.25-2.32,2.9-2.32c1.75,0,2.86,1,2.86,2.52v2.7
	c0,0.39,0.17,0.54,0.45,0.54c0.09,0,0.22-0.03,0.22-0.03V58c0,0-0.34,0.08-0.67,0.08c-0.71,0-1.21-0.34-1.26-1.08
	C215.45,57.68,214.6,58.11,213.58,58.11z M213.8,56.99c1.17,0,1.85-0.81,1.85-1.98v-0.25l-1.85,0.3c-0.76,0.12-1.14,0.46-1.14,1.04
	C212.66,56.62,213.12,56.99,213.8,56.99z M222.4,51.19v1.21h-1.65v3.43c0,0.68,0.39,1.04,0.97,1.04c0.29,0,0.58-0.08,0.68-0.11V58
	c-0.12,0.04-0.46,0.11-0.83,0.11c-1.34,0-2.26-0.7-2.26-2.17v-3.54h-1.21v-1.21h1.21v-2.03h1.43v2.03H222.4z M226.85,58v-9.47h3.97
	c1.86,0,3.02,1.12,3.02,2.84c0,1.65-1.16,2.86-3.02,2.86h-2.44V58H226.85z M230.61,52.88c1.05,0,1.67-0.6,1.67-1.51
	c0-0.89-0.62-1.48-1.67-1.48h-2.24v2.99H230.61z M234.42,54.59c0-1.84,1.14-3.51,3.29-3.51c2.11,0,3.23,1.58,3.22,3.27
	c0,0.26-0.03,0.58-0.03,0.58h-5.07c0.13,1.25,0.88,1.96,1.98,1.96c0.84,0,1.51-0.39,1.67-1.09h1.4c-0.24,1.48-1.48,2.31-3.11,2.31
	C235.63,58.11,234.42,56.44,234.42,54.59z M235.9,53.8h3.49c-0.07-0.92-0.66-1.59-1.68-1.59C236.76,52.21,236.11,52.8,235.9,53.8z
	 M245.89,51.19v1.21h-1.65v3.43c0,0.68,0.39,1.04,0.97,1.04c0.29,0,0.58-0.08,0.68-0.11V58c-0.12,0.04-0.46,0.11-0.83,0.11
	c-1.34,0-2.26-0.7-2.26-2.17v-3.54h-1.21v-1.21h1.21v-2.03h1.43v2.03H245.89z M250.02,58.11c-1.98,0-3.36-1.42-3.36-3.52
	c0-2.09,1.38-3.51,3.36-3.51c1.61,0,2.84,0.88,3.07,2.56h-1.4c-0.15-0.77-0.8-1.31-1.64-1.31c-1.17,0-1.93,0.89-1.93,2.26
	c0,1.38,0.77,2.27,1.93,2.27c0.85,0,1.48-0.5,1.64-1.37h1.4C252.82,57.26,251.62,58.11,250.02,58.11z M257.51,58.11
	c-2.01,0-3.43-1.48-3.43-3.52c0-2.02,1.42-3.51,3.43-3.51c1.97,0,3.43,1.47,3.43,3.51C260.93,56.63,259.48,58.11,257.51,58.11z
	 M257.51,56.86c1.16,0,1.96-0.95,1.96-2.27c0-1.33-0.81-2.26-1.96-2.26c-1.19,0-1.97,0.95-1.97,2.26
	C255.54,55.91,256.31,56.86,257.51,56.86z M60.22,73l-2.11-6.81h1.46l0.91,3.22c0.28,1.04,0.41,1.81,0.41,1.81s0.17-0.76,0.5-1.8
	l0.98-3.23h1.35l1,3.24c0.33,1.04,0.5,1.8,0.5,1.8s0.14-0.77,0.41-1.82l0.89-3.22h1.46L65.85,73h-1.33l-0.99-3.2
	c-0.33-1.04-0.5-1.81-0.5-1.81s-0.18,0.77-0.51,1.8l-1,3.22H60.22z M70.9,73.11c-1.38,0-2.35-0.8-2.35-1.96
	c0-1.18,0.85-1.92,2.34-2.11l1.46-0.2c0.39-0.05,0.59-0.24,0.59-0.56c0-0.59-0.54-1.05-1.43-1.05c-0.83,0-1.43,0.42-1.5,1.18h-1.4
	c0.16-1.42,1.25-2.32,2.9-2.32c1.75,0,2.86,1,2.86,2.52v2.7c0,0.39,0.17,0.54,0.45,0.54c0.09,0,0.22-0.03,0.22-0.03V73
	c0,0-0.34,0.08-0.67,0.08c-0.71,0-1.21-0.34-1.26-1.08C72.78,72.68,71.93,73.11,70.9,73.11z M71.13,71.99
	c1.17,0,1.85-0.81,1.85-1.98v-0.25l-1.85,0.3c-0.76,0.12-1.14,0.46-1.14,1.04C69.99,71.62,70.44,71.99,71.13,71.99z M78.68,73.11
	c-1.71,0-2.85-1.01-2.92-2.42h1.4c0.04,0.59,0.62,1.18,1.51,1.18c0.75,0,1.26-0.36,1.26-0.83c0-0.46-0.33-0.68-0.84-0.8l-1.13-0.26
	c-1-0.22-1.9-0.71-1.9-1.98c0-1.06,0.97-1.92,2.48-1.92c1.44,0,2.55,0.8,2.72,2.11h-1.4c-0.08-0.6-0.67-0.94-1.31-0.94
	c-0.62,0-1.05,0.29-1.05,0.75c0,0.37,0.31,0.6,0.8,0.72l1.13,0.25c1.09,0.24,1.97,0.67,1.97,2.03
	C81.39,72.19,80.32,73.11,78.68,73.11z M89.19,66.19v1.21h-1.65v3.43c0,0.68,0.39,1.04,0.97,1.04c0.29,0,0.58-0.08,0.68-0.11V73
	c-0.12,0.04-0.46,0.11-0.83,0.11c-1.34,0-2.26-0.7-2.26-2.17v-3.55H84.9v-1.21h1.21v-2.03h1.43v2.03H89.19z M92.48,73.11
	c-1.38,0-2.35-0.8-2.35-1.96c0-1.18,0.85-1.92,2.34-2.11l1.46-0.2c0.39-0.05,0.59-0.24,0.59-0.56c0-0.59-0.54-1.05-1.43-1.05
	c-0.83,0-1.43,0.42-1.5,1.18h-1.4c0.16-1.42,1.25-2.32,2.9-2.32c1.75,0,2.86,1,2.86,2.52v2.7c0,0.39,0.17,0.54,0.45,0.54
	c0.09,0,0.22-0.03,0.22-0.03V73c0,0-0.34,0.08-0.67,0.08c-0.71,0-1.21-0.34-1.26-1.08C94.36,72.68,93.51,73.11,92.48,73.11z
	 M92.7,71.99c1.17,0,1.85-0.81,1.85-1.98v-0.25l-1.85,0.3c-0.76,0.12-1.14,0.46-1.14,1.04C91.56,71.62,92.02,71.99,92.7,71.99z
	 M97.83,73v-9.57h1.43v5.36l2.73-2.6h1.99l-2.82,2.65l3.03,4.16h-1.78l-2.25-3.2l-0.91,0.84V73H97.83z M104.26,69.59
	c0-1.84,1.14-3.51,3.29-3.51c2.11,0,3.23,1.58,3.22,3.27c0,0.26-0.03,0.58-0.03,0.58h-5.07c0.13,1.25,0.88,1.96,1.98,1.96
	c0.84,0,1.51-0.39,1.67-1.09h1.4c-0.24,1.48-1.48,2.31-3.11,2.31C105.47,73.11,104.26,71.44,104.26,69.59z M105.74,68.8h3.49
	c-0.07-0.92-0.66-1.59-1.68-1.59C106.6,67.21,105.95,67.8,105.74,68.8z M112.22,73v-6.81h1.43v1.16c0.47-0.78,1.29-1.26,2.26-1.26
	c1.44,0,2.46,0.96,2.46,2.43V73h-1.43v-4.18c0-0.85-0.54-1.46-1.4-1.46c-1.17,0-1.88,1-1.88,2.64V73H112.22z M126.1,73.11
	c-1.98,0-3.36-1.42-3.36-3.52c0-2.09,1.38-3.51,3.36-3.51c1.62,0,2.84,0.88,3.07,2.56h-1.4c-0.14-0.77-0.8-1.31-1.64-1.31
	c-1.17,0-1.93,0.89-1.93,2.26c0,1.38,0.77,2.27,1.93,2.27c0.85,0,1.48-0.5,1.64-1.37h1.4C128.9,72.26,127.7,73.11,126.1,73.11z
	 M132.51,73.11c-1.38,0-2.35-0.8-2.35-1.96c0-1.18,0.85-1.92,2.34-2.11l1.46-0.2c0.39-0.05,0.59-0.24,0.59-0.56
	c0-0.59-0.54-1.05-1.43-1.05c-0.83,0-1.43,0.42-1.5,1.18h-1.4c0.16-1.42,1.25-2.32,2.9-2.32c1.75,0,2.86,1,2.86,2.52v2.7
	c0,0.39,0.17,0.54,0.45,0.54c0.09,0,0.22-0.03,0.22-0.03V73c0,0-0.34,0.08-0.67,0.08c-0.71,0-1.21-0.34-1.26-1.08
	C134.38,72.68,133.53,73.11,132.51,73.11z M132.73,71.99c1.17,0,1.85-0.81,1.85-1.98v-0.25l-1.85,0.3
	c-0.76,0.12-1.14,0.46-1.14,1.04C131.59,71.62,132.05,71.99,132.73,71.99z M141.88,67.49c-0.11-0.03-0.36-0.08-0.68-0.08
	c-1,0-1.92,0.92-1.92,3.05V73h-1.43v-6.81h1.43v1.3c0.32-0.81,1.23-1.4,2.1-1.4c0.29,0,0.43,0.04,0.5,0.04V67.49z M142.32,69.59
	c0-1.84,1.14-3.51,3.29-3.51c2.11,0,3.23,1.58,3.22,3.27c0,0.26-0.03,0.58-0.03,0.58h-5.07c0.13,1.25,0.88,1.96,1.98,1.96
	c0.84,0,1.51-0.39,1.67-1.09h1.4c-0.24,1.48-1.48,2.31-3.11,2.31C143.53,73.11,142.32,71.44,142.32,69.59z M143.81,68.8h3.49
	c-0.07-0.92-0.66-1.59-1.68-1.59C144.66,67.21,144.02,67.8,143.81,68.8z M156.33,73.11c-2.01,0-3.43-1.48-3.43-3.52
	c0-2.02,1.42-3.51,3.43-3.51c1.97,0,3.43,1.47,3.43,3.51C159.75,71.64,158.3,73.11,156.33,73.11z M156.33,71.86
	c1.16,0,1.96-0.94,1.96-2.27c0-1.33-0.81-2.26-1.96-2.26c-1.19,0-1.97,0.95-1.97,2.26C154.36,70.91,155.13,71.86,156.33,71.86z
	 M161.61,73v-5.61h-1.21v-1.21h1.21V65.5c0-1.46,0.95-2.17,2.22-2.17c0.29,0,0.59,0.03,0.87,0.09v1.25
	c-0.2-0.05-0.46-0.09-0.72-0.09c-0.5,0-0.95,0.34-0.95,1.04v0.56h1.67v1.21h-1.67V73H161.61z M171.97,73.11
	c-0.94,0-1.75-0.43-2.06-0.99V73h-1.43v-9.57h1.43v3.62c0.41-0.58,1.22-0.97,2.07-0.97c2.02,0,3.23,1.46,3.23,3.51
	C175.21,71.64,174.02,73.11,171.97,73.11z M171.77,71.86c1.19,0,1.98-0.92,1.98-2.27c0-1.37-0.79-2.26-1.98-2.26
	c-1.17,0-1.97,0.89-1.97,2.26C169.8,70.95,170.61,71.86,171.77,71.86z M180.91,66.19h1.44l-2.81,7.3c-0.45,1.14-1.1,2.07-2.53,2.07
	c-0.35,0-0.7-0.08-0.87-0.13v-1.23c0,0,0.34,0.12,0.72,0.12c0.72,0,1.05-0.38,1.43-1.37l0.04-0.1l-2.66-6.66h1.57l1.81,4.78
	L180.91,66.19z M189.37,73.11c-2.01,0-3.56-1.25-3.69-3.23h1.51c0.08,1.06,1.01,1.88,2.18,1.88c1.14,0,1.89-0.54,1.89-1.35
	c0-0.74-0.53-1.14-1.25-1.35l-1.63-0.47c-1.27-0.35-2.34-1-2.34-2.61c0-1.5,1.34-2.53,3.24-2.53c1.93,0,3.28,1.05,3.41,2.73h-1.51
	c-0.13-0.79-0.81-1.39-1.9-1.39c-1.05,0-1.68,0.45-1.68,1.18c0,0.66,0.47,0.99,1.17,1.18l1.65,0.47c1.31,0.37,2.39,1.01,2.39,2.76
	C192.82,72.01,191.46,73.11,189.37,73.11z M194.26,75.46v-9.27h1.43v0.88c0.37-0.57,1.19-0.99,2.11-0.99c1.99,0,3.2,1.47,3.2,3.51
	c0,2.05-1.27,3.52-3.29,3.52c-0.81,0-1.6-0.37-2.02-0.91v3.26H194.26z M197.57,71.86c1.18,0,1.97-0.91,1.97-2.27
	c0-1.37-0.79-2.26-1.97-2.26c-1.18,0-1.97,0.89-1.97,2.26C195.6,70.95,196.39,71.86,197.57,71.86z M205.48,73.11
	c-2.01,0-3.43-1.48-3.43-3.52c0-2.02,1.42-3.51,3.43-3.51c1.97,0,3.43,1.47,3.43,3.51C208.91,71.64,207.45,73.11,205.48,73.11z
	 M205.48,71.86c1.15,0,1.96-0.94,1.96-2.27c0-1.33-0.81-2.26-1.96-2.26c-1.19,0-1.97,0.95-1.97,2.26
	C203.51,70.91,204.29,71.86,205.48,71.86z M213.79,66.19v1.21h-1.65v3.43c0,0.68,0.39,1.04,0.97,1.04c0.29,0,0.58-0.08,0.68-0.11V73
	c-0.12,0.04-0.46,0.11-0.83,0.11c-1.34,0-2.26-0.7-2.26-2.17v-3.55h-1.21v-1.21h1.21v-2.03h1.43v2.03H213.79z M215.21,73v-9.47h1.9
	l2.8,6.39c0.37,0.84,0.52,1.4,0.52,1.4s0.14-0.57,0.51-1.4l2.8-6.39h1.84V73h-1.52v-5.46c0-0.92,0.05-1.51,0.05-1.51
	s-0.21,0.56-0.57,1.4L221.13,73h-1.44l-2.44-5.57c-0.37-0.84-0.56-1.4-0.56-1.4s0.04,0.59,0.04,1.51V73H215.21z M227.05,69.59
	c0-1.84,1.14-3.51,3.3-3.51c2.11,0,3.23,1.58,3.22,3.27c0,0.26-0.03,0.58-0.03,0.58h-5.07c0.13,1.25,0.88,1.96,1.98,1.96
	c0.84,0,1.51-0.39,1.67-1.09h1.4c-0.24,1.48-1.48,2.31-3.11,2.31C228.26,73.11,227.05,71.44,227.05,69.59z M228.53,68.8h3.49
	c-0.07-0.92-0.66-1.59-1.68-1.59C229.38,67.21,228.74,67.8,228.53,68.8z M234.87,71.39h1.65V73h-1.65V71.39z M241.21,73v-9.47h3.96
	c1.86,0,3.02,1.12,3.02,2.84c0,1.65-1.16,2.86-3.02,2.86h-2.44V73H241.21z M244.97,67.88c1.05,0,1.67-0.6,1.67-1.51
	c0-0.89-0.62-1.48-1.67-1.48h-2.24v2.99H244.97z M249.47,73v-9.57h1.43v3.91c0.49-0.78,1.29-1.26,2.26-1.26
	c1.46,0,2.45,0.96,2.45,2.43V73h-1.42v-4.18c0-0.85-0.55-1.46-1.42-1.46c-1.17,0-1.88,1-1.88,2.64V73H249.47z M256.99,69.59
	c0-1.84,1.14-3.51,3.29-3.51c2.11,0,3.23,1.58,3.22,3.27c0,0.26-0.03,0.58-0.03,0.58h-5.07c0.13,1.25,0.88,1.96,1.98,1.96
	c0.84,0,1.51-0.39,1.67-1.09h1.4c-0.24,1.48-1.48,2.31-3.11,2.31C258.2,73.11,256.99,71.44,256.99,69.59z M258.47,68.8h3.49
	c-0.07-0.92-0.66-1.59-1.68-1.59C259.33,67.21,258.68,67.8,258.47,68.8z M266.23,73l-2.11-6.81h1.46l0.91,3.22
	c0.28,1.04,0.41,1.81,0.41,1.81s0.17-0.76,0.5-1.8l0.99-3.23h1.35l1,3.24c0.33,1.04,0.5,1.8,0.5,1.8s0.14-0.77,0.41-1.82l0.89-3.22
	h1.46L271.86,73h-1.33l-0.98-3.2c-0.33-1.04-0.5-1.81-0.5-1.81s-0.18,0.77-0.51,1.8l-1,3.22H266.23z M274.32,71.39h1.65V73h-1.65
	V71.39z"/>
<path class="st2" d="M21.83,31h18.33c3.22,0,5.83,2.61,5.83,5.83v18.33c0,3.22-2.61,5.83-5.83,5.83H21.83
	C18.61,61,16,58.39,16,55.17V36.83C16,33.61,18.61,31,21.83,31z"/>
<path class="st3" d="M31.26,54.04c-4.87,0-8.26-3.29-8.26-8c0-2.37,0.82-4.41,2.36-5.88c1.44-1.37,3.4-2.12,5.52-2.12
	c1.06,0,1.97,0.19,2.84,0.37c0.84,0.17,1.63,0.34,2.51,0.34c0.26,0,0.51-0.01,0.77-0.04v3.55c-0.31,0.05-0.61,0.07-0.91,0.07
	c-0.98,0-1.79-0.24-2.58-0.46c-0.76-0.22-1.48-0.43-2.31-0.43c-2.55,0-4.33,1.83-4.33,4.45c0,2.75,1.95,4.67,4.74,4.67
	c1.75,0,3.7-0.76,5.38-2.09v3.7C35.87,53.02,33.96,54.04,31.26,54.04z"/>
</svg>
