<?xml version="1.0" encoding="utf-8"?>
<!-- Generator: Adobe Illustrator 26.5.0, SVG Export Plug-In . SVG Version: 6.00 Build 0)  -->
<svg version="1.1" id="Layer_1" xmlns="http://www.w3.org/2000/svg" xmlns:xlink="http://www.w3.org/1999/xlink" x="0px" y="0px"
	 viewBox="0 0 297 77" style="enable-background:new 0 0 297 77;" xml:space="preserve">
<style type="text/css">
	.st0{fill:#FFFFFF;}
	.st1{fill:#1D3F2B;}
	.st2{fill:#1EC677;}
	.st3{fill-rule:evenodd;clip-rule:evenodd;fill:#FFFFFF;}
</style>
<g>
	<path class="st0" d="M10.24,0h276.52C292.42,0,297,4.58,297,10.24v56.52c0,5.66-4.58,10.24-10.24,10.24H10.24
		C4.58,77,0,72.42,0,66.76V10.24C0,4.58,4.58,0,10.24,0z"/>
</g>
<path class="st1" d="M61.31,28v-3.91l-3.23-5.55h2.21l2.03,3.61l2.07-3.61h2.19l-3.24,5.55V28H61.31z M69.16,28.11
	c-2.06,0-3.53-1.5-3.53-3.52c0-2.01,1.47-3.51,3.53-3.51c2.05,0,3.54,1.48,3.54,3.51C72.71,26.62,71.21,28.11,69.16,28.11z
	 M69.16,26.46c0.94,0,1.59-0.77,1.59-1.88c0-1.1-0.66-1.86-1.59-1.86c-0.97,0-1.59,0.77-1.59,1.86
	C67.57,25.69,68.19,26.46,69.16,26.46z M80.4,21.19V28h-1.92v-0.93c-0.42,0.62-1.18,1.04-2.1,1.04c-1.5,0-2.51-0.97-2.51-2.47v-4.45
	h1.93v3.95c0,0.75,0.46,1.26,1.18,1.26c0.97,0,1.5-0.8,1.5-2.22v-2.99H80.4z M83.98,30.56c-0.32,0-0.53-0.03-0.53-0.03v-1.63
	c0,0,0.13,0.01,0.32,0.01c0.63,0,1-0.45,1-1.22v-6.51h1.92v6.71C86.69,29.54,85.61,30.56,83.98,30.56z M84.73,18.43h2.03v1.88h-2.03
	V18.43z M94.71,21.19V28h-1.92v-0.93c-0.42,0.62-1.18,1.04-2.1,1.04c-1.5,0-2.51-0.97-2.51-2.47v-4.45h1.93v3.95
	c0,0.75,0.46,1.26,1.18,1.26c0.97,0,1.5-0.8,1.5-2.22v-2.99H94.71z M98.88,28.11c-1.77,0-2.97-1-3.03-2.51h1.75
	c0.04,0.47,0.55,0.98,1.29,0.98c0.58,0,1-0.24,1-0.62c0-0.29-0.24-0.49-0.66-0.58l-1-0.2c-1.02-0.21-2.06-0.71-2.06-2.14
	c0-1.05,0.96-1.97,2.56-1.97c1.48,0,2.68,0.8,2.85,2.21h-1.75c-0.08-0.53-0.63-0.77-1.1-0.77c-0.45,0-0.79,0.2-0.79,0.54
	c0,0.3,0.28,0.49,0.68,0.56l1,0.2c1.13,0.21,2.09,0.66,2.09,2.11C101.71,27.09,100.58,28.11,98.88,28.11z M106.87,21.19v1.59h-1.52
	v2.72c0,0.62,0.39,0.97,0.92,0.97c0.2,0,0.42-0.04,0.6-0.09v1.64c-0.22,0.05-0.51,0.09-0.88,0.09c-1.47,0-2.57-0.77-2.57-2.39v-2.94
	h-1.1v-1.59h1.1V19.2h1.93v1.98H106.87z M114.06,30.56c-1.85,0-3.16-0.85-3.4-2.49h1.93c0.1,0.62,0.67,0.98,1.47,0.98
	c0.89,0,1.46-0.51,1.46-1.33v-0.79c-0.33,0.41-0.97,0.71-1.76,0.71c-1.93,0-3.19-1.27-3.19-3.27c0-2.02,1.26-3.3,3.14-3.3
	c0.8,0,1.44,0.3,1.81,0.76v-0.66h1.93v6.34C117.45,29.38,116.09,30.56,114.06,30.56z M114.07,26.02c0.95,0,1.55-0.66,1.55-1.64
	c0-0.98-0.6-1.65-1.55-1.65c-0.95,0-1.55,0.66-1.55,1.65C112.52,25.36,113.12,26.02,114.07,26.02z M122.19,28.11
	c-2.06,0-3.53-1.5-3.53-3.52c0-2.01,1.47-3.51,3.53-3.51c2.05,0,3.54,1.48,3.54,3.51C125.74,26.62,124.24,28.11,122.19,28.11z
	 M122.19,26.46c0.95,0,1.59-0.77,1.59-1.88c0-1.1-0.66-1.86-1.59-1.86c-0.97,0-1.59,0.77-1.59,1.86
	C120.6,25.69,121.22,26.46,122.19,26.46z M130.85,21.19v1.59h-1.52v2.72c0,0.62,0.39,0.97,0.92,0.97c0.2,0,0.42-0.04,0.6-0.09v1.64
	c-0.22,0.05-0.51,0.09-0.88,0.09c-1.47,0-2.57-0.77-2.57-2.39v-2.94h-1.1v-1.59h1.1V19.2h1.93v1.98H130.85z M137.41,29.3V28
	c-1.68-0.32-2.8-1.54-2.88-3.3h2c0.08,0.91,0.84,1.61,1.81,1.61c0.87,0,1.46-0.41,1.46-1.02c0-0.54-0.43-0.85-1.01-1.02l-1.42-0.39
	c-1.35-0.37-2.48-1.05-2.48-2.81c0-1.31,1.02-2.31,2.52-2.59v-1.19h1.67v1.19c1.62,0.28,2.66,1.33,2.74,2.85h-2
	c-0.1-0.58-0.67-1.13-1.59-1.13c-0.79,0-1.26,0.32-1.26,0.85c0,0.49,0.37,0.72,0.92,0.88l1.43,0.39c1.37,0.39,2.55,1.01,2.55,2.91
	c0,1.51-1.08,2.57-2.8,2.8v1.26H137.41z M143.82,28c0.26-2.63,1.69-5.63,3.7-7.69h-4.75v-1.77h6.89v1.79
	c-2.19,2.42-3.61,5.4-3.77,7.68H143.82z M149.38,26.06h2.03V28h-2.03V26.06z M153.65,28v-6.37h-2.07v-1.51
	c1.44-0.03,2.27-0.5,2.55-1.59h1.56V28H153.65z M160.87,28.11c-2.21,0-3.64-1.85-3.64-4.37c0-3.4,1.69-5.3,3.91-5.3
	c1.4,0,3.12,0.59,3.33,2.8h-2.05c-0.01-0.45-0.41-1.06-1.29-1.06c-1.33,0-1.92,1.29-1.96,2.6c0.42-0.62,1.15-1.01,2.06-1.01
	c1.85,0,3.23,1.34,3.23,3.18C164.48,26.79,162.97,28.11,160.87,28.11z M160.91,26.37c0.88,0,1.48-0.66,1.48-1.55
	c0-0.88-0.6-1.52-1.48-1.52c-0.88,0-1.51,0.63-1.51,1.52C159.4,25.72,160.03,26.37,160.91,26.37z M169.34,28v-5.23h-1.1v-1.59h1.1
	v-0.54c0-1.61,1.1-2.39,2.56-2.39c0.3,0,0.62,0.03,0.88,0.09v1.63c-0.18-0.05-0.39-0.08-0.62-0.08c-0.49,0-0.92,0.34-0.92,0.97v0.32
	h1.54v1.59h-1.54V28H169.34z M178.1,22.95c-0.18-0.04-0.41-0.07-0.63-0.07c-0.89,0-1.79,0.7-1.79,2.65V28h-1.92v-6.81h1.92v1.18
	c0.32-0.74,1.21-1.29,2.02-1.29c0.16,0,0.29,0.01,0.39,0.03V22.95z M182.07,28.11c-2.06,0-3.53-1.5-3.53-3.52
	c0-2.01,1.47-3.51,3.53-3.51c2.05,0,3.54,1.48,3.54,3.51C185.62,26.62,184.12,28.11,182.07,28.11z M182.07,26.46
	c0.94,0,1.59-0.77,1.59-1.88c0-1.1-0.66-1.86-1.59-1.86c-0.97,0-1.59,0.77-1.59,1.86C180.48,25.69,181.1,26.46,182.07,26.46z
	 M186.85,28v-6.81h1.92v0.95c0.39-0.63,1.04-1.05,1.93-1.05c1.08,0,1.75,0.43,2.09,1.22c0.35-0.64,1.17-1.22,2.27-1.22
	c1.48,0,2.46,0.97,2.46,2.28V28h-1.93v-4.07c0-0.76-0.42-1.23-1.13-1.23c-0.84,0-1.31,0.71-1.31,1.82V28h-1.92v-4.07
	c0-0.76-0.42-1.23-1.12-1.23c-0.85,0-1.34,0.72-1.34,1.82V28H186.85z M200.81,28l3.58-9.47h2.06l3.6,9.47h-2.22l-0.71-1.98h-3.46
	L202.95,28H200.81z M204.29,24.28h2.21l-1.1-3.09L204.29,24.28z M213.31,28.11c-1.77,0-2.97-1-3.03-2.51h1.75
	c0.04,0.47,0.55,0.98,1.29,0.98c0.58,0,1-0.24,1-0.62c0-0.29-0.24-0.49-0.66-0.58l-1-0.2c-1.02-0.21-2.06-0.71-2.06-2.14
	c0-1.05,0.96-1.97,2.56-1.97c1.48,0,2.68,0.8,2.85,2.21h-1.75c-0.08-0.53-0.63-0.77-1.1-0.77c-0.45,0-0.79,0.2-0.79,0.54
	c0,0.3,0.28,0.49,0.68,0.56l1,0.2c1.13,0.21,2.09,0.66,2.09,2.11C216.14,27.09,215.01,28.11,213.31,28.11z M217.36,28v-9.57h1.92
	v3.69c0.43-0.63,1.18-1.04,2.1-1.04c1.51,0,2.51,0.97,2.51,2.47V28h-1.92v-3.95c0-0.75-0.47-1.26-1.19-1.26
	c-0.97,0-1.5,0.8-1.5,2.23V28H217.36z M225.38,28v-9.57h1.92V28H225.38z M228.55,24.59c0-1.69,1.02-3.51,3.35-3.51
	c2.39,0,3.43,1.8,3.43,3.37c0,0.32-0.03,0.64-0.03,0.64h-4.84c0.16,0.91,0.75,1.4,1.63,1.4c0.66,0,1.14-0.29,1.29-0.77h1.92
	c-0.21,1.5-1.5,2.38-3.27,2.38C229.69,28.11,228.55,26.29,228.55,24.59z M230.49,23.72h2.76c-0.05-0.71-0.52-1.21-1.35-1.21
	C231.17,22.51,230.67,22.93,230.49,23.72z M240.74,21.19h1.93l-2.8,7.26c-0.34,0.88-1.05,2.11-2.85,2.11c-0.34,0-0.7-0.07-1.02-0.17
	v-1.63c0,0,0.34,0.16,0.76,0.16c0.68,0,1.08-0.25,1.45-1.22l-2.65-6.51h2.13l1.5,4.02L240.74,21.19z M249.54,28.09
	c-2.18,0-3.71-1.33-3.81-3.39h1.99c0.08,0.91,0.84,1.61,1.81,1.61c0.87,0,1.46-0.41,1.46-1.02c0-0.54-0.43-0.85-1.01-1.02
	l-1.42-0.39c-1.35-0.37-2.48-1.05-2.48-2.81c0-1.54,1.4-2.65,3.35-2.65c2.08,0,3.49,1.14,3.58,2.91h-2
	c-0.1-0.58-0.67-1.13-1.59-1.13c-0.79,0-1.26,0.32-1.26,0.85c0,0.49,0.37,0.72,0.92,0.88l1.43,0.39c1.36,0.39,2.55,1.01,2.55,2.91
	C253.07,26.96,251.68,28.09,249.54,28.09z M254.29,26.06h2.04V28h-2.04V26.06z M61.1,43v-8.13h-2.94v-1.34h7.4v1.34h-2.94V43H61.1z
	 M66.73,43v-9.57h1.43v3.91c0.49-0.77,1.29-1.26,2.26-1.26c1.46,0,2.46,0.96,2.46,2.43V43h-1.42v-4.17c0-0.85-0.55-1.46-1.42-1.46
	c-1.17,0-1.88,1-1.88,2.64V43H66.73z M74.25,39.59c0-1.84,1.14-3.51,3.29-3.51c2.11,0,3.23,1.58,3.22,3.27
	c0,0.26-0.03,0.58-0.03,0.58h-5.07c0.13,1.25,0.88,1.96,1.98,1.96c0.84,0,1.51-0.39,1.67-1.09h1.4c-0.24,1.48-1.48,2.31-3.11,2.31
	C75.46,43.11,74.25,41.44,74.25,39.59z M75.74,38.8h3.49c-0.07-0.92-0.66-1.59-1.68-1.59C76.59,37.21,75.95,37.8,75.74,38.8z
	 M85.21,43v-6.81h1.43v1.17c0.36-0.76,1.04-1.27,2.01-1.27c1.1,0,1.89,0.47,2.18,1.35c0.37-0.76,1.18-1.35,2.23-1.35
	c1.46,0,2.4,0.93,2.4,2.32V43h-1.43v-4.24c0-0.87-0.5-1.44-1.37-1.44c-1.04,0-1.61,0.92-1.61,2.25V43h-1.43v-4.24
	c0-0.87-0.49-1.44-1.35-1.44c-1.04,0-1.63,0.93-1.63,2.25V43H85.21z M100.25,43.11c-2.01,0-3.43-1.48-3.43-3.52
	c0-2.02,1.42-3.51,3.43-3.51c1.97,0,3.43,1.47,3.43,3.51C103.68,41.63,102.22,43.11,100.25,43.11z M100.25,41.86
	c1.15,0,1.96-0.95,1.96-2.27c0-1.33-0.81-2.26-1.96-2.26c-1.2,0-1.97,0.95-1.97,2.26C98.28,40.91,99.05,41.86,100.25,41.86z
	 M105.11,43v-6.81h1.43v1.16c0.47-0.77,1.29-1.26,2.26-1.26c1.44,0,2.46,0.96,2.46,2.43V43h-1.43v-4.17c0-0.85-0.54-1.46-1.4-1.46
	c-1.17,0-1.88,1-1.88,2.64V43H105.11z M112.62,39.59c0-1.84,1.14-3.51,3.3-3.51c2.11,0,3.23,1.58,3.22,3.27
	c0,0.26-0.03,0.58-0.03,0.58h-5.07c0.13,1.25,0.88,1.96,1.98,1.96c0.84,0,1.51-0.39,1.67-1.09h1.4c-0.24,1.48-1.48,2.31-3.11,2.31
	C113.83,43.11,112.62,41.44,112.62,39.59z M114.1,38.8h3.49c-0.07-0.92-0.66-1.59-1.68-1.59C114.96,37.21,114.31,37.8,114.1,38.8z
	 M124.84,36.19h1.44l-2.81,7.3c-0.45,1.14-1.1,2.07-2.53,2.07c-0.35,0-0.7-0.08-0.87-0.13v-1.23c0,0,0.34,0.12,0.72,0.12
	c0.72,0,1.05-0.38,1.43-1.37l0.04-0.11l-2.67-6.66h1.58l1.81,4.78L124.84,36.19z M130.08,43v-6.81h1.43V43H130.08z M130.02,33.43
	h1.59v1.61h-1.59V33.43z M135.76,43.11c-1.71,0-2.85-1.01-2.92-2.42h1.41c0.04,0.59,0.62,1.18,1.51,1.18c0.75,0,1.26-0.35,1.26-0.83
	c0-0.46-0.33-0.68-0.84-0.8l-1.13-0.26c-1-0.22-1.9-0.71-1.9-1.98c0-1.06,0.97-1.92,2.48-1.92c1.44,0,2.55,0.8,2.72,2.11h-1.4
	c-0.08-0.6-0.67-0.95-1.31-0.95c-0.62,0-1.05,0.29-1.05,0.75c0,0.37,0.32,0.6,0.8,0.72l1.13,0.25c1.09,0.24,1.97,0.67,1.97,2.03
	C138.48,42.19,137.4,43.11,135.76,43.11z M146.93,37.49c-0.11-0.03-0.35-0.08-0.68-0.08c-1,0-1.92,0.92-1.92,3.05V43h-1.43v-6.81
	h1.43v1.3c0.32-0.81,1.23-1.4,2.1-1.4c0.29,0,0.43,0.04,0.5,0.04V37.49z M147.37,39.59c0-1.84,1.14-3.51,3.29-3.51
	c2.11,0,3.23,1.58,3.22,3.27c0,0.26-0.03,0.58-0.03,0.58h-5.07c0.13,1.25,0.88,1.96,1.98,1.96c0.84,0,1.51-0.39,1.67-1.09h1.4
	c-0.24,1.48-1.48,2.31-3.11,2.31C148.58,43.11,147.37,41.44,147.37,39.59z M148.85,38.8h3.49c-0.07-0.92-0.66-1.59-1.68-1.59
	C149.71,37.21,149.06,37.8,148.85,38.8z M157.3,43.11c-1.38,0-2.35-0.8-2.35-1.96c0-1.18,0.85-1.92,2.34-2.11l1.46-0.2
	c0.39-0.05,0.59-0.24,0.59-0.56c0-0.59-0.54-1.05-1.43-1.05c-0.83,0-1.43,0.42-1.5,1.18H155c0.16-1.42,1.25-2.32,2.9-2.32
	c1.75,0,2.86,1,2.86,2.52v2.7c0,0.39,0.17,0.54,0.45,0.54c0.09,0,0.22-0.03,0.22-0.03V43c0,0-0.34,0.08-0.67,0.08
	c-0.71,0-1.21-0.34-1.26-1.08C159.18,42.68,158.32,43.11,157.3,43.11z M157.52,41.99c1.17,0,1.85-0.81,1.85-1.98v-0.25l-1.85,0.3
	c-0.76,0.12-1.14,0.46-1.14,1.04C156.38,41.62,156.84,41.99,157.52,41.99z M165.53,43.11c-2.05,0-3.26-1.47-3.26-3.52
	c0-2.05,1.22-3.51,3.23-3.51c0.87,0,1.67,0.39,2.07,0.97v-3.62h1.43V43h-1.43v-0.88C167.28,42.67,166.47,43.11,165.53,43.11z
	 M165.72,41.86c1.17,0,1.97-0.91,1.97-2.27c0-1.37-0.8-2.26-1.97-2.26c-1.18,0-1.97,0.89-1.97,2.26
	C163.75,40.94,164.54,41.86,165.72,41.86z M175.31,36.19h1.44l-2.81,7.3c-0.45,1.14-1.1,2.07-2.53,2.07c-0.36,0-0.7-0.08-0.87-0.13
	v-1.23c0,0,0.34,0.12,0.72,0.12c0.72,0,1.05-0.38,1.43-1.37l0.04-0.11l-2.66-6.66h1.57l1.81,4.78L175.31,36.19z M183.93,36.19v1.21
	h-1.65v3.43c0,0.68,0.39,1.04,0.97,1.04c0.29,0,0.58-0.08,0.68-0.11V43c-0.12,0.04-0.46,0.11-0.83,0.11c-1.34,0-2.26-0.7-2.26-2.17
	v-3.54h-1.21v-1.21h1.21v-2.03h1.43v2.03H183.93z M188.12,43.11c-2.01,0-3.43-1.48-3.43-3.52c0-2.02,1.42-3.51,3.43-3.51
	c1.97,0,3.43,1.47,3.43,3.51C191.54,41.63,190.08,43.11,188.12,43.11z M188.12,41.86c1.15,0,1.96-0.95,1.96-2.27
	c0-1.33-0.81-2.26-1.96-2.26c-1.2,0-1.97,0.95-1.97,2.26C186.15,40.91,186.92,41.86,188.12,41.86z M202.04,36.19V43h-1.43v-1.16
	c-0.47,0.77-1.29,1.26-2.26,1.26c-1.45,0-2.46-0.96-2.46-2.43v-4.49h1.43v4.17c0,0.85,0.54,1.46,1.4,1.46c1.17,0,1.88-1,1.88-2.64
	v-2.99H202.04z M206.29,43.11c-1.71,0-2.85-1.01-2.91-2.42h1.4c0.04,0.59,0.62,1.18,1.51,1.18c0.75,0,1.26-0.35,1.26-0.83
	c0-0.46-0.33-0.68-0.84-0.8l-1.13-0.26c-1-0.22-1.9-0.71-1.9-1.98c0-1.06,0.97-1.92,2.48-1.92c1.44,0,2.55,0.8,2.72,2.11h-1.4
	c-0.08-0.6-0.67-0.95-1.31-0.95c-0.62,0-1.05,0.29-1.05,0.75c0,0.37,0.32,0.6,0.8,0.72l1.13,0.25c1.09,0.24,1.97,0.67,1.97,2.03
	C209,42.19,207.93,43.11,206.29,43.11z M210.05,39.59c0-1.84,1.14-3.51,3.29-3.51c2.11,0,3.23,1.58,3.22,3.27
	c0,0.26-0.03,0.58-0.03,0.58h-5.07c0.13,1.25,0.88,1.96,1.98,1.96c0.84,0,1.51-0.39,1.67-1.09h1.4c-0.24,1.48-1.48,2.31-3.11,2.31
	C211.26,43.11,210.05,41.44,210.05,39.59z M211.53,38.8h3.49c-0.07-0.92-0.66-1.59-1.68-1.59C212.38,37.21,211.74,37.8,211.53,38.8z
	 M225.04,37.49c-0.11-0.03-0.36-0.08-0.68-0.08c-1,0-1.92,0.92-1.92,3.05V43H221v-6.81h1.43v1.3c0.32-0.81,1.24-1.4,2.1-1.4
	c0.29,0,0.43,0.04,0.5,0.04V37.49z M226.22,43v-6.81h1.43V43H226.22z M226.15,33.43h1.59v1.61h-1.59V33.43z M232.51,45.56
	c-1.86,0-3.06-0.83-3.26-2.38h1.44c0.1,0.75,0.75,1.19,1.81,1.19c1.13,0,1.8-0.6,1.8-1.67v-0.89c-0.33,0.5-1.1,0.85-2.01,0.85
	c-2,0-3.2-1.37-3.2-3.28c0-1.94,1.21-3.31,3.16-3.31c0.87,0,1.65,0.38,2.05,0.93v-0.83h1.43v6.38
	C235.74,44.44,234.52,45.56,232.51,45.56z M232.48,41.44c1.17,0,1.92-0.81,1.92-2.05s-0.75-2.06-1.92-2.06
	c-1.17,0-1.92,0.81-1.92,2.06C230.57,40.62,231.32,41.44,232.48,41.44z M237.54,43v-9.57h1.43v3.91c0.49-0.77,1.29-1.26,2.26-1.26
	c1.46,0,2.46,0.96,2.46,2.43V43h-1.42v-4.17c0-0.85-0.55-1.46-1.42-1.46c-1.17,0-1.88,1-1.88,2.64V43H237.54z M248.96,36.19v1.21
	h-1.65v3.43c0,0.68,0.39,1.04,0.97,1.04c0.29,0,0.58-0.08,0.68-0.11V43c-0.12,0.04-0.46,0.11-0.83,0.11c-1.34,0-2.26-0.7-2.26-2.17
	v-3.54h-1.21v-1.21h1.21v-2.03h1.43v2.03H248.96z M253.27,43v-6.81h1.43v1.16c0.47-0.77,1.29-1.26,2.26-1.26
	c1.45,0,2.45,0.96,2.45,2.43V43h-1.43v-4.17c0-0.85-0.54-1.46-1.4-1.46c-1.17,0-1.88,1-1.88,2.64V43H253.27z M264.21,43.11
	c-2.01,0-3.43-1.48-3.43-3.52c0-2.02,1.42-3.51,3.43-3.51c1.97,0,3.43,1.47,3.43,3.51C267.64,41.63,266.18,43.11,264.21,43.11z
	 M264.21,41.86c1.15,0,1.96-0.95,1.96-2.27c0-1.33-0.81-2.26-1.96-2.26c-1.19,0-1.97,0.95-1.97,2.26
	C262.24,40.91,263.02,41.86,264.21,41.86z M270.33,43l-2.11-6.81h1.46l0.91,3.22c0.28,1.04,0.41,1.81,0.41,1.81s0.17-0.76,0.5-1.8
	l0.98-3.23h1.35l1,3.24c0.33,1.04,0.5,1.8,0.5,1.8s0.14-0.77,0.41-1.82l0.89-3.22h1.46L275.96,43h-1.33l-0.99-3.2
	c-0.33-1.04-0.5-1.81-0.5-1.81s-0.18,0.77-0.51,1.8l-1,3.22H270.33z M278.42,41.39h1.65V43h-1.65V41.39z M61.1,58v-8.13h-2.94v-1.34
	h7.4v1.34h-2.94V58H61.1z M67.17,58.11c-1.38,0-2.35-0.8-2.35-1.96c0-1.18,0.85-1.92,2.34-2.11l1.46-0.2
	c0.39-0.05,0.59-0.24,0.59-0.56c0-0.59-0.54-1.05-1.43-1.05c-0.83,0-1.43,0.42-1.5,1.18h-1.4c0.16-1.42,1.25-2.32,2.9-2.32
	c1.75,0,2.86,1,2.86,2.52v2.7c0,0.39,0.17,0.54,0.45,0.54c0.09,0,0.22-0.03,0.22-0.03V58c0,0-0.34,0.08-0.67,0.08
	c-0.71,0-1.21-0.34-1.26-1.08C69.05,57.68,68.2,58.11,67.17,58.11z M67.4,56.99c1.17,0,1.85-0.81,1.85-1.98v-0.25l-1.85,0.3
	c-0.76,0.12-1.14,0.46-1.14,1.04C66.25,56.62,66.71,56.99,67.4,56.99z M72.52,60.46v-9.27h1.43v0.88c0.37-0.56,1.19-0.98,2.11-0.98
	c1.99,0,3.2,1.47,3.2,3.51c0,2.05-1.27,3.52-3.29,3.52c-0.81,0-1.6-0.37-2.02-0.91v3.26H72.52z M75.83,56.86
	c1.18,0,1.97-0.91,1.97-2.27c0-1.37-0.79-2.26-1.97-2.26c-1.18,0-1.97,0.89-1.97,2.26C73.86,55.95,74.64,56.86,75.83,56.86z
	 M87.06,51.19v1.21h-1.65v3.43c0,0.68,0.39,1.04,0.97,1.04c0.29,0,0.58-0.08,0.68-0.11V58c-0.12,0.04-0.46,0.11-0.83,0.11
	c-1.34,0-2.26-0.7-2.26-2.17v-3.54h-1.21v-1.21h1.21v-2.03h1.43v2.03H87.06z M91.25,58.11c-2.01,0-3.43-1.48-3.43-3.52
	c0-2.02,1.42-3.51,3.43-3.51c1.97,0,3.43,1.47,3.43,3.51C94.68,56.63,93.22,58.11,91.25,58.11z M91.25,56.86
	c1.15,0,1.96-0.95,1.96-2.27c0-1.33-0.81-2.26-1.96-2.26c-1.2,0-1.97,0.95-1.97,2.26C89.28,55.91,90.05,56.86,91.25,56.86z
	 M101.53,58.11c-1.71,0-2.85-1.01-2.91-2.42h1.4c0.04,0.59,0.62,1.18,1.51,1.18c0.75,0,1.26-0.35,1.26-0.83
	c0-0.46-0.33-0.68-0.84-0.8l-1.13-0.26c-1-0.22-1.9-0.71-1.9-1.98c0-1.06,0.97-1.92,2.48-1.92c1.44,0,2.55,0.8,2.72,2.11h-1.4
	c-0.08-0.6-0.67-0.95-1.31-0.95c-0.62,0-1.05,0.29-1.05,0.75c0,0.37,0.31,0.6,0.8,0.72l1.13,0.25c1.09,0.24,1.97,0.67,1.97,2.03
	C104.25,57.19,103.17,58.11,101.53,58.11z M105.29,54.59c0-1.84,1.14-3.51,3.29-3.51c2.11,0,3.23,1.58,3.22,3.27
	c0,0.26-0.03,0.58-0.03,0.58h-5.07c0.13,1.25,0.88,1.96,1.98,1.96c0.84,0,1.51-0.39,1.67-1.09h1.4c-0.24,1.48-1.48,2.31-3.11,2.31
	C106.5,58.11,105.29,56.44,105.29,54.59z M106.77,53.8h3.49c-0.07-0.92-0.66-1.59-1.68-1.59C107.63,52.21,106.98,52.8,106.77,53.8z
	 M112.87,54.59c0-1.84,1.14-3.51,3.3-3.51c2.11,0,3.23,1.58,3.22,3.27c0,0.26-0.03,0.58-0.03,0.58h-5.07
	c0.13,1.25,0.88,1.96,1.98,1.96c0.84,0,1.51-0.39,1.67-1.09h1.4c-0.24,1.48-1.48,2.31-3.11,2.31
	C114.08,58.11,112.87,56.44,112.87,54.59z M114.36,53.8h3.49c-0.07-0.92-0.66-1.59-1.68-1.59C115.21,52.21,114.57,52.8,114.36,53.8z
	 M128.01,51.19h1.44l-2.81,7.3c-0.45,1.14-1.1,2.07-2.53,2.07c-0.36,0-0.7-0.08-0.87-0.13v-1.23c0,0,0.34,0.12,0.72,0.12
	c0.72,0,1.05-0.38,1.43-1.37l0.04-0.11l-2.66-6.66h1.57l1.81,4.78L128.01,51.19z M133.35,58.11c-2.01,0-3.43-1.48-3.43-3.52
	c0-2.02,1.42-3.51,3.43-3.51c1.97,0,3.43,1.47,3.43,3.51C136.77,56.63,135.32,58.11,133.35,58.11z M133.35,56.86
	c1.16,0,1.96-0.95,1.96-2.27c0-1.33-0.81-2.26-1.96-2.26c-1.19,0-1.97,0.95-1.97,2.26C131.38,55.91,132.15,56.86,133.35,56.86z
	 M144.28,51.19V58h-1.43v-1.16c-0.47,0.77-1.29,1.26-2.26,1.26c-1.44,0-2.46-0.96-2.46-2.43v-4.49h1.43v4.17
	c0,0.85,0.54,1.46,1.4,1.46c1.17,0,1.88-1,1.88-2.64v-2.99H144.28z M150.12,52.49c-0.1-0.03-0.35-0.08-0.68-0.08
	c-1,0-1.92,0.92-1.92,3.05V58h-1.43v-6.81h1.43v1.3c0.32-0.81,1.23-1.4,2.1-1.4c0.29,0,0.43,0.04,0.5,0.04V52.49z M154.01,58v-6.81
	h1.43v1.16c0.47-0.77,1.29-1.26,2.26-1.26c1.44,0,2.46,0.96,2.46,2.43V58h-1.43v-4.17c0-0.85-0.54-1.46-1.4-1.46
	c-1.17,0-1.88,1-1.88,2.64V58H154.01z M161.51,54.59c0-1.84,1.14-3.51,3.29-3.51c2.11,0,3.23,1.58,3.22,3.27
	c0,0.26-0.03,0.58-0.03,0.58h-5.07c0.13,1.25,0.88,1.96,1.98,1.96c0.84,0,1.51-0.39,1.67-1.09h1.4c-0.24,1.48-1.48,2.31-3.11,2.31
	C162.72,58.11,161.51,56.44,161.51,54.59z M163,53.8h3.49c-0.07-0.92-0.66-1.59-1.68-1.59C163.85,52.21,163.21,52.8,163,53.8z
	 M170.76,58l-2.11-6.81h1.46l0.91,3.22c0.28,1.04,0.41,1.81,0.41,1.81s0.17-0.76,0.5-1.8l0.98-3.23h1.35l1,3.24
	c0.33,1.04,0.5,1.8,0.5,1.8s0.15-0.77,0.41-1.82l0.89-3.22h1.46L176.39,58h-1.33l-0.99-3.2c-0.33-1.04-0.5-1.81-0.5-1.81
	s-0.18,0.77-0.51,1.8l-1,3.22H170.76z M185.88,58.11c-0.94,0-1.75-0.43-2.06-0.98V58h-1.43v-9.57h1.43v3.62
	c0.41-0.58,1.22-0.97,2.07-0.97c2.02,0,3.23,1.46,3.23,3.51C189.12,56.63,187.93,58.11,185.88,58.11z M185.68,56.86
	c1.19,0,1.98-0.92,1.98-2.27c0-1.37-0.79-2.26-1.98-2.26c-1.17,0-1.97,0.89-1.97,2.26C183.71,55.95,184.52,56.86,185.68,56.86z
	 M192.53,58.11c-1.38,0-2.35-0.8-2.35-1.96c0-1.18,0.85-1.92,2.34-2.11l1.46-0.2c0.39-0.05,0.59-0.24,0.59-0.56
	c0-0.59-0.54-1.05-1.43-1.05c-0.83,0-1.43,0.42-1.5,1.18h-1.41c0.16-1.42,1.25-2.32,2.9-2.32c1.75,0,2.86,1,2.86,2.52v2.7
	c0,0.39,0.17,0.54,0.45,0.54c0.09,0,0.22-0.03,0.22-0.03V58c0,0-0.34,0.08-0.67,0.08c-0.71,0-1.21-0.34-1.26-1.08
	C194.41,57.68,193.56,58.11,192.53,58.11z M192.76,56.99c1.17,0,1.85-0.81,1.85-1.98v-0.25l-1.85,0.3
	c-0.76,0.12-1.14,0.46-1.14,1.04C191.61,56.62,192.07,56.99,192.76,56.99z M197.88,58v-9.57h1.43V58H197.88z M203.1,58.11
	c-1.38,0-2.35-0.8-2.35-1.96c0-1.18,0.85-1.92,2.34-2.11l1.46-0.2c0.39-0.05,0.59-0.24,0.59-0.56c0-0.59-0.54-1.05-1.43-1.05
	c-0.83,0-1.43,0.42-1.5,1.18h-1.4c0.16-1.42,1.25-2.32,2.9-2.32c1.75,0,2.86,1,2.86,2.52v2.7c0,0.39,0.17,0.54,0.45,0.54
	c0.09,0,0.22-0.03,0.22-0.03V58c0,0-0.34,0.08-0.67,0.08c-0.71,0-1.21-0.34-1.26-1.08C204.97,57.68,204.12,58.11,203.1,58.11z
	 M203.32,56.99c1.17,0,1.85-0.81,1.85-1.98v-0.25l-1.85,0.3c-0.76,0.12-1.14,0.46-1.14,1.04C202.18,56.62,202.64,56.99,203.32,56.99
	z M208.44,58v-6.81h1.43v1.16c0.47-0.77,1.29-1.26,2.26-1.26c1.44,0,2.46,0.96,2.46,2.43V58h-1.43v-4.17c0-0.85-0.54-1.46-1.41-1.46
	c-1.17,0-1.88,1-1.88,2.64V58H208.44z M219.33,58.11c-1.98,0-3.36-1.42-3.36-3.52c0-2.09,1.38-3.51,3.36-3.51
	c1.61,0,2.84,0.88,3.07,2.56h-1.4c-0.14-0.77-0.8-1.31-1.64-1.31c-1.17,0-1.93,0.89-1.93,2.26c0,1.38,0.78,2.27,1.93,2.27
	c0.85,0,1.48-0.5,1.64-1.37h1.4C222.12,57.26,220.93,58.11,219.33,58.11z M223.38,54.59c0-1.84,1.14-3.51,3.29-3.51
	c2.11,0,3.23,1.58,3.22,3.27c0,0.26-0.03,0.58-0.03,0.58h-5.07c0.13,1.25,0.88,1.96,1.98,1.96c0.84,0,1.51-0.39,1.67-1.09h1.4
	c-0.24,1.48-1.48,2.31-3.11,2.31C224.59,58.11,223.38,56.44,223.38,54.59z M224.86,53.8h3.49c-0.07-0.92-0.66-1.59-1.68-1.59
	C225.72,52.21,225.07,52.8,224.86,53.8z M231.2,56.39h1.65V58h-1.65V56.39z"/>
<path class="st2" d="M21.83,23h18.33c3.22,0,5.83,2.61,5.83,5.83v18.33c0,3.22-2.61,5.83-5.83,5.83H21.83
	C18.61,53,16,50.39,16,47.17V28.83C16,25.61,18.61,23,21.83,23z"/>
<path class="st3" d="M31.26,46.04c-4.87,0-8.26-3.29-8.26-8c0-2.37,0.82-4.41,2.36-5.88c1.44-1.37,3.4-2.12,5.52-2.12
	c1.06,0,1.97,0.19,2.84,0.37c0.84,0.17,1.63,0.34,2.51,0.34c0.26,0,0.51-0.01,0.77-0.04v3.55c-0.31,0.05-0.61,0.07-0.91,0.07
	c-0.98,0-1.79-0.24-2.58-0.46c-0.76-0.22-1.48-0.43-2.31-0.43c-2.55,0-4.33,1.83-4.33,4.45c0,2.75,1.95,4.67,4.74,4.67
	c1.75,0,3.7-0.76,5.38-2.09v3.7C35.87,45.02,33.96,46.04,31.26,46.04z"/>
</svg>
