<?xml version="1.0" encoding="utf-8"?>
<!-- Generator: Adobe Illustrator 26.5.0, SVG Export Plug-In . SVG Version: 6.00 Build 0)  -->
<svg version="1.1" id="Layer_1" xmlns="http://www.w3.org/2000/svg" xmlns:xlink="http://www.w3.org/1999/xlink" x="0px" y="0px"
	 viewBox="0 0 186.36 25.94" style="enable-background:new 0 0 186.36 25.94;" xml:space="preserve">
<style type="text/css">
	.st0{fill:#0D4029;}
</style>
<path class="st0" d="M5.75,14.39V7.4L3.63,8.31c0,0-0.52,1.2-0.46,2.92c0.06,1.38,0.86,2.98,1.43,3.67L5.75,14.39z M11.89,0
	c0.52,0.06,1.32,0.29,1.95,0.86c0.63,0.63,0.8,1.61,0.57,2.47c-0.23,0.8-0.46,1.2-1.2,1.72c-0.8,0.52-1.78,0.52-1.78,0.52v3.38
	l1.66,1.32l-1.66,1.32v4.59c0,0,1.66-0.92,2.64-3.04c0,0,0.06-0.11,0.11-0.34c0.11,0.57,0.06,1.72-0.57,3.15
	c-0.46,1.09-1.38,2.18-2.47,2.75c-1.95,1.09-3.38,1.2-4.99,0.86c-1.83-0.4-3.5-1.38-4.64-3.21c-0.8-1.26-1.15-2.75-1.15-4.3
	c0.06-3.1,2.35-5.79,5.05-6.77c0.34-0.11,0.46-0.23,0.92-0.23C6.1,5.22,5.87,5.39,5.58,5.56C4.72,6.13,3.98,7.22,3.69,8.08
	l5.16-2.29v7.22l-4.19,2.06c0.46,0.63,1.89,1.66,3.15,1.78c2.12,0.23,3.33-0.69,3.33-0.69v-4.7l-1.61-1.32l1.61-1.32V5.56
	c-0.86-0.11-1.95-0.4-2.58-0.57C7.64,4.76,4.55,3.9,4.03,3.84C3.57,3.78,2.94,3.78,2.6,4.13C2.26,4.47,2.03,5.05,2.14,5.56
	C2.26,5.85,2.43,6.02,2.6,6.19c0,0-0.17,0-0.52-0.23C1.51,5.62,1.05,4.93,0.99,4.07C0.94,2.98,1.4,1.95,2.31,1.32
	c0.92-0.57,1.78-0.86,2.87-0.75c1.55,0.23,3.55,1.09,5.39,1.49c0.69,0.17,1.26,0.23,1.78-0.06c0.23-0.17,0.63-0.57,0.29-1.15
	c-0.4-0.69-1.15-0.63-1.78-0.75C11.37,0,11.49,0,11.89,0z"/>
<path class="st0" d="M32.01,12.56l-2.35,1.72V8.55L32.01,12.56z M31.95,7.05c0,0-1.61,0.97-2.64,1.61
	c-1.09,0.63-2.47,1.32-2.47,1.32v6.65l-0.97,0.75l0.11,0.17l0.92-0.75l2.92,2.64l5.05-4.01l-0.11-0.17l-2.81,2.18l-2.29-2.18v-0.8
	l4.64-3.38L31.95,7.05z"/>
<path class="st0" d="M18.71,21.96c0.69,0.17,1.83,0.23,3.27-0.46c1.55-0.8,2.35-2.47,2.35-4.13l0.06-2.41V9.69l0.97-0.75l-0.11-0.17
	l-0.97,0.75L21.98,7l-2.92,2.52V0.98l-3.67,2.81c0.17,0.11,0.69,0.17,0.69,0.92v11.93l-1.55,1.15l0.11,0.17l0.75-0.57l2.06,1.95
	l3.27-2.58l-0.06-0.17l-0.75,0.63l-0.8-0.8V9.75l0.97-0.8l1.43,1.78c0,0,0,4.3,0,5.73c0,1.55,0,3.44-0.8,4.36
	C19.86,21.67,19.51,21.73,18.71,21.96z"/>
<path class="st0" d="M174.61,12.59l-2.35,1.72V8.58L174.61,12.59z M174.55,7.09c0,0-1.6,0.97-2.64,1.61
	c-1.09,0.63-2.52,1.32-2.52,1.32v6.65l-0.97,0.75l0.11,0.17l0.92-0.75l2.92,2.64l5.04-4.01l-0.11-0.17l-2.81,2.18l-2.29-2.18v-0.8
	l4.64-3.38L174.55,7.09z"/>
<path class="st0" d="M150.76,9.84l0.12,0.17l0.97-0.86l1.43,1.61v5.5l-0.69,0.63l2.18,2.52l2.29-2.24l-0.97-0.97V9.56l0.57-0.46
	l1.55,1.83v5.5l-0.57,0.57l2.06,2.35l2.24-2.24l-0.8-0.86V9.56l0.57-0.46l1.6,1.78v5.45l-0.52,0.57l2.29,2.47l3.1-2.81l-0.12-0.17
	l-0.74,0.69l-1.15-1.26V9.61l1.09-0.86l-0.11-0.17l-1.15,0.86l-2.06-2.35l-2.98,2.35l-2.12-2.29l-2.87,2.29l-2.12-2.24L150.76,9.84z
	"/>
<path class="st0" d="M144.51,9.67l0.12,0.17l0.8-0.69l1.26,1.49v6.25l-0.86,0.8l0.11,0.11l0.92-0.75l2.01,2.29l2.98-2.58l-0.17-0.17
	l-0.86,0.75l-1.2-1.38V9.84l1.03-0.92l-0.11-0.11l-0.98,0.8l-2.12-2.47L144.51,9.67z"/>
<path class="st0" d="M145.37,4.45l2.18-2.01l1.84,2.01l-2.24,2.01L145.37,4.45z"/>
<path class="st0" d="M136.2,14.37V7.38l-2.12,0.92c0,0-0.52,1.2-0.46,2.92c0.06,1.38,0.86,2.98,1.43,3.67L136.2,14.37z M142.39,0.04
	c0.52,0.06,1.32,0.29,1.95,0.86c0.63,0.63,0.8,1.61,0.57,2.47c-0.23,0.8-0.4,1.2-1.2,1.72c-0.8,0.52-1.78,0.52-1.78,0.52v3.38
	l1.66,1.32l-1.66,1.32v4.59c0,0,1.66-0.92,2.64-3.04c0,0,0.06-0.11,0.12-0.34c0.11,0.57,0.06,1.72-0.57,3.15
	c-0.46,1.09-1.38,2.18-2.46,2.75c-1.95,1.09-3.38,1.2-4.99,0.86c-1.83-0.4-3.5-1.38-4.64-3.21c-0.8-1.26-1.15-2.75-1.15-4.3
	c0.06-3.1,2.35-5.79,5.04-6.77c0.34-0.11,0.46-0.23,0.92-0.23c-0.23,0.17-0.46,0.34-0.74,0.52c-0.86,0.57-1.61,1.66-1.89,2.52
	l5.16-2.29v7.22l-4.19,2.06c0.46,0.63,1.89,1.66,3.15,1.78c2.12,0.23,3.32-0.69,3.32-0.69v-4.7l-1.61-1.32l1.61-1.32V5.48
	c-0.86-0.11-1.95-0.4-2.58-0.57c-0.92-0.23-4.01-1.09-4.53-1.15c-0.46-0.06-1.09-0.06-1.43,0.29c-0.34,0.34-0.57,0.92-0.46,1.43
	c0.11,0.29,0.29,0.46,0.46,0.63c0,0-0.17,0-0.51-0.23c-0.57-0.34-1.03-1.03-1.09-1.89c-0.06-1.09,0.4-2.12,1.32-2.75
	c0.8-0.52,1.66-0.86,2.75-0.69c1.55,0.23,3.55,1.09,5.39,1.49c0.69,0.17,1.26,0.23,1.78-0.06c0.23-0.17,0.63-0.57,0.29-1.15
	c-0.4-0.69-1.15-0.63-1.78-0.75C141.87-0.02,141.99-0.02,142.39,0.04z"/>
<path class="st0" d="M181.15,8.35v3.33l1.09,0.97c0,0,2.41-1.89,3.27-3.67c0,0-1.09,1.43-2.52,1.03
	C181.78,9.56,181.15,8.35,181.15,8.35z M178.45,17.12c0,0,1.03-1.72,2.87-1.38c1.72,0.34,2.35,2.18,2.35,2.18v-4.19l-1.2-1.03
	C181.09,14.03,178.74,15.98,178.45,17.12z M180.17,20.33c-0.34,0.11-1.78-0.23-2.12-1.78c-0.34-1.49,0.69-2.47,2.24-4.01l-1.83-1.66
	V9.67c0,0,1.32-0.69,2.41-1.32c1.03-0.63,2.12-1.38,2.12-1.38s0.8,0.97,1.66,0.92c1.38-0.11,1.32-1.2,1.26-1.49
	c0.23,0.4,0.86,1.66-1.55,4.47l2.01,1.61v4.13c0,0-2.29,1.2-4.47,2.81c0,0-1.2-1.55-2.29-0.8C178.85,19.13,179.2,19.93,180.17,20.33
	z"/>
<path class="st0" d="M42.42,21.35c-1.32-0.17-1.83-0.92-1.83-1.55c0-0.4,0.34-1.2,1.15-1.32c0.8-0.11,1.61,0.29,2.29,1.09l3.04-3.33
	l-0.17-0.11l-0.8,0.92c-0.8-0.92-2.01-1.55-3.15-1.72V5.19l7.85,14.28c0,0,0.06,0.17,0.4,0.17c0.29,0,0.23-0.23,0.23-0.23V5.07
	c0.63,0,1.61-0.4,2.06-0.86C54.97,2.66,54.4,1,54.23,0.83c-0.11,0.75-0.69,1.49-1.61,1.49c-1.26,0-2.01-0.92-2.01-0.92l-3.04,3.44
	l0.17,0.11l0.86-0.97c1.03,0.97,1.83,1.09,2.64,1.09v8.31L45.4,2.83c-0.52-0.86-1.32-1.66-2.58-1.66c-1.43,0-2.47,1.26-2.58,2.35
	c-0.11,1.26,0,1.55,0,1.55s0.23-1.38,1.09-1.38c0.75,0,1.15,0.69,1.49,1.26v3.04c-0.8,0.06-2.87,0.17-2.98,2.29
	c0,0.8,0.46,1.61,0.92,1.89c0.57,0.34,0.97,0.34,0.97,0.34s-0.69-0.34-0.46-1.03c0.17-0.63,1.49-0.75,1.55-0.46v4.3
	c-0.63,0-2.64,0.06-3.55,1.78c-0.57,1.03-0.52,2.24,0.06,3.04C39.72,20.78,40.7,21.64,42.42,21.35z"/>
<path class="st0" d="M58.99,12.57l-2.35,1.72V8.56L58.99,12.57z M58.93,7.07c0,0-1.61,0.97-2.64,1.61
	c-1.09,0.63-2.47,1.32-2.47,1.32v6.65l-0.97,0.75l0.11,0.17l0.92-0.75l2.92,2.64l5.05-4.01l-0.11-0.11l-2.81,2.18l-2.29-2.18v-0.8
	l4.64-3.38L58.93,7.07z"/>
<path class="st0" d="M66.04,19.51l-2.47-2.06l-1.09,0.8l-0.17-0.17l1.09-0.8v-5.79c0.06-2.35-2.18-1.78-2.06-4.3
	C61.39,6.1,62.48,5.24,63,4.95c0.57-0.29,1.2-0.29,1.2-0.29s-1.03,0.63-0.75,1.55c0.4,1.43,2.81,1.55,2.81,3.38v6.54l1.78,1.43
	l0.46-0.34v-7.05l-0.97-0.97l2.47-2.18l2.24,2.01l-0.75,0.92v6.25l2.12,1.72l0.4-0.23v-7.51l-0.97-0.92l2.47-2.24l2.29,1.89
	l0.92-0.8l0.11,0.17l-2.06,1.83v6.13l-5.33,3.27l-2.69-2.18L66.04,19.51z"/>
<path class="st0" d="M100.73,15.62l2.58,2.29v-7.05l-2.58-2.41V15.62z M106,9.82l0.92-0.8l0.11,0.17l-0.86,0.8v6.59
	c0,0-1.66,0.86-2.81,1.55c-1.15,0.63-2.41,1.43-2.41,1.43l-3.04-2.58l-0.8,0.69L97,17.51l0.86-0.75V9.65c0,0,1.43-0.63,2.64-1.32
	c1.09-0.63,2.29-1.32,2.29-1.32L106,9.82z"/>
<path class="st0" d="M111.96,9.14l1.95-1.95c0,0,0.29,0.23,0.52,0.34c0.11,0.06,0.75,0.34,1.26,0.06c0.29-0.17,0.34-0.23,0.63-0.52
	c0.06,1.55-0.69,2.58-1.6,3.04c-0.4,0.17-1.49,0.52-2.64-0.86v7.05l1.2,1.09l1.03-0.86l0.11,0.17l-3.21,2.64l-2.41-2.18l-0.86,0.8
	l-0.11-0.17l1.32-1.2v-6.08l-1.03-1.38l-0.86,0.75l-0.11-0.11l3.1-2.75L111.96,9.14z"/>
<path class="st0" d="M120.11,12.12l3.55-5.16c0,0,0.46,0.57,1.26,0.75c1.09,0.29,2.06-0.8,2.06-0.8c-0.17,1.38-0.86,2.98-2.35,3.21
	c-1.26,0.23-2.47-0.8-2.47-0.8l-0.23,0.34l4.93,7.45l0.97-0.86l0.11,0.17l-3.38,2.98L120.11,12.12z"/>
<path class="st0" d="M117.12,5.18c0-1.15-0.46-1.83-1.03-1.78l3.9-2.75v15.42l1.03,1.09l0.8-0.69l0.12,0.17l-3.15,2.75l-2.12-2.01
	l-0.86,0.75l-0.11-0.17l1.49-1.26V5.18"/>
<path class="st0" d="M92.19,9.54c0,0-0.4,0.46-1.09,0.46c-0.69,0-1.09-0.52-1.09-0.52v2.12c0,0,0.46-0.52,1.09-0.52
	c0.69,0,1.09,0.46,1.09,0.46V9.54z M92.19,5.01L90.7,3.69l-0.75,0.57v4.93c0,0,0.46,0.57,1.15,0.57c0.69,0,1.09-0.52,1.09-0.52V5.01
	z M89.95,19.06c0,0,0.92,0.23,1.55-0.29c0.75-0.63,0.63-1.43,0.63-1.43V12c0,0-0.4-0.57-1.09-0.57c-0.69,0-1.15,0.57-1.15,0.57v7.05
	H89.95z M84.68,4.95c0-1.03-0.4-1.61-1.09-1.66c-0.97,0-1.2,1.38-1.2,1.38s-0.17-1.09,0.75-2.06c0.52-0.52,1.43-1.32,2.92-0.97
	C87.6,1.97,88,3.17,88,4.21V18.6c0,0,0.57,0.06,0.97,0.17c0.46,0.11,0.92,0.23,0.92,0.23V1.68h0.17v2.35l3.1-2.52l2.29,2.01
	l1.09-0.92l0.11,0.17l-1.09,0.97v13.3c-0.06,0.86-0.17,1.78-1.03,2.29c-1.83,1.09-4.07-0.17-6.02-0.46
	c-1.49-0.23-3.78-0.52-4.36,0.86c-0.17,0.46-0.17,1.15,0.52,1.55c1.32,0.92,7.28-1.49,9.29-0.57c1.83,0.86,1.83,2.24,1.55,3.15
	c-0.46,1.78-2.69,2.06-2.69,2.06s1.09-0.63,0.8-1.66c-0.17-0.52-0.52-0.69-1.66-0.57c-2.52,0.29-5.56,1.55-7.63,0.69
	c-1.03-0.46-1.78-1.78-1.72-3.04c-0.11-1.83,2.06-2.58,2.06-2.58v-6.88c-0.06-0.29-1.2-0.23-1.43,0.29
	c-0.4,0.75,0.46,1.09,0.46,1.09s-0.69,0.11-1.32-0.57c-0.29-0.34-0.92-1.49-0.11-2.58c0.63-0.92,1.43-1.03,2.41-1.15V4.95z"/>
</svg>
