<?xml version="1.0" encoding="utf-8"?>
<!-- Generator: Adobe Illustrator 26.5.0, SVG Export Plug-In . SVG Version: 6.00 Build 0)  -->
<svg version="1.1" id="Layer_1" xmlns="http://www.w3.org/2000/svg" xmlns:xlink="http://www.w3.org/1999/xlink" x="0px" y="0px"
	 viewBox="0 0 87 71.96" style="enable-background:new 0 0 87 71.96;" xml:space="preserve">
<style type="text/css">
	.st0{clip-path:url(#SVGID_00000006709982742312788400000017765592876230936499_);}
	.st1{fill:#0D4029;}
</style>
<g>
	<defs>
		<rect id="SVGID_1_" width="87" height="72"/>
	</defs>
	<clipPath id="SVGID_00000084508395889840399900000010463098440410762672_">
		<use xlink:href="#SVGID_1_"  style="overflow:visible;"/>
	</clipPath>
	<g style="clip-path:url(#SVGID_00000084508395889840399900000010463098440410762672_);">
		<path class="st1" d="M32.76,53.77c2.73-0.8,5.44-1.52,7.79-3.27c4.67-3.48,6.09-7.47,8.38-12.91c0.61-1.43,1.02-3.02-1.59-2.71
			c-5.09,0.61-8.98,0.34-13.44,3.4c-2.16,1.49-3.86,4.26-5.63,6.26c-0.66,0.75-1.05,1.52-1.55,2.34c-0.08-1.99-0.14-3.98-0.03-5.97
			c0.13-2.51,0.46-5.01,0.23-7.52c1.31-0.46,2.1-0.54,3.39-1.34c2.32-1.42,4.52-3.31,6.25-5.61c0.83-1.09,1.69-2.11,2.34-3.44
			c2.33-4.76,2.94-9.59,2.38-14.89c-0.05-0.5-0.15-0.97-0.27-1.51c-0.4-1.8-0.54-3.79-1.97-5.15c-0.55-0.53-1.85-0.18-2.34,0.3
			c-1.56,0.66-2.5,1.28-3.75,2.48c-1.58,1.53-2.9,3.44-3.97,5.43c-0.4,0.75-0.76,1.52-1.11,2.29c-0.26-0.58-0.51-1.18-0.83-1.73
			c-0.88-1.54-1.56-2.89-2.92-4.15c-1.36-1.25-3-2.88-4.59-3.81c-1.59-0.92-2.87-1.38-4.52-2.17c-0.86-0.42-2.12,0.68-2.35,1.46
			c-0.64,2.21-0.89,5.43-0.8,7.29c0.08,1.85,0.01,2.07,0.26,3.53c0,0,0.01,0.01,0.02,0.03c0.04,0.08,0.02,0.17,0.1,0.33
			c0.07,0.16,0.35,0.63,0.63,0.62c0.28,0,0.29-0.01,0.78,0.03c0.38,0.03,0.36-0.18,0.74-1.49s0.83-5.01,1.01-6.94
			c2.15,1.1,4,2.13,5.89,3.81c1.04,0.93,2.19,2.1,3.1,3.36c0.47,0.65,0.86,0.98,1.33,2.16c0.09,0.22,0.15,2.92,0.09,3.69
			c-0.06,0.77,0.2,2.32,1.03,2.28c0.61-0.03,0.63-0.13,1.15-1c0.47-0.78,0.34-0.93,0.99-2.32c0.17-0.36,1.85-3.69,2.42-5.01
			c0.56-1.31,2.12-3.58,3.18-4.75c0.7-0.77,1.28-1.28,2.01-1.9c0.18,0.71,0.37,1.37,0.48,2.1c0.25,1.57,0.47,3.7,0.44,5.17
			c-0.07,2.99-0.46,4.91-1.78,7.48c-0.27,0.54-0.64,1.13-1.03,1.61c-0.66,0.82-1.32,1.61-2.12,2.33c-1.33,1.19-2.52,2.78-4.19,3.54
			c-3.67,1.65-7.05,2.19-11.06,1.24c-4.01-0.94-7.66-2.16-10.46-5.5c-2.16-2.58-2.4-6.2-3.1-9.43c1.37,0.54,2.23,0.85,3.66,1.62
			c1.43,0.77,3.83,3.06,5,4.03c1.16,0.98,2.75,2.22,3.75,2.2s0.49-1.36,0.47-1.39c-0.11-0.28-0.04-0.31-0.24-0.65
			c-0.2-0.34-0.15-0.52-0.54-1.04c-0.83-1.1-2.03-2.9-3.32-3.78c-1.29-0.89-3.97-3-5.02-3.49c-2.36-1.09-3.89-1.69-6.08-1.62
			c-1.44,0.05-1.4,1.53-1.35,2.96c0.19,4.39,1.24,9,4,12.75c3.23,4.39,7.71,6.63,12.74,8.27c1.53,0.5,2.84,0.5,4.38,0.68
			c0.19,2.29,0.14,4.54,0.05,6.84c-0.04,0.96-0.06,1.96-0.09,2.92c0,0.01-0.02-0.02-0.02-0.01c0.1,1.99,0.09,4.01-0.1,5.98
			c-0.03,0.31-0.24,0.55-0.36,0.68c-0.13,0.13,0.12,0.09,0.03,0.14c-0.1,0.06-0.25,0-0.4,0.05c-0.15,0.05-0.38,0.03-0.57,0.01
			c-1.53-0.1-3.39-0.48-4.72-0.99c-2.04-0.79-3.33-1.29-5.02-2.66c-2.56-2.07-4.02-5.08-5.57-8.03c2.21,0.07,3.63,0.49,5.97,1.39
			c1.06,0.41,7.7,6.45,8.31,2.49c0.08-0.53-3.04-3.38-4.49-4.16c-3.61-1.94-8.53-3.54-12.67-3.36c-2.63,0.12-1.37,2.27-1.02,3.46
			c1.42,4.85,3.68,8.05,7.36,11.07c2.63,2.16,4.81,2.99,7.81,3.93c1.96,0.61,3.75,0.73,5.76,0.8c0.27,3.02,0.62,6.4,1.05,9.33
			c0.31,2.12,0.36,3.68,0.93,5.65c0.03,0.1,0.2,0.25,0.34,0.27c1.11,0.18,2.33,0.12,3.47,0.33c0.46,0.09,1.41-0.42,1.4-0.73
			c-0.04-0.73-0.39-2.68-0.41-2.91c-0.16-1.73-0.17-1.71-0.33-3.4c-0.25-2.46-0.49-5.88-0.7-8.55c2.04,0.1,3.52-0.56,5.48-1.14
			V53.77z M31.58,46.5c1.24-1.28,2.88-3.68,4.53-4.7c2.47-1.53,4.4-1.99,7.12-2.53c-0.73,2.62-2.33,5.3-4.19,7.05
			c-1.86,1.75-3.99,2.27-6.01,2.94c-1.6,0.53-2.2,0.6-3.71,0.52C30.18,48.42,30.34,47.77,31.58,46.5L31.58,46.5z M28.83,17.17
			c-0.01,0.01-0.01,0.02,0,0.02V17.17z M28.83,17.18c0,0,0.03-0.03,0-0.02c0.01,0,0.09-0.03,0.09-0.03S28.84,17.18,28.83,17.18
			L28.83,17.18z M16.71,20.36v-0.03C16.71,20.33,16.71,20.34,16.71,20.36z M16.71,20.39c0,0,0-0.01,0-0.05
			C16.71,20.37,16.71,20.38,16.71,20.39z"/>
		<path class="st1" d="M12.17,12.41c0,0,0-0.02,0-0.03C12.15,12.37,12.18,12.43,12.17,12.41z"/>
		<path class="st1" d="M85.74,24.62c-2.53-0.88-5.06-1.17-7.71-1.23c0.46-1.39,1.42-2.79,1.71-4.2c0.29-1.42,0.91-3.22-0.99-3.6
			c-1.2-0.24-3.02,0.03-4.29,0.26c-1.27,0.22-2.26,0.57-3.54,1.02c-0.82,0.28-3.05,1.57-3.61,1.89c-1.31,0.78-1.54,2.47,0.12,2.45
			c1.16-0.02,3.37-1.24,4.58-1.46c1.21-0.22,1.99-0.45,3.11-0.56c0.27-0.03,0.48-0.05,0.76-0.06c-0.23,0.55-0.35,1.03-0.59,1.58
			c-0.52,1.16-1.08,1.6-1.93,2.86c-0.31,0.46-2.25,2.62-2.67,3.04c-0.42,0.41-0.47,0.52-0.63,0.65c-0.49,0.41-0.93,0.94-0.39,1.45
			c0.54,0.51,0.47,0.8,1.92,0.28c0.33-0.12,4.17-1.76,5.84-1.84c0.24-0.01,4.76-0.12,5.46,0.32c-1.17,3.66-4.83,6.21-8.09,7.46
			c-3.79,1.45-6.31,1.53-10.02,1.62c-1.58,0.04-2.99-0.1-4.2-0.97c-0.74-0.53-1.47-1.06-1.87-1.81c-1.07-2.07-1.26-4.41-1.24-6.65
			c0.02-2.24,0.1-4.11,0.62-6.25c0.35-1.46,0.81-2.91,1.52-4.26c0.34,0.62,0.68,1.16,0.96,1.82c0.12,0.28,0.19,0.4,0.31,0.83
			c0.12,0.43,0.46,1.93,0.58,2.31c0.28,0.85,1.52,3.25,2.13,3.6c0.02,0.01,0.03,0.02,0.06,0.02c0.03,0,0.05-0.02,0,0
			c-0.01,0,0,0,0.01,0c0.02,0,0.06-0.01,0.09-0.03c0.03-0.01,0.12-0.04,0.16-0.05c0.04-0.02,0.01,0,0.04-0.02
			c0.04-0.02,0.12-0.08,0.18-0.11c0.01,0-0.02,0.03,0.02-0.02c0.04-0.04,0.19-0.21,0.27-0.27c0,0-0.02,0.02,0.01-0.01
			c0.02-0.03,0.06-0.09,0.1-0.16c0.04-0.07,0.17-0.3,0.2-0.37c0.03-0.07,0.01-0.02,0.03-0.06s0.02-0.05,0.02-0.06
			c0-0.01,0.01-0.03,0.04-0.11c0.03-0.08,0.1-0.35,0.13-0.48c0.03-0.12,0.07-0.35,0.08-0.44c0.01-0.09,0.01-0.09,0.02-0.11
			c0-0.03,0-0.03,0-0.03c0,0.02,0,0.01,0-0.02c-0.01-0.39,0.02-1.02,0-1.35c-0.02-0.33,0-0.16-0.04-0.46
			c-0.04-0.29,0.07,0.24-0.07-0.41c-0.14-0.64-0.92-2.83-1.29-3.65c-0.61-1.36-1.84-2.77-2.57-3.7c-0.71-0.9-2.09-2.17-2.82-1.56
			c-2.49,2.1-3.69,4.95-4.61,7.82c-0.92,2.86-1.29,5.39-1.38,8.38c-0.09,2.99,0.35,6,1.72,8.71c0.72,1.44,1.78,2.54,2.93,3.6
			c0.02,0.01,0,0.02-0.01,0.03c-1.75,2.27-4.17,4.92-5.38,7.39c-3.46,7.04-5.88,14.08-8.85,21.19c-0.21,0.5-0.32,0.88-0.42,1.4
			c-0.11,0.52,0.44,1.06,0.97,1.17c0.93,0.2,1.62,0.75,2.7,0.57c0.58-0.1,0.59,0.4,1.18-0.8c1.28-2.6,2.07-6.21,5.01-8.79
			c1.97-1.72,7.55-4.95,10.27-5.88c2.72-0.93,4.71-0.88,7.18-1.03c2.48-0.16,4.56,0.08,6.99,0.06c0.08,0,0.33,0.17,0.4,0.19
			c-1.02,1.8-4.06,3.73-5.6,4.46c-2.42,1.15-3.43,1.63-5.82,2.28c-2.38,0.65-4.83,0.84-7.45,0.71c-0.65-0.03-2.53,0-3.02,0.09
			c-0.48,0.09-0.26,0.09-0.41,0.13c-0.16,0.04-1.49,0.98-1.52,1.03c-0.03,0.06-3.22,2.41-0.64,3.06c2.58,0.64,10.5,1.03,15.37-0.59
			c3.04-1.01,13.51-6.21,12.22-11.77c-0.24-1.02-0.7-1.75-1.52-1.97c-0.27-0.08-0.29-0.26-0.51-0.34c-2.89-1.15-5.93-1.29-8.99-1.12
			c-3.07,0.17-6.06,0.64-8.9,1.68c-2.84,1.03-5.08,2.59-7.44,4.4c-0.1,0.08-0.18,0.17-0.28,0.24c2.31-5.75,5-10.86,8.75-15.81
			c0.05-0.07,0.1-0.15,0.13-0.19c5.44-0.21,10.68-0.77,15.76-3.22s8.9-6.39,9.91-12.19C87.11,25.8,86.46,24.88,85.74,24.62
			L85.74,24.62z"/>
		<path class="st1" d="M18.01,63.7c-0.64-1.15-1.22-2.39-1.99-3.46L16,60.26c-0.24-0.28-0.51-0.49-0.87-0.65
			c-0.43-0.18-2.15-0.02-2.03,0.29c-0.33,0.25-0.59,0.62-0.73,0.97c-0.2,0.55-0.14,1.13,0.07,1.66c0.23,0.56,0.56,1.09,0.86,1.62
			c0.28,0.5,0.55,1,0.83,1.51c0.28,0.5,0.55,1,0.83,1.51l0.44,0.8c0.14,0.26,0.28,0.54,0.47,0.77c0.29,0.37,0.62,0.58,1.05,0.76
			c0.61,0.25,1.31,0.13,1.84-0.21c0.58-0.38,0.85-0.89,0.96-1.57c0.16-0.91-0.47-1.76-0.89-2.52c-0.28-0.5-0.55-1-0.83-1.51
			L18.01,63.7z"/>
		<path class="st1" d="M40.46,59.54c-0.66-0.47-1.77-0.67-2.5-0.22c-0.49,0.3-0.86,0.54-1.18,1.03c-0.11,0.17-0.21,0.34-0.32,0.51
			c-0.29,0.48-0.56,0.98-0.82,1.49c-0.33,0.67-0.65,1.34-0.94,2.02c-0.35,0.8-0.73,1.61-0.88,2.48c-0.13,0.81-0.4,1.88,0.01,2.64
			c0.25,0.47,0.84,0.87,1.4,0.72c0.63-0.17,1-0.53,1.42-1c0.13-0.15,0.26-0.29,0.4-0.45c0.06-0.08,0.13-0.14,0.2-0.22
			c-0.05,0.05-0.06,0.07-0.09,0.1c0.6-0.63,1.01-1.38,1.5-2.1c0.43-0.64,0.87-1.28,1.33-1.89c0.21-0.28,0.4-0.57,0.61-0.86
			c0.11-0.17,0.24-0.32,0.35-0.49c0.34-0.5,0.47-0.92,0.57-1.51C41.65,60.95,41.13,60.02,40.46,59.54L40.46,59.54z"/>
	</g>
</g>
</svg>
