<?xml version="1.0" encoding="utf-8"?>
<!-- Generator: Adobe Illustrator 26.5.0, SVG Export Plug-In . SVG Version: 6.00 Build 0)  -->
<svg version="1.1" id="Layer_1" xmlns="http://www.w3.org/2000/svg" xmlns:xlink="http://www.w3.org/1999/xlink" x="0px" y="0px"
	 viewBox="0 0 69.99 103.03" style="enable-background:new 0 0 69.99 103.03;" xml:space="preserve">
<style type="text/css">
	.st0{fill:none;}
	.st1{fill:#0D4029;}
</style>
<rect x="-8.12" y="-9.84" class="st0" width="86.27" height="122.54"/>
<path class="st1" d="M40.8,98.85c0.11-0.13,0.22-0.24,0.34-0.33l0.25-0.19c3.82-2.82,7.13-5.26,10.14-8.92
	c1.32-1.61,3.09-4.79,4.31-7.1c0.06-0.22,0.2-0.54,0.34-0.87c0.14-0.33,0.31-0.69,0.34-0.87l0.15-0.71
	c1.11-5.17,1.78-8.28,0.79-13.8c-0.38-2.14-0.8-3.62-2.11-6.27c-0.9-1.81-2.48-3.34-4.58-4.46c-0.49-0.26-0.89-0.84-0.73-1.29
	c0.08-0.21,0.34-0.54,1.17-0.34c0.01,0,1.11,0.26,1.37,0.38c0.51,0.19,0.97,0.41,1.22,0.52l0.45,0.21c2.13,1,3.2,1.49,5.04,3.33
	c1.77,1.77,2.85,3.72,3.5,6.34c1.91,7.65,1.5,11.43-0.22,17.54c-3.65,12.92-12.64,18.66-19.22,19.66c-0.1,0.02-0.2,0.03-0.31,0.03
	c-0.31,0-0.62-0.08-0.91-0.23c-1.05,0.13-1.88-0.21-2.14-0.88c-0.18-0.47-0.06-1.16,0.8-1.74L40.8,98.85z"/>
<path class="st1" d="M3.35,44.61c1-1.29,3.63-4.19,6.57-3.2c0.5,0.04,0.91,0.12,1.29,0.26c0.71,0.25,1.73,1.06,2.46,1.72
	c-0.02-0.19-0.03-0.37-0.05-0.56c-0.23-2.55-0.47-5.18,1.01-7.51c1.39-2.18,3.9-4.4,6.84-4.14c0.38,0.04,0.77,0.11,1.12,0.22
	c2.07,0.19,3.73,1.74,4.91,3.34c-0.03-0.35-0.03-0.7-0.04-1.05c-0.01-0.27-0.02-0.54-0.03-0.8c-0.08-1.54-0.15-3.1-0.2-4.64
	c-0.1-2.92-0.15-5.99-0.17-9.11v-1.32c-0.03-2.69-0.05-5.48,0.23-8.2l0.05-0.51c0.24-2.36,0.5-5.04,2-7.01
	c1.11-1.46,2.74-2.23,4.31-2.07c0.53-0.03,1.04,0.04,1.53,0.2c1.24,0.06,2.34,0.61,3.11,1.57c0.15,0.19,0.3,0.36,0.43,0.52
	c0.64,0.75,1.1,1.3,1.33,2.56c0.06,0.17,0.08,0.45,0.1,0.9c0.81,1.79,1.11,3.85,1.37,5.68l0.01,0.09c0.08,0.54,0.15,1.08,0.22,1.62
	l0.13,0.96c0.2,1.26,0.38,2.58,0.54,3.92c0.22,1.69,0.44,3.38,0.65,5.07c0.5,3.98,0.99,8.34,1.49,13.29
	c0.52,2.59,1.19,5.05,1.7,6.52c0.17-0.45,0.34-0.86,0.49-1.24c0.67-1.71,1.07-2.74,1.43-4.31c0.78-3.46,1.58-6.5,2.43-9.29
	c1.56-5.14,3.79-11.82,7.13-17.95c1.6-2.93,3.55-4.33,5.8-4.16c0.37,0.03,0.73,0.1,1.12,0.23V6.17c3.01,0.24,5.04,3.08,5.27,5.7
	c0.28,3.22-0.36,8.47-1.15,11.35c-0.65,2.39-1.28,4.79-1.91,7.19l-1.12,4.26c-0.84,3.2-1.72,6.5-2.53,9.76
	c-0.62,2.48-1.07,3.82-1.63,5.51c-0.3,0.9-0.63,1.89-1.04,3.19c-0.19,0.59-0.6,0.97-1.09,1c-0.4,0.02-1.12-0.17-1.75-1.65
	c-0.66-2.17-0.07-5.64,0.21-7.04c0.52-2.51,0.68-3.69,0.82-4.63c0.18-1.3,0.32-2.23,1.15-5.55c0.58-2.32,1.3-4.81,1.98-7.21
	c1.03-3.58,2.09-7.29,2.8-10.74c0.04-0.23,0.1-0.48,0.17-0.75c0.45-1.98,1.12-4.98-0.71-6.1c-0.04-0.02-0.13-0.04-0.22-0.06
	c-0.11-0.03-0.2-0.04-0.27-0.07c-1.28,0.32-2.02,1.99-2.46,3c-0.08,0.17-0.14,0.32-0.2,0.44c-0.25,0.51-0.49,1.3-0.73,2.07
	c-0.22,0.7-0.42,1.36-0.62,1.83c-0.22,0.62-0.46,1.25-0.72,1.91c-0.47,1.21-0.96,2.47-1.37,3.89c-0.45,1.58-0.92,3.22-1.39,4.88
	c-0.77,2.67-1.54,5.37-2.25,7.92c-0.28,1.01-0.67,2.03-1.05,3.01c-0.35,0.91-0.72,1.86-0.98,2.75c-0.17,0.83-0.32,1.17-0.52,1.62
	c-0.1,0.23-0.22,0.49-0.35,0.85c-0.17,0.57-0.47,1.16-0.77,1.72c-0.15,0.3-0.31,0.59-0.43,0.86C49.41,48,49,48.54,48.62,48.7
	c-0.25,0.17-0.77,0.45-0.89,0.46c-1.41,0.08-3.34-0.63-3.73-1.64c-0.41-0.64-2.01-3.82-2.67-6.87c-2.02-9.32-2.75-13.75-3.94-23.72
	c-0.02-0.15-0.04-0.45-0.06-0.84c-0.04-0.74-0.11-1.76-0.22-2.64c-0.46-2.36-0.74-4.03-1.02-6.19c-0.2-1.52-1.24-2.09-2.09-2.31
	c-0.5,0.06-0.77,0.26-0.86,1.1L33.1,6.15c-0.68,1.63-0.6,5.33-0.54,8.3l0.03,1.18c0.05,3.34,0.35,6.62,0.71,10.27l0.11,1.18
	c0.29,3.01,0.6,6.12,0.71,9.2c0.04,1.25,0.24,2.97,0.43,4.63c0.24,2.14,0.49,4.35,0.45,5.76c0.41,0.04,0.82,0.11,1.21,0.2
	c0.67,0.11,1.39,0.27,2.14,0.48c3.43,0.95,6.17,2.27,9.15,4.42c0.87,0.63,1.39,1.61,1.14,2.17c-0.11,0.26-0.38,0.37-0.67,0.31
	c-0.14-0.03-0.47-0.05-0.75-0.06c-0.33-0.02-0.64-0.04-0.78-0.07c-0.04,0-0.1,0-0.18-0.01c-0.86-0.19-1.68-0.47-2.48-0.75
	c-0.42-0.14-0.84-0.29-1.28-0.42c-0.64-0.2-1.31-0.47-1.97-0.74c-0.72-0.29-1.46-0.6-2.16-0.8c-0.51-0.14-1.03-0.27-1.53-0.4
	l-0.28-0.05c-0.27-0.05-0.54-0.1-0.8-0.13c-0.72-0.08-1.75,0.27-2.29,0.78c-0.01,0.01-0.03,0.04-0.06,0.08
	c-0.01,0.01-0.01,0.03-0.02,0.03c-0.22,2.19,0.81,4.02,1.86,5.01c1.39,1.31,2.93,2.08,4.42,2.83c0.35,0.17,0.7,0.34,1.03,0.52
	c1.37,0.72,2.54,1.12,3.77,1.54c1.63,0.56,3.33,1.14,5.57,2.52c0.6,0.37,0.61,0.84,0.57,1.08c-0.15,0.84-1.35,1.54-2.42,1.75
	l-0.11,0.01l-0.03-0.01c-2.24,0.69-4.77,0.11-6.17-0.33c-0.27,0.4-0.65,0.8-1.02,1.18c-0.24,0.26-0.47,0.49-0.64,0.71
	c-0.33,0.41-0.65,0.8-0.96,1.18c-0.86,1.03-1.67,2-2.3,3.32c-0.7,1.44-1.03,2.21-1.53,3.37l-0.45,1.02
	c-0.22,0.51-0.42,0.94-0.59,1.33c-0.66,1.47-0.96,2.14-1.08,3.13c-0.13,0.43-0.24,1.13-0.36,1.87c-0.33,2.05-0.53,2.97-1,3.18
	c-0.12,0.05-0.26,0.06-0.38,0.01c-1.24-0.06-2.2-4.1-2.21-4.14c-0.59-3.4-0.03-7.28,1.58-10.95c0.78-1.77,1.71-3.38,2.76-4.75
	c0.01-0.01,0.01-0.02,0.02-0.03c-0.64,0.13-1.33,0.18-2.06,0.13c-0.26,0.07-0.52,0.13-0.81,0.17c-0.82,0.09-1.63,0.01-2.42-0.22
	c-1.01-0.1-1.99-0.44-2.94-1.01c0.04,0.18,0.08,0.36,0.11,0.54c0.29,1.67-0.1,3.36-1.05,4.65c-0.9,1.22-2.25,1.99-3.81,2.19
	c-0.89,0.11-1.8,0.03-2.73-0.23c-2.37-0.27-4.13-2.14-5.69-3.79L11.87,69c-0.97-1.01-1.49-1.95-2.1-3.04
	c-0.13-0.22-0.26-0.45-0.39-0.7c-0.78-1.35-1.61-3.38-1.61-5c0-0.15-0.03-0.29-0.06-0.42c-0.05-0.23-0.13-0.64,0.26-0.86l0.01-0.06
	l0.22-0.05c0.54-0.11,2.85,1.44,4.28,3.54c0.66,0.97,0.87,1.26,1.67,2.34l1.07,1.45c0.91,1.23,1.24,1.47,2.5,2.32
	c0.46,0.31,1.31,0.27,2.34-0.1c0.04-0.08,0.09-0.17,0.19-0.26c1.37-1.3,0.86-3.94,0.66-4.72c-0.42-1.72-1.12-3.36-1.74-4.81
	l-0.34-0.82c-0.7-1.68-1.38-2.78-2.1-3.95c-0.62-1-1.26-2.04-1.94-3.49c-0.06-0.12-0.4-0.61-0.62-0.93
	c-0.22-0.31-0.41-0.6-0.47-0.71c-0.55-0.98-0.64-1.14-1.37-1.97c-0.05-0.06-0.16-0.15-0.28-0.27c-0.43-0.39-0.68-0.63-0.79-0.84
	c-0.02-0.01-0.04-0.02-0.06-0.03c-2.2-1.16-3.54,0.6-4.01,1.4c-1.1,1.87-1.32,3.33-1.59,5.19l-0.13,0.88
	c-0.79,5.02,0.2,10.74,1.08,15.78l0.06,0.39c1.45,6.17,3.15,12.66,6.68,18.27c2.32,3.7,5.09,6.58,8.23,8.56
	c2.33,1.47,4.38,2.18,6.64,2.29c0.48,0.03,0.96,0.04,1.43,0.06c1.73,0.06,3.51,0.12,5.27,0.53c0.76,0.17,1.25,0.58,1.35,1.12
	c0.1,0.49-0.16,0.98-0.69,1.37c-0.19,0.22-0.44,0.36-0.74,0.44l-0.08-0.32l-0.04,0.35c-1.47,0.7-3.1,1.05-4.94,1.05
	c-1.07,0-2.2-0.11-3.41-0.35c-0.28-0.06-0.63-0.12-1.03-0.19c-2.09-0.36-5.23-0.91-6.61-1.84c-0.06,0-0.13,0-0.22-0.04
	c-2.69-1.16-6.83-4.4-9.43-7.36c-3.65-4.16-4.98-9.66-6.27-14.98l-0.06-0.26C1,70.97,0.17,65.59,0,60.56
	c-0.17-5.18,0.06-11.67,3.35-15.94V44.61z M29.65,58.14c-0.84-1.3-1.41-2.83-1.55-4.14c-0.4-1.58-0.24-3.05,0.49-4.38
	c0.5-0.91,1.16-1.57,1.91-2.04c-0.62-0.77-1.23-1.65-1.37-1.86c-0.29-0.2-0.48-0.45-0.66-0.7c-0.08-0.1-0.14-0.19-0.2-0.3
	c-0.1-0.2-0.19-0.38-0.26-0.63c-0.36-0.61-0.87-1.54-1.35-2.44c-0.49-0.91-0.95-1.77-1.24-2.25c-0.71-1.14-1.67-2.69-2.99-3.27h-0.1
	c-0.24,0.03-0.31,0.06-0.36,0.08c-0.18,0.06-0.35,0.14-0.52,0.23c-0.08,0.07-0.26,0.21-0.45,0.27c-0.13,0.09-0.27,0.19-0.4,0.29
	c-0.1,0.08-0.2,0.17-0.28,0.24l-0.1,0.11c-0.13,0.14-0.26,0.29-0.37,0.45c-0.06,0.15-0.19,0.28-0.25,0.34
	c-0.17,0.29-0.32,0.61-0.47,1.03c0,1.79,0.64,3.57,1.29,5.37c0.87,2.44,1.84,4.72,2.88,6.79c0.41,0.82,0.83,1.85,1.28,2.94
	c0.76,1.85,1.54,3.77,2.39,4.99c0.68,0.98,1.34,1.5,2.19,2.16l0.4,0.31l0.07,0.03c0.05,0.02,0.11,0.04,0.17,0.06
	c0.47,0.11,1.14-0.07,1.56-0.41c0.26-0.21,0.4-0.46,0.43-0.74C30.91,59.82,30.21,58.99,29.65,58.14L29.65,58.14z M64.61,6.45v0.07
	c0,0,0,0,0.01,0l0.03-0.18L64.61,6.45z"/>
</svg>
