<svg width="297" height="78" viewBox="0 0 297 78" fill="none" xmlns="http://www.w3.org/2000/svg">
<rect width="297" height="78" rx="10.2404" fill="white"/>
<path d="M61.3084 28V24.0877L58.0788 18.5342H60.2844L62.3193 22.1446L64.3937 18.5342H66.5861L63.3434 24.0877V28H61.3084ZM69.1611 28.105C67.0999 28.105 65.6295 26.6084 65.6295 24.5865C65.6295 22.5779 67.0999 21.0812 69.1611 21.0812C71.2092 21.0812 72.7059 22.5647 72.7059 24.5865C72.7059 26.6215 71.2092 28.105 69.1611 28.105ZM69.1611 26.4639C70.1064 26.4639 70.7497 25.6894 70.7497 24.5865C70.7497 23.4837 70.0932 22.7223 69.1611 22.7223C68.1896 22.7223 67.5725 23.4969 67.5725 24.5865C67.5725 25.6894 68.1896 26.4639 69.1611 26.4639ZM80.3975 21.1862V28H78.4807V27.0679C78.0606 27.6849 77.2991 28.105 76.3801 28.105C74.8835 28.105 73.8726 27.1335 73.8726 25.6368V21.1862H75.8025V25.138C75.8025 25.8863 76.262 26.3983 76.9841 26.3983C77.9556 26.3983 78.4807 25.5975 78.4807 24.1796V21.1862H80.3975ZM84.7714 28V18.4292H86.6882V22.1184C87.1214 21.4882 87.8698 21.0812 88.7888 21.0812C90.2986 21.0812 91.2964 22.0527 91.2964 23.5494V28H89.3796V24.0483C89.3796 23.2999 88.9069 22.7879 88.1849 22.7879C87.2133 22.7879 86.6882 23.5888 86.6882 25.0198V28H84.7714ZM94.9044 28.105C93.4996 28.105 92.5018 27.2517 92.5018 26.1226C92.5018 24.9016 93.3552 24.1664 94.9044 23.9695L96.1647 23.7988C96.4798 23.7463 96.6505 23.5625 96.6505 23.2999C96.6505 22.8929 96.2304 22.5385 95.5346 22.5385C94.9044 22.5385 94.3792 22.8929 94.353 23.51H92.5018C92.6725 22.0265 93.7884 21.0812 95.5346 21.0812C97.412 21.0812 98.5804 22.1446 98.5804 23.8776V25.9125C98.5804 26.2539 98.6986 26.4639 98.9743 26.4639C99.0662 26.4639 99.2106 26.4377 99.2106 26.4377V28C99.2106 28 98.7511 28.0919 98.2784 28.0919C97.5695 28.0919 97.0575 27.7768 96.9525 27.2123C96.6767 27.7637 95.9022 28.105 94.9044 28.105ZM95.2457 26.6871C96.1647 26.6871 96.7161 25.9651 96.7161 25.1248V24.9804L95.2326 25.2299C94.6681 25.3218 94.3924 25.5975 94.3924 26.0176C94.3924 26.3852 94.7074 26.6871 95.2457 26.6871ZM101.674 28L99.1928 21.1862H101.123L102.554 25.7681L103.972 21.1862H105.902L103.433 28H101.674ZM106.181 24.5865C106.181 22.8929 107.205 21.0812 109.528 21.0812C111.918 21.0812 112.955 22.8798 112.955 24.4553C112.955 24.7703 112.929 25.0986 112.929 25.0986H108.084C108.242 26.0044 108.833 26.5033 109.712 26.5033C110.369 26.5033 110.854 26.2145 110.999 25.7287H112.916C112.706 27.2254 111.419 28.105 109.647 28.105C107.323 28.105 106.181 26.2933 106.181 24.5865ZM108.124 23.7201H110.881C110.828 23.0111 110.356 22.5122 109.528 22.5122C108.806 22.5122 108.308 22.9323 108.124 23.7201ZM119.607 29.2997V28C117.927 27.6849 116.811 26.4639 116.732 24.7047H118.728C118.806 25.6106 119.568 26.3195 120.539 26.3195C121.406 26.3195 121.997 25.9125 121.997 25.2955C121.997 24.7572 121.563 24.4421 120.986 24.2715L119.568 23.8776C118.216 23.51 117.087 22.8273 117.087 21.0681C117.087 19.7552 118.111 18.7574 119.607 18.4817V17.287H121.275V18.4817C122.889 18.7574 123.94 19.8077 124.019 21.3306H122.023C121.918 20.753 121.353 20.2016 120.434 20.2016C119.647 20.2016 119.174 20.5167 119.174 21.0549C119.174 21.5407 119.542 21.777 120.093 21.9346L121.524 22.3284C122.889 22.7223 124.071 23.3393 124.071 25.243C124.071 26.7528 122.995 27.8162 121.275 28.0394V29.2997H119.607ZM128.655 28.105C126.778 28.105 125.15 26.9628 125.124 25.1248H127.067C127.198 25.86 127.763 26.3195 128.577 26.3195C129.469 26.3195 130.073 25.7156 130.073 24.8097C130.073 23.9039 129.443 23.3262 128.498 23.3262C127.802 23.3262 127.356 23.6019 127.093 24.0351H125.334L126.122 18.5342H131.688V20.3066H127.658L127.316 22.3415C127.736 21.9608 128.38 21.7114 129.036 21.7114C130.874 21.7114 132.148 22.9717 132.148 24.8097C132.148 26.7922 130.769 28.105 128.655 28.105ZM137.199 28.105C134.796 28.105 133.299 26.1751 133.299 23.2606C133.299 20.3591 134.796 18.4292 137.199 18.4292C139.614 18.4292 141.111 20.346 141.111 23.2606C141.111 26.1882 139.614 28.105 137.199 28.105ZM137.199 26.3195C138.406 26.3195 139.037 25.1905 139.037 23.2606C139.037 21.3438 138.406 20.2016 137.199 20.2016C136.004 20.2016 135.374 21.3306 135.374 23.2606C135.374 25.2036 136.004 26.3195 137.199 26.3195ZM146.205 28.105C143.803 28.105 142.306 26.1751 142.306 23.2606C142.306 20.3591 143.803 18.4292 146.205 18.4292C148.621 18.4292 150.117 20.346 150.117 23.2606C150.117 26.1882 148.621 28.105 146.205 28.105ZM146.205 26.3195C147.413 26.3195 148.043 25.1905 148.043 23.2606C148.043 21.3438 147.413 20.2016 146.205 20.2016C145.01 20.2016 144.38 21.3306 144.38 23.2606C144.38 25.2036 145.01 26.3195 146.205 26.3195ZM154.31 28V21.1862H156.227V28H154.31ZM154.27 18.4292H156.305V20.3066H154.27V18.4292ZM157.79 28V21.1862H159.707V22.1184C160.127 21.5013 160.889 21.0812 161.808 21.0812C163.304 21.0812 164.315 22.0527 164.315 23.5494V28H162.385V24.0483C162.385 23.2999 161.926 22.7879 161.204 22.7879C160.232 22.7879 159.707 23.5888 159.707 25.0067V28H157.79ZM168.768 28V18.5342H171.551L173.718 24.324C174.098 25.3743 174.295 26.162 174.295 26.162C174.295 26.162 174.505 25.3743 174.873 24.324L177.026 18.5342H179.73V28H177.735V23.4444C177.735 22.3284 177.774 21.5013 177.774 21.5013C177.774 21.5013 177.525 22.289 177.157 23.3393L175.411 28H173.1L171.341 23.3393C170.961 22.289 170.737 21.5013 170.737 21.5013C170.737 21.5013 170.777 22.3284 170.777 23.4444V28H168.768ZM185.928 21.1862H187.858L185.062 28.4464C184.72 29.326 184.011 30.5601 182.213 30.5601C181.871 30.5601 181.517 30.4944 181.189 30.3894V28.7615C181.189 28.7615 181.53 28.919 181.95 28.919C182.633 28.919 183.027 28.6696 183.394 27.698L180.742 21.1862H182.869L184.366 25.2036L185.928 21.1862ZM188.922 28V18.5342H193.123C195.014 18.5342 196.208 19.7683 196.208 21.5276C196.208 23.1555 195.014 24.534 193.123 24.534H190.957V28H188.922ZM192.795 22.7485C193.648 22.7485 194.134 22.2234 194.134 21.5276C194.134 20.8317 193.648 20.3197 192.795 20.3197H190.957V22.7485H192.795ZM199.205 28.105C197.801 28.105 196.803 27.2517 196.803 26.1226C196.803 24.9016 197.656 24.1664 199.205 23.9695L200.466 23.7988C200.781 23.7463 200.952 23.5625 200.952 23.2999C200.952 22.8929 200.531 22.5385 199.836 22.5385C199.205 22.5385 198.68 22.8929 198.654 23.51H196.803C196.974 22.0265 198.09 21.0812 199.836 21.0812C201.713 21.0812 202.882 22.1446 202.882 23.8776V25.9125C202.882 26.2539 203 26.4639 203.275 26.4639C203.367 26.4639 203.512 26.4377 203.512 26.4377V28C203.512 28 203.052 28.0919 202.58 28.0919C201.871 28.0919 201.359 27.7768 201.254 27.2123C200.978 27.7637 200.203 28.105 199.205 28.105ZM199.547 26.6871C200.466 26.6871 201.017 25.9651 201.017 25.1248V24.9804L199.534 25.2299C198.969 25.3218 198.693 25.5975 198.693 26.0176C198.693 26.3852 199.009 26.6871 199.547 26.6871ZM208.589 21.1862H210.518L207.722 28.4464C207.381 29.326 206.672 30.5601 204.873 30.5601C204.532 30.5601 204.177 30.4944 203.849 30.3894V28.7615C203.849 28.7615 204.19 28.919 204.611 28.919C205.293 28.919 205.687 28.6696 206.055 27.698L203.403 21.1862H205.53L207.026 25.2036L208.589 21.1862ZM61.0984 43V34.8734H58.1575V33.5342H65.5621V34.8734H62.6213V43H61.0984ZM66.7297 43V33.4292H68.1608V37.3415C68.6465 36.567 69.4474 36.0812 70.4189 36.0812C71.8762 36.0812 72.874 37.0396 72.874 38.51V43H71.4561V38.8251C71.4561 37.9717 70.9047 37.3678 70.0382 37.3678C68.8697 37.3678 68.1608 38.3656 68.1608 40.0067V43H66.7297ZM74.2529 39.5865C74.2529 37.7485 75.3951 36.0812 77.5482 36.0812C79.6619 36.0812 80.7778 37.6566 80.7647 39.3502C80.7647 39.6128 80.7384 39.9279 80.7384 39.9279H75.6708C75.8021 41.1751 76.5504 41.8841 77.6532 41.8841C78.4934 41.8841 79.163 41.4902 79.3205 40.7944H80.7253C80.489 42.2779 79.2418 43.105 77.6138 43.105C75.4607 43.105 74.2529 41.4377 74.2529 39.5865ZM75.7364 38.7988H79.2286C79.163 37.8798 78.5722 37.2103 77.5482 37.2103C76.5898 37.2103 75.9465 37.801 75.7364 38.7988ZM85.2104 43V36.1862H86.6414V37.3547C86.9959 36.5932 87.6786 36.0812 88.6501 36.0812C89.7529 36.0812 90.5406 36.5538 90.8295 37.4334C91.1971 36.672 92.011 36.0812 93.0613 36.0812C94.5186 36.0812 95.4639 37.0133 95.4639 38.405V43H94.0329V38.7594C94.0329 37.8929 93.534 37.3153 92.6675 37.3153C91.6303 37.3153 91.0527 38.2343 91.0527 39.5603V43H89.6216V38.7594C89.6216 37.8929 89.1359 37.3153 88.2694 37.3153C87.2322 37.3153 86.6414 38.2474 86.6414 39.5603V43H85.2104ZM100.25 43.105C98.2413 43.105 96.8234 41.6215 96.8234 39.5865C96.8234 37.5647 98.2413 36.0812 100.25 36.0812C102.219 36.0812 103.677 37.5516 103.677 39.5865C103.677 41.6346 102.219 43.105 100.25 43.105ZM100.25 41.8578C101.405 41.8578 102.206 40.9125 102.206 39.5865C102.206 38.2606 101.392 37.3284 100.25 37.3284C99.0553 37.3284 98.2807 38.2737 98.2807 39.5865C98.2807 40.9125 99.0553 41.8578 100.25 41.8578ZM105.108 43V36.1862H106.539V37.3415C107.012 36.567 107.826 36.0812 108.797 36.0812C110.241 36.0812 111.252 37.0396 111.252 38.51V43H109.821V38.8251C109.821 37.9717 109.283 37.3678 108.416 37.3678C107.248 37.3678 106.539 38.3656 106.539 40.0067V43H105.108ZM112.618 39.5865C112.618 37.7485 113.761 36.0812 115.914 36.0812C118.027 36.0812 119.143 37.6566 119.13 39.3502C119.13 39.6128 119.104 39.9279 119.104 39.9279H114.036C114.168 41.1751 114.916 41.8841 116.019 41.8841C116.859 41.8841 117.528 41.4902 117.686 40.7944H119.091C118.854 42.2779 117.607 43.105 115.979 43.105C113.826 43.105 112.618 41.4377 112.618 39.5865ZM114.102 38.7988H117.594C117.528 37.8798 116.938 37.2103 115.914 37.2103C114.955 37.2103 114.312 37.801 114.102 38.7988ZM124.842 36.1862H126.286L123.476 43.4858C123.03 44.628 122.373 45.5601 120.942 45.5601C120.588 45.5601 120.247 45.4813 120.076 45.4288V44.1947C120.076 44.1947 120.417 44.3129 120.798 44.3129C121.52 44.3129 121.848 43.9321 122.229 42.9475L122.268 42.8425L119.603 36.1862H121.179L122.99 40.9651L124.842 36.1862ZM134.265 36.1862H135.709L132.899 43.4858C132.453 44.628 131.796 45.5601 130.365 45.5601C130.011 45.5601 129.67 45.4813 129.499 45.4288V44.1947C129.499 44.1947 129.84 44.3129 130.221 44.3129C130.943 44.3129 131.271 43.9321 131.652 42.9475L131.691 42.8425L129.026 36.1862H130.602L132.413 40.9651L134.265 36.1862ZM139.596 43.105C137.587 43.105 136.169 41.6215 136.169 39.5865C136.169 37.5647 137.587 36.0812 139.596 36.0812C141.565 36.0812 143.023 37.5516 143.023 39.5865C143.023 41.6346 141.565 43.105 139.596 43.105ZM139.596 41.8578C140.751 41.8578 141.552 40.9125 141.552 39.5865C141.552 38.2606 140.738 37.3284 139.596 37.3284C138.401 37.3284 137.627 38.2737 137.627 39.5865C137.627 40.9125 138.401 41.8578 139.596 41.8578ZM150.533 36.1862V43H149.102V41.8447C148.629 42.6193 147.815 43.105 146.843 43.105C145.399 43.105 144.388 42.1466 144.388 40.6762V36.1862H145.819V40.3611C145.819 41.2145 146.358 41.8184 147.224 41.8184C148.393 41.8184 149.102 40.8206 149.102 39.1796V36.1862H150.533ZM155.339 43V36.1862H156.77V37.3415C157.242 36.567 158.056 36.0812 159.028 36.0812C160.472 36.0812 161.483 37.0396 161.483 38.51V43H160.052V38.8251C160.052 37.9717 159.513 37.3678 158.647 37.3678C157.478 37.3678 156.77 38.3656 156.77 40.0067V43H155.339ZM162.849 39.5865C162.849 37.7485 163.991 36.0812 166.144 36.0812C168.258 36.0812 169.374 37.6566 169.361 39.3502C169.361 39.6128 169.334 39.9279 169.334 39.9279H164.267C164.398 41.1751 165.146 41.8841 166.249 41.8841C167.089 41.8841 167.759 41.4902 167.916 40.7944H169.321C169.085 42.2779 167.838 43.105 166.21 43.105C164.057 43.105 162.849 41.4377 162.849 39.5865ZM164.332 38.7988H167.825C167.759 37.8798 167.168 37.2103 166.144 37.2103C165.186 37.2103 164.542 37.801 164.332 38.7988ZM170.432 39.5865C170.432 37.7485 171.574 36.0812 173.727 36.0812C175.841 36.0812 176.957 37.6566 176.944 39.3502C176.944 39.6128 176.918 39.9279 176.918 39.9279H171.85C171.981 41.1751 172.73 41.8841 173.833 41.8841C174.673 41.8841 175.342 41.4902 175.5 40.7944H176.905C176.668 42.2779 175.421 43.105 173.793 43.105C171.64 43.105 170.432 41.4377 170.432 39.5865ZM171.916 38.7988H175.408C175.342 37.8798 174.752 37.2103 173.727 37.2103C172.769 37.2103 172.126 37.801 171.916 38.7988ZM181.285 43.105C179.236 43.105 178.029 41.6346 178.029 39.5865C178.029 37.5385 179.25 36.0812 181.258 36.0812C182.125 36.0812 182.926 36.4751 183.333 37.0527V33.4292H184.764V43H183.333V42.1204C183.031 42.6718 182.217 43.105 181.285 43.105ZM181.468 41.8578C182.637 41.8578 183.438 40.9519 183.438 39.5865C183.438 38.2212 182.637 37.3284 181.468 37.3284C180.287 37.3284 179.499 38.2212 179.499 39.5865C179.499 40.9388 180.287 41.8578 181.468 41.8578ZM189.563 43V36.1862H190.994V43H189.563ZM189.497 33.4292H191.086V35.044H189.497V33.4292ZM195.241 43.105C193.535 43.105 192.393 42.0941 192.327 40.6894H193.732C193.771 41.2801 194.349 41.8709 195.241 41.8709C195.99 41.8709 196.502 41.5165 196.502 41.0438C196.502 40.5843 196.174 40.3611 195.662 40.243L194.533 39.9804C193.535 39.7572 192.629 39.2715 192.629 37.998C192.629 36.9346 193.6 36.0812 195.11 36.0812C196.554 36.0812 197.657 36.882 197.828 38.1949H196.423C196.344 37.591 195.753 37.2496 195.11 37.2496C194.493 37.2496 194.06 37.5385 194.06 37.998C194.06 38.3656 194.375 38.6019 194.861 38.7201L195.99 38.9695C197.079 39.2058 197.959 39.6391 197.959 41.0044C197.959 42.186 196.883 43.105 195.241 43.105ZM203.577 43L201.463 36.1862H202.921L203.827 39.4027C204.102 40.4399 204.234 41.2145 204.234 41.2145C204.234 41.2145 204.404 40.453 204.732 39.4159L205.717 36.1862H207.069L208.067 39.429C208.395 40.4662 208.566 41.2276 208.566 41.2276C208.566 41.2276 208.71 40.453 208.973 39.4027L209.866 36.1862H211.323L209.209 43H207.883L206.899 39.7966C206.57 38.7594 206.4 37.9848 206.4 37.9848C206.4 37.9848 206.216 38.7594 205.888 39.7835L204.89 43H203.577ZM214.263 43.105C212.884 43.105 211.913 42.3042 211.913 41.1489C211.913 39.9673 212.766 39.2321 214.25 39.0351L215.707 38.8382C216.101 38.7857 216.298 38.6019 216.298 38.2737C216.298 37.6829 215.759 37.2234 214.867 37.2234C214.039 37.2234 213.436 37.6435 213.37 38.405H211.965C212.123 36.9871 213.212 36.0812 214.867 36.0812C216.613 36.0812 217.729 37.079 217.729 38.6019V41.3064C217.729 41.7003 217.899 41.8447 218.175 41.8447C218.267 41.8447 218.398 41.8184 218.398 41.8184V43C218.398 43 218.057 43.0788 217.729 43.0788C217.02 43.0788 216.521 42.7374 216.468 42.0022C216.14 42.6849 215.287 43.105 214.263 43.105ZM214.486 41.9891C215.654 41.9891 216.337 41.1751 216.337 40.0067V39.7572L214.486 40.0592C213.724 40.1773 213.344 40.5187 213.344 41.0963C213.344 41.6215 213.803 41.9891 214.486 41.9891ZM219.607 43V36.1862H221.038V43H219.607ZM219.542 33.4292H221.13V35.044H219.542V33.4292ZM226.468 36.1862V37.3941H224.813V40.8206C224.813 41.5033 225.207 41.8578 225.785 41.8578C226.074 41.8578 226.363 41.779 226.468 41.7528V43C226.35 43.0394 226.008 43.105 225.641 43.105C224.301 43.105 223.382 42.4092 223.382 40.9388V37.3941H222.175V36.1862H223.382V34.1513H224.813V36.1862H226.468ZM227.787 43V36.1862H229.218V43H227.787ZM227.721 33.4292H229.31V35.044H227.721V33.4292ZM231.037 43V36.1862H232.468V37.3415C232.94 36.567 233.754 36.0812 234.726 36.0812C236.17 36.0812 237.181 37.0396 237.181 38.51V43H235.75V38.8251C235.75 37.9717 235.211 37.3678 234.345 37.3678C233.177 37.3678 232.468 38.3656 232.468 40.0067V43H231.037ZM241.973 45.5601C240.109 45.5601 238.914 44.733 238.718 43.1838H240.162C240.267 43.9321 240.91 44.3785 241.973 44.3785C243.103 44.3785 243.772 43.7746 243.772 42.7112V41.8184C243.444 42.3173 242.669 42.6718 241.763 42.6718C239.768 42.6718 238.56 41.3064 238.56 39.3896C238.56 37.4466 239.768 36.0812 241.724 36.0812C242.591 36.0812 243.378 36.4619 243.772 37.0133V36.1862H245.203V42.5668C245.203 44.4442 243.982 45.5601 241.973 45.5601ZM241.947 41.4377C243.116 41.4377 243.864 40.6237 243.864 39.3896C243.864 38.1555 243.116 37.3284 241.947 37.3284C240.779 37.3284 240.03 38.1424 240.03 39.3896C240.03 40.6237 240.779 41.4377 241.947 41.4377ZM250.467 43V37.3941H249.259V36.1862H250.467V35.5035C250.467 34.0462 251.412 33.3373 252.686 33.3373C252.975 33.3373 253.277 33.3636 253.552 33.4292V34.6764C253.355 34.6239 253.093 34.5845 252.83 34.5845C252.331 34.5845 251.885 34.9259 251.885 35.6217V36.1862H253.552V37.3941H251.885V43H250.467ZM257.492 43.105C255.484 43.105 254.066 41.6215 254.066 39.5865C254.066 37.5647 255.484 36.0812 257.492 36.0812C259.462 36.0812 260.919 37.5516 260.919 39.5865C260.919 41.6346 259.462 43.105 257.492 43.105ZM257.492 41.8578C258.648 41.8578 259.449 40.9125 259.449 39.5865C259.449 38.2606 258.635 37.3284 257.492 37.3284C256.298 37.3284 255.523 38.2737 255.523 39.5865C255.523 40.9125 256.298 41.8578 257.492 41.8578ZM266.381 37.486C266.276 37.4597 266.027 37.4072 265.698 37.4072C264.701 37.4072 263.782 38.3262 263.782 40.453V43H262.351V36.1862H263.782V37.486C264.097 36.672 265.016 36.0812 265.882 36.0812C266.171 36.0812 266.315 36.1206 266.381 36.1206V37.486ZM63.2646 51.1862H64.7088L61.8992 58.4858C61.4528 59.628 60.7964 60.5601 59.3654 60.5601C59.0109 60.5601 58.6696 60.4813 58.4989 60.4288V59.1947C58.4989 59.1947 58.8402 59.3129 59.221 59.3129C59.943 59.3129 60.2713 58.9321 60.652 57.9475L60.6914 57.8425L58.0263 51.1862H59.6017L61.4135 55.9651L63.2646 51.1862ZM68.5961 58.105C66.5874 58.105 65.1695 56.6215 65.1695 54.5865C65.1695 52.5647 66.5874 51.0812 68.5961 51.0812C70.5654 51.0812 72.0226 52.5516 72.0226 54.5865C72.0226 56.6346 70.5654 58.105 68.5961 58.105ZM68.5961 56.8578C69.7514 56.8578 70.5522 55.9125 70.5522 54.5865C70.5522 53.2606 69.7383 52.3284 68.5961 52.3284C67.4014 52.3284 66.6268 53.2737 66.6268 54.5865C66.6268 55.9125 67.4014 56.8578 68.5961 56.8578ZM79.5327 51.1862V58H78.1016V56.8447C77.629 57.6193 76.815 58.105 75.8435 58.105C74.3993 58.105 73.3884 57.1466 73.3884 55.6762V51.1862H74.8195V55.3611C74.8195 56.2145 75.3577 56.8184 76.2242 56.8184C77.3927 56.8184 78.1016 55.8206 78.1016 54.1796V51.1862H79.5327ZM81.2007 56.3852H82.8549V58H81.2007V56.3852ZM89.3609 58V49.8734H86.4201V48.5342H93.8247V49.8734H90.8838V58H89.3609ZM95.4359 58.105C94.0574 58.105 93.0859 57.3042 93.0859 56.1489C93.0859 54.9673 93.9392 54.2321 95.4228 54.0351L96.88 53.8382C97.2739 53.7857 97.4708 53.6019 97.4708 53.2737C97.4708 52.6829 96.9326 52.2234 96.0398 52.2234C95.2127 52.2234 94.6088 52.6435 94.5431 53.405H93.1384C93.2959 51.9871 94.3856 51.0812 96.0398 51.0812C97.7859 51.0812 98.9019 52.079 98.9019 53.6019V56.3064C98.9019 56.7003 99.0725 56.8447 99.3482 56.8447C99.4401 56.8447 99.5714 56.8184 99.5714 56.8184V58C99.5714 58 99.2301 58.0788 98.9019 58.0788C98.1929 58.0788 97.694 57.7374 97.6415 57.0022C97.3133 57.6849 96.4599 58.105 95.4359 58.105ZM95.6591 56.9891C96.8275 56.9891 97.5102 56.1751 97.5102 55.0067V54.7572L95.6591 55.0592C94.8976 55.1773 94.5169 55.5187 94.5169 56.0963C94.5169 56.6215 94.9764 56.9891 95.6591 56.9891ZM100.781 60.4551V51.1862H102.212V52.0658C102.579 51.5013 103.406 51.0812 104.325 51.0812C106.321 51.0812 107.529 52.5516 107.529 54.5865C107.529 56.6346 106.255 58.105 104.234 58.105C103.42 58.105 102.632 57.7374 102.212 57.1992V60.4551H100.781ZM104.089 56.8578C105.271 56.8578 106.058 55.9519 106.058 54.5865C106.058 53.2212 105.271 52.3284 104.089 52.3284C102.908 52.3284 102.12 53.2212 102.12 54.5865C102.12 55.9519 102.908 56.8578 104.089 56.8578ZM115.327 51.1862V52.3941H113.673V55.8206C113.673 56.5033 114.066 56.8578 114.644 56.8578C114.933 56.8578 115.222 56.779 115.327 56.7528V58C115.209 58.0394 114.867 58.105 114.5 58.105C113.161 58.105 112.242 57.4092 112.242 55.9388V52.3941H111.034V51.1862H112.242V49.1513H113.673V51.1862H115.327ZM119.512 58.105C117.504 58.105 116.086 56.6215 116.086 54.5865C116.086 52.5647 117.504 51.0812 119.512 51.0812C121.482 51.0812 122.939 52.5516 122.939 54.5865C122.939 56.6346 121.482 58.105 119.512 58.105ZM119.512 56.8578C120.668 56.8578 121.468 55.9125 121.468 54.5865C121.468 53.2606 120.654 52.3284 119.512 52.3284C118.318 52.3284 117.543 53.2737 117.543 54.5865C117.543 55.9125 118.318 56.8578 119.512 56.8578ZM129.333 58.105C127.954 58.105 126.983 57.3042 126.983 56.1489C126.983 54.9673 127.836 54.2321 129.32 54.0351L130.777 53.8382C131.171 53.7857 131.368 53.6019 131.368 53.2737C131.368 52.6829 130.83 52.2234 129.937 52.2234C129.11 52.2234 128.506 52.6435 128.44 53.405H127.035C127.193 51.9871 128.283 51.0812 129.937 51.0812C131.683 51.0812 132.799 52.079 132.799 53.6019V56.3064C132.799 56.7003 132.97 56.8447 133.245 56.8447C133.337 56.8447 133.469 56.8184 133.469 56.8184V58C133.469 58 133.127 58.0788 132.799 58.0788C132.09 58.0788 131.591 57.7374 131.539 57.0022C131.21 57.6849 130.357 58.105 129.333 58.105ZM129.556 56.9891C130.725 56.9891 131.407 56.1751 131.407 55.0067V54.7572L129.556 55.0592C128.795 55.1773 128.414 55.5187 128.414 56.0963C128.414 56.6215 128.873 56.9891 129.556 56.9891ZM137.671 58.105C135.689 58.105 134.31 56.6871 134.31 54.5865C134.31 52.4991 135.689 51.0812 137.671 51.0812C139.286 51.0812 140.507 51.9608 140.743 53.6413H139.338C139.194 52.8667 138.538 52.3284 137.697 52.3284C136.529 52.3284 135.767 53.2212 135.767 54.5865C135.767 55.9651 136.542 56.8578 137.697 56.8578C138.551 56.8578 139.181 56.3589 139.338 55.4924H140.743C140.468 57.2648 139.273 58.105 137.671 58.105ZM145.101 58.105C143.118 58.105 141.74 56.6871 141.74 54.5865C141.74 52.4991 143.118 51.0812 145.101 51.0812C146.715 51.0812 147.936 51.9608 148.173 53.6413H146.768C146.624 52.8667 145.967 52.3284 145.127 52.3284C143.958 52.3284 143.197 53.2212 143.197 54.5865C143.197 55.9651 143.972 56.8578 145.127 56.8578C145.98 56.8578 146.61 56.3589 146.768 55.4924H148.173C147.897 57.2648 146.702 58.105 145.101 58.105ZM149.156 54.5865C149.156 52.7485 150.298 51.0812 152.451 51.0812C154.565 51.0812 155.681 52.6566 155.668 54.3502C155.668 54.6128 155.642 54.9279 155.642 54.9279H150.574C150.705 56.1751 151.454 56.8841 152.556 56.8841C153.397 56.8841 154.066 56.4902 154.224 55.7944H155.628C155.392 57.2779 154.145 58.105 152.517 58.105C150.364 58.105 149.156 56.4377 149.156 54.5865ZM150.64 53.7988H154.132C154.066 52.8798 153.475 52.2103 152.451 52.2103C151.493 52.2103 150.85 52.801 150.64 53.7988ZM159.549 58.105C157.842 58.105 156.7 57.0941 156.634 55.6894H158.039C158.079 56.2801 158.656 56.8709 159.549 56.8709C160.297 56.8709 160.809 56.5165 160.809 56.0438C160.809 55.5843 160.481 55.3611 159.969 55.243L158.84 54.9804C157.842 54.7572 156.936 54.2715 156.936 52.998C156.936 51.9346 157.908 51.0812 159.418 51.0812C160.862 51.0812 161.965 51.882 162.135 53.1949H160.731C160.652 52.591 160.061 52.2496 159.418 52.2496C158.801 52.2496 158.367 52.5385 158.367 52.998C158.367 53.3656 158.682 53.6019 159.168 53.7201L160.297 53.9695C161.387 54.2058 162.267 54.6391 162.267 56.0044C162.267 57.186 161.19 58.105 159.549 58.105ZM166.119 58.105C164.413 58.105 163.27 57.0941 163.205 55.6894H164.61C164.649 56.2801 165.227 56.8709 166.119 56.8709C166.868 56.8709 167.38 56.5165 167.38 56.0438C167.38 55.5843 167.052 55.3611 166.54 55.243L165.41 54.9804C164.413 54.7572 163.507 54.2715 163.507 52.998C163.507 51.9346 164.478 51.0812 165.988 51.0812C167.432 51.0812 168.535 51.882 168.706 53.1949H167.301C167.222 52.591 166.631 52.2496 165.988 52.2496C165.371 52.2496 164.938 52.5385 164.938 52.998C164.938 53.3656 165.253 53.6019 165.739 53.7201L166.868 53.9695C167.957 54.2058 168.837 54.6391 168.837 56.0044C168.837 57.186 167.76 58.105 166.119 58.105ZM170.117 56.3852H171.771V58H170.117V56.3852Z" fill="#1D3F2B"/>
<rect x="16" y="24" width="30" height="30" rx="5.83496" fill="#1EC677"/>
<path fill-rule="evenodd" clip-rule="evenodd" d="M31.2649 46.9137C26.3985 46.9137 23 43.6416 23 38.9568C23 36.5949 23.8165 34.5735 25.3615 33.1118C26.8005 31.7499 28.7606 31 30.881 31C31.9423 31 32.8483 31.1869 33.7255 31.3677C34.5629 31.5407 35.3539 31.7037 36.2342 31.7037C36.4957 31.7037 36.7467 31.6896 37 31.6608V35.1905C36.6913 35.2353 36.3925 35.2572 36.0867 35.2572C35.1081 35.2572 34.2943 35.0234 33.507 34.797C32.7455 34.5793 32.0264 34.3733 31.2011 34.3733C28.6546 34.3733 26.8761 36.1926 26.8761 38.7975C26.8761 41.5343 28.826 43.4454 31.6176 43.4454C33.3631 43.4454 35.322 42.6895 37 41.3698V45.0544C35.8672 45.9044 33.9554 46.9137 31.2649 46.9137Z" fill="white"/>
</svg>
