<?xml version="1.0" encoding="utf-8"?>
<!-- Generator: Adobe Illustrator 26.5.0, SVG Export Plug-In . SVG Version: 6.00 Build 0)  -->
<svg version="1.1" id="Layer_1" xmlns="http://www.w3.org/2000/svg" xmlns:xlink="http://www.w3.org/1999/xlink" x="0px" y="0px"
	 viewBox="0 0 416 248" style="enable-background:new 0 0 416 248;" xml:space="preserve">
<style type="text/css">
	.st0{fill:#CCF2D2;}
	.st1{fill:#0D4029;}
	.st2{fill:#1EC677;}
</style>
<path class="st0" d="M8,0h400c4.42,0,8,3.58,8,8v104c0,4.42-3.58,8-8,8H8c-4.42,0-8-3.58-8-8V8C0,3.58,3.58,0,8,0z"/>
<path class="st0" d="M8,128h400c4.42,0,8,3.58,8,8v104c0,4.42-3.58,8-8,8H8c-4.42,0-8-3.58-8-8V136C0,131.58,3.58,128,8,128z"/>
<path class="st1" d="M32.94,65.12c2.28,0.43,3.65,1.94,3.65,4.13c0,3.17-2.38,4.75-5.52,4.75h-8.04v-0.55
	c0.62-0.24,1.03-0.41,1.34-0.67s0.36-1.51,0.41-3.86v-6.62c-0.05-2.35-0.1-3.6-0.41-3.86s-0.72-0.43-1.34-0.67V57.2h7.32
	c3.14,0,5.52,1.42,5.52,4.3C35.87,63.3,34.91,64.5,32.94,65.12z M30.09,58.33h-3.17v6.41h3.17c2.26,0,3.58-1.15,3.58-3.24
	C33.66,59.48,32.34,58.33,30.09,58.33z M26.92,72.87h3.84c2.26,0,3.55-1.25,3.55-3.62c0-2.28-1.3-3.38-3.55-3.38h-3.84V72.87z
	 M43.8,74.29c-3.6,0-5.45-2.64-5.45-6.12c0-3.72,1.92-6.46,5.23-6.46c2.9,0,4.73,1.68,4.8,5.04l-0.24,0.24h-7.66
	c-0.22,3.72,1.08,5.52,3.86,5.52c1.82,0,3.34-0.77,4.34-2.88l0.7,0.26C48.63,72.44,46.75,74.29,43.8,74.29z M40.59,66.03h4.82
	c0.55,0,0.74-0.24,0.65-0.77c-0.26-1.25-1.06-2.38-2.54-2.38C41.98,62.89,40.9,63.9,40.59,66.03z M55.39,74.29
	c-2.47,0-4.54-1.42-4.54-2.86c0-0.62,0.34-1.01,0.94-1.01c0.58,0,1.01,0.36,1.34,1.13c0.62,1.3,1.01,1.78,2.33,1.78
	c1.46,0,2.45-0.98,2.45-2.4c0-1.25-0.86-1.78-3.07-2.5l-0.31-0.1c-2.28-0.72-3.46-1.85-3.46-3.48c0-1.97,1.56-3.14,4.13-3.14
	c2.54,0,4.54,1.2,4.54,2.66c0,0.6-0.38,0.98-1.06,0.98c-0.7,0-1.08-0.41-1.44-1.22c-0.46-0.96-1.03-1.44-2.18-1.44
	c-1.39,0-2.09,0.72-2.09,1.7c0,1.06,0.77,1.61,2.88,2.3l0.38,0.12c2.52,0.82,3.58,1.87,3.58,3.55C59.8,72.7,58.05,74.29,55.39,74.29
	z M63.31,63.15h-2.14v-1.01l0.58-0.17c1.27-0.36,2.21-1.15,2.81-2.86h0.7V62h3.55v1.15h-3.55v6.67c0,1.99,0.55,2.9,1.99,2.9
	c1.39,0,2.04-0.84,2.52-1.92l0.7,0.26c-0.62,2.02-1.58,3.22-3.62,3.22c-2.14,0-3.62-0.94-3.6-3.79L63.31,63.15z M87.9,71.82h0.65
	c0,1.7-0.91,2.47-2.16,2.47c-1.44,0-2.18-0.86-2.18-2.52h-0.26c-0.94,1.68-2.23,2.52-3.86,2.52c-1.9,0-3.07-1.01-3.07-2.74
	c0-1.78,1.06-2.81,3.55-3.38l3.65-0.84v-1.15c0-1.75-0.58-2.88-2.64-2.88c-1.82,0-2.98,0.6-3.7,2.5h-0.72
	c0.29-2.4,1.82-4.08,4.61-4.08c2.76,0,4.37,1.39,4.37,3.84v4.37c0,2.33,0.12,3.12,0.79,3.12C87.42,73.04,87.78,72.63,87.9,71.82z
	 M80.7,72.66c1.18,0,2.28-0.77,3.5-2.21v-2.18l-3,0.77c-1.39,0.36-2.09,1.08-2.09,2.23C79.12,72.13,79.69,72.66,80.7,72.66z
	 M95.22,61.71c2.45,0,4.42,1.2,4.42,2.98c0,0.6-0.38,0.98-0.98,0.98c-0.58,0-0.96-0.26-1.49-1.22c-0.6-1.08-1.1-1.68-2.28-1.68
	c-1.9,0-2.9,1.58-2.9,4.82c0,3.24,1.32,4.92,3.86,4.92c1.73,0,3.31-0.74,4.32-2.88l0.7,0.26c-0.77,2.54-2.64,4.39-5.59,4.39
	c-3.6,0-5.45-2.66-5.45-6.17C89.82,64.45,91.65,61.71,95.22,61.71z M107.46,61.71c2.45,0,4.42,1.2,4.42,2.98
	c0,0.6-0.38,0.98-0.98,0.98c-0.58,0-0.96-0.26-1.49-1.22c-0.6-1.08-1.1-1.68-2.28-1.68c-1.9,0-2.9,1.58-2.9,4.82
	c0,3.24,1.32,4.92,3.86,4.92c1.73,0,3.31-0.74,4.32-2.88l0.7,0.26c-0.77,2.54-2.64,4.39-5.59,4.39c-3.6,0-5.45-2.66-5.45-6.17
	C102.06,64.45,103.88,61.71,107.46,61.71z M120.15,74.29c-4.01,0-5.86-2.74-5.86-6.29s1.85-6.29,5.86-6.29
	c3.98,0,5.83,2.74,5.83,6.29S124.13,74.29,120.15,74.29z M120.15,73.26c2.16,0,3.65-2.02,3.65-5.26s-1.49-5.26-3.65-5.26
	c-2.18,0-3.67,2.02-3.67,5.26S117.96,73.26,120.15,73.26z M139.05,71.67c0.12,0.29,0.34,0.46,1.63,0.96v0.41l-3.05,1.25h-0.34
	c-0.19-0.91-0.31-1.85-0.38-2.76h-0.22c-0.55,1.61-1.7,2.76-3.89,2.76c-2.5,0-4.03-1.51-4.03-3.84v-2.62c0-1.73-0.02-3.43-0.31-3.7
	c-0.31-0.29-0.72-0.5-1.37-0.67v-0.48l3.29-1.03h0.29c0.1,2.23,0.1,4.58,0.1,7.85c0,1.75,0.6,2.86,2.64,2.86
	c1.87,0,2.66-1.1,3.24-2.62v-2.21c0-1.73-0.02-3.43-0.31-3.7c-0.31-0.29-0.72-0.5-1.37-0.67v-0.48l3.26-1.03h0.29
	c0.07,2.04,0.1,4.13,0.12,6.7C138.65,70.3,138.81,71.07,139.05,71.67z M153.83,72.85c0.31,0.26,0.72,0.38,1.34,0.65V74h-5.64v-0.5
	c0.62-0.26,1.03-0.38,1.34-0.65c0.36-0.26,0.46-1.46,0.48-3.65v-3c0-1.75-0.6-2.86-2.64-2.86c-1.92,0-2.71,1.15-3.29,2.74v1.63
	l0.02,1.49c0.02,2.18,0.14,3.38,0.48,3.65c0.31,0.26,0.72,0.38,1.34,0.65V74h-5.64v-0.5c0.62-0.26,1.03-0.38,1.34-0.65
	c0.36-0.26,0.46-1.46,0.48-3.65l-0.02-1.85c0-1.66-0.17-2.42-0.41-3.02c-0.12-0.29-0.34-0.46-1.63-0.96v-0.41l3.05-1.25h0.34
	c0.19,0.91,0.31,1.85,0.38,2.76h0.24c0.55-1.58,1.7-2.76,3.91-2.76c2.5,0,4.01,1.51,4.01,3.79v3.7
	C153.37,71.38,153.49,72.58,153.83,72.85z M157.5,63.15h-2.14v-1.01l0.58-0.17c1.27-0.36,2.21-1.15,2.81-2.86h0.7V62H163v1.15h-3.55
	v6.67c0,1.99,0.55,2.9,1.99,2.9c1.39,0,2.04-0.84,2.52-1.92l0.7,0.26c-0.62,2.02-1.58,3.22-3.62,3.22c-2.14,0-3.62-0.94-3.6-3.79
	L157.5,63.15z M175.21,62.31l-0.02,6.58c0.05,2.35,0.1,3.65,0.41,3.91c0.31,0.26,0.72,0.38,1.34,0.62V74h-5.62v-0.58
	c0.62-0.24,1.03-0.36,1.34-0.62s0.36-1.56,0.41-3.91l0.02-6.58c-0.05-2.35-0.1-3.65-0.41-3.91s-0.72-0.38-1.34-0.62V57.2h5.62v0.58
	c-0.62,0.24-1.03,0.36-1.34,0.62S175.26,59.96,175.21,62.31z M178.27,63.27c-0.12-0.22-0.02-0.46,0.29-0.7
	c1.27-0.98,1.56-1.94,1.56-2.5c0-0.29-0.12-0.41-0.29-0.41s-0.31,0.1-0.67,0.1c-0.7,0-1.13-0.5-1.13-1.22
	c0-1.03,0.74-1.63,1.68-1.63c1.03,0,1.8,0.79,1.8,2.16c0,1.42-0.46,2.95-2.5,4.2C178.65,63.49,178.39,63.49,178.27,63.27z
	 M189.22,74h-1.58l-3.77-9.29c-0.31-0.77-0.53-1.27-0.72-1.42c-0.38-0.29-0.84-0.58-1.27-0.82V62h5.06v0.48
	c-0.62,0.24-1.15,0.58-1.22,0.79c-0.07,0.22-0.05,0.53,0.34,1.49l2.83,7.15l2.78-7.15c0.38-0.96,0.41-1.27,0.34-1.49
	c-0.07-0.22-0.6-0.55-1.3-0.79V62h4.2v0.48c-0.43,0.24-0.89,0.53-1.27,0.82c-0.19,0.14-0.41,0.65-0.72,1.42L189.22,74z
	 M200.93,74.29c-3.6,0-5.45-2.64-5.45-6.12c0-3.72,1.92-6.46,5.23-6.46c2.9,0,4.73,1.68,4.8,5.04l-0.24,0.24h-7.66
	c-0.22,3.72,1.08,5.52,3.86,5.52c1.82,0,3.34-0.77,4.34-2.88l0.7,0.26C205.75,72.44,203.88,74.29,200.93,74.29z M197.71,66.03h4.82
	c0.55,0,0.74-0.24,0.65-0.77c-0.26-1.25-1.06-2.38-2.54-2.38C199.1,62.89,198.02,63.9,197.71,66.03z M218.51,74.29
	c-3.6,0-5.45-2.64-5.45-6.12c0-3.72,1.92-6.46,5.23-6.46c2.9,0,4.73,1.68,4.8,5.04l-0.24,0.24h-7.66c-0.22,3.72,1.08,5.52,3.86,5.52
	c1.82,0,3.34-0.77,4.34-2.88l0.7,0.26C223.33,72.44,221.46,74.29,218.51,74.29z M215.29,66.03h4.82c0.55,0,0.74-0.24,0.65-0.77
	c-0.26-1.25-1.06-2.38-2.54-2.38C216.68,62.89,215.6,63.9,215.29,66.03z M231.62,74h-1.58l-3.77-9.29
	c-0.31-0.77-0.53-1.27-0.72-1.42c-0.38-0.29-0.84-0.58-1.27-0.82V62h5.06v0.48c-0.62,0.24-1.15,0.58-1.22,0.79
	c-0.07,0.22-0.05,0.53,0.34,1.49l2.83,7.15l2.78-7.15c0.38-0.96,0.41-1.27,0.34-1.49c-0.07-0.22-0.6-0.55-1.3-0.79V62h4.2v0.48
	c-0.43,0.24-0.89,0.53-1.27,0.82c-0.19,0.14-0.41,0.65-0.72,1.42L231.62,74z M243.33,74.29c-3.6,0-5.45-2.64-5.45-6.12
	c0-3.72,1.92-6.46,5.23-6.46c2.9,0,4.73,1.68,4.8,5.04l-0.24,0.24h-7.66c-0.22,3.72,1.08,5.52,3.86,5.52c1.82,0,3.34-0.77,4.34-2.88
	l0.7,0.26C248.15,72.44,246.28,74.29,243.33,74.29z M240.11,66.03h4.82c0.55,0,0.74-0.24,0.65-0.77c-0.26-1.25-1.06-2.38-2.54-2.38
	C241.5,62.89,240.42,63.9,240.11,66.03z M257.48,61.71c1.39,0,1.99,0.53,1.99,1.39c0,0.74-0.41,1.22-1.03,1.22
	c-1.01,0-1.1-1.03-2.11-1.03c-1.01,0-2.14,0.96-2.59,2.57v3.34c0.02,2.18,0.14,3.38,0.48,3.65c0.31,0.26,0.72,0.38,1.34,0.65V74
	h-5.64v-0.5c0.62-0.26,1.03-0.38,1.34-0.65c0.36-0.26,0.46-1.46,0.48-3.65v-1.85c0-1.66-0.17-2.42-0.41-3.02
	c-0.12-0.29-0.34-0.46-1.63-0.96v-0.41l3.05-1.25h0.34c0.19,0.91,0.31,1.85,0.38,2.76h0.26C254.38,62.58,255.73,61.71,257.48,61.71z
	 M277.72,72.85c0.31,0.26,0.72,0.38,1.34,0.65V74h-5.64v-0.5c0.62-0.26,1.03-0.38,1.34-0.65c0.36-0.26,0.46-1.46,0.48-3.65v-3.17
	c0-1.75-0.67-2.69-2.69-2.69c-1.78,0-2.66,1.18-3.22,2.9v2.95c0.02,2.18,0.14,3.38,0.48,3.65c0.31,0.26,0.72,0.38,1.34,0.65V74
	h-5.64v-0.5c0.62-0.26,1.03-0.38,1.34-0.65c0.36-0.26,0.46-1.46,0.48-3.65v-6.74c0-1.78-0.17-3.46-0.46-3.72
	c-0.31-0.29-0.72-0.5-1.37-0.67v-0.46l3.34-1.03h0.36c0.1,0.91,0.12,1.99,0.12,3.24v4.32h0.24c0.7-1.54,1.78-2.42,3.62-2.42
	c2.42,0,4.01,1.51,4.01,3.79v3.7C277.26,71.38,277.38,72.58,277.72,72.85z M291.2,71.82h0.65c0,1.7-0.91,2.47-2.16,2.47
	c-1.44,0-2.18-0.86-2.18-2.52h-0.26c-0.94,1.68-2.23,2.52-3.86,2.52c-1.9,0-3.07-1.01-3.07-2.74c0-1.78,1.06-2.81,3.55-3.38
	l3.65-0.84v-1.15c0-1.75-0.58-2.88-2.64-2.88c-1.82,0-2.98,0.6-3.7,2.5h-0.72c0.29-2.4,1.82-4.08,4.61-4.08
	c2.76,0,4.37,1.39,4.37,3.84v4.37c0,2.33,0.12,3.12,0.79,3.12C290.72,73.04,291.08,72.63,291.2,71.82z M284,72.66
	c1.18,0,2.28-0.77,3.5-2.21v-2.18l-3,0.77c-1.39,0.36-2.09,1.08-2.09,2.23C282.42,72.13,282.99,72.66,284,72.66z M304.62,71.67
	c0.12,0.29,0.34,0.46,1.63,0.96v0.41l-3.05,1.25h-0.34c-0.19-0.91-0.31-1.85-0.38-2.76h-0.17c-0.74,1.82-2.11,2.76-4.08,2.76
	c-3.14,0-5.11-2.45-5.11-6.31c0-3.98,2.16-6.26,5.52-6.26c1.51,0,2.83,0.62,3.58,1.66v-0.91c0-1.78-0.17-3.46-0.46-3.72
	c-0.31-0.29-0.72-0.5-1.37-0.67v-0.46l3.34-1.03h0.36c0.1,0.91,0.12,1.99,0.12,3.24v8.83C304.21,70.3,304.38,71.07,304.62,71.67z
	 M298.74,72.78c1.46,0,2.62-0.84,3.48-2.3v-3.72c0-2.88-1.58-4.01-3.24-4.01c-2.54,0-3.67,2.26-3.67,5.14
	C295.3,71.05,296.55,72.78,298.74,72.78z M22.7,92.05v-0.84h4.2v0.84H22.7z M33.39,90.82c1.33,0.25,2.13,1.13,2.13,2.41
	c0,1.85-1.39,2.77-3.22,2.77h-4.69v-0.32c0.36-0.14,0.6-0.24,0.78-0.39c0.18-0.15,0.21-0.88,0.24-2.25v-3.86
	c-0.03-1.37-0.06-2.1-0.24-2.25c-0.18-0.15-0.42-0.25-0.78-0.39V86.2h4.27c1.83,0,3.22,0.83,3.22,2.51
	C35.1,89.76,34.54,90.46,33.39,90.82z M31.72,86.86h-1.85v3.74h1.85c1.32,0,2.09-0.67,2.09-1.89
	C33.81,87.53,33.04,86.86,31.72,86.86z M29.87,95.34h2.24c1.32,0,2.07-0.73,2.07-2.11c0-1.33-0.76-1.97-2.07-1.97h-2.24V95.34z
	 M40.79,88.83c0.81,0,1.16,0.31,1.16,0.81c0,0.43-0.24,0.71-0.6,0.71c-0.59,0-0.64-0.6-1.23-0.6c-0.59,0-1.25,0.56-1.51,1.5v1.95
	c0.01,1.27,0.08,1.97,0.28,2.13c0.18,0.15,0.42,0.22,0.78,0.38V96h-3.29v-0.29c0.36-0.15,0.6-0.22,0.78-0.38
	c0.21-0.15,0.27-0.85,0.28-2.13v-1.08c0-0.97-0.1-1.41-0.24-1.76c-0.07-0.17-0.2-0.27-0.95-0.56v-0.24l1.78-0.73h0.2
	c0.11,0.53,0.18,1.08,0.22,1.61h0.15C38.98,89.34,39.76,88.83,40.79,88.83z M43.96,98.69c-0.83,0-1.18-0.38-1.18-0.83
	s0.28-0.7,0.64-0.7c0.62,0,0.62,0.62,1.13,0.62c0.43,0,0.76-0.35,1.12-1.05c0.22-0.41,0.2-0.76,0.03-1.19l-2.06-4.96
	c-0.18-0.45-0.31-0.74-0.42-0.83c-0.22-0.17-0.49-0.34-0.74-0.48V89h2.95v0.28c-0.36,0.14-0.67,0.34-0.71,0.46s-0.03,0.31,0.2,0.87
	l1.64,4.03l1.57-4.03c0.22-0.56,0.24-0.74,0.2-0.87s-0.35-0.32-0.77-0.46V89h2.46v0.28c-0.25,0.14-0.52,0.31-0.74,0.48
	c-0.11,0.08-0.24,0.38-0.42,0.83l-2.21,5.59C45.92,98,45.1,98.69,43.96,98.69z M56.88,94.73h0.38c0,0.99-0.53,1.44-1.26,1.44
	c-0.84,0-1.27-0.5-1.27-1.47h-0.15c-0.55,0.98-1.3,1.47-2.25,1.47c-1.11,0-1.79-0.59-1.79-1.6c0-1.04,0.62-1.64,2.07-1.97l2.13-0.49
	v-0.67c0-1.02-0.34-1.68-1.54-1.68c-1.06,0-1.74,0.35-2.16,1.46H50.6c0.17-1.4,1.06-2.38,2.69-2.38c1.61,0,2.55,0.81,2.55,2.24v2.55
	c0,1.36,0.07,1.82,0.46,1.82C56.6,95.44,56.81,95.2,56.88,94.73z M52.67,95.22c0.69,0,1.33-0.45,2.04-1.29v-1.27l-1.75,0.45
	c-0.81,0.21-1.22,0.63-1.22,1.3C51.75,94.91,52.09,95.22,52.67,95.22z M64.87,95.33c0.18,0.15,0.42,0.22,0.78,0.38V96h-3.29v-0.29
	c0.36-0.15,0.6-0.22,0.78-0.38c0.21-0.15,0.27-0.85,0.28-2.13v-1.75c0-1.02-0.35-1.67-1.54-1.67c-1.12,0-1.58,0.67-1.92,1.6v0.95
	l0.01,0.87c0.01,1.27,0.08,1.97,0.28,2.13c0.18,0.15,0.42,0.22,0.78,0.38V96h-3.29v-0.29c0.36-0.15,0.6-0.22,0.78-0.38
	c0.21-0.15,0.27-0.85,0.28-2.13l-0.01-1.08c0-0.97-0.1-1.41-0.24-1.76c-0.07-0.17-0.2-0.27-0.95-0.56v-0.24l1.78-0.73h0.2
	c0.11,0.53,0.18,1.08,0.22,1.61h0.14c0.32-0.92,0.99-1.61,2.28-1.61c1.46,0,2.34,0.88,2.34,2.21v2.16
	C64.61,94.47,64.68,95.17,64.87,95.33z M66.41,98.07c-0.07-0.13-0.01-0.27,0.17-0.41c0.74-0.57,0.91-1.13,0.91-1.46
	c0-0.17-0.07-0.24-0.17-0.24s-0.18,0.06-0.39,0.06c-0.41,0-0.66-0.29-0.66-0.71c0-0.6,0.43-0.95,0.98-0.95
	c0.6,0,1.05,0.46,1.05,1.26c0,0.83-0.27,1.72-1.46,2.45C66.63,98.2,66.48,98.2,66.41,98.07z M80.63,95.26
	c0.2,0.14,0.46,0.28,0.71,0.41V96h-3.23v-0.34c0.49-0.18,0.81-0.32,0.9-0.46c0.06-0.1,0.01-0.31-0.2-0.87l-0.39-1.05h-4.14
	l-0.45,1.23c-0.14,0.36-0.2,0.56-0.14,0.67c0.06,0.14,0.46,0.29,1.04,0.48V96h-2.77v-0.34c0.25-0.11,0.5-0.22,0.69-0.36
	c0.14-0.1,0.29-0.43,0.49-0.94l2.86-7.55l-0.27-0.62h1.34l3.12,8.16C80.36,94.85,80.49,95.16,80.63,95.26z M76.33,87.68l-1.83,4.98
	h3.7L76.33,87.68z M86.17,88.83c1.75,0,2.9,1.43,2.9,3.54c0,2.46-1.18,3.79-3.22,3.79c-0.85,0-1.64-0.32-2.1-0.91v0.28
	c0,1.37,0.04,2.13,0.22,2.28c0.22,0.18,0.57,0.22,1.06,0.36v0.34h-3.47v-0.34c0.36-0.14,0.6-0.21,0.78-0.36s0.24-0.91,0.24-2.28
	v-3.35c0-0.97-0.1-1.41-0.24-1.76c-0.07-0.17-0.2-0.27-0.95-0.56v-0.24l1.78-0.73h0.2c0.11,0.53,0.18,1.08,0.22,1.61h0.15v0.01
	C84.25,89.31,85.06,88.83,86.17,88.83z M85.68,95.51c1.34,0,2.11-1.05,2.11-3.12c0-1.79-0.67-2.67-1.81-2.67
	c-0.92,0-1.68,0.5-2.24,1.51v2.2C83.76,95.09,84.71,95.51,85.68,95.51z M94.52,88.83c1.75,0,2.9,1.43,2.9,3.54
	c0,2.46-1.18,3.79-3.22,3.79c-0.85,0-1.64-0.32-2.1-0.91v0.28c0,1.37,0.04,2.13,0.22,2.28c0.22,0.18,0.57,0.22,1.06,0.36v0.34h-3.47
	v-0.34c0.36-0.14,0.6-0.21,0.78-0.36s0.24-0.91,0.24-2.28v-3.35c0-0.97-0.1-1.41-0.24-1.76c-0.07-0.17-0.2-0.27-0.95-0.56v-0.24
	l1.78-0.73h0.2c0.11,0.53,0.18,1.08,0.22,1.61h0.15v0.01C92.61,89.31,93.42,88.83,94.52,88.83z M94.03,95.51
	c1.34,0,2.11-1.05,2.11-3.12c0-1.79-0.67-2.67-1.81-2.67c-0.92,0-1.68,0.5-2.24,1.51v2.2C92.12,95.09,93.07,95.51,94.03,95.51z
	 M104.9,96.17c-1.46,0-2.25-0.21-3.37-0.83l0.32-2.23h0.39c0.2,0.74,0.41,1.23,0.63,1.58c0.24,0.36,0.91,0.83,2.07,0.83
	c1.47,0,2.32-0.95,2.32-2.11c0-1.04-0.71-1.53-2.41-2l-0.31-0.08c-2.03-0.59-2.87-1.41-2.87-2.79c0-1.44,1.16-2.51,3.29-2.51
	c0.8,0,1.41,0.11,1.78,0.11c0.29,0,0.69-0.04,1.01-0.11h0.2l0.24,2.91h-0.39c-0.39-0.67-0.66-1.12-0.88-1.44
	c-0.27-0.38-0.95-0.83-1.97-0.83c-1.37,0-2.03,0.63-2.03,1.64c0,0.95,0.55,1.37,2.32,1.9l0.49,0.15c2.04,0.6,2.83,1.53,2.83,2.74
	C108.56,94.89,107.13,96.17,104.9,96.17z M110.6,89.67h-1.25v-0.59l0.34-0.1c0.74-0.21,1.29-0.67,1.64-1.67h0.41V89h2.07v0.67h-2.07
	v3.89c0,1.16,0.32,1.69,1.16,1.69c0.81,0,1.19-0.49,1.47-1.12l0.41,0.15c-0.36,1.18-0.92,1.88-2.11,1.88c-1.25,0-2.11-0.55-2.1-2.21
	L110.6,89.67z M118.7,96.17c-2.34,0-3.42-1.6-3.42-3.67s1.08-3.67,3.42-3.67c2.32,0,3.4,1.6,3.4,3.67S121.02,96.17,118.7,96.17z
	 M118.7,95.57c1.26,0,2.13-1.18,2.13-3.07s-0.87-3.07-2.13-3.07c-1.27,0-2.14,1.18-2.14,3.07S117.42,95.57,118.7,95.57z
	 M127.34,88.83c0.81,0,1.16,0.31,1.16,0.81c0,0.43-0.24,0.71-0.6,0.71c-0.59,0-0.64-0.6-1.23-0.6c-0.59,0-1.25,0.56-1.51,1.5v1.95
	c0.01,1.27,0.08,1.97,0.28,2.13c0.18,0.15,0.42,0.22,0.78,0.38V96h-3.29v-0.29c0.36-0.15,0.6-0.22,0.78-0.38
	c0.21-0.15,0.27-0.85,0.28-2.13v-1.08c0-0.97-0.1-1.41-0.24-1.76c-0.07-0.17-0.2-0.27-0.95-0.56v-0.24l1.78-0.73h0.2
	c0.11,0.53,0.18,1.08,0.22,1.61h0.15C125.54,89.34,126.32,88.83,127.34,88.83z M132.13,96.17c-2.1,0-3.18-1.54-3.18-3.57
	c0-2.17,1.12-3.77,3.05-3.77c1.69,0,2.76,0.98,2.8,2.94l-0.14,0.14h-4.47c-0.13,2.17,0.63,3.22,2.25,3.22
	c1.06,0,1.95-0.45,2.53-1.68l0.41,0.15C134.94,95.09,133.85,96.17,132.13,96.17z M130.25,91.35h2.81c0.32,0,0.43-0.14,0.38-0.45
	c-0.15-0.73-0.62-1.39-1.48-1.39C131.07,89.52,130.44,90.11,130.25,91.35z M146.09,95.22c0.15,0.17,0.38,0.31,0.64,0.45V96h-1.83
	c-0.22-0.57-0.32-1.29-0.43-2.11c-0.07-0.45-0.15-0.9-0.31-1.27c-0.39-0.91-1.11-0.92-2.32-0.92h-0.24v1.33
	c0.03,1.37,0.06,2.13,0.24,2.28c0.22,0.18,0.57,0.22,1.06,0.36V96h-3.56v-0.34c0.36-0.14,0.6-0.21,0.78-0.36
	c0.18-0.15,0.21-0.91,0.24-2.28v-3.85c-0.03-1.37-0.06-2.1-0.24-2.25c-0.18-0.15-0.42-0.25-0.78-0.39V86.2h4.06
	c2.17,0,3.47,0.97,3.47,2.72c0,1.48-0.88,2.39-2.39,2.67c0.35,0.18,0.62,0.46,0.77,0.81C145.7,93.38,145.8,94.94,146.09,95.22z
	 M141.61,86.84l-0.01,4.21h1.62c1.6,0,2.37-0.57,2.37-2.14c0-1.5-0.77-2.07-2.37-2.07H141.61z M150.85,96.17
	c-2.1,0-3.18-1.54-3.18-3.57c0-2.17,1.12-3.77,3.05-3.77c1.69,0,2.76,0.98,2.8,2.94l-0.14,0.14h-4.47
	c-0.13,2.17,0.63,3.22,2.25,3.22c1.06,0,1.95-0.45,2.53-1.68l0.41,0.15C153.66,95.09,152.57,96.17,150.85,96.17z M148.97,91.35h2.81
	c0.32,0,0.43-0.14,0.38-0.45c-0.15-0.73-0.62-1.39-1.48-1.39C149.78,89.52,149.15,90.11,148.97,91.35z M158.5,96h-0.92l-2.2-5.42
	c-0.18-0.45-0.31-0.74-0.42-0.83c-0.22-0.17-0.49-0.34-0.74-0.48V89h2.95v0.28c-0.36,0.14-0.67,0.34-0.71,0.46
	c-0.04,0.13-0.03,0.31,0.2,0.87l1.65,4.17l1.62-4.17c0.22-0.56,0.24-0.74,0.2-0.87c-0.04-0.13-0.35-0.32-0.76-0.46V89h2.45v0.28
	c-0.25,0.14-0.52,0.31-0.74,0.48c-0.11,0.08-0.24,0.38-0.42,0.83L158.5,96z M164.03,87.54c-0.49,0-0.9-0.41-0.9-0.91
	c0-0.48,0.41-0.88,0.9-0.88s0.9,0.41,0.9,0.88C164.93,87.14,164.52,87.54,164.03,87.54z M163.51,93.2v-0.87
	c0-1.04-0.1-2.02-0.27-2.17c-0.18-0.17-0.42-0.29-0.8-0.39V89.5l1.95-0.6h0.21c0.06,0.53,0.07,1.16,0.07,1.89v2.41
	c0.01,1.27,0.08,1.97,0.28,2.13c0.18,0.15,0.42,0.22,0.78,0.38V96h-3.29v-0.29c0.36-0.15,0.6-0.22,0.78-0.38
	C163.44,95.17,163.5,94.47,163.51,93.2z M169.56,96.17c-2.1,0-3.18-1.54-3.18-3.57c0-2.17,1.12-3.77,3.05-3.77
	c1.69,0,2.76,0.98,2.8,2.94l-0.14,0.14h-4.47c-0.13,2.17,0.63,3.22,2.25,3.22c1.06,0,1.95-0.45,2.53-1.68l0.41,0.15
	C172.38,95.09,171.29,96.17,169.56,96.17z M167.69,91.35h2.81c0.32,0,0.43-0.14,0.38-0.45c-0.15-0.73-0.62-1.39-1.48-1.39
	C168.5,89.52,167.87,90.11,167.69,91.35z M176.95,96h-0.92l-1.93-5.42c-0.15-0.45-0.31-0.74-0.42-0.83
	c-0.22-0.17-0.49-0.34-0.74-0.48V89h3.04v0.28c-0.43,0.14-0.81,0.34-0.85,0.46c-0.04,0.13,0,0.31,0.2,0.87l1.46,4.14l1.75-4.65
	c-0.06-0.2-0.1-0.28-0.25-0.41c-0.15-0.11-0.42-0.28-0.76-0.42V89h2.84v0.28c-0.34,0.14-0.64,0.34-0.69,0.46
	c-0.04,0.11-0.03,0.28,0.15,0.77l1.55,4.26l1.39-4.16c0.18-0.56,0.24-0.74,0.2-0.87c-0.04-0.13-0.42-0.32-0.92-0.46V89h2.58v0.28
	c-0.25,0.14-0.52,0.31-0.74,0.48c-0.11,0.08-0.27,0.38-0.42,0.83L181.58,96h-0.92l-1.82-4.97L176.95,96z"/>
<path class="st1" d="M30.28,202h-7.01v-0.58c0.91-0.24,1.73-0.46,2.11-0.77c0.31-0.26,0.48-1.42,0.48-3.7v-8.98
	c-0.82,0.36-2.3,0.67-3.5,0.79v-0.77c1.78-0.5,3.62-1.42,4.34-2.81h1.22v11.76c0,2.28,0.17,3.43,0.48,3.7
	c0.36,0.31,1.06,0.53,1.87,0.77V202z M32.31,205.55c-0.12-0.22-0.02-0.46,0.29-0.7c1.27-0.98,1.56-1.94,1.56-2.5
	c0-0.29-0.12-0.41-0.29-0.41s-0.31,0.1-0.67,0.1c-0.7,0-1.13-0.5-1.13-1.22c0-1.03,0.74-1.63,1.68-1.63c1.03,0,1.8,0.79,1.8,2.16
	c0,1.42-0.46,2.95-2.5,4.2C32.7,205.77,32.43,205.77,32.31,205.55z M43.74,202.29c-4.15,0-6.46-3.79-6.46-8.69
	c0-4.9,2.3-8.69,6.46-8.69s6.43,3.79,6.43,8.69C50.17,198.5,47.89,202.29,43.74,202.29z M43.74,186.23c-2.62,0-4.32,2.81-4.32,7.37
	c0,4.56,1.7,7.37,4.32,7.37c2.59,0,4.32-2.81,4.32-7.37C48.06,188.97,46.38,186.23,43.74,186.23z M58.55,202.29
	c-4.15,0-6.46-3.79-6.46-8.69c0-4.9,2.3-8.69,6.46-8.69s6.43,3.79,6.43,8.69C64.98,198.5,62.7,202.29,58.55,202.29z M58.55,186.23
	c-2.62,0-4.32,2.81-4.32,7.37c0,4.56,1.7,7.37,4.32,7.37c2.59,0,4.32-2.81,4.32-7.37C62.87,188.97,61.19,186.23,58.55,186.23z
	 M73.36,202.29c-4.15,0-6.46-3.79-6.46-8.69c0-4.9,2.3-8.69,6.46-8.69s6.43,3.79,6.43,8.69C79.79,198.5,77.51,202.29,73.36,202.29z
	 M73.36,186.23c-2.62,0-4.32,2.81-4.32,7.37c0,4.56,1.7,7.37,4.32,7.37c2.59,0,4.32-2.81,4.32-7.37
	C77.68,188.97,76,186.23,73.36,186.23z M81.77,205.55c-0.12-0.22-0.02-0.46,0.29-0.7c1.27-0.98,1.56-1.94,1.56-2.5
	c0-0.29-0.12-0.41-0.29-0.41s-0.31,0.1-0.67,0.1c-0.7,0-1.13-0.5-1.13-1.22c0-1.03,0.74-1.63,1.68-1.63c1.03,0,1.8,0.79,1.8,2.16
	c0,1.42-0.46,2.95-2.5,4.2C82.15,205.77,81.89,205.77,81.77,205.55z M93.19,202.29c-4.15,0-6.46-3.79-6.46-8.69
	c0-4.9,2.3-8.69,6.46-8.69s6.43,3.79,6.43,8.69C99.62,198.5,97.34,202.29,93.19,202.29z M93.19,186.23c-2.62,0-4.32,2.81-4.32,7.37
	c0,4.56,1.7,7.37,4.32,7.37c2.59,0,4.32-2.81,4.32-7.37C97.51,188.97,95.83,186.23,93.19,186.23z M108,202.29
	c-4.15,0-6.46-3.79-6.46-8.69c0-4.9,2.3-8.69,6.46-8.69s6.43,3.79,6.43,8.69C114.43,198.5,112.15,202.29,108,202.29z M108,186.23
	c-2.62,0-4.32,2.81-4.32,7.37c0,4.56,1.7,7.37,4.32,7.37c2.59,0,4.32-2.81,4.32-7.37C112.32,188.97,110.64,186.23,108,186.23z
	 M122.81,202.29c-4.15,0-6.46-3.79-6.46-8.69c0-4.9,2.3-8.69,6.46-8.69s6.43,3.79,6.43,8.69
	C129.25,198.5,126.97,202.29,122.81,202.29z M122.81,186.23c-2.62,0-4.32,2.81-4.32,7.37c0,4.56,1.7,7.37,4.32,7.37
	c2.59,0,4.32-2.81,4.32-7.37C127.13,188.97,125.45,186.23,122.81,186.23z M137,192.88h4.08v1.44H137v4.13h-1.54v-4.13h-4.1v-1.44
	h4.1v-4.15H137V192.88z M153.51,202.29c-1.34,0-2.71-0.46-3.72-1.15c-0.86-0.62-1.44-1.42-1.44-2.14c0-0.6,0.34-0.98,0.91-0.98
	c0.5,0,0.84,0.29,1.25,1.03c0.82,1.44,1.56,2.18,3.07,2.18c1.99,0,3.5-1.63,3.5-4.8c0-3.05-1.37-4.51-3.24-4.51
	c-1.61,0-2.81,0.7-3.74,1.99l-1.18-0.24l0.7-8.47h9.24l-0.19,1.73h-7.99l-0.5,5.54c0.96-1.06,2.35-1.68,3.91-1.68
	c3.24,0,5.23,2.26,5.23,5.5C159.32,200.1,157.18,202.29,153.51,202.29z M172.37,202.29c-2.5,0-3.86-0.36-5.78-1.42l0.55-3.82h0.67
	c0.34,1.27,0.7,2.11,1.08,2.71c0.41,0.62,1.56,1.42,3.55,1.42c2.52,0,3.98-1.63,3.98-3.62c0-1.78-1.22-2.62-4.13-3.43l-0.53-0.14
	c-3.48-1.01-4.92-2.42-4.92-4.78c0-2.47,1.99-4.3,5.64-4.3c1.37,0,2.42,0.19,3.05,0.19c0.5,0,1.18-0.07,1.73-0.19h0.34l0.41,4.99
	h-0.67c-0.67-1.15-1.13-1.92-1.51-2.47c-0.46-0.65-1.63-1.42-3.38-1.42c-2.35,0-3.48,1.08-3.48,2.81c0,1.63,0.94,2.35,3.98,3.26
	l0.84,0.26c3.5,1.03,4.85,2.62,4.85,4.7C178.64,200.1,176.19,202.29,172.37,202.29z M182.13,191.15H180v-1.01l0.58-0.17
	c1.27-0.36,2.21-1.15,2.81-2.86h0.7V190h3.55v1.15h-3.55v6.67c0,1.99,0.55,2.9,1.99,2.9c1.39,0,2.04-0.84,2.52-1.92l0.7,0.26
	c-0.62,2.02-1.58,3.22-3.62,3.22c-2.14,0-3.62-0.94-3.6-3.79L182.13,191.15z M201.6,199.82h0.65c0,1.7-0.91,2.47-2.16,2.47
	c-1.44,0-2.18-0.86-2.18-2.52h-0.26c-0.94,1.68-2.23,2.52-3.86,2.52c-1.9,0-3.07-1.01-3.07-2.74c0-1.78,1.06-2.81,3.55-3.38
	l3.65-0.84v-1.15c0-1.75-0.58-2.88-2.64-2.88c-1.82,0-2.98,0.6-3.7,2.5h-0.72c0.29-2.4,1.82-4.08,4.61-4.08
	c2.76,0,4.37,1.39,4.37,3.84v4.37c0,2.33,0.12,3.12,0.79,3.12C201.12,201.04,201.48,200.63,201.6,199.82z M194.4,200.66
	c1.18,0,2.28-0.77,3.5-2.21v-2.18l-3,0.77c-1.39,0.36-2.09,1.08-2.09,2.23C192.81,200.13,193.39,200.66,194.4,200.66z
	 M210.67,189.71c1.39,0,1.99,0.53,1.99,1.39c0,0.74-0.41,1.22-1.03,1.22c-1.01,0-1.1-1.03-2.11-1.03c-1.01,0-2.14,0.96-2.59,2.57
	v3.34c0.02,2.18,0.14,3.38,0.48,3.65c0.31,0.26,0.72,0.38,1.34,0.65v0.5h-5.64v-0.5c0.62-0.26,1.03-0.38,1.34-0.65
	c0.36-0.26,0.46-1.46,0.48-3.65v-1.85c0-1.66-0.17-2.42-0.41-3.02c-0.12-0.29-0.34-0.46-1.63-0.96v-0.41l3.05-1.25h0.34
	c0.19,0.91,0.31,1.85,0.38,2.76h0.26C207.58,190.58,208.92,189.71,210.67,189.71z M230.91,200.66c0.26,0.29,0.65,0.53,1.1,0.77V202
	h-3.14c-0.38-0.98-0.55-2.21-0.74-3.62c-0.12-0.77-0.26-1.54-0.53-2.18c-0.67-1.56-1.9-1.58-3.98-1.58h-0.41v2.28
	c0.05,2.35,0.1,3.65,0.41,3.91c0.38,0.31,0.98,0.38,1.82,0.62V202h-6.1v-0.58c0.62-0.24,1.03-0.36,1.34-0.62
	c0.31-0.26,0.36-1.56,0.41-3.91v-6.6c-0.05-2.35-0.1-3.6-0.41-3.86c-0.31-0.26-0.72-0.43-1.34-0.67v-0.55h6.96
	c3.72,0,5.95,1.66,5.95,4.66c0,2.54-1.51,4.1-4.1,4.58c0.6,0.31,1.06,0.79,1.32,1.39C230.24,197.51,230.41,200.18,230.91,200.66z
	 M223.23,186.3l-0.02,7.22h2.78c2.74,0,4.06-0.98,4.06-3.67c0-2.57-1.32-3.55-4.06-3.55H223.23z M239.06,202.29
	c-3.6,0-5.45-2.64-5.45-6.12c0-3.72,1.92-6.46,5.23-6.46c2.9,0,4.73,1.68,4.8,5.04l-0.24,0.24h-7.66c-0.22,3.72,1.08,5.52,3.86,5.52
	c1.82,0,3.34-0.77,4.34-2.88l0.7,0.26C243.88,200.44,242.01,202.29,239.06,202.29z M235.84,194.03h4.82c0.55,0,0.74-0.24,0.65-0.77
	c-0.26-1.25-1.06-2.38-2.54-2.38C237.24,190.89,236.16,191.9,235.84,194.03z M252.17,202h-1.58l-3.77-9.29
	c-0.31-0.77-0.53-1.27-0.72-1.42c-0.38-0.29-0.84-0.58-1.27-0.82V190h5.06v0.48c-0.62,0.24-1.15,0.58-1.22,0.79
	c-0.07,0.22-0.05,0.53,0.34,1.49l2.83,7.15l2.78-7.15c0.38-0.96,0.41-1.27,0.34-1.49s-0.6-0.55-1.3-0.79V190h4.2v0.48
	c-0.43,0.24-0.89,0.53-1.27,0.82c-0.19,0.14-0.41,0.65-0.72,1.42L252.17,202z M261.66,187.5c-0.84,0-1.54-0.7-1.54-1.56
	c0-0.82,0.7-1.51,1.54-1.51s1.54,0.7,1.54,1.51C263.2,186.81,262.5,187.5,261.66,187.5z M260.77,197.2v-1.49
	c0-1.78-0.17-3.46-0.46-3.72c-0.31-0.29-0.72-0.5-1.37-0.67v-0.46l3.34-1.03h0.36c0.1,0.91,0.12,1.99,0.12,3.24v4.13
	c0.02,2.18,0.14,3.38,0.48,3.65c0.31,0.26,0.72,0.38,1.34,0.65v0.5h-5.64v-0.5c0.62-0.26,1.03-0.38,1.34-0.65
	C260.65,200.58,260.75,199.38,260.77,197.2z M271.15,202.29c-3.6,0-5.45-2.64-5.45-6.12c0-3.72,1.92-6.46,5.23-6.46
	c2.9,0,4.73,1.68,4.8,5.04l-0.24,0.24h-7.66c-0.22,3.72,1.08,5.52,3.86,5.52c1.82,0,3.34-0.77,4.34-2.88l0.7,0.26
	C275.97,200.44,274.1,202.29,271.15,202.29z M267.93,194.03h4.82c0.55,0,0.74-0.24,0.65-0.77c-0.26-1.25-1.06-2.38-2.54-2.38
	C269.32,190.89,268.24,191.9,267.93,194.03z M283.8,202h-1.58l-3.31-9.29c-0.26-0.77-0.53-1.27-0.72-1.42
	c-0.38-0.29-0.84-0.58-1.27-0.82V190h5.21v0.48c-0.74,0.24-1.39,0.58-1.46,0.79s0,0.53,0.34,1.49l2.5,7.1l3-7.97
	c-0.1-0.34-0.17-0.48-0.43-0.7c-0.26-0.19-0.72-0.48-1.3-0.72V190h4.87v0.48c-0.58,0.24-1.1,0.58-1.18,0.79
	c-0.07,0.19-0.05,0.48,0.26,1.32l2.66,7.3l2.38-7.13c0.31-0.96,0.41-1.27,0.34-1.49s-0.72-0.55-1.58-0.79V190h4.42v0.48
	c-0.43,0.24-0.89,0.53-1.27,0.82c-0.19,0.14-0.46,0.65-0.72,1.42l-3.19,9.29h-1.58l-3.12-8.52L283.8,202z M302.46,202.29
	c-2.47,0-4.54-1.42-4.54-2.86c0-0.62,0.34-1.01,0.94-1.01c0.58,0,1.01,0.36,1.34,1.13c0.62,1.3,1.01,1.78,2.33,1.78
	c1.46,0,2.45-0.98,2.45-2.4c0-1.25-0.86-1.78-3.07-2.5l-0.31-0.1c-2.28-0.72-3.46-1.85-3.46-3.48c0-1.97,1.56-3.14,4.13-3.14
	c2.54,0,4.54,1.2,4.54,2.66c0,0.6-0.38,0.98-1.06,0.98c-0.7,0-1.08-0.41-1.44-1.22c-0.46-0.96-1.03-1.44-2.18-1.44
	c-1.39,0-2.09,0.72-2.09,1.7c0,1.06,0.77,1.61,2.88,2.3l0.38,0.12c2.52,0.82,3.58,1.87,3.58,3.55
	C306.88,200.7,305.13,202.29,302.46,202.29z M26.96,224.17c-3.04,0-4.48-2.2-4.48-5.04c0-2.86,1.44-5.1,4.48-5.1
	c3.05,0,4.49,2.24,4.49,5.1C31.45,221.97,30.01,224.17,26.96,224.17z M26.96,223.5c2.07,0,3.15-1.9,3.15-4.37
	c0-2.63-1.08-4.44-3.15-4.44s-3.14,1.81-3.14,4.44C23.82,221.59,24.88,223.5,26.96,223.5z M39.51,223.33
	c0.18,0.15,0.42,0.22,0.78,0.38V224H37v-0.29c0.36-0.15,0.6-0.22,0.78-0.38c0.21-0.15,0.27-0.85,0.28-2.13v-1.75
	c0-1.02-0.35-1.67-1.54-1.67c-1.12,0-1.58,0.67-1.92,1.6v0.95l0.01,0.87c0.01,1.27,0.08,1.97,0.28,2.13
	c0.18,0.15,0.42,0.22,0.78,0.38V224H32.4v-0.29c0.36-0.15,0.6-0.22,0.78-0.38c0.21-0.15,0.27-0.85,0.28-2.13l-0.01-1.08
	c0-0.97-0.1-1.41-0.24-1.76c-0.07-0.17-0.2-0.27-0.95-0.56v-0.24l1.78-0.73h0.2c0.11,0.53,0.18,1.08,0.22,1.61h0.14
	c0.32-0.92,0.99-1.61,2.28-1.61c1.46,0,2.34,0.88,2.34,2.21v2.16C39.24,222.47,39.31,223.17,39.51,223.33z M44.84,217.67h-1.25
	v-0.59l0.34-0.1c0.74-0.21,1.29-0.67,1.64-1.67h0.41V217h2.07v0.67h-2.07v3.89c0,1.16,0.32,1.69,1.16,1.69
	c0.81,0,1.19-0.49,1.47-1.12l0.41,0.15c-0.36,1.18-0.92,1.88-2.11,1.88c-1.25,0-2.11-0.55-2.1-2.21L44.84,217.67z M56.52,223.33
	c0.18,0.15,0.42,0.22,0.78,0.38V224h-3.29v-0.29c0.36-0.15,0.6-0.22,0.78-0.38c0.21-0.15,0.27-0.85,0.28-2.13v-1.85
	c0-1.02-0.39-1.57-1.57-1.57c-1.04,0-1.55,0.69-1.88,1.69v1.72c0.01,1.27,0.08,1.97,0.28,2.13c0.18,0.15,0.42,0.22,0.78,0.38V224
	H49.4v-0.29c0.36-0.15,0.6-0.22,0.78-0.38c0.21-0.15,0.27-0.85,0.28-2.13v-3.93c0-1.04-0.1-2.02-0.27-2.17
	c-0.18-0.17-0.42-0.29-0.8-0.39v-0.27l1.95-0.6h0.21c0.06,0.53,0.07,1.16,0.07,1.89v2.52h0.14c0.41-0.9,1.04-1.41,2.11-1.41
	c1.41,0,2.34,0.88,2.34,2.21v2.16C56.25,222.47,56.32,223.17,56.52,223.33z M61.05,224.17c-2.1,0-3.18-1.54-3.18-3.57
	c0-2.17,1.12-3.77,3.05-3.77c1.69,0,2.76,0.98,2.8,2.94l-0.14,0.14h-4.47c-0.13,2.17,0.63,3.22,2.25,3.22
	c1.06,0,1.95-0.45,2.53-1.68l0.41,0.15C63.86,223.09,62.77,224.17,61.05,224.17z M59.17,219.35h2.81c0.32,0,0.43-0.14,0.38-0.45
	c-0.15-0.73-0.62-1.39-1.48-1.39C59.99,217.52,59.36,218.11,59.17,219.35z M76.55,223.26c0.2,0.14,0.46,0.28,0.71,0.41V224h-3.23
	v-0.34c0.49-0.18,0.81-0.32,0.9-0.46c0.06-0.1,0.01-0.31-0.2-0.87l-0.39-1.05H70.2l-0.45,1.23c-0.14,0.36-0.2,0.56-0.14,0.67
	c0.06,0.14,0.46,0.29,1.04,0.48V224h-2.77v-0.34c0.25-0.11,0.5-0.22,0.69-0.36c0.14-0.1,0.29-0.43,0.49-0.94l2.86-7.55l-0.27-0.62
	h1.34l3.12,8.16C76.29,222.85,76.41,223.16,76.55,223.26z M72.26,215.68l-1.83,4.98h3.7L72.26,215.68z M82.1,216.83
	c1.75,0,2.9,1.43,2.9,3.54c0,2.46-1.18,3.79-3.22,3.79c-0.85,0-1.64-0.32-2.1-0.91v0.28c0,1.37,0.04,2.13,0.22,2.28
	c0.22,0.18,0.57,0.22,1.06,0.36v0.34h-3.47v-0.34c0.36-0.14,0.6-0.21,0.78-0.36c0.18-0.15,0.24-0.91,0.24-2.28v-3.35
	c0-0.97-0.1-1.41-0.24-1.76c-0.07-0.17-0.2-0.27-0.95-0.56v-0.24l1.78-0.73h0.2c0.11,0.53,0.18,1.08,0.22,1.61h0.15v0.01
	C80.18,217.31,80.99,216.83,82.1,216.83z M81.61,223.51c1.34,0,2.11-1.05,2.11-3.12c0-1.79-0.67-2.67-1.81-2.67
	c-0.92,0-1.68,0.5-2.24,1.51v2.2C79.69,223.09,80.64,223.51,81.61,223.51z M90.45,216.83c1.75,0,2.9,1.43,2.9,3.54
	c0,2.46-1.18,3.79-3.22,3.79c-0.85,0-1.64-0.32-2.1-0.91v0.28c0,1.37,0.04,2.13,0.22,2.28c0.22,0.18,0.57,0.22,1.06,0.36v0.34h-3.47
	v-0.34c0.36-0.14,0.6-0.21,0.78-0.36c0.18-0.15,0.24-0.91,0.24-2.28v-3.35c0-0.97-0.1-1.41-0.24-1.76c-0.07-0.17-0.2-0.27-0.95-0.56
	v-0.24l1.78-0.73h0.2c0.11,0.53,0.18,1.08,0.22,1.61h0.15v0.01C88.53,217.31,89.34,216.83,90.45,216.83z M89.96,223.51
	c1.34,0,2.11-1.05,2.11-3.12c0-1.79-0.67-2.67-1.81-2.67c-0.92,0-1.68,0.5-2.24,1.51v2.2C88.04,223.09,88.99,223.51,89.96,223.51z
	 M95.01,221.2v-4c0-1.04-0.1-2.02-0.27-2.17c-0.18-0.17-0.42-0.29-0.8-0.39v-0.27l1.95-0.6h0.21c0.06,0.53,0.07,1.16,0.07,1.89v5.54
	c0.01,1.27,0.08,1.97,0.28,2.13c0.18,0.15,0.42,0.22,0.78,0.38V224h-3.29v-0.29c0.36-0.15,0.6-0.22,0.78-0.38
	C94.94,223.17,95,222.47,95.01,221.2z M101.01,224.17c-2.1,0-3.18-1.54-3.18-3.57c0-2.17,1.12-3.77,3.05-3.77
	c1.69,0,2.76,0.98,2.8,2.94l-0.14,0.14h-4.47c-0.13,2.17,0.63,3.22,2.25,3.22c1.06,0,1.95-0.45,2.53-1.68l0.41,0.15
	C103.83,223.09,102.74,224.17,101.01,224.17z M99.14,219.35h2.81c0.32,0,0.43-0.14,0.38-0.45c-0.15-0.73-0.62-1.39-1.48-1.39
	C99.95,217.52,99.32,218.11,99.14,219.35z M116.52,223.26c0.2,0.14,0.46,0.28,0.71,0.41V224H114v-0.34c0.49-0.18,0.81-0.32,0.9-0.46
	c0.06-0.1,0.01-0.31-0.2-0.87l-0.39-1.05h-4.14l-0.45,1.23c-0.14,0.36-0.2,0.56-0.14,0.67c0.06,0.14,0.46,0.29,1.04,0.48V224h-2.77
	v-0.34c0.25-0.11,0.5-0.22,0.69-0.36c0.14-0.1,0.29-0.43,0.49-0.94l2.86-7.55l-0.27-0.62h1.34l3.12,8.16
	C116.25,222.85,116.38,223.16,116.52,223.26z M112.22,215.68l-1.83,4.98h3.7L112.22,215.68z M122.06,216.83
	c1.75,0,2.9,1.43,2.9,3.54c0,2.46-1.18,3.79-3.22,3.79c-0.85,0-1.64-0.32-2.1-0.91v0.28c0,1.37,0.04,2.13,0.22,2.28
	c0.22,0.18,0.57,0.22,1.06,0.36v0.34h-3.47v-0.34c0.36-0.14,0.6-0.21,0.78-0.36c0.18-0.15,0.24-0.91,0.24-2.28v-3.35
	c0-0.97-0.1-1.41-0.24-1.76c-0.07-0.17-0.2-0.27-0.95-0.56v-0.24l1.78-0.73h0.2c0.11,0.53,0.18,1.08,0.22,1.61h0.15v0.01
	C120.14,217.31,120.95,216.83,122.06,216.83z M121.57,223.51c1.34,0,2.11-1.05,2.11-3.12c0-1.79-0.67-2.67-1.81-2.67
	c-0.92,0-1.68,0.5-2.24,1.51v2.2C119.65,223.09,120.6,223.51,121.57,223.51z M130.41,216.83c1.75,0,2.9,1.43,2.9,3.54
	c0,2.46-1.18,3.79-3.22,3.79c-0.85,0-1.64-0.32-2.1-0.91v0.28c0,1.37,0.04,2.13,0.22,2.28c0.22,0.18,0.57,0.22,1.06,0.36v0.34h-3.47
	v-0.34c0.36-0.14,0.6-0.21,0.78-0.36c0.18-0.15,0.24-0.91,0.24-2.28v-3.35c0-0.97-0.1-1.41-0.24-1.76c-0.07-0.17-0.2-0.27-0.95-0.56
	v-0.24l1.78-0.73h0.2c0.11,0.53,0.18,1.08,0.22,1.61h0.15v0.01C128.49,217.31,129.31,216.83,130.41,216.83z M129.92,223.51
	c1.34,0,2.11-1.05,2.11-3.12c0-1.79-0.67-2.67-1.81-2.67c-0.92,0-1.68,0.5-2.24,1.51v2.2C128,223.09,128.96,223.51,129.92,223.51z
	 M143.68,222.73h0.38c0,0.99-0.53,1.44-1.26,1.44c-0.84,0-1.27-0.5-1.27-1.47h-0.15c-0.55,0.98-1.3,1.47-2.25,1.47
	c-1.11,0-1.79-0.59-1.79-1.6c0-1.04,0.62-1.64,2.07-1.97l2.13-0.49v-0.67c0-1.02-0.34-1.68-1.54-1.68c-1.06,0-1.74,0.35-2.16,1.46
	h-0.42c0.17-1.4,1.06-2.38,2.69-2.38c1.61,0,2.55,0.81,2.55,2.24v2.55c0,1.36,0.07,1.82,0.46,1.82
	C143.4,223.44,143.61,223.2,143.68,222.73z M139.48,223.22c0.69,0,1.33-0.45,2.04-1.29v-1.27l-1.75,0.45
	c-0.81,0.21-1.22,0.63-1.22,1.3C138.55,222.91,138.89,223.22,139.48,223.22z M151.67,223.33c0.18,0.15,0.42,0.22,0.78,0.38V224
	h-3.29v-0.29c0.36-0.15,0.6-0.22,0.78-0.38c0.21-0.15,0.27-0.85,0.28-2.13v-1.75c0-1.02-0.35-1.67-1.54-1.67
	c-1.12,0-1.58,0.67-1.92,1.6v0.95l0.01,0.87c0.01,1.27,0.08,1.97,0.28,2.13c0.18,0.15,0.42,0.22,0.78,0.38V224h-3.29v-0.29
	c0.36-0.15,0.6-0.22,0.78-0.38c0.21-0.15,0.27-0.85,0.28-2.13l-0.01-1.08c0-0.97-0.1-1.41-0.24-1.76c-0.07-0.17-0.2-0.27-0.95-0.56
	v-0.24l1.78-0.73h0.2c0.11,0.53,0.18,1.08,0.22,1.61h0.14c0.32-0.92,0.99-1.61,2.28-1.61c1.46,0,2.34,0.88,2.34,2.21v2.16
	C151.41,222.47,151.48,223.17,151.67,223.33z M159.76,222.64c0.07,0.17,0.2,0.27,0.95,0.56v0.24l-1.78,0.73h-0.2
	c-0.11-0.53-0.18-1.08-0.22-1.61h-0.1c-0.43,1.06-1.23,1.61-2.38,1.61c-1.83,0-2.98-1.43-2.98-3.68c0-2.32,1.26-3.65,3.22-3.65
	c0.88,0,1.65,0.36,2.09,0.97v-0.53c0-1.04-0.1-2.02-0.27-2.17c-0.18-0.17-0.42-0.29-0.8-0.39v-0.27l1.95-0.6h0.21
	c0.06,0.53,0.07,1.16,0.07,1.89v5.15C159.52,221.84,159.62,222.29,159.76,222.64z M156.33,223.29c0.85,0,1.53-0.49,2.03-1.34v-2.17
	c0-1.68-0.92-2.34-1.89-2.34c-1.48,0-2.14,1.32-2.14,3C154.33,222.28,155.06,223.29,156.33,223.29z M171.6,222.64
	c-0.56,1.01-1.4,1.53-2.97,1.53c-2.73,0-4.2-1.9-4.2-4.97c0-3.23,1.69-5.17,4.51-5.17c0.84,0,1.46,0.11,1.82,0.11
	c0.28,0,0.67-0.04,0.99-0.11h0.21l0.24,2.93h-0.45c-0.36-0.67-0.64-1.18-0.85-1.44c-0.29-0.38-0.87-0.83-2-0.83
	c-2.09,0-3.12,1.68-3.12,4.4c0,2.62,1.12,4.17,3,4.17c1.75,0,2.83-0.91,2.83-2v-0.53c0-0.52-0.07-0.81-0.2-0.91
	c-0.22-0.15-0.52-0.25-0.98-0.39v-0.32h3.11v0.32c-0.31,0.14-0.49,0.25-0.66,0.39c-0.18,0.15-0.21,0.7-0.21,1.78V224h-0.6
	l-0.32-1.36H171.6z M177.87,224.17c-2.34,0-3.42-1.6-3.42-3.67s1.08-3.67,3.42-3.67c2.32,0,3.4,1.6,3.4,3.67
	S180.19,224.17,177.87,224.17z M177.87,223.57c1.26,0,2.13-1.18,2.13-3.07s-0.87-3.07-2.13-3.07c-1.27,0-2.14,1.18-2.14,3.07
	S176.59,223.57,177.87,223.57z M185.61,224.17c-2.34,0-3.42-1.6-3.42-3.67s1.08-3.67,3.42-3.67c2.32,0,3.4,1.6,3.4,3.67
	S187.93,224.17,185.61,224.17z M185.61,223.57c1.26,0,2.13-1.18,2.13-3.07s-0.87-3.07-2.13-3.07c-1.27,0-2.14,1.18-2.14,3.07
	S184.33,223.57,185.61,223.57z M196.22,216.87c0.46,0,0.77,0.2,0.77,0.57c0,0.36-0.24,0.52-0.52,0.52c-0.35,0-0.85-0.31-1.27-0.55
	l-0.2,0.07c0.52,0.46,0.78,1.12,0.78,1.85c0,1.37-0.92,2.48-2.72,2.51c-0.52,0.13-0.84,0.38-0.84,0.7c0,0.38,0.27,0.53,1.53,0.69
	c1.86,0.24,2.63,0.78,2.63,1.69c0,0.97-0.94,1.76-3.36,1.76c-2,0-3.22-0.55-3.22-1.62c0-0.94,0.85-1.43,1.86-1.43
	c0.1,0,0.27,0.01,0.39,0.01v-0.11c-0.81-0.14-1.02-0.48-1.02-0.8c0-0.46,0.41-0.78,1.22-0.97c-1.34-0.27-2.09-1.25-2.09-2.44
	c0-1.39,0.95-2.51,2.81-2.51c0.34,0,0.66,0.04,0.94,0.11C194.9,216.93,195.73,216.87,196.22,216.87z M192.98,221.31
	c0.98,0,1.58-0.67,1.58-1.97s-0.6-1.97-1.58-1.97c-0.99,0-1.6,0.67-1.6,1.97S191.99,221.31,192.98,221.31z M192.84,224.04
	c-1.34,0-1.82,0.34-1.82,1.09c0,0.7,0.67,0.99,1.97,0.99c1.34,0,2.16-0.39,2.16-1.08C195.15,224.5,194.79,224.04,192.84,224.04z
	 M198.45,221.2v-4c0-1.04-0.1-2.02-0.27-2.17c-0.18-0.17-0.42-0.29-0.8-0.39v-0.27l1.95-0.6h0.21c0.06,0.53,0.07,1.16,0.07,1.89
	v5.54c0.01,1.27,0.08,1.97,0.28,2.13c0.18,0.15,0.42,0.22,0.78,0.38V224h-3.29v-0.29c0.36-0.15,0.6-0.22,0.78-0.38
	C198.38,223.17,198.44,222.47,198.45,221.2z M204.45,224.17c-2.1,0-3.18-1.54-3.18-3.57c0-2.17,1.12-3.77,3.05-3.77
	c1.69,0,2.76,0.98,2.8,2.94l-0.14,0.14h-4.47c-0.13,2.17,0.63,3.22,2.25,3.22c1.06,0,1.95-0.45,2.53-1.68l0.41,0.15
	C207.27,223.09,206.18,224.17,204.45,224.17z M202.58,219.35h2.81c0.32,0,0.43-0.14,0.38-0.45c-0.15-0.73-0.62-1.39-1.48-1.39
	C203.39,217.52,202.76,218.11,202.58,219.35z M215.8,214.2c2.1,0,3.36,0.97,3.36,2.79c0,1.88-1.26,2.84-3.36,2.84h-1.88v1.19
	c0.03,1.37,0.06,2.13,0.24,2.28c0.22,0.18,0.57,0.22,1.06,0.36V224h-3.56v-0.34c0.36-0.14,0.6-0.21,0.78-0.36
	c0.18-0.15,0.21-0.91,0.24-2.28v-3.85c-0.03-1.37-0.06-2.1-0.24-2.25c-0.18-0.15-0.42-0.25-0.78-0.39v-0.32H215.8z M213.92,219.2
	h1.54c1.6,0,2.37-0.62,2.37-2.21c0-1.54-0.77-2.14-2.37-2.14h-1.53L213.92,219.2z M220.9,221.2v-4c0-1.04-0.1-2.02-0.27-2.17
	c-0.18-0.17-0.42-0.29-0.8-0.39v-0.27l1.95-0.6h0.21c0.06,0.53,0.07,1.16,0.07,1.89v5.54c0.01,1.27,0.08,1.97,0.28,2.13
	c0.18,0.15,0.42,0.22,0.78,0.38V224h-3.29v-0.29c0.36-0.15,0.6-0.22,0.78-0.38C220.83,223.17,220.89,222.47,220.9,221.2z
	 M230.27,222.73h0.38c0,0.99-0.53,1.44-1.26,1.44c-0.84,0-1.27-0.5-1.27-1.47h-0.15c-0.55,0.98-1.3,1.47-2.25,1.47
	c-1.11,0-1.79-0.59-1.79-1.6c0-1.04,0.62-1.64,2.07-1.97l2.13-0.49v-0.67c0-1.02-0.34-1.68-1.54-1.68c-1.06,0-1.74,0.35-2.16,1.46
	H224c0.17-1.4,1.06-2.38,2.69-2.38c1.61,0,2.55,0.81,2.55,2.24v2.55c0,1.36,0.07,1.82,0.46,1.82
	C229.99,223.44,230.21,223.2,230.27,222.73z M226.07,223.22c0.69,0,1.33-0.45,2.04-1.29v-1.27l-1.75,0.45
	c-0.81,0.21-1.22,0.63-1.22,1.3C225.15,222.91,225.49,223.22,226.07,223.22z M231.88,226.69c-0.83,0-1.18-0.38-1.18-0.83
	s0.28-0.7,0.64-0.7c0.62,0,0.62,0.62,1.13,0.62c0.43,0,0.76-0.35,1.12-1.05c0.22-0.41,0.2-0.76,0.03-1.19l-2.06-4.96
	c-0.18-0.45-0.31-0.74-0.42-0.83c-0.22-0.17-0.49-0.34-0.74-0.48V217h2.95v0.28c-0.36,0.14-0.67,0.34-0.71,0.46
	c-0.04,0.13-0.03,0.31,0.2,0.87l1.64,4.03l1.57-4.03c0.22-0.56,0.24-0.74,0.2-0.87c-0.04-0.13-0.35-0.32-0.77-0.46V217h2.46v0.28
	c-0.25,0.14-0.52,0.31-0.74,0.48c-0.11,0.08-0.24,0.38-0.42,0.83l-2.21,5.59C233.84,226,233.02,226.69,231.88,226.69z
	 M245.18,224.17c-1.46,0-2.25-0.21-3.37-0.83l0.32-2.23h0.39c0.2,0.74,0.41,1.23,0.63,1.58c0.24,0.36,0.91,0.83,2.07,0.83
	c1.47,0,2.32-0.95,2.32-2.11c0-1.04-0.71-1.53-2.41-2l-0.31-0.08c-2.03-0.59-2.87-1.41-2.87-2.79c0-1.44,1.16-2.51,3.29-2.51
	c0.8,0,1.41,0.11,1.78,0.11c0.29,0,0.69-0.04,1.01-0.11h0.2l0.24,2.91h-0.39c-0.39-0.67-0.66-1.12-0.88-1.44
	c-0.27-0.38-0.95-0.83-1.97-0.83c-1.37,0-2.03,0.63-2.03,1.64c0,0.95,0.55,1.37,2.32,1.9l0.49,0.15c2.04,0.6,2.83,1.53,2.83,2.74
	C248.83,222.89,247.4,224.17,245.18,224.17z M250.87,217.67h-1.25v-0.59l0.34-0.1c0.74-0.21,1.29-0.67,1.64-1.67h0.41V217h2.07v0.67
	h-2.07v3.89c0,1.16,0.32,1.69,1.16,1.69c0.81,0,1.19-0.49,1.47-1.12l0.41,0.15c-0.36,1.18-0.92,1.88-2.11,1.88
	c-1.25,0-2.11-0.55-2.1-2.21L250.87,217.67z M258.97,224.17c-2.34,0-3.42-1.6-3.42-3.67s1.08-3.67,3.42-3.67
	c2.32,0,3.4,1.6,3.4,3.67S261.29,224.17,258.97,224.17z M258.97,223.57c1.26,0,2.13-1.18,2.13-3.07s-0.87-3.07-2.13-3.07
	c-1.27,0-2.14,1.18-2.14,3.07S257.7,223.57,258.97,223.57z M267.62,216.83c0.81,0,1.16,0.31,1.16,0.81c0,0.43-0.24,0.71-0.6,0.71
	c-0.59,0-0.64-0.6-1.23-0.6s-1.25,0.56-1.51,1.5v1.95c0.01,1.27,0.08,1.97,0.28,2.13c0.18,0.15,0.42,0.22,0.78,0.38V224h-3.29v-0.29
	c0.36-0.15,0.6-0.22,0.78-0.38c0.21-0.15,0.27-0.85,0.28-2.13v-1.08c0-0.97-0.1-1.41-0.24-1.76c-0.07-0.17-0.2-0.27-0.95-0.56v-0.24
	l1.78-0.73h0.2c0.11,0.53,0.18,1.08,0.22,1.61h0.15C265.81,217.34,266.59,216.83,267.62,216.83z M272.4,224.17
	c-2.1,0-3.18-1.54-3.18-3.57c0-2.17,1.12-3.77,3.05-3.77c1.69,0,2.76,0.98,2.8,2.94l-0.14,0.14h-4.47
	c-0.13,2.17,0.63,3.22,2.25,3.22c1.06,0,1.95-0.45,2.53-1.68l0.41,0.15C275.22,223.09,274.13,224.17,272.4,224.17z M270.53,219.35
	h2.81c0.32,0,0.43-0.14,0.38-0.45c-0.15-0.73-0.62-1.39-1.48-1.39C271.34,217.52,270.71,218.11,270.53,219.35z M279.16,224.17
	c-1.44,0-2.65-0.83-2.65-1.67c0-0.36,0.2-0.59,0.55-0.59c0.34,0,0.59,0.21,0.78,0.66c0.36,0.76,0.59,1.04,1.36,1.04
	c0.85,0,1.43-0.57,1.43-1.4c0-0.73-0.5-1.04-1.79-1.46l-0.18-0.06c-1.33-0.42-2.02-1.08-2.02-2.03c0-1.15,0.91-1.83,2.41-1.83
	c1.48,0,2.65,0.7,2.65,1.55c0,0.35-0.22,0.57-0.62,0.57c-0.41,0-0.63-0.24-0.84-0.71c-0.27-0.56-0.6-0.84-1.27-0.84
	c-0.81,0-1.22,0.42-1.22,0.99c0,0.62,0.45,0.94,1.68,1.34l0.22,0.07c1.47,0.48,2.09,1.09,2.09,2.07
	C281.74,223.24,280.71,224.17,279.16,224.17z"/>
<path class="st2" d="M33.84,22.73c0.35,0.64,0.07,1.35-0.85,2.05c-3.75,2.9-4.6,5.73-4.6,7.36c0,0.85,0.35,1.2,0.85,1.2
	c0.5,0,0.92-0.28,1.98-0.28c2.05,0,3.33,1.49,3.33,3.61c0,3.04-2.19,4.81-4.96,4.81c-3.04,0-5.31-2.34-5.31-6.37
	c0-4.18,1.35-8.71,7.36-12.39C32.71,22.09,33.49,22.09,33.84,22.73z M46.58,22.73c0.35,0.64,0.07,1.35-0.85,2.05
	c-3.75,2.9-4.6,5.73-4.6,7.36c0,0.85,0.35,1.2,0.85,1.2c0.5,0,0.92-0.28,1.98-0.28c2.05,0,3.33,1.49,3.33,3.61
	c0,3.04-2.19,4.81-4.96,4.81c-3.04,0-5.31-2.34-5.31-6.37c0-4.18,1.35-8.71,7.36-12.39C45.45,22.09,46.23,22.09,46.58,22.73z"/>
<path class="st2" d="M37.92,149l3.29,7.39l8.05,0.85l-6.01,5.42l1.68,7.91l-7.01-4.04l-7.01,4.04l1.68-7.91l-6.01-5.42l8.05-0.85
	L37.92,149z"/>
<path class="st2" d="M63.94,149l3.29,7.39l8.05,0.85l-6.01,5.42l1.68,7.91l-7.01-4.04l-7.01,4.04l1.68-7.91l-6.01-5.42l8.05-0.85
	L63.94,149z"/>
<path class="st2" d="M89.95,149l3.29,7.39l8.05,0.85l-6.01,5.42l1.68,7.91l-7.01-4.04l-7.01,4.04l1.68-7.91l-6.01-5.42l8.05-0.85
	L89.95,149z"/>
<path class="st2" d="M117.3,149l3.29,7.39l8.05,0.85l-6.01,5.42l1.68,7.91l-7.01-4.04l-7.01,4.04l1.68-7.91l-6.01-5.42l8.05-0.85
	L117.3,149z"/>
<path class="st2" d="M143.32,149l3.29,7.39l8.05,0.85l-6.01,5.42l1.68,7.91l-7.01-4.04l-7.01,4.04l1.68-7.91l-6.01-5.42l8.05-0.85
	L143.32,149z"/>
</svg>
