<?xml version="1.0" encoding="utf-8"?>
<!-- Generator: Adobe Illustrator 26.5.0, SVG Export Plug-In . SVG Version: 6.00 Build 0)  -->
<svg version="1.1" id="Layer_1" xmlns="http://www.w3.org/2000/svg" xmlns:xlink="http://www.w3.org/1999/xlink" x="0px" y="0px"
	 viewBox="0 0 45.08 22.52" style="enable-background:new 0 0 45.08 22.52;" xml:space="preserve">
<style type="text/css">
	.st0{fill:#0D4029;}
</style>
<path class="st0" d="M7.58,22.52c0-4.77,0-9.56,0-14.32c0-0.79,0-0.79-0.82-0.79c-2.04,0-4.09-0.02-6.11,0C0.14,7.4,0,7.24,0,6.72
	c0.02-2.07,0.02-4.11,0-6.17C0,0.14,0.11,0,0.54,0c7.13,0.02,14.28,0.02,21.41,0c0.39,0,0.52,0.11,0.52,0.52c0,2.11,0,4.22,0,6.33
	c0,0.45-0.18,0.54-0.57,0.54c-2.07,0-4.15,0-6.22,0c-0.73,0-0.73,0-0.73,0.75c0,4.59,0,9.19,0,13.78c0,0.2,0.02,0.39,0.05,0.59
	C12.53,22.52,10.06,22.52,7.58,22.52z"/>
<path class="st0" d="M22.63,22.52c0-4.72,0-9.44,0-14.16c0-0.77,0-0.77,0.77-0.77c1.95,0,3.9,0,5.86,0c0.75,0,0.75,0,0.75,0.77
	c0,1.97,0,3.97,0,5.95c0,0.77,0,0.79,0.82,0.79c4.47,0,8.94,0,13.42,0c0.82,0,0.82,0,0.82,0.82c0,2.2,0.02,4.4,0.02,6.61
	C37.59,22.52,30.1,22.52,22.63,22.52z"/>
<path class="st0" d="M44.47,0c-2.27,0.02-4.54,0-6.81,0c-2.32,0-4.61,0-6.92,0c-0.43,0-0.59,0.11-0.59,0.57
	c0.02,2.07,0.02,4.15,0,6.22c0,0.43,0.11,0.59,0.57,0.59c4.59-0.02,9.15-0.02,13.73,0c0.45,0,0.59-0.14,0.59-0.59
	c-0.02-2.07-0.02-4.15,0-6.22C45.04,0.14,44.92,0,44.47,0z"/>
</svg>
