<svg width="297" height="77" viewBox="0 0 297 77" fill="none" xmlns="http://www.w3.org/2000/svg">
<rect width="297" height="77" rx="10.2404" fill="white"/>
<path d="M67.6496 25.5975C67.6496 25.5975 67.8202 24.6522 68.0828 23.4706L69.2513 18.5342H71.365L68.7261 28H66.4286L65.1945 23.208C64.9057 22.0265 64.735 21.0943 64.735 21.0943C64.735 21.0943 64.5381 22.0265 64.2361 23.208L62.9758 28H60.7176L58.0525 18.5342H60.245L61.4266 23.4706C61.7023 24.6522 61.8467 25.5975 61.8467 25.5975C61.8467 25.5975 62.0174 24.6522 62.2931 23.4706L63.4747 18.5342H66.0347L67.2163 23.4706C67.4789 24.6522 67.6496 25.5975 67.6496 25.5975ZM73.7765 28.105C72.3717 28.105 71.3739 27.2517 71.3739 26.1226C71.3739 24.9016 72.2273 24.1664 73.7765 23.9695L75.0368 23.7988C75.3519 23.7463 75.5226 23.5625 75.5226 23.2999C75.5226 22.8929 75.1025 22.5385 74.4066 22.5385C73.7765 22.5385 73.2513 22.8929 73.2251 23.51H71.3739C71.5446 22.0265 72.6605 21.0812 74.4066 21.0812C76.284 21.0812 77.4525 22.1446 77.4525 23.8776V25.9125C77.4525 26.2539 77.5706 26.4639 77.8463 26.4639C77.9382 26.4639 78.0827 26.4377 78.0827 26.4377V28C78.0827 28 77.6232 28.0919 77.1505 28.0919C76.4416 28.0919 75.9296 27.7768 75.8245 27.2123C75.5488 27.7637 74.7742 28.105 73.7765 28.105ZM74.1178 26.6871C75.0368 26.6871 75.5882 25.9651 75.5882 25.1248V24.9804L74.1047 25.2299C73.5401 25.3218 73.2644 25.5975 73.2644 26.0176C73.2644 26.3852 73.5795 26.6871 74.1178 26.6871ZM83.1595 21.1862H85.0894L82.293 28.4464C81.9516 29.326 81.2427 30.5601 79.444 30.5601C79.1027 30.5601 78.7482 30.4944 78.42 30.3894V28.7615C78.42 28.7615 78.7613 28.919 79.1815 28.919C79.8642 28.919 80.258 28.6696 80.6256 27.698L77.9736 21.1862H80.1005L81.5971 25.2036L83.1595 21.1862ZM92.3402 21.1862V22.7748H90.8173V25.4924C90.8173 26.1095 91.2111 26.4639 91.7363 26.4639C91.9332 26.4639 92.1564 26.4246 92.3402 26.372V28.0131C92.117 28.0656 91.8282 28.105 91.4606 28.105C89.9902 28.105 88.8873 27.3304 88.8873 25.7156V22.7748H87.7845V21.1862H88.8873V19.2038H90.8173V21.1862H92.3402ZM96.5841 28.105C94.5229 28.105 93.0525 26.6084 93.0525 24.5865C93.0525 22.5779 94.5229 21.0812 96.5841 21.0812C98.6322 21.0812 100.129 22.5647 100.129 24.5865C100.129 26.6215 98.6322 28.105 96.5841 28.105ZM96.5841 26.4639C97.5294 26.4639 98.1727 25.6894 98.1727 24.5865C98.1727 23.4837 97.5163 22.7223 96.5841 22.7223C95.6126 22.7223 94.9956 23.4969 94.9956 24.5865C94.9956 25.6894 95.6126 26.4639 96.5841 26.4639ZM106.302 28.105C104.897 28.105 103.899 27.2517 103.899 26.1226C103.899 24.9016 104.753 24.1664 106.302 23.9695L107.562 23.7988C107.877 23.7463 108.048 23.5625 108.048 23.2999C108.048 22.8929 107.628 22.5385 106.932 22.5385C106.302 22.5385 105.777 22.8929 105.75 23.51H103.899C104.07 22.0265 105.186 21.0812 106.932 21.0812C108.809 21.0812 109.978 22.1446 109.978 23.8776V25.9125C109.978 26.2539 110.096 26.4639 110.372 26.4639C110.463 26.4639 110.608 26.4377 110.608 26.4377V28C110.608 28 110.148 28.0919 109.676 28.0919C108.967 28.0919 108.455 27.7768 108.35 27.2123C108.074 27.7637 107.299 28.105 106.302 28.105ZM106.643 26.6871C107.562 26.6871 108.113 25.9651 108.113 25.1248V24.9804L106.63 25.2299C106.065 25.3218 105.79 25.5975 105.79 26.0176C105.79 26.3852 106.105 26.6871 106.643 26.6871ZM113.071 28L110.59 21.1862H112.52L113.951 25.7681L115.369 21.1862H117.299L114.831 28H113.071ZM121.11 28.105C119.048 28.105 117.578 26.6084 117.578 24.5865C117.578 22.5779 119.048 21.0812 121.11 21.0812C123.158 21.0812 124.654 22.5647 124.654 24.5865C124.654 26.6215 123.158 28.105 121.11 28.105ZM121.11 26.4639C122.055 26.4639 122.698 25.6894 122.698 24.5865C122.698 23.4837 122.042 22.7223 121.11 22.7223C120.138 22.7223 119.521 23.4969 119.521 24.5865C119.521 25.6894 120.138 26.4639 121.11 26.4639ZM125.887 28V21.1862H127.803V28H125.887ZM125.847 18.4292H127.882V20.3066H125.847V18.4292ZM132.321 28.105C130.326 28.105 129.065 26.7134 129.065 24.5865C129.065 22.4597 130.339 21.0812 132.295 21.0812C133.109 21.0812 133.779 21.3832 134.159 21.8558V18.4292H136.076V28H134.159V27.3042C133.831 27.7637 133.148 28.105 132.321 28.105ZM132.636 26.4639C133.608 26.4639 134.264 25.7156 134.264 24.5865C134.264 23.4706 133.608 22.7223 132.636 22.7223C131.665 22.7223 131.022 23.4706 131.022 24.5865C131.022 25.7025 131.665 26.4639 132.636 26.4639ZM143.595 28.105C141.586 28.105 140.155 26.6609 140.155 24.5865C140.155 22.5253 141.586 21.0812 143.595 21.0812C145.367 21.0812 146.641 21.9871 146.877 23.7726H144.986C144.881 23.1686 144.33 22.7223 143.647 22.7223C142.715 22.7223 142.098 23.4575 142.098 24.5865C142.098 25.7287 142.728 26.4639 143.647 26.4639C144.343 26.4639 144.842 26.0307 144.973 25.3874H146.851C146.601 27.2254 145.341 28.105 143.595 28.105ZM150.141 28.105C148.736 28.105 147.739 27.2517 147.739 26.1226C147.739 24.9016 148.592 24.1664 150.141 23.9695L151.402 23.7988C151.717 23.7463 151.887 23.5625 151.887 23.2999C151.887 22.8929 151.467 22.5385 150.771 22.5385C150.141 22.5385 149.616 22.8929 149.59 23.51H147.739C147.909 22.0265 149.025 21.0812 150.771 21.0812C152.649 21.0812 153.817 22.1446 153.817 23.8776V25.9125C153.817 26.2539 153.935 26.4639 154.211 26.4639C154.303 26.4639 154.447 26.4377 154.447 26.4377V28C154.447 28 153.988 28.0919 153.515 28.0919C152.806 28.0919 152.294 27.7768 152.189 27.2123C151.914 27.7637 151.139 28.105 150.141 28.105ZM150.483 26.6871C151.402 26.6871 151.953 25.9651 151.953 25.1248V24.9804L150.469 25.2299C149.905 25.3218 149.629 25.5975 149.629 26.0176C149.629 26.3852 149.944 26.6871 150.483 26.6871ZM158.083 28.105C156.31 28.105 155.116 27.1073 155.05 25.5975H156.796C156.835 26.0701 157.348 26.5821 158.083 26.5821C158.66 26.5821 159.08 26.3458 159.08 25.9651C159.08 25.6762 158.844 25.4793 158.424 25.3874L157.426 25.1905C156.402 24.9804 155.365 24.4815 155.365 23.0505C155.365 22.0002 156.323 21.0812 157.925 21.0812C159.409 21.0812 160.603 21.882 160.774 23.2868H159.028C158.949 22.7617 158.398 22.5122 157.925 22.5122C157.479 22.5122 157.137 22.7091 157.137 23.0505C157.137 23.3525 157.413 23.5363 157.82 23.615L158.818 23.812C159.947 24.022 160.905 24.4684 160.905 25.9257C160.905 27.0941 159.776 28.105 158.083 28.105ZM162.13 28V18.4292H164.047V22.1184C164.48 21.4882 165.228 21.0812 166.147 21.0812C167.657 21.0812 168.655 22.0527 168.655 23.5494V28H166.738V24.0483C166.738 23.2999 166.266 22.7879 165.543 22.7879C164.572 22.7879 164.047 23.5888 164.047 25.0198V28H162.13ZM175.93 28.105C173.934 28.105 172.674 26.7134 172.674 24.5865C172.674 22.4597 173.948 21.0812 175.904 21.0812C176.718 21.0812 177.387 21.3832 177.768 21.8558V18.4292H179.685V28H177.768V27.3042C177.44 27.7637 176.757 28.105 175.93 28.105ZM176.245 26.4639C177.217 26.4639 177.873 25.7156 177.873 24.5865C177.873 23.4706 177.217 22.7223 176.245 22.7223C175.274 22.7223 174.63 23.4706 174.63 24.5865C174.63 25.7025 175.274 26.4639 176.245 26.4639ZM180.924 24.5865C180.924 22.8929 181.948 21.0812 184.272 21.0812C186.661 21.0812 187.698 22.8798 187.698 24.4553C187.698 24.7703 187.672 25.0986 187.672 25.0986H182.827C182.985 26.0044 183.576 26.5033 184.455 26.5033C185.112 26.5033 185.598 26.2145 185.742 25.7287H187.659C187.449 27.2254 186.162 28.105 184.39 28.105C182.066 28.105 180.924 26.2933 180.924 24.5865ZM182.867 23.7201H185.624C185.571 23.0111 185.099 22.5122 184.272 22.5122C183.55 22.5122 183.051 22.9323 182.867 23.7201ZM188.95 30.4551V21.1862H190.867V21.882C191.261 21.3963 191.944 21.0812 192.797 21.0812C194.688 21.0812 195.974 22.4728 195.974 24.5865C195.974 26.7134 194.583 28.105 192.64 28.105C191.865 28.105 191.235 27.8556 190.867 27.4486V30.4551H188.95ZM192.403 26.4639C193.362 26.4639 194.018 25.7156 194.018 24.5865C194.018 23.4706 193.362 22.7223 192.403 22.7223C191.419 22.7223 190.762 23.4706 190.762 24.5865C190.762 25.7156 191.419 26.4639 192.403 26.4639ZM200.443 28.105C198.381 28.105 196.911 26.6084 196.911 24.5865C196.911 22.5779 198.381 21.0812 200.443 21.0812C202.491 21.0812 203.987 22.5647 203.987 24.5865C203.987 26.6215 202.491 28.105 200.443 28.105ZM200.443 26.4639C201.388 26.4639 202.031 25.6894 202.031 24.5865C202.031 23.4837 201.375 22.7223 200.443 22.7223C199.471 22.7223 198.854 23.4969 198.854 24.5865C198.854 25.6894 199.471 26.4639 200.443 26.4639ZM207.846 28.105C206.073 28.105 204.878 27.1073 204.813 25.5975H206.559C206.598 26.0701 207.11 26.5821 207.846 26.5821C208.423 26.5821 208.843 26.3458 208.843 25.9651C208.843 25.6762 208.607 25.4793 208.187 25.3874L207.189 25.1905C206.165 24.9804 205.128 24.4815 205.128 23.0505C205.128 22.0002 206.086 21.0812 207.688 21.0812C209.171 21.0812 210.366 21.882 210.537 23.2868H208.791C208.712 22.7617 208.161 22.5122 207.688 22.5122C207.242 22.5122 206.9 22.7091 206.9 23.0505C206.9 23.3525 207.176 23.5363 207.583 23.615L208.581 23.812C209.71 24.022 210.668 24.4684 210.668 25.9257C210.668 27.0941 209.539 28.105 207.846 28.105ZM211.893 28V21.1862H213.81V28H211.893ZM211.853 18.4292H213.888V20.3066H211.853V18.4292ZM219.391 21.1862V22.7748H217.868V25.4924C217.868 26.1095 218.262 26.4639 218.787 26.4639C218.984 26.4639 219.207 26.4246 219.391 26.372V28.0131C219.168 28.0656 218.879 28.105 218.511 28.105C217.041 28.105 215.938 27.3304 215.938 25.7156V22.7748H214.835V21.1862H215.938V19.2038H217.868V21.1862H219.391ZM224.03 28V22.7748H222.927V21.1862H224.03V20.6479C224.03 19.0331 225.133 18.2585 226.59 18.2585C226.892 18.2585 227.207 18.2848 227.47 18.3504V19.9784C227.286 19.9259 227.076 19.8996 226.853 19.8996C226.367 19.8996 225.934 20.241 225.934 20.8711V21.1862H227.47V22.7748H225.934V28H224.03ZM227.949 24.5865C227.949 22.8929 228.973 21.0812 231.297 21.0812C233.686 21.0812 234.723 22.8798 234.723 24.4553C234.723 24.7703 234.697 25.0986 234.697 25.0986H229.853C230.01 26.0044 230.601 26.5033 231.481 26.5033C232.137 26.5033 232.623 26.2145 232.767 25.7287H234.684C234.474 27.2254 233.187 28.105 231.415 28.105C229.091 28.105 227.949 26.2933 227.949 24.5865ZM229.892 23.7201H232.649C232.597 23.0111 232.124 22.5122 231.297 22.5122C230.575 22.5122 230.076 22.9323 229.892 23.7201ZM235.661 24.5865C235.661 22.8929 236.685 21.0812 239.008 21.0812C241.398 21.0812 242.435 22.8798 242.435 24.4553C242.435 24.7703 242.409 25.0986 242.409 25.0986H237.564C237.722 26.0044 238.313 26.5033 239.192 26.5033C239.849 26.5033 240.334 26.2145 240.479 25.7287H242.396C242.186 27.2254 240.899 28.105 239.127 28.105C236.803 28.105 235.661 26.2933 235.661 24.5865ZM237.604 23.7201H240.361C240.308 23.0111 239.836 22.5122 239.008 22.5122C238.286 22.5122 237.787 22.9323 237.604 23.7201ZM246.313 28.105C244.541 28.105 243.346 27.1073 243.28 25.5975H245.026C245.066 26.0701 245.578 26.5821 246.313 26.5821C246.891 26.5821 247.311 26.3458 247.311 25.9651C247.311 25.6762 247.074 25.4793 246.654 25.3874L245.657 25.1905C244.633 24.9804 243.595 24.4815 243.595 23.0505C243.595 22.0002 244.554 21.0812 246.155 21.0812C247.639 21.0812 248.834 21.882 249.004 23.2868H247.258C247.18 22.7617 246.628 22.5122 246.155 22.5122C245.709 22.5122 245.368 22.7091 245.368 23.0505C245.368 23.3525 245.643 23.5363 246.05 23.615L247.048 23.812C248.177 24.022 249.136 24.4684 249.136 25.9257C249.136 27.0941 248.007 28.105 246.313 28.105ZM250.675 24.9673L250.295 18.5342H252.592L252.225 24.9673H250.675ZM250.439 26.057H252.474V28H250.439V26.057ZM61.4135 43V39.0614L58.1313 33.5342H59.7855L62.1749 37.6041L64.6037 33.5342H66.2448L62.9364 39.0614V43H61.4135ZM68.9038 43.105C66.8951 43.105 65.4772 41.6215 65.4772 39.5865C65.4772 37.5647 66.8951 36.0812 68.9038 36.0812C70.8731 36.0812 72.3304 37.5516 72.3304 39.5865C72.3304 41.6346 70.8731 43.105 68.9038 43.105ZM68.9038 41.8578C70.0591 41.8578 70.8599 40.9125 70.8599 39.5865C70.8599 38.2606 70.046 37.3284 68.9038 37.3284C67.7091 37.3284 66.9345 38.2737 66.9345 39.5865C66.9345 40.9125 67.7091 41.8578 68.9038 41.8578ZM79.8404 36.1862V43H78.4093V41.8447C77.9367 42.6193 77.1227 43.105 76.1512 43.105C74.7071 43.105 73.6961 42.1466 73.6961 40.6762V36.1862H75.1272V40.3611C75.1272 41.2145 75.6654 41.8184 76.5319 41.8184C77.7004 41.8184 78.4093 40.8206 78.4093 39.1796V36.1862H79.8404ZM87.0751 43.105C85.3684 43.105 84.2262 42.0941 84.1605 40.6894H85.5653C85.6047 41.2801 86.1823 41.8709 87.0751 41.8709C87.8234 41.8709 88.3354 41.5165 88.3354 41.0438C88.3354 40.5843 88.0072 40.3611 87.4952 40.243L86.3661 39.9804C85.3684 39.7572 84.4625 39.2715 84.4625 37.998C84.4625 36.9346 85.434 36.0812 86.9438 36.0812C88.3879 36.0812 89.4908 36.882 89.6614 38.1949H88.2567C88.1779 37.591 87.5871 37.2496 86.9438 37.2496C86.3267 37.2496 85.8935 37.5385 85.8935 37.998C85.8935 38.3656 86.2086 38.6019 86.6943 38.7201L87.8234 38.9695C88.9131 39.2058 89.7927 39.6391 89.7927 41.0044C89.7927 42.186 88.7162 43.105 87.0751 43.105ZM93.1861 43.105C91.8076 43.105 90.836 42.3042 90.836 41.1489C90.836 39.9673 91.6894 39.2321 93.1729 39.0351L94.6302 38.8382C95.0241 38.7857 95.221 38.6019 95.221 38.2737C95.221 37.6829 94.6827 37.2234 93.79 37.2234C92.9629 37.2234 92.359 37.6435 92.2933 38.405H90.8885C91.0461 36.9871 92.1358 36.0812 93.79 36.0812C95.5361 36.0812 96.652 37.079 96.652 38.6019V41.3064C96.652 41.7003 96.8227 41.8447 97.0984 41.8447C97.1903 41.8447 97.3216 41.8184 97.3216 41.8184V43C97.3216 43 96.9803 43.0788 96.652 43.0788C95.9431 43.0788 95.4442 42.7374 95.3917 42.0022C95.0635 42.6849 94.2101 43.105 93.1861 43.105ZM93.4093 41.9891C94.5777 41.9891 95.2604 41.1751 95.2604 40.0067V39.7572L93.4093 40.0592C92.6478 40.1773 92.2671 40.5187 92.2671 41.0963C92.2671 41.6215 92.7266 41.9891 93.4093 41.9891ZM99.9962 43L97.5017 36.1862H98.959L100.692 41.3589L102.438 36.1862H103.869L101.388 43H99.9962ZM104.374 39.5865C104.374 37.7485 105.517 36.0812 107.67 36.0812C109.783 36.0812 110.899 37.6566 110.886 39.3502C110.886 39.6128 110.86 39.9279 110.86 39.9279H105.792C105.924 41.1751 106.672 41.8841 107.775 41.8841C108.615 41.8841 109.285 41.4902 109.442 40.7944H110.847C110.611 42.2779 109.363 43.105 107.735 43.105C105.582 43.105 104.374 41.4377 104.374 39.5865ZM105.858 38.7988H109.35C109.285 37.8798 108.694 37.2103 107.67 37.2103C106.711 37.2103 106.068 37.801 105.858 38.7988ZM115.227 43.105C113.179 43.105 111.971 41.6346 111.971 39.5865C111.971 37.5385 113.192 36.0812 115.201 36.0812C116.067 36.0812 116.868 36.4751 117.275 37.0527V33.4292H118.706V43H117.275V42.1204C116.973 42.6718 116.159 43.105 115.227 43.105ZM115.411 41.8578C116.579 41.8578 117.38 40.9519 117.38 39.5865C117.38 38.2212 116.579 37.3284 115.411 37.3284C114.229 37.3284 113.441 38.2212 113.441 39.5865C113.441 40.9388 114.229 41.8578 115.411 41.8578ZM126.013 44.4179V43.0394C124.398 42.7637 123.216 41.5952 123.098 39.8754H124.608C124.687 40.9388 125.619 41.7528 126.787 41.7528C127.929 41.7528 128.678 41.2145 128.678 40.4005C128.678 39.6653 128.153 39.2583 127.431 39.0483L125.803 38.5756C124.529 38.2212 123.466 37.5779 123.466 35.963C123.466 34.6502 124.49 33.7049 126.013 33.4817V32.2345H127.339V33.4686C128.927 33.6786 130.004 34.6633 130.122 36.16H128.612C128.481 35.3722 127.798 34.7683 126.708 34.7683C125.658 34.7683 125.028 35.2147 125.028 35.9499C125.028 36.6063 125.501 36.9346 126.196 37.1315L127.851 37.6041C129.164 37.9717 130.24 38.615 130.24 40.3611C130.24 41.8709 129.111 42.9081 127.339 43.0788V44.4179H126.013ZM134.986 33.4292C137.323 33.4292 138.57 35.3197 138.57 37.7748C138.57 41.1095 137.008 43.105 134.763 43.105C133.2 43.105 131.69 42.3304 131.507 40.4137H133.056C133.095 41.1357 133.712 41.779 134.763 41.779C136.246 41.779 137.06 40.3349 137.113 38.4575C136.706 39.2321 135.826 39.7966 134.71 39.7966C132.885 39.7966 131.493 38.4575 131.493 36.6195C131.493 34.7158 132.951 33.4292 134.986 33.4292ZM134.959 34.7552C133.857 34.7552 133.056 35.556 133.056 36.672C133.056 37.7748 133.857 38.5756 134.959 38.5756C136.062 38.5756 136.876 37.7748 136.876 36.672C136.876 35.556 136.062 34.7552 134.959 34.7552ZM139.515 41.3852H141.169V43H139.515V41.3852ZM145.986 33.4292C148.322 33.4292 149.57 35.3197 149.57 37.7748C149.57 41.1095 148.007 43.105 145.762 43.105C144.2 43.105 142.69 42.3304 142.506 40.4137H144.056C144.095 41.1357 144.712 41.779 145.762 41.779C147.246 41.779 148.06 40.3349 148.112 38.4575C147.705 39.2321 146.826 39.7966 145.71 39.7966C143.885 39.7966 142.493 38.4575 142.493 36.6195C142.493 34.7158 143.951 33.4292 145.986 33.4292ZM145.959 34.7552C144.857 34.7552 144.056 35.556 144.056 36.672C144.056 37.7748 144.857 38.5756 145.959 38.5756C147.062 38.5756 147.876 37.7748 147.876 36.672C147.876 35.556 147.062 34.7552 145.959 34.7552ZM154.625 43.105C152.249 43.105 150.91 41.162 150.91 38.2606C150.91 35.3722 152.249 33.4292 154.625 33.4292C157.015 33.4292 158.354 35.3591 158.354 38.2606C158.354 41.1751 157.015 43.105 154.625 43.105ZM154.625 41.7528C156.056 41.7528 156.805 40.4005 156.805 38.2606C156.805 36.1337 156.056 34.7683 154.625 34.7683C153.22 34.7683 152.472 36.1206 152.472 38.2606C152.472 40.4137 153.22 41.7528 154.625 41.7528ZM166.42 43.105C165.475 43.105 164.674 42.6718 164.359 42.1204V43H162.928V33.4292H164.359V37.0527C164.766 36.4751 165.58 36.0812 166.433 36.0812C168.455 36.0812 169.663 37.5385 169.663 39.5865C169.663 41.6346 168.468 43.105 166.42 43.105ZM166.223 41.8578C167.418 41.8578 168.206 40.9388 168.206 39.5865C168.206 38.2212 167.418 37.3284 166.223 37.3284C165.055 37.3284 164.254 38.2212 164.254 39.5865C164.254 40.9519 165.055 41.8578 166.223 41.8578ZM170.72 39.5865C170.72 37.7485 171.863 36.0812 174.016 36.0812C176.129 36.0812 177.245 37.6566 177.232 39.3502C177.232 39.6128 177.206 39.9279 177.206 39.9279H172.138C172.27 41.1751 173.018 41.8841 174.121 41.8841C174.961 41.8841 175.631 41.4902 175.788 40.7944H177.193C176.957 42.2779 175.709 43.105 174.081 43.105C171.928 43.105 170.72 41.4377 170.72 39.5865ZM172.204 38.7988H175.696C175.631 37.8798 175.04 37.2103 174.016 37.2103C173.057 37.2103 172.414 37.801 172.204 38.7988ZM181.678 43.105C179.695 43.105 178.317 41.6871 178.317 39.5865C178.317 37.4991 179.695 36.0812 181.678 36.0812C183.293 36.0812 184.514 36.9608 184.75 38.6413H183.345C183.201 37.8667 182.544 37.3284 181.704 37.3284C180.536 37.3284 179.774 38.2212 179.774 39.5865C179.774 40.9651 180.549 41.8578 181.704 41.8578C182.557 41.8578 183.188 41.3589 183.345 40.4924H184.75C184.474 42.2648 183.279 43.105 181.678 43.105ZM188.083 43.105C186.705 43.105 185.733 42.3042 185.733 41.1489C185.733 39.9673 186.587 39.2321 188.07 39.0351L189.527 38.8382C189.921 38.7857 190.118 38.6019 190.118 38.2737C190.118 37.6829 189.58 37.2234 188.687 37.2234C187.86 37.2234 187.256 37.6435 187.191 38.405H185.786C185.943 36.9871 187.033 36.0812 188.687 36.0812C190.433 36.0812 191.549 37.079 191.549 38.6019V41.3064C191.549 41.7003 191.72 41.8447 191.996 41.8447C192.088 41.8447 192.219 41.8184 192.219 41.8184V43C192.219 43 191.877 43.0788 191.549 43.0788C190.84 43.0788 190.341 42.7374 190.289 42.0022C189.961 42.6849 189.107 43.105 188.083 43.105ZM188.306 41.9891C189.475 41.9891 190.158 41.1751 190.158 40.0067V39.7572L188.306 40.0592C187.545 40.1773 187.164 40.5187 187.164 41.0963C187.164 41.6215 187.624 41.9891 188.306 41.9891ZM199.507 36.1862V43H198.076V41.8447C197.603 42.6193 196.789 43.105 195.817 43.105C194.373 43.105 193.362 42.1466 193.362 40.6762V36.1862H194.793V40.3611C194.793 41.2145 195.332 41.8184 196.198 41.8184C197.367 41.8184 198.076 40.8206 198.076 39.1796V36.1862H199.507ZM203.748 43.105C202.041 43.105 200.899 42.0941 200.833 40.6894H202.238C202.278 41.2801 202.855 41.8709 203.748 41.8709C204.496 41.8709 205.008 41.5165 205.008 41.0438C205.008 40.5843 204.68 40.3611 204.168 40.243L203.039 39.9804C202.041 39.7572 201.135 39.2715 201.135 37.998C201.135 36.9346 202.107 36.0812 203.617 36.0812C205.061 36.0812 206.164 36.882 206.334 38.1949H204.93C204.851 37.591 204.26 37.2496 203.617 37.2496C203 37.2496 202.566 37.5385 202.566 37.998C202.566 38.3656 202.881 38.6019 203.367 38.7201L204.496 38.9695C205.586 39.2058 206.466 39.6391 206.466 41.0044C206.466 42.186 205.389 43.105 203.748 43.105ZM207.509 39.5865C207.509 37.7485 208.651 36.0812 210.804 36.0812C212.918 36.0812 214.034 37.6566 214.021 39.3502C214.021 39.6128 213.994 39.9279 213.994 39.9279H208.927C209.058 41.1751 209.806 41.8841 210.909 41.8841C211.749 41.8841 212.419 41.4902 212.577 40.7944H213.981C213.745 42.2779 212.498 43.105 210.87 43.105C208.717 43.105 207.509 41.4377 207.509 39.5865ZM208.992 38.7988H212.485C212.419 37.8798 211.828 37.2103 210.804 37.2103C209.846 37.2103 209.202 37.801 208.992 38.7988ZM61.6629 58.105C59.6148 58.105 58.407 56.6346 58.407 54.5865C58.407 52.5385 59.628 51.0812 61.6366 51.0812C62.5031 51.0812 63.304 51.4751 63.711 52.0527V48.4292H65.142V58H63.711V57.1204C63.409 57.6718 62.595 58.105 61.6629 58.105ZM61.8467 56.8578C63.0152 56.8578 63.816 55.9519 63.816 54.5865C63.816 53.2212 63.0152 52.3284 61.8467 52.3284C60.6651 52.3284 59.8774 53.2212 59.8774 54.5865C59.8774 55.9388 60.6651 56.8578 61.8467 56.8578ZM66.567 54.5865C66.567 52.7485 67.7092 51.0812 69.8623 51.0812C71.976 51.0812 73.0919 52.6566 73.0788 54.3502C73.0788 54.6128 73.0525 54.9279 73.0525 54.9279H67.9849C68.1162 56.1751 68.8645 56.8841 69.9673 56.8841C70.8075 56.8841 71.4771 56.4902 71.6346 55.7944H73.0394C72.8031 57.2779 71.5559 58.105 69.9279 58.105C67.7748 58.105 66.567 56.4377 66.567 54.5865ZM68.0505 53.7988H71.5427C71.4771 52.8798 70.8863 52.2103 69.8623 52.2103C68.9039 52.2103 68.2606 52.801 68.0505 53.7988ZM74.531 60.4551V51.1862H75.9621V52.0658C76.3297 51.5013 77.1568 51.0812 78.0758 51.0812C80.0713 51.0812 81.2792 52.5516 81.2792 54.5865C81.2792 56.6346 80.0057 58.105 77.9839 58.105C77.1699 58.105 76.3822 57.7374 75.9621 57.1992V60.4551H74.531ZM77.8395 56.8578C79.021 56.8578 79.8088 55.9519 79.8088 54.5865C79.8088 53.2212 79.021 52.3284 77.8395 52.3284C76.6579 52.3284 75.8702 53.2212 75.8702 54.5865C75.8702 55.9519 76.6579 56.8578 77.8395 56.8578ZM85.75 58.105C83.7413 58.105 82.3234 56.6215 82.3234 54.5865C82.3234 52.5647 83.7413 51.0812 85.75 51.0812C87.7193 51.0812 89.1766 52.5516 89.1766 54.5865C89.1766 56.6346 87.7193 58.105 85.75 58.105ZM85.75 56.8578C86.9053 56.8578 87.7062 55.9125 87.7062 54.5865C87.7062 53.2606 86.8922 52.3284 85.75 52.3284C84.5553 52.3284 83.7807 53.2737 83.7807 54.5865C83.7807 55.9125 84.5553 56.8578 85.75 56.8578ZM93.0368 58.105C91.3301 58.105 90.1879 57.0941 90.1223 55.6894H91.527C91.5664 56.2801 92.1441 56.8709 93.0368 56.8709C93.7852 56.8709 94.2972 56.5165 94.2972 56.0438C94.2972 55.5843 93.969 55.3611 93.4569 55.243L92.3279 54.9804C91.3301 54.7572 90.4242 54.2715 90.4242 52.998C90.4242 51.9346 91.3957 51.0812 92.9055 51.0812C94.3497 51.0812 95.4525 51.882 95.6232 53.1949H94.2184C94.1396 52.591 93.5488 52.2496 92.9055 52.2496C92.2885 52.2496 91.8552 52.5385 91.8552 52.998C91.8552 53.3656 92.1703 53.6019 92.6561 53.7201L93.7852 53.9695C94.8748 54.2058 95.7545 54.6391 95.7545 56.0044C95.7545 57.186 94.6779 58.105 93.0368 58.105ZM97.1785 58V51.1862H98.6095V58H97.1785ZM97.1129 48.4292H98.7014V50.044H97.1129V48.4292ZM104.039 51.1862V52.3941H102.385V55.8206C102.385 56.5033 102.778 56.8578 103.356 56.8578C103.645 56.8578 103.934 56.779 104.039 56.7528V58C103.921 58.0394 103.579 58.105 103.212 58.105C101.873 58.105 100.954 57.4092 100.954 55.9388V52.3941H99.7457V51.1862H100.954V49.1513H102.385V51.1862H104.039ZM105.358 58V51.1862H106.789V58H105.358ZM105.292 48.4292H106.881V50.044H105.292V48.4292ZM108.608 58V51.1862H110.039V52.3415C110.511 51.567 111.325 51.0812 112.297 51.0812C113.741 51.0812 114.752 52.0396 114.752 53.51V58H113.321V53.8251C113.321 52.9717 112.783 52.3678 111.916 52.3678C110.748 52.3678 110.039 53.3656 110.039 55.0067V58H108.608ZM119.545 60.5601C117.68 60.5601 116.486 59.733 116.289 58.1838H117.733C117.838 58.9321 118.481 59.3785 119.545 59.3785C120.674 59.3785 121.343 58.7746 121.343 57.7112V56.8184C121.015 57.3173 120.24 57.6718 119.334 57.6718C117.339 57.6718 116.131 56.3064 116.131 54.3896C116.131 52.4466 117.339 51.0812 119.295 51.0812C120.162 51.0812 120.949 51.4619 121.343 52.0133V51.1862H122.774V57.5668C122.774 59.4442 121.553 60.5601 119.545 60.5601ZM119.518 56.4377C120.687 56.4377 121.435 55.6237 121.435 54.3896C121.435 53.1555 120.687 52.3284 119.518 52.3284C118.35 52.3284 117.601 53.1424 117.601 54.3896C117.601 55.6237 118.35 56.4377 119.518 56.4377ZM129.532 58.105C128.153 58.105 127.182 57.3042 127.182 56.1489C127.182 54.9673 128.035 54.2321 129.519 54.0351L130.976 53.8382C131.37 53.7857 131.567 53.6019 131.567 53.2737C131.567 52.6829 131.029 52.2234 130.136 52.2234C129.309 52.2234 128.705 52.6435 128.639 53.405H127.234C127.392 51.9871 128.482 51.0812 130.136 51.0812C131.882 51.0812 132.998 52.079 132.998 53.6019V56.3064C132.998 56.7003 133.169 56.8447 133.444 56.8447C133.536 56.8447 133.667 56.8184 133.667 56.8184V58C133.667 58 133.326 58.0788 132.998 58.0788C132.289 58.0788 131.79 57.7374 131.738 57.0022C131.409 57.6849 130.556 58.105 129.532 58.105ZM129.755 56.9891C130.924 56.9891 131.606 56.1751 131.606 55.0067V54.7572L129.755 55.0592C128.994 55.1773 128.613 55.5187 128.613 56.0963C128.613 56.6215 129.072 56.9891 129.755 56.9891ZM138.359 51.1862V52.3941H136.705V55.8206C136.705 56.5033 137.099 56.8578 137.676 56.8578C137.965 56.8578 138.254 56.779 138.359 56.7528V58C138.241 58.0394 137.899 58.105 137.532 58.105C136.193 58.105 135.274 57.4092 135.274 55.9388V52.3941H134.066V51.1862H135.274V49.1513H136.705V51.1862H138.359ZM150.99 56.2408C150.99 56.2408 151.134 55.453 151.397 54.4159L152.972 48.5342H154.521L151.804 58H150.084L148.535 52.3547C148.259 51.3044 148.128 50.5298 148.128 50.5298C148.128 50.5298 147.97 51.3044 147.681 52.3547L146.106 58H144.412L141.682 48.5342H143.283L144.872 54.429C145.134 55.4662 145.266 56.2539 145.266 56.2539C145.266 56.2539 145.41 55.4662 145.673 54.429L147.261 48.5342H149.034L150.596 54.4159C150.845 55.453 150.99 56.2408 150.99 56.2408ZM157.006 58.105C155.628 58.105 154.656 57.3042 154.656 56.1489C154.656 54.9673 155.51 54.2321 156.993 54.0351L158.45 53.8382C158.844 53.7857 159.041 53.6019 159.041 53.2737C159.041 52.6829 158.503 52.2234 157.61 52.2234C156.783 52.2234 156.179 52.6435 156.114 53.405H154.709C154.866 51.9871 155.956 51.0812 157.61 51.0812C159.356 51.0812 160.472 52.079 160.472 53.6019V56.3064C160.472 56.7003 160.643 56.8447 160.919 56.8447C161.011 56.8447 161.142 56.8184 161.142 56.8184V58C161.142 58 160.8 58.0788 160.472 58.0788C159.763 58.0788 159.264 57.7374 159.212 57.0022C158.884 57.6849 158.03 58.105 157.006 58.105ZM157.229 56.9891C158.398 56.9891 159.081 56.1751 159.081 55.0067V54.7572L157.229 55.0592C156.468 55.1773 156.087 55.5187 156.087 56.0963C156.087 56.6215 156.547 56.9891 157.229 56.9891ZM162.351 58V48.4292H163.782V58H162.351ZM168.647 60.5601C166.783 60.5601 165.588 59.733 165.391 58.1838H166.835C166.94 58.9321 167.583 59.3785 168.647 59.3785C169.776 59.3785 170.445 58.7746 170.445 57.7112V56.8184C170.117 57.3173 169.343 57.6718 168.437 57.6718C166.441 57.6718 165.233 56.3064 165.233 54.3896C165.233 52.4466 166.441 51.0812 168.397 51.0812C169.264 51.0812 170.052 51.4619 170.445 52.0133V51.1862H171.876V57.5668C171.876 59.4442 170.655 60.5601 168.647 60.5601ZM168.621 56.4377C169.789 56.4377 170.537 55.6237 170.537 54.3896C170.537 53.1555 169.789 52.3284 168.621 52.3284C167.452 52.3284 166.704 53.1424 166.704 54.3896C166.704 55.6237 167.452 56.4377 168.621 56.4377ZM177.702 52.486C177.597 52.4597 177.348 52.4072 177.019 52.4072C176.022 52.4072 175.102 53.3262 175.102 55.453V58H173.671V51.1862H175.102V52.486C175.418 51.672 176.337 51.0812 177.203 51.0812C177.492 51.0812 177.636 51.1206 177.702 51.1206V52.486ZM178.143 54.5865C178.143 52.7485 179.285 51.0812 181.439 51.0812C183.552 51.0812 184.668 52.6566 184.655 54.3502C184.655 54.6128 184.629 54.9279 184.629 54.9279H179.561C179.692 56.1751 180.441 56.8841 181.544 56.8841C182.384 56.8841 183.053 56.4902 183.211 55.7944H184.616C184.379 57.2779 183.132 58.105 181.504 58.105C179.351 58.105 178.143 56.4377 178.143 54.5865ZM179.627 53.7988H183.119C183.053 52.8798 182.463 52.2103 181.439 52.2103C180.48 52.2103 179.837 52.801 179.627 53.7988ZM185.727 54.5865C185.727 52.7485 186.869 51.0812 189.022 51.0812C191.136 51.0812 192.252 52.6566 192.238 54.3502C192.238 54.6128 192.212 54.9279 192.212 54.9279H187.144C187.276 56.1751 188.024 56.8841 189.127 56.8841C189.967 56.8841 190.637 56.4902 190.794 55.7944H192.199C191.963 57.2779 190.715 58.105 189.088 58.105C186.934 58.105 185.727 56.4377 185.727 54.5865ZM187.21 53.7988H190.702C190.637 52.8798 190.046 52.2103 189.022 52.2103C188.063 52.2103 187.42 52.801 187.21 53.7988ZM193.691 58V51.1862H195.122V52.3415C195.594 51.567 196.408 51.0812 197.38 51.0812C198.824 51.0812 199.835 52.0396 199.835 53.51V58H198.404V53.8251C198.404 52.9717 197.866 52.3678 196.999 52.3678C195.831 52.3678 195.122 53.3656 195.122 55.0067V58H193.691ZM204.01 58.105C202.304 58.105 201.162 57.0941 201.096 55.6894H202.501C202.54 56.2801 203.118 56.8709 204.01 56.8709C204.759 56.8709 205.271 56.5165 205.271 56.0438C205.271 55.5843 204.943 55.3611 204.431 55.243L203.302 54.9804C202.304 54.7572 201.398 54.2715 201.398 52.998C201.398 51.9346 202.369 51.0812 203.879 51.0812C205.323 51.0812 206.426 51.882 206.597 53.1949H205.192C205.113 52.591 204.523 52.2496 203.879 52.2496C203.262 52.2496 202.829 52.5385 202.829 52.998C202.829 53.3656 203.144 53.6019 203.63 53.7201L204.759 53.9695C205.849 54.2058 206.728 54.6391 206.728 56.0044C206.728 57.186 205.652 58.105 204.01 58.105ZM211.146 58V51.1862H212.577V58H211.146ZM211.08 48.4292H212.669V50.044H211.08V48.4292ZM216.824 58.105C215.118 58.105 213.975 57.0941 213.91 55.6894H215.314C215.354 56.2801 215.932 56.8709 216.824 56.8709C217.573 56.8709 218.085 56.5165 218.085 56.0438C218.085 55.5843 217.756 55.3611 217.244 55.243L216.115 54.9804C215.118 54.7572 214.212 54.2715 214.212 52.998C214.212 51.9346 215.183 51.0812 216.693 51.0812C218.137 51.0812 219.24 51.882 219.411 53.1949H218.006C217.927 52.591 217.336 52.2496 216.693 52.2496C216.076 52.2496 215.643 52.5385 215.643 52.998C215.643 53.3656 215.958 53.6019 216.444 53.7201L217.573 53.9695C218.662 54.2058 219.542 54.6391 219.542 56.0044C219.542 57.186 218.465 58.105 216.824 58.105ZM224.435 58V52.3941H223.227V51.1862H224.435V50.5035C224.435 49.0462 225.38 48.3373 226.654 48.3373C226.942 48.3373 227.244 48.3636 227.52 48.4292V49.6764C227.323 49.6239 227.061 49.5845 226.798 49.5845C226.299 49.5845 225.853 49.9259 225.853 50.6217V51.1862H227.52V52.3941H225.853V58H224.435ZM228.034 54.5865C228.034 52.7485 229.176 51.0812 231.329 51.0812C233.443 51.0812 234.559 52.6566 234.546 54.3502C234.546 54.6128 234.519 54.9279 234.519 54.9279H229.452C229.583 56.1751 230.331 56.8841 231.434 56.8841C232.274 56.8841 232.944 56.4902 233.101 55.7944H234.506C234.27 57.2779 233.023 58.105 231.395 58.105C229.242 58.105 228.034 56.4377 228.034 54.5865ZM229.517 53.7988H233.009C232.944 52.8798 232.353 52.2103 231.329 52.2103C230.371 52.2103 229.727 52.801 229.517 53.7988ZM235.617 54.5865C235.617 52.7485 236.759 51.0812 238.912 51.0812C241.026 51.0812 242.142 52.6566 242.129 54.3502C242.129 54.6128 242.103 54.9279 242.103 54.9279H237.035C237.166 56.1751 237.915 56.8841 239.017 56.8841C239.858 56.8841 240.527 56.4902 240.685 55.7944H242.089C241.853 57.2779 240.606 58.105 238.978 58.105C236.825 58.105 235.617 56.4377 235.617 54.5865ZM237.101 53.7988H240.593C240.527 52.8798 239.936 52.2103 238.912 52.2103C237.954 52.2103 237.311 52.801 237.101 53.7988ZM243.345 54.7178V53.4706H247.52V54.7178H243.345ZM249.537 58V52.3941H248.329V51.1862H249.537V50.5035C249.537 49.0462 250.482 48.3373 251.756 48.3373C252.045 48.3373 252.347 48.3636 252.622 48.4292V49.6764C252.426 49.6239 252.163 49.5845 251.9 49.5845C251.401 49.5845 250.955 49.9259 250.955 50.6217V51.1862H252.622V52.3941H250.955V58H249.537ZM257.752 52.486C257.647 52.4597 257.398 52.4072 257.07 52.4072C256.072 52.4072 255.153 53.3262 255.153 55.453V58H253.722V51.1862H255.153V52.486C255.468 51.672 256.387 51.0812 257.254 51.0812C257.542 51.0812 257.687 51.1206 257.752 51.1206V52.486ZM258.194 54.5865C258.194 52.7485 259.336 51.0812 261.489 51.0812C263.603 51.0812 264.719 52.6566 264.706 54.3502C264.706 54.6128 264.679 54.9279 264.679 54.9279H259.612C259.743 56.1751 260.491 56.8841 261.594 56.8841C262.434 56.8841 263.104 56.4902 263.261 55.7944H264.666C264.43 57.2779 263.183 58.105 261.555 58.105C259.402 58.105 258.194 56.4377 258.194 54.5865ZM259.677 53.7988H263.17C263.104 52.8798 262.513 52.2103 261.489 52.2103C260.531 52.2103 259.887 52.801 259.677 53.7988ZM265.777 54.5865C265.777 52.7485 266.919 51.0812 269.072 51.0812C271.186 51.0812 272.302 52.6566 272.289 54.3502C272.289 54.6128 272.263 54.9279 272.263 54.9279H267.195C267.326 56.1751 268.075 56.8841 269.177 56.8841C270.018 56.8841 270.687 56.4902 270.845 55.7944H272.25C272.013 57.2779 270.766 58.105 269.138 58.105C266.985 58.105 265.777 56.4377 265.777 54.5865ZM267.261 53.7988H270.753C270.687 52.8798 270.096 52.2103 269.072 52.2103C268.114 52.2103 267.471 52.801 267.261 53.7988ZM273.597 56.3852H275.251V58H273.597V56.3852Z" fill="#1D3F2B"/>
<rect x="16" y="23" width="30" height="30" rx="5.83496" fill="#1EC677"/>
<path fill-rule="evenodd" clip-rule="evenodd" d="M31.2649 46.0391C26.3985 46.0391 23 42.7493 23 38.0391C23 35.6643 23.8165 33.6319 25.3615 32.1623C26.8005 30.793 28.7606 30.0391 30.881 30.0391C31.9423 30.0391 32.8483 30.227 33.7255 30.4088C34.5629 30.5826 35.3539 30.7466 36.2342 30.7466C36.4957 30.7466 36.7467 30.7324 37 30.7034V34.2523C36.6913 34.2973 36.3925 34.3193 36.0867 34.3193C35.1081 34.3193 34.2943 34.0843 33.507 33.8567C32.7455 33.6378 32.0264 33.4307 31.2011 33.4307C28.6546 33.4307 26.8761 35.2599 26.8761 37.8789C26.8761 40.6305 28.826 42.552 31.6176 42.552C33.3631 42.552 35.322 41.792 37 40.4651V44.1697C35.8672 45.0243 33.9554 46.0391 31.2649 46.0391Z" fill="white"/>
</svg>
